<svg width="32" height="32" viewBox="0 0 32 32" fill="none" xmlns="http://www.w3.org/2000/svg">
<path d="M29.75 10.7972V24.3793C29.75 26.4504 28.0711 28.1293 26 28.1293H6C3.92893 28.1293 2.25 26.4504 2.25 24.3793V10.7972C2.25 9.16794 3.57076 7.84718 5.2 7.84718H9.10023C9.95615 7.84718 10.65 7.15333 10.65 6.29741C10.65 5.16666 11.5667 4.25 12.6974 4.25H16H19.3026C20.4333 4.25 21.35 5.16666 21.35 6.29741C21.35 7.15333 22.0439 7.84718 22.8998 7.84718H26.8C28.4292 7.84718 29.75 9.16794 29.75 10.7972Z" fill="#7A7A7A" stroke="#7A7A7A" stroke-width="2.5"/>
<rect x="8.99219" y="11.1323" width="13.8491" height="13.8491" rx="6.92457" fill="#1A1A1A"/>
</svg>
