<svg width="36" height="36" viewBox="0 0 36 36" fill="none" xmlns="http://www.w3.org/2000/svg">
<g filter="url(#filter0_i)">
<rect x="1" y="1" width="33" height="33" rx="16.5" fill="#7A7A7A"/>
</g>
<path d="M19.457 21.4766C19.457 20.8594 19.3047 20.375 19 20.0234C18.6953 19.6719 18.1602 19.3398 17.3945 19.0273C16.6289 18.7148 15.9219 18.3984 15.2734 18.0781C14.625 17.7578 14.0664 17.3867 13.5977 16.9648C13.1289 16.543 12.7695 16.0547 12.5195 15.5C12.2695 14.9453 12.1445 14.2734 12.1445 13.4844C12.1445 12.1641 12.5898 11.0781 13.4805 10.2266C14.3711 9.36719 15.5586 8.86719 17.043 8.72656V6.25391H18.9062V8.77344C20.3359 8.98438 21.457 9.57422 22.2695 10.543C23.0898 11.5039 23.5 12.7266 23.5 14.2109H19.5391C19.5391 13.3984 19.3828 12.7734 19.0703 12.3359C18.7578 11.8984 18.3125 11.6797 17.7344 11.6797C17.2188 11.6797 16.8164 11.8438 16.5273 12.1719C16.2461 12.4922 16.1055 12.9375 16.1055 13.5078C16.1055 14.0859 16.2695 14.5469 16.5977 14.8906C16.9258 15.2266 17.4531 15.5508 18.1797 15.8633C18.9062 16.168 19.5898 16.4883 20.2305 16.8242C20.8789 17.1523 21.4375 17.5273 21.9062 17.9492C22.375 18.3711 22.7422 18.8633 23.0078 19.4258C23.2734 19.9883 23.4062 20.6641 23.4062 21.4531C23.4062 22.7891 22.9805 23.8789 22.1289 24.7227C21.2852 25.5664 20.1328 26.0586 18.6719 26.1992V28.5547H16.8086V26.1875C15.1055 26.0078 13.7969 25.4258 12.8828 24.4414C11.9766 23.4492 11.5234 22.1445 11.5234 20.5273H15.4727C15.4727 21.418 15.668 22.0977 16.0586 22.5664C16.457 23.0273 17.0195 23.2578 17.7461 23.2578C18.2773 23.2578 18.6953 23.1016 19 22.7891C19.3047 22.4688 19.457 22.0312 19.457 21.4766Z" fill="#166B97"/>
<defs>
<filter id="filter0_i" x="1" y="1" width="33" height="33" filterUnits="userSpaceOnUse" color-interpolation-filters="sRGB">
<feFlood flood-opacity="0" result="BackgroundImageFix"/>
<feBlend mode="normal" in="SourceGraphic" in2="BackgroundImageFix" result="shape"/>
<feColorMatrix in="SourceAlpha" type="matrix" values="0 0 0 0 0 0 0 0 0 0 0 0 0 0 0 0 0 0 127 0" result="hardAlpha"/>
<feOffset/>
<feGaussianBlur stdDeviation="6.5"/>
<feComposite in2="hardAlpha" operator="arithmetic" k2="-1" k3="1"/>
<feColorMatrix type="matrix" values="0 0 0 0 0 0 0 0 0 0 0 0 0 0 0 0 0 0 0.13 0"/>
<feBlend mode="normal" in2="shape" result="effect1_innerShadow"/>
</filter>
</defs>
</svg>
