<svg width="64" height="64" viewBox="0 0 64 64" fill="none" xmlns="http://www.w3.org/2000/svg">
<rect x="34" y="26" width="15" height="25" rx="1.5" fill="#696969"/>
<rect x="14" y="26" width="16" height="25" rx="1.5" fill="#696969"/>
<rect x="26.8457" y="19.894" width="9.58383" height="23.7288" rx="1.5" fill="#696969"/>
<path d="M30.3046 9.19354C31.0639 8.51403 32.2127 8.51402 32.972 9.19354L54.2715 28.2543C55.6395 29.4785 54.7736 31.7447 52.9378 31.7447H10.3388C8.50304 31.7447 7.6371 29.4785 9.00507 28.2543L30.3046 9.19354Z" fill="#696969"/>
<path d="M22 37C22 35.3431 23.3431 34 25 34H38C39.6569 34 41 35.3431 41 37V53C41 54.6569 39.6569 56 38 56H31.5H25C23.3431 56 22 54.6569 22 53V37Z" fill="#0A0A0A"/>
<circle cx="31.6384" cy="24.3405" r="6.12766" fill="#0A0A0A"/>
</svg>
