<svg width="32" height="32" viewBox="0 0 32 32" fill="none" xmlns="http://www.w3.org/2000/svg">
<path d="M22 4H10C6.68629 4 4 6.68629 4 10V22C4 25.3137 6.68629 28 10 28H22C25.3137 28 28 25.3137 28 22V10C28 6.68629 25.3137 4 22 4Z" stroke="#7A7A7A" stroke-width="2" stroke-linecap="round" stroke-linejoin="round"/>
<path d="M20.8 15.2444C20.9481 16.2431 20.7775 17.263 20.3125 18.1592C19.8475 19.0553 19.1118 19.7821 18.21 20.236C17.3082 20.6899 16.2862 20.8479 15.2894 20.6875C14.2926 20.5271 13.3718 20.0565 12.6578 19.3426C11.9439 18.6286 11.4733 17.7078 11.3129 16.711C11.1525 15.7142 11.3105 14.6922 11.7644 13.7904C12.2183 12.8886 12.9451 12.1529 13.8412 11.6879C14.7374 11.2229 15.7573 11.0523 16.756 11.2004C17.7747 11.3514 18.7179 11.8261 19.4461 12.5543C20.1743 13.2825 20.649 14.2257 20.8 15.2444Z" stroke="#7A7A7A" stroke-width="2" stroke-linecap="round" stroke-linejoin="round"/>
<path d="M22.5996 9.40039H22.6116" stroke="#7A7A7A" stroke-width="2" stroke-linecap="round" stroke-linejoin="round"/>
</svg>
