<svg width="64" height="64" viewBox="0 0 64 64" fill="none" xmlns="http://www.w3.org/2000/svg">
<path d="M32.3935 33.7326C32.156 33.894 31.844 33.894 31.6065 33.7326L18.3065 24.6929C18.1148 24.5626 18 24.3458 18 24.114L18 11.7002C18 11.3136 18.3134 11.0002 18.7 11.0002L45.3 11C45.6866 11 46 11.3134 46 11.7V24.114C46 24.3458 45.8852 24.5626 45.6935 24.6929L32.3935 33.7326Z" fill="#696969"/>
<rect x="30.416" y="14.25" width="3.11112" height="12.4445" rx="1.55556" fill="#0A0A0A"/>
<rect x="25.75" y="22.0278" width="3.11112" height="12.4445" rx="1.55556" transform="rotate(-90 25.75 22.0278)" fill="#0A0A0A"/>
<path d="M18.4026 53C16.4418 53 15.652 50.4717 17.2641 49.3556L49.3063 27.1727C50.6328 26.2543 52.4448 27.2037 52.4448 28.817V51C52.4448 52.1046 51.5493 53 50.4448 53H18.4026Z" fill="#696969"/>
<path d="M46.0428 53C48.0035 53 48.7933 50.4717 47.1812 49.3556L15.1392 27.1727C13.8127 26.2543 12.0007 27.2037 12.0007 28.8171V51C12.0007 52.1046 12.8962 53 14.0007 53H46.0428Z" fill="#696969"/>
<path d="M36.3521 40.2957C35.1842 41.1491 33.7807 41.6199 32.3345 41.6432C30.8882 41.6665 29.4702 41.2412 28.2755 40.4258L30.2051 37.5987C30.8156 38.0154 31.5402 38.2328 32.2793 38.2209C33.0184 38.2089 33.7357 37.9684 34.3325 37.5322L36.3521 40.2957Z" fill="#696969"/>
</svg>
