<svg width="32" height="32" viewBox="0 0 32 32" fill="none" xmlns="http://www.w3.org/2000/svg">
<path d="M4 6.43478C4 5.64237 4.64237 5 5.43478 5H26.5652C27.3576 5 28 5.64237 28 6.43478V6.43478C28 7.22719 27.3576 7.86957 26.5652 7.86957H5.43478C4.64237 7.86957 4 7.22719 4 6.43478V6.43478Z" fill="#7A7A7A"/>
<path d="M4 16.0002C4 15.2078 4.64237 14.5654 5.43478 14.5654H26.5652C27.3576 14.5654 28 15.2078 28 16.0002V16.0002C28 16.7926 27.3576 17.435 26.5652 17.435H5.43478C4.64237 17.435 4 16.7926 4 16.0002V16.0002Z" fill="#7A7A7A"/>
<path d="M4 25.5652C4 24.7727 4.64237 24.1304 5.43478 24.1304H26.5652C27.3576 24.1304 28 24.7727 28 25.5652V25.5652C28 26.3576 27.3576 26.9999 26.5652 26.9999H5.43478C4.64237 26.9999 4 26.3576 4 25.5652V25.5652Z" fill="#7A7A7A"/>
</svg>
