<svg width="32" height="32" viewBox="0 0 32 32" fill="none" xmlns="http://www.w3.org/2000/svg">
<path fill-rule="evenodd" clip-rule="evenodd" d="M10.7835 26.6451C12.6337 29.0763 15.9959 29.0763 15.9959 29.0763V3C8.80882 3 8.22352 7.6775 8.22352 7.6775V12.1925C8.22352 12.9992 6.5822 12.9208 6.5822 12.9208C4.3975 12.9208 4.55995 14.6629 4.55995 14.6629C4.55995 16.8476 8.03866 16.6852 8.03866 16.6852C6.86229 20.8137 3.26034 21.6259 3.26034 21.6259C1.99144 22.0461 2.01674 22.9592 2.01674 22.9592C1.71135 25.6872 5.68591 25.4296 5.68591 25.4296C9.55386 25.1271 10.7835 26.6451 10.7835 26.6451ZM21.2162 26.6451C19.366 29.0763 16.0038 29.0763 16.0038 29.0763V3C23.1909 3 23.7762 7.6775 23.7762 7.6775V12.1925C23.7762 12.9992 25.4175 12.9208 25.4175 12.9208C27.6022 12.9208 27.4398 14.6629 27.4398 14.6629C27.4398 16.8476 23.961 16.6852 23.961 16.6852C25.1374 20.8137 28.7394 21.6259 28.7394 21.6259C30.0083 22.0461 29.983 22.9592 29.983 22.9592C30.2884 25.6872 26.3138 25.4296 26.3138 25.4296C22.4459 25.1271 21.2162 26.6451 21.2162 26.6451Z" fill="#7A7A7A"/>
</svg>
