<svg width="32" height="32" viewBox="0 0 32 32" fill="none" xmlns="http://www.w3.org/2000/svg">
<path d="M14.151 4.77467C14.6982 3.64917 16.3018 3.64916 16.849 4.77467L19.6345 10.5038C19.851 10.9492 20.2734 11.259 20.7633 11.3317L27.0319 12.262C28.2547 12.4434 28.7454 13.9431 27.8664 14.8123L23.3042 19.3237C22.9568 19.6673 22.7984 20.1584 22.8798 20.6402L23.9522 26.9884C24.1598 28.2169 22.8658 29.1483 21.7667 28.5615L16.2065 25.5928C15.765 25.357 15.235 25.357 14.7935 25.5928L9.23329 28.5615C8.13419 29.1483 6.84022 28.2169 7.04776 26.9884L8.12018 20.6402C8.20156 20.1584 8.04324 19.6673 7.69585 19.3237L3.13362 14.8123C2.25463 13.9431 2.74535 12.4434 3.96815 12.262L10.2367 11.3317C10.7266 11.259 11.149 10.9492 11.3655 10.5038L14.151 4.77467Z" stroke="#7A7A7A" stroke-linecap="round" stroke-linejoin="round"/>
</svg>
