<svg width="24" height="33" viewBox="0 0 24 33" fill="none" xmlns="http://www.w3.org/2000/svg">
<circle cx="12" cy="6" r="5" stroke="black" stroke-width="1.7"/>
<path d="M22.1627 20.5558C22.5126 21.247 22.755 21.9696 22.8858 22.7067C23.0113 23.4136 22.418 24 21.7 24H12L2.3 24C1.58203 24 0.988703 23.4136 1.11417 22.7067C1.24498 21.9696 1.4874 21.247 1.83732 20.5558C2.39013 19.4639 3.20038 18.4718 4.22182 17.636C5.24327 16.8003 6.4559 16.1374 7.79048 15.6851C9.12506 15.2328 10.5555 15 12 15C13.4445 15 14.8749 15.2328 16.2095 15.6851C17.5441 16.1374 18.7567 16.8003 19.7782 17.636C20.7996 18.4718 21.6099 19.4639 22.1627 20.5558Z" stroke="black" stroke-width="1.7"/>
</svg>
