<svg width="113" height="54" viewBox="0 0 113 54" fill="none" xmlns="http://www.w3.org/2000/svg">
<g filter="url(#filter0_d)">
<path d="M13 26C13 18.8203 18.8203 13 26 13H87C94.1797 13 100 18.8203 100 26V28C100 35.1797 94.1797 41 87 41H26C18.8203 41 13 35.1797 13 28V26Z" fill="white"/>
</g>
<path d="M23.2178 21.504H24.5258L28.1858 30H26.4578L25.6658 28.056H21.9818L21.2138 30H19.5218L23.2178 21.504ZM25.1378 26.76L23.8298 23.304L22.4978 26.76H25.1378ZM35.2905 30H33.9225V29.136H33.8985C33.6985 29.472 33.4185 29.728 33.0585 29.904C32.7065 30.08 32.3265 30.168 31.9185 30.168C31.4785 30.168 31.0825 30.088 30.7305 29.928C30.3865 29.76 30.0905 29.54 29.8425 29.268C29.6025 28.988 29.4145 28.664 29.2785 28.296C29.1505 27.92 29.0865 27.52 29.0865 27.096C29.0865 26.672 29.1545 26.276 29.2905 25.908C29.4265 25.54 29.6185 25.22 29.8665 24.948C30.1145 24.676 30.4105 24.464 30.7545 24.312C31.0985 24.152 31.4745 24.072 31.8825 24.072C32.1465 24.072 32.3825 24.104 32.5905 24.168C32.7985 24.224 32.9785 24.296 33.1305 24.384C33.2905 24.472 33.4265 24.568 33.5385 24.672C33.6505 24.776 33.7425 24.876 33.8145 24.972H33.8505V20.928H35.2905V30ZM30.5505 27.096C30.5505 27.32 30.5825 27.544 30.6465 27.768C30.7185 27.992 30.8225 28.192 30.9585 28.368C31.0945 28.544 31.2665 28.688 31.4745 28.8C31.6825 28.912 31.9265 28.968 32.2065 28.968C32.4705 28.968 32.7065 28.916 32.9145 28.812C33.1225 28.7 33.2985 28.556 33.4425 28.38C33.5945 28.204 33.7065 28.008 33.7785 27.792C33.8585 27.568 33.8985 27.344 33.8985 27.12C33.8985 26.896 33.8585 26.672 33.7785 26.448C33.7065 26.224 33.5945 26.024 33.4425 25.848C33.2985 25.672 33.1225 25.528 32.9145 25.416C32.7065 25.304 32.4705 25.248 32.2065 25.248C31.9265 25.248 31.6825 25.304 31.4745 25.416C31.2665 25.52 31.0945 25.66 30.9585 25.836C30.8225 26.012 30.7185 26.212 30.6465 26.436C30.5825 26.652 30.5505 26.872 30.5505 27.096ZM43.3759 30H42.0079V29.136H41.9839C41.7839 29.472 41.5039 29.728 41.1439 29.904C40.7919 30.08 40.4119 30.168 40.0039 30.168C39.5639 30.168 39.1679 30.088 38.8159 29.928C38.4719 29.76 38.1759 29.54 37.9279 29.268C37.6879 28.988 37.4999 28.664 37.3639 28.296C37.2359 27.92 37.1719 27.52 37.1719 27.096C37.1719 26.672 37.2399 26.276 37.3759 25.908C37.5119 25.54 37.7039 25.22 37.9519 24.948C38.1999 24.676 38.4959 24.464 38.8399 24.312C39.1839 24.152 39.5599 24.072 39.9679 24.072C40.2319 24.072 40.4679 24.104 40.6759 24.168C40.8839 24.224 41.0639 24.296 41.2159 24.384C41.3759 24.472 41.5119 24.568 41.6239 24.672C41.7359 24.776 41.8279 24.876 41.8999 24.972H41.9359V20.928H43.3759V30ZM38.6359 27.096C38.6359 27.32 38.6679 27.544 38.7319 27.768C38.8039 27.992 38.9079 28.192 39.0439 28.368C39.1799 28.544 39.3519 28.688 39.5599 28.8C39.7679 28.912 40.0119 28.968 40.2919 28.968C40.5559 28.968 40.7919 28.916 40.9999 28.812C41.2079 28.7 41.3839 28.556 41.5279 28.38C41.6799 28.204 41.7919 28.008 41.8639 27.792C41.9439 27.568 41.9839 27.344 41.9839 27.12C41.9839 26.896 41.9439 26.672 41.8639 26.448C41.7919 26.224 41.6799 26.024 41.5279 25.848C41.3839 25.672 41.2079 25.528 40.9999 25.416C40.7919 25.304 40.5559 25.248 40.2919 25.248C40.0119 25.248 39.7679 25.304 39.5599 25.416C39.3519 25.52 39.1799 25.66 39.0439 25.836C38.9079 26.012 38.8039 26.212 38.7319 26.436C38.6679 26.652 38.6359 26.872 38.6359 27.096ZM49.1574 21.504H50.6694V30H49.1574V21.504ZM52.9521 24.24H54.3201V25.164H54.3441C54.4721 24.876 54.6921 24.624 55.0041 24.408C55.3241 24.184 55.7001 24.072 56.1321 24.072C56.5081 24.072 56.8281 24.14 57.0921 24.276C57.3641 24.404 57.5841 24.576 57.7521 24.792C57.9281 25.008 58.0561 25.256 58.1361 25.536C58.2161 25.816 58.2561 26.104 58.2561 26.4V30H56.8161V26.808C56.8161 26.64 56.8041 26.464 56.7801 26.28C56.7561 26.096 56.7041 25.932 56.6241 25.788C56.5441 25.636 56.4321 25.512 56.2881 25.416C56.1521 25.32 55.9681 25.272 55.7361 25.272C55.5041 25.272 55.3041 25.32 55.1361 25.416C54.9681 25.504 54.8281 25.62 54.7161 25.764C54.6121 25.908 54.5321 26.076 54.4761 26.268C54.4201 26.452 54.3921 26.64 54.3921 26.832V30H52.9521V24.24ZM59.5885 25.392V24.24H60.5965V22.572H62.0125V24.24H63.4525V25.392H62.0125V28.068C62.0125 28.324 62.0565 28.536 62.1445 28.704C62.2405 28.872 62.4485 28.956 62.7685 28.956C62.8645 28.956 62.9685 28.948 63.0805 28.932C63.1925 28.908 63.2925 28.876 63.3805 28.836L63.4285 29.964C63.3005 30.012 63.1485 30.048 62.9725 30.072C62.7965 30.104 62.6285 30.12 62.4685 30.12C62.0845 30.12 61.7725 30.068 61.5325 29.964C61.2925 29.852 61.1005 29.704 60.9565 29.52C60.8205 29.328 60.7245 29.112 60.6685 28.872C60.6205 28.624 60.5965 28.36 60.5965 28.08V25.392H59.5885ZM69.0306 26.544C69.0306 26.36 69.0026 26.184 68.9466 26.016C68.8986 25.848 68.8186 25.7 68.7066 25.572C68.5946 25.444 68.4506 25.344 68.2746 25.272C68.1066 25.192 67.9066 25.152 67.6746 25.152C67.2426 25.152 66.8746 25.284 66.5706 25.548C66.2746 25.804 66.1106 26.136 66.0786 26.544H69.0306ZM70.4706 27.192C70.4706 27.256 70.4706 27.32 70.4706 27.384C70.4706 27.448 70.4666 27.512 70.4586 27.576H66.0786C66.0946 27.784 66.1466 27.976 66.2346 28.152C66.3306 28.32 66.4546 28.468 66.6066 28.596C66.7586 28.716 66.9306 28.812 67.1226 28.884C67.3146 28.956 67.5146 28.992 67.7226 28.992C68.0826 28.992 68.3866 28.928 68.6346 28.8C68.8826 28.664 69.0866 28.48 69.2466 28.248L70.2066 29.016C69.6386 29.784 68.8146 30.168 67.7346 30.168C67.2866 30.168 66.8746 30.1 66.4986 29.964C66.1226 29.82 65.7946 29.62 65.5146 29.364C65.2426 29.108 65.0266 28.796 64.8666 28.428C64.7146 28.052 64.6386 27.628 64.6386 27.156C64.6386 26.692 64.7146 26.272 64.8666 25.896C65.0266 25.512 65.2426 25.188 65.5146 24.924C65.7866 24.652 66.1066 24.444 66.4746 24.3C66.8506 24.148 67.2546 24.072 67.6866 24.072C68.0866 24.072 68.4546 24.14 68.7906 24.276C69.1346 24.404 69.4306 24.6 69.6786 24.864C69.9266 25.12 70.1186 25.444 70.2546 25.836C70.3986 26.22 70.4706 26.672 70.4706 27.192ZM72.3453 24.24H73.7253V25.2H73.7493C73.9093 24.864 74.1333 24.592 74.4213 24.384C74.7093 24.176 75.0453 24.072 75.4293 24.072C75.4853 24.072 75.5453 24.076 75.6093 24.084C75.6733 24.084 75.7293 24.092 75.7773 24.108V25.428C75.6813 25.404 75.5973 25.388 75.5253 25.38C75.4613 25.372 75.3973 25.368 75.3333 25.368C75.0053 25.368 74.7413 25.428 74.5413 25.548C74.3413 25.668 74.1853 25.812 74.0733 25.98C73.9613 26.148 73.8853 26.32 73.8453 26.496C73.8053 26.672 73.7853 26.812 73.7853 26.916V30H72.3453V24.24ZM81.0414 26.544C81.0414 26.36 81.0134 26.184 80.9574 26.016C80.9094 25.848 80.8294 25.7 80.7174 25.572C80.6054 25.444 80.4614 25.344 80.2854 25.272C80.1174 25.192 79.9174 25.152 79.6854 25.152C79.2534 25.152 78.8854 25.284 78.5814 25.548C78.2854 25.804 78.1214 26.136 78.0894 26.544H81.0414ZM82.4814 27.192C82.4814 27.256 82.4814 27.32 82.4814 27.384C82.4814 27.448 82.4774 27.512 82.4694 27.576H78.0894C78.1054 27.784 78.1574 27.976 78.2454 28.152C78.3414 28.32 78.4654 28.468 78.6174 28.596C78.7694 28.716 78.9414 28.812 79.1334 28.884C79.3254 28.956 79.5254 28.992 79.7334 28.992C80.0934 28.992 80.3974 28.928 80.6454 28.8C80.8934 28.664 81.0974 28.48 81.2574 28.248L82.2174 29.016C81.6494 29.784 80.8254 30.168 79.7454 30.168C79.2974 30.168 78.8854 30.1 78.5094 29.964C78.1334 29.82 77.8054 29.62 77.5254 29.364C77.2534 29.108 77.0374 28.796 76.8774 28.428C76.7254 28.052 76.6494 27.628 76.6494 27.156C76.6494 26.692 76.7254 26.272 76.8774 25.896C77.0374 25.512 77.2534 25.188 77.5254 24.924C77.7974 24.652 78.1174 24.444 78.4854 24.3C78.8614 24.148 79.2654 24.072 79.6974 24.072C80.0974 24.072 80.4654 24.14 80.8014 24.276C81.1454 24.404 81.4414 24.6 81.6894 24.864C81.9374 25.12 82.1294 25.444 82.2654 25.836C82.4094 26.22 82.4814 26.672 82.4814 27.192ZM87.512 25.776C87.384 25.608 87.208 25.464 86.984 25.344C86.76 25.216 86.516 25.152 86.252 25.152C86.02 25.152 85.808 25.2 85.616 25.296C85.424 25.392 85.328 25.552 85.328 25.776C85.328 26 85.432 26.16 85.64 26.256C85.856 26.344 86.168 26.436 86.576 26.532C86.792 26.58 87.008 26.644 87.224 26.724C87.448 26.804 87.648 26.912 87.824 27.048C88.008 27.176 88.156 27.34 88.268 27.54C88.38 27.732 88.436 27.968 88.436 28.248C88.436 28.6 88.368 28.9 88.232 29.148C88.104 29.388 87.928 29.584 87.704 29.736C87.488 29.888 87.232 29.996 86.936 30.06C86.648 30.132 86.348 30.168 86.036 30.168C85.588 30.168 85.152 30.088 84.728 29.928C84.304 29.76 83.952 29.524 83.672 29.22L84.62 28.332C84.78 28.54 84.988 28.712 85.244 28.848C85.5 28.984 85.784 29.052 86.096 29.052C86.2 29.052 86.304 29.04 86.408 29.016C86.52 28.992 86.62 28.956 86.708 28.908C86.804 28.852 86.88 28.78 86.936 28.692C86.992 28.604 87.02 28.496 87.02 28.368C87.02 28.128 86.908 27.956 86.684 27.852C86.468 27.748 86.14 27.644 85.7 27.54C85.484 27.492 85.272 27.432 85.064 27.36C84.864 27.28 84.684 27.18 84.524 27.06C84.364 26.932 84.236 26.776 84.14 26.592C84.044 26.408 83.996 26.18 83.996 25.908C83.996 25.588 84.06 25.312 84.188 25.08C84.324 24.848 84.5 24.66 84.716 24.516C84.932 24.364 85.176 24.252 85.448 24.18C85.72 24.108 86 24.072 86.288 24.072C86.704 24.072 87.108 24.144 87.5 24.288C87.9 24.432 88.216 24.652 88.448 24.948L87.512 25.776ZM89.3401 25.392V24.24H90.3481V22.572H91.7641V24.24H93.2041V25.392H91.7641V28.068C91.7641 28.324 91.8081 28.536 91.8961 28.704C91.9921 28.872 92.2001 28.956 92.5201 28.956C92.6161 28.956 92.7201 28.948 92.8321 28.932C92.9441 28.908 93.0441 28.876 93.1321 28.836L93.1801 29.964C93.0521 30.012 92.9001 30.048 92.7241 30.072C92.5481 30.104 92.3801 30.12 92.2201 30.12C91.8361 30.12 91.5241 30.068 91.2841 29.964C91.0441 29.852 90.8521 29.704 90.7081 29.52C90.5721 29.328 90.4761 29.112 90.4201 28.872C90.3721 28.624 90.3481 28.36 90.3481 28.08V25.392H89.3401Z" fill="black"/>
<path d="M56.5 48L63.8612 40.5H49.1388L56.5 48Z" fill="white"/>
<defs>
<filter id="filter0_d" x="0" y="0" width="113" height="54" filterUnits="userSpaceOnUse" color-interpolation-filters="sRGB">
<feFlood flood-opacity="0" result="BackgroundImageFix"/>
<feColorMatrix in="SourceAlpha" type="matrix" values="0 0 0 0 0 0 0 0 0 0 0 0 0 0 0 0 0 0 127 0" result="hardAlpha"/>
<feOffset/>
<feGaussianBlur stdDeviation="6.5"/>
<feColorMatrix type="matrix" values="0 0 0 0 0 0 0 0 0 0 0 0 0 0 0 0 0 0 0.13 0"/>
<feBlend mode="normal" in2="BackgroundImageFix" result="effect1_dropShadow"/>
<feBlend mode="normal" in="SourceGraphic" in2="effect1_dropShadow" result="shape"/>
</filter>
</defs>
</svg>
