<svg width="512" height="512" viewBox="0 0 512 512" fill="none" xmlns="http://www.w3.org/2000/svg">
<g clip-path="url(#clip0)">
<path d="M351.642 0C324.347 1.88799 292.443 19.3599 273.851 42.1117C256.891 62.7516 242.939 93.4074 248.379 123.199C278.203 124.127 309.019 106.239 326.875 83.1035C343.579 61.5676 356.218 31.1038 351.642 0Z" fill="black"/>
<path d="M459.513 171.776C433.305 138.912 396.474 119.84 361.69 119.84C315.77 119.84 296.346 141.824 264.443 141.824C231.547 141.824 206.555 119.904 166.843 119.904C127.835 119.904 86.2997 143.744 59.9639 184.511C22.9401 241.919 29.2761 349.854 89.2757 441.79C110.748 474.686 139.419 511.677 176.923 511.997C210.299 512.317 219.707 490.589 264.923 490.365C310.138 490.109 318.714 512.285 352.026 511.933C389.562 511.645 419.801 470.654 441.273 437.758C456.665 414.174 462.393 402.302 474.329 375.678C387.514 342.622 373.594 219.167 459.513 171.776Z" fill="black"/>
</g>
<defs>
<clipPath id="clip0">
<rect width="512" height="512" fill="white"/>
</clipPath>
</defs>
</svg>
