<svg width="60" height="61" viewBox="0 0 60 61" fill="none" xmlns="http://www.w3.org/2000/svg">
<path opacity="0.5" d="M27.5497 57.4185C29.1947 58.1973 31.0988 58.194 32.7395 57.4074C39.2798 54.2721 55.9363 44.8809 55.9363 30.5557L56.4952 16.6315C56.6042 13.9166 54.8498 11.4365 52.127 10.4565L32.6017 3.42861C31.0222 2.86008 29.2722 2.85705 27.6905 3.4201L7.89673 10.4659C5.16135 11.4396 3.39548 13.9258 3.5048 16.6494L4.06301 30.5557C4.06301 44.8978 20.9507 54.2943 27.5497 57.4185Z" fill="url(#paint0_linear)" stroke="#1FAEF7" stroke-width="0.1" stroke-linecap="round" stroke-linejoin="round"/>
<g filter="url(#filter0_d)">
<path d="M28.4744 47.63C29.4986 48.1256 30.6842 48.1234 31.7058 47.6229C35.778 45.6277 46.149 39.6515 46.149 30.5354L46.497 21.6746C46.5649 19.9469 45.4725 18.3687 43.7772 17.7451L31.6199 13.2727C30.6365 12.911 29.5469 12.909 28.562 13.2673L16.2376 17.751C14.5344 18.3706 13.4349 19.9528 13.503 21.686L13.8506 30.5354C13.8506 39.6622 24.3655 45.6418 28.4744 47.63Z" fill="url(#paint1_linear)"/>
</g>
<rect x="28.5" y="21" width="3" height="18" rx="1.5" fill="#FBFBFB"/>
<rect x="21" y="31.5" width="3" height="18" rx="1.5" transform="rotate(-90 21 31.5)" fill="#FBFBFB"/>
<defs>
<filter id="filter0_d" x="0.5" y="0" width="59" height="61" filterUnits="userSpaceOnUse" color-interpolation-filters="sRGB">
<feFlood flood-opacity="0" result="BackgroundImageFix"/>
<feColorMatrix in="SourceAlpha" type="matrix" values="0 0 0 0 0 0 0 0 0 0 0 0 0 0 0 0 0 0 127 0"/>
<feOffset/>
<feGaussianBlur stdDeviation="6.5"/>
<feColorMatrix type="matrix" values="0 0 0 0 0 0 0 0 0 0 0 0 0 0 0 0 0 0 0.42 0"/>
<feBlend mode="normal" in2="BackgroundImageFix" result="effect1_dropShadow"/>
<feBlend mode="normal" in="SourceGraphic" in2="effect1_dropShadow" result="shape"/>
</filter>
<linearGradient id="paint0_linear" x1="30" y1="3" x2="30" y2="58" gradientUnits="userSpaceOnUse">
<stop stop-color="#1FAEF7" stop-opacity="0.8"/>
<stop offset="1" stop-color="#1FAEF7" stop-opacity="0.6"/>
</linearGradient>
<linearGradient id="paint1_linear" x1="30" y1="13" x2="30" y2="48" gradientUnits="userSpaceOnUse">
<stop stop-color="#4EBFF9"/>
<stop offset="0.479167" stop-color="#25A5E7"/>
<stop offset="1" stop-color="#008DD6"/>
</linearGradient>
</defs>
</svg>
