<svg width="36" height="36" viewBox="0 0 36 36" fill="none" xmlns="http://www.w3.org/2000/svg">
<g clip-path="url(#clip0)">
<path d="M21.65 32.0313C20.0221 34.8312 15.9779 34.8312 14.35 32.0313L0.578397 8.34405C-1.05803 5.5294 0.972558 1.99997 4.22834 1.99997L31.7717 1.99997C35.0274 1.99997 37.058 5.52939 35.4216 8.34404L21.65 32.0313Z" fill="#1FAEF7"/>
<g filter="url(#filter0_d)">
<path fill-rule="evenodd" clip-rule="evenodd" d="M11.1091 8.48145H23.9243C24.2695 8.48145 24.4709 8.87091 24.2714 9.15257L17.8638 18.1986C17.6943 18.4379 17.3392 18.4379 17.1697 18.1986L10.7621 9.15257C10.5626 8.87091 10.764 8.48145 11.1091 8.48145ZM13.2793 10.8438L14.4134 12.545C14.4923 12.6633 14.6251 12.7344 14.7673 12.7344H20.2662C20.4084 12.7344 20.5412 12.6633 20.6201 12.545L21.7542 10.8438C21.9426 10.5612 21.74 10.1826 21.4003 10.1826H13.6332C13.2935 10.1826 13.0909 10.5612 13.2793 10.8438Z" fill="white"/>
<path d="M16.2408 16.1368H18.7926V22.9416H16.2408V16.1368Z" fill="white"/>
<path d="M12.8385 23.7921C12.8385 23.3224 13.2193 22.9415 13.6891 22.9415H21.3444C21.8142 22.9415 22.195 23.3224 22.195 23.7921V23.7921C22.195 24.2619 21.8142 24.6427 21.3444 24.6427H13.6891C13.2193 24.6427 12.8385 24.2619 12.8385 23.7921V23.7921Z" fill="white"/>
<path fill-rule="evenodd" clip-rule="evenodd" d="M24.7467 11.0332C26.156 11.0332 27.2985 9.89077 27.2985 8.48146C27.2985 7.07216 26.156 5.92969 24.7467 5.92969C23.3374 5.92969 22.195 7.07216 22.195 8.48146C22.195 9.89077 23.3374 11.0332 24.7467 11.0332ZM24.7467 11.8838C26.6258 11.8838 28.1491 10.3605 28.1491 8.48146C28.1491 6.60239 26.6258 5.0791 24.7467 5.0791C22.8677 5.0791 21.3444 6.60239 21.3444 8.48146C21.3444 10.3605 22.8677 11.8838 24.7467 11.8838Z" fill="white"/>
</g>
</g>
<defs>
<filter id="filter0_d" x="0.683105" y="-4.9209" width="37.466" height="39.5636" filterUnits="userSpaceOnUse" color-interpolation-filters="sRGB">
<feFlood flood-opacity="0" result="BackgroundImageFix"/>
<feColorMatrix in="SourceAlpha" type="matrix" values="0 0 0 0 0 0 0 0 0 0 0 0 0 0 0 0 0 0 127 0"/>
<feOffset/>
<feGaussianBlur stdDeviation="5"/>
<feColorMatrix type="matrix" values="0 0 0 0 0 0 0 0 0 0 0 0 0 0 0 0 0 0 0.1 0"/>
<feBlend mode="normal" in2="BackgroundImageFix" result="effect1_dropShadow"/>
<feBlend mode="normal" in="SourceGraphic" in2="effect1_dropShadow" result="shape"/>
</filter>
<clipPath id="clip0">
<rect width="36" height="36" fill="white"/>
</clipPath>
</defs>
</svg>
