<svg width="23" height="26" viewBox="0 0 23 26" fill="none" xmlns="http://www.w3.org/2000/svg">
<path d="M1.57927 14.7812C1.24596 14.971 1.08076 15.3611 1.17719 15.7331C1.27438 16.108 1.6127 16.3698 2 16.3698H21C21.3873 16.3698 21.7256 16.108 21.8228 15.7331C21.9192 15.3611 21.754 14.9711 21.4207 14.7812L21.4127 14.7763C21.4015 14.7694 21.3797 14.7555 21.3489 14.7341C21.2872 14.6912 21.1893 14.6183 21.0667 14.5104C20.822 14.2951 20.4781 13.9397 20.128 13.4044C19.4328 12.3419 18.6833 10.5258 18.6833 7.59981C18.6833 5.91896 17.8812 4.34606 16.5226 3.21342C15.1686 2.08455 13.3602 1.46982 11.5 1.46982C9.63981 1.46982 7.83145 2.08455 6.47737 3.21342C5.11877 4.34606 4.31667 5.91896 4.31667 7.59981C4.31667 10.5258 3.56722 12.3419 2.87205 13.4044C2.52185 13.9397 2.17801 14.2951 1.93326 14.5104C1.81072 14.6183 1.71278 14.6912 1.65109 14.7341C1.62026 14.7555 1.59851 14.7694 1.58734 14.7763L1.57927 14.7812Z" stroke="black" stroke-width="1.7" stroke-linecap="round" stroke-linejoin="round"/>
<path d="M13.7436 20.3198C14.2532 20.3198 14.6792 20.7544 14.4427 21.2057C14.437 21.2166 14.4312 21.2274 14.4253 21.2383C14.2662 21.5294 14.0329 21.794 13.7388 22.0169C13.4448 22.2397 13.0957 22.4165 12.7115 22.5371C12.3273 22.6577 11.9155 22.7198 11.4997 22.7198C11.0838 22.7198 10.672 22.6577 10.2878 22.5371C9.90365 22.4165 9.55456 22.2397 9.2605 22.0169C8.96645 21.794 8.7332 21.5294 8.57406 21.2383C8.32243 20.7779 8.75834 20.3198 9.28301 20.3198H9.84202C10.058 20.3198 10.1754 20.5135 10.279 20.703C10.3454 20.8245 10.4427 20.9349 10.5654 21.0279C10.6881 21.1209 10.8338 21.1946 10.9941 21.245C11.1544 21.2953 11.3262 21.3212 11.4997 21.3212C11.6732 21.3212 11.845 21.2953 12.0053 21.245C12.1656 21.1946 12.3112 21.1209 12.4339 21.0279C12.5566 20.9349 12.6539 20.8245 12.7203 20.703C12.8264 20.509 13.0002 20.3198 13.2213 20.3198H13.7436Z" fill="black"/>
</svg>
