<svg width="48" height="48" viewBox="0 0 48 48" fill="none" xmlns="http://www.w3.org/2000/svg">
<path d="M37.4607 15.1882C37.4607 11.9557 36.0084 8.85557 33.4234 6.56984C30.8383 4.28411 27.3322 3 23.6764 3C20.0206 3 16.5145 4.28411 13.9295 6.56984C11.3444 8.85557 9.89214 11.9557 9.89214 15.1882C9.89214 29.4078 3 33.4705 3 33.4705H44.3528C44.3528 33.4705 37.4607 29.4078 37.4607 15.1882Z" fill="#1A1A1A" stroke="#1A1A1A" stroke-width="2.5" stroke-linecap="round" stroke-linejoin="round"/>
<path d="M28.7603 40C29.5304 40 30.1726 40.6691 29.9582 41.4471C29.8786 41.736 29.775 42.0198 29.6481 42.2961C29.3137 43.0241 28.8235 43.6855 28.2055 44.2426C27.5876 44.7998 26.854 45.2417 26.0466 45.5433C25.2392 45.8448 24.3739 46 23.5 46C22.6261 46 21.7608 45.8448 20.9534 45.5433C20.146 45.2417 19.4124 44.7998 18.7945 44.2426C18.1765 43.6855 17.6863 43.0241 17.3519 42.2961C17.225 42.0198 17.1214 41.736 17.0418 41.4471C16.8274 40.6691 17.4696 40 18.2397 40L23.5 40H28.7603Z" fill="#1A1A1A"/>
</svg>
