<svg width="20" height="17" viewBox="0 0 20 17" fill="none" xmlns="http://www.w3.org/2000/svg">
<path d="M10.9268 16.7139C11.3574 16.7139 11.6914 16.5205 12.1396 16.1426L19.0742 9.59473C19.3994 9.26953 19.5225 8.94434 19.5225 8.6543C19.5225 8.35547 19.3994 8.03027 19.0742 7.70508L12.1396 1.21875C11.6387 0.805664 11.375 0.585938 10.9443 0.585938C10.3379 0.585938 9.89844 1.07812 9.89844 1.66699V4.98926H9.64355C3.32422 4.98926 0.573242 9.04102 0.573242 15.5361C0.573242 16.292 1.00391 16.7139 1.46973 16.7139C1.84766 16.7139 2.25195 16.626 2.55078 16.0635C4.08887 13.1895 6.24219 12.3281 9.64355 12.3281H9.89844V15.6855C9.89844 16.2744 10.3379 16.7139 10.9268 16.7139ZM11.4365 14.8242C11.3574 14.8242 11.3135 14.7715 11.3135 14.6924V11.291C11.3135 11.0889 11.2256 11.001 11.0234 11.001H9.83691C5.6709 11.001 2.97266 12.4336 1.9707 14.6572C1.94434 14.7188 1.91797 14.7451 1.88281 14.7451C1.84766 14.7451 1.82129 14.71 1.82129 14.6484C1.99707 10.5 3.80762 6.31641 9.83691 6.31641H11.0234C11.2256 6.31641 11.3135 6.22852 11.3135 6.02637V2.53711C11.3135 2.4668 11.3662 2.41406 11.4365 2.41406C11.498 2.41406 11.542 2.44922 11.5859 2.48438L17.8438 8.4873C17.9141 8.54883 17.9404 8.60156 17.9404 8.6543C17.9404 8.70703 17.9141 8.75098 17.8438 8.82129L11.5859 14.7451C11.5332 14.7979 11.4893 14.8242 11.4365 14.8242Z" fill="black"/>
</svg>
