<svg width="24" height="21" viewBox="0 0 24 21" fill="none" xmlns="http://www.w3.org/2000/svg">
<path d="M11.2761 3.97778L11.926 4.67053L12.5827 3.98413C14.2513 2.24003 15.7922 1.36147 17.1065 1.04398C18.4057 0.730146 19.5327 0.950589 20.4481 1.49811C22.3163 2.61556 23.4487 5.20924 23.004 7.85931C22.5535 10.5442 20.9678 12.8375 18.8169 14.8546C16.7971 16.7488 14.3383 18.3447 12.0004 19.7511C9.66255 18.3447 7.2039 16.7488 5.18411 14.8546C3.03324 12.8375 1.4473 10.5441 0.996211 7.85916C0.550909 5.20862 1.68383 2.61362 3.53724 1.49661C4.44431 0.949934 5.55673 0.731046 6.83374 1.04338C8.12634 1.35953 9.64105 2.23518 11.2761 3.97778Z" stroke="black" stroke-width="1.8"/>
</svg>
