<svg width="26" height="27" viewBox="0 0 26 27" fill="none" xmlns="http://www.w3.org/2000/svg">
<g filter="url(#filter0_i)">
<rect x="0.214355" y="0.927734" width="25.7143" height="25.7143" rx="12.8571" fill="black"/>
</g>
<path d="M14.7839 16.9697C14.7839 16.4297 14.6506 16.0059 14.384 15.6982C14.1174 15.3906 13.6491 15.1001 12.9792 14.8267C12.3093 14.5532 11.6906 14.2764 11.1233 13.9961C10.5559 13.7158 10.0671 13.3911 9.65695 13.022C9.24679 12.6528 8.93234 12.2256 8.71359 11.7402C8.49484 11.2549 8.38546 10.667 8.38546 9.97656C8.38546 8.82129 8.77511 7.87109 9.55441 7.12598C10.3337 6.37402 11.3728 5.93652 12.6716 5.81348V3.6499H14.302V5.85449C15.5529 6.03906 16.5339 6.55518 17.2448 7.40283C17.9626 8.24365 18.3215 9.31348 18.3215 10.6123H14.8557C14.8557 9.90137 14.719 9.35449 14.4455 8.97168C14.1721 8.58887 13.7824 8.39746 13.2766 8.39746C12.8254 8.39746 12.4734 8.54102 12.2204 8.82812C11.9743 9.1084 11.8513 9.49805 11.8513 9.99707C11.8513 10.5029 11.9948 10.9062 12.2819 11.207C12.5691 11.501 13.0305 11.7847 13.6662 12.0581C14.302 12.3247 14.9001 12.605 15.4607 12.8989C16.028 13.186 16.5168 13.5142 16.927 13.8833C17.3371 14.2524 17.6584 14.6831 17.8908 15.1753C18.1233 15.6675 18.2395 16.2588 18.2395 16.9492C18.2395 18.1182 17.8669 19.0718 17.1218 19.8101C16.3835 20.5483 15.3752 20.979 14.0969 21.1021V23.1631H12.4665V21.0918C10.9763 20.9346 9.83126 20.4253 9.03146 19.564C8.23849 18.6958 7.84201 17.5542 7.84201 16.1392H11.2976C11.2976 16.9185 11.4685 17.5132 11.8103 17.9233C12.1589 18.3267 12.6511 18.5283 13.2868 18.5283C13.7517 18.5283 14.1174 18.3916 14.384 18.1182C14.6506 17.8379 14.7839 17.4551 14.7839 16.9697Z" fill="#DDDDDD"/>
<defs>
<filter id="filter0_i" x="0.214355" y="0.927734" width="25.7143" height="25.7143" filterUnits="userSpaceOnUse" color-interpolation-filters="sRGB">
<feFlood flood-opacity="0" result="BackgroundImageFix"/>
<feBlend mode="normal" in="SourceGraphic" in2="BackgroundImageFix" result="shape"/>
<feColorMatrix in="SourceAlpha" type="matrix" values="0 0 0 0 0 0 0 0 0 0 0 0 0 0 0 0 0 0 127 0" result="hardAlpha"/>
<feOffset/>
<feGaussianBlur stdDeviation="6.5"/>
<feComposite in2="hardAlpha" operator="arithmetic" k2="-1" k3="1"/>
<feColorMatrix type="matrix" values="0 0 0 0 0 0 0 0 0 0 0 0 0 0 0 0 0 0 0.13 0"/>
<feBlend mode="normal" in2="shape" result="effect1_innerShadow"/>
</filter>
</defs>
</svg>
