<svg width="30" height="44" viewBox="0 0 30 44" fill="none" xmlns="http://www.w3.org/2000/svg">
<circle cx="15" cy="7" r="7" fill="black"/>
<mask id="path-2-outside-1" maskUnits="userSpaceOnUse" x="0" y="17" width="30" height="15" fill="black">
<rect fill="white" y="17" width="30" height="15"/>
<path d="M24 31C26.7614 31 29.0844 28.6729 27.9848 26.1398C27.9682 26.1015 27.9513 26.0633 27.9343 26.0251C27.2307 24.4479 26.1995 23.0148 24.8995 21.8076C23.5995 20.6005 22.0561 19.6429 20.3576 18.9896C18.659 18.3363 16.8385 18 15 18C13.1615 18 11.341 18.3363 9.64243 18.9896C7.94387 19.6429 6.40052 20.6005 5.1005 21.8076C3.80048 23.0148 2.76925 24.4479 2.06569 26.0251C2.04866 26.0633 2.03183 26.1015 2.01521 26.1398C0.915614 28.6729 3.23858 31 6 31L15 31H24Z"/>
</mask>
<path d="M24 31C26.7614 31 29.0844 28.6729 27.9848 26.1398C27.9682 26.1015 27.9513 26.0633 27.9343 26.0251C27.2307 24.4479 26.1995 23.0148 24.8995 21.8076C23.5995 20.6005 22.0561 19.6429 20.3576 18.9896C18.659 18.3363 16.8385 18 15 18C13.1615 18 11.341 18.3363 9.64243 18.9896C7.94387 19.6429 6.40052 20.6005 5.1005 21.8076C3.80048 23.0148 2.76925 24.4479 2.06569 26.0251C2.04866 26.0633 2.03183 26.1015 2.01521 26.1398C0.915614 28.6729 3.23858 31 6 31L15 31H24Z" fill="black"/>
<path d="M24 31C26.7614 31 29.0844 28.6729 27.9848 26.1398C27.9682 26.1015 27.9513 26.0633 27.9343 26.0251C27.2307 24.4479 26.1995 23.0148 24.8995 21.8076C23.5995 20.6005 22.0561 19.6429 20.3576 18.9896C18.659 18.3363 16.8385 18 15 18C13.1615 18 11.341 18.3363 9.64243 18.9896C7.94387 19.6429 6.40052 20.6005 5.1005 21.8076C3.80048 23.0148 2.76925 24.4479 2.06569 26.0251C2.04866 26.0633 2.03183 26.1015 2.01521 26.1398C0.915614 28.6729 3.23858 31 6 31L15 31H24Z" stroke="#FBFBFB" stroke-width="2" mask="url(#path-2-outside-1)"/>
</svg>
