<svg width="22" height="22" viewBox="0 0 22 22" fill="none" xmlns="http://www.w3.org/2000/svg">
<path d="M1.0609 20.1544C0.475118 19.5686 0.475118 18.6189 1.0609 18.0331L18.0315 1.06253C18.6173 0.476742 19.567 0.476741 20.1528 1.06253C20.7386 1.64831 20.7386 2.59806 20.1528 3.18385L3.18223 20.1544C2.59644 20.7402 1.64669 20.7402 1.0609 20.1544Z" fill="black"/>
<path d="M1.06068 1.06066C1.64646 0.474874 2.59621 0.474874 3.182 1.06066L20.1526 18.0312C20.7383 18.617 20.7383 19.5668 20.1526 20.1525C19.5668 20.7383 18.617 20.7383 18.0312 20.1525L1.06068 3.18198C0.474892 2.59619 0.474891 1.64645 1.06068 1.06066Z" fill="black"/>
</svg>
