<svg width="27" height="24" viewBox="0 0 27 24" fill="none" xmlns="http://www.w3.org/2000/svg">
<path d="M14.7773 23.2344C15.3105 23.2344 15.7422 22.9932 16.2373 22.5361L26.2285 13.167C26.7617 12.6592 26.9014 12.2275 26.9014 11.834C26.9014 11.4277 26.7744 11.0088 26.2285 10.4883L16.2373 1.16992C15.7041 0.674805 15.3232 0.433594 14.79 0.433594C14.0283 0.433594 13.5332 1.03027 13.5332 1.7666V6.83203H13.0889C4.46875 6.83203 0.0634766 12.126 0.0634766 21.8125C0.0634766 22.7139 0.59668 23.2344 1.18066 23.2344C1.66309 23.2344 2.13281 23.082 2.48828 22.3711C4.53223 18.2705 7.79492 16.8867 13.0889 16.8867H13.5332V21.9521C13.5332 22.6885 14.0283 23.2344 14.7773 23.2344ZM15.2979 21.1777C15.1709 21.1777 15.1074 21.0889 15.1074 20.9619V15.7949C15.1074 15.5156 14.9932 15.4014 14.7139 15.4014H13.3047C7.16016 15.4014 3.32617 17.3945 1.75195 20.9492C1.71387 21.0508 1.66309 21.1396 1.58691 21.1396C1.49805 21.1396 1.45996 21.0762 1.45996 20.9619C1.625 13.7383 4.97656 8.31738 13.3047 8.31738H14.7139C14.9932 8.31738 15.1074 8.20312 15.1074 7.92383V2.61719C15.1074 2.50293 15.1836 2.41406 15.2979 2.41406C15.4121 2.41406 15.4883 2.47754 15.5645 2.55371L24.9209 11.415C25.0986 11.5928 25.1621 11.707 25.1621 11.834C25.1621 11.9609 25.1113 12.0752 24.9209 12.2529L15.5645 21.0381C15.4502 21.1396 15.374 21.1777 15.2979 21.1777Z" fill="black"/>
</svg>
