<svg width="26" height="29" viewBox="0 0 26 29" fill="none" xmlns="http://www.w3.org/2000/svg">
<path d="M18.0212 2.089C18.73 1.24189 19.9898 1.13167 20.835 1.84282L23.7355 4.2833C24.5807 4.99445 24.6912 6.25766 23.9824 7.10477L21.9913 9.48419C21.6368 9.90775 21.0069 9.96286 20.5843 9.60728L16.1535 5.87915C15.7309 5.52358 15.6757 4.89197 16.0301 4.46842L18.0212 2.089Z" fill="black"/>
<rect width="7.73804" height="14.3302" rx="0.7" transform="matrix(0.765171 0.643827 0.641747 -0.766916 5.35352 17.254)" fill="black"/>
<path d="M3.86906 24.3603C3.7726 24.7622 4.17614 25.1016 4.55416 24.9366L11.3465 21.9718C11.6864 21.8235 11.752 21.3685 11.4678 21.1295L6.40865 16.8739C6.12451 16.6349 5.68891 16.7786 5.60217 17.14L3.86906 24.3603Z" fill="black"/>
</svg>
