<svg width="30" height="32" viewBox="0 0 30 32" fill="none" xmlns="http://www.w3.org/2000/svg">
<path d="M26.5999 24.8634C26.5999 26.3158 25.5506 27.8308 23.4166 29.0394C21.3127 30.2311 18.339 30.9998 14.9999 30.9998C11.6608 30.9998 8.68715 30.2311 6.58318 29.0394C4.44922 27.8308 3.3999 26.3158 3.3999 24.8634C3.3999 23.411 4.44922 21.896 6.58318 20.6874C8.68715 19.4957 11.6608 18.7271 14.9999 18.7271C18.339 18.7271 21.3127 19.4957 23.4166 20.6874C25.5506 21.896 26.5999 23.411 26.5999 24.8634Z" fill="black" stroke="white" stroke-width="2"/>
<path d="M15 21.4619C18.5871 21.4619 21.05 17.9413 21.05 14.2119C21.05 10.4826 18.5871 6.96191 15 6.96191C11.4128 6.96191 8.94995 10.4826 8.94995 14.2119C8.94995 17.9413 11.4128 21.4619 15 21.4619Z" fill="black" stroke="white" stroke-width="2.5"/>
<path d="M29.5 15.4675C29.5 23.3982 23.0123 29.8349 15 29.8349C6.98768 29.8349 0.5 23.3982 0.5 15.4675C0.5 7.53678 6.98768 1.1001 15 1.1001C23.0123 1.1001 29.5 7.53678 29.5 15.4675Z" stroke="black"/>
</svg>
