<svg width="23" height="20" viewBox="0 0 23 20" fill="none" xmlns="http://www.w3.org/2000/svg">
<path d="M0 1.23913C0 0.554778 0.554778 0 1.23913 0H21.7609C22.4452 0 23 0.554778 23 1.23913C23 1.92348 22.4452 2.47826 21.7609 2.47826H1.23913C0.554777 2.47826 0 1.92348 0 1.23913Z" fill="black"/>
<path d="M0 9.50085C0 8.8165 0.554778 8.26172 1.23913 8.26172H21.7609C22.4452 8.26172 23 8.8165 23 9.50085C23 10.1852 22.4452 10.74 21.7609 10.74H1.23913C0.554777 10.74 0 10.1852 0 9.50085Z" fill="black"/>
<path d="M0 17.7626C0 17.0782 0.554778 16.5234 1.23913 16.5234H21.7609C22.4452 16.5234 23 17.0782 23 17.7626C23 18.4469 22.4452 19.0017 21.7609 19.0017H1.23913C0.554777 19.0017 0 18.4469 0 17.7626Z" fill="black"/>
</svg>
