<svg width="32" height="20" viewBox="0 0 32 20" fill="none" xmlns="http://www.w3.org/2000/svg">
<circle cx="10.2557" cy="4.11398" r="4.11398" fill="black"/>
<path d="M17.5191 19.7439C18.6552 19.7439 19.6022 18.8068 19.2991 17.712C19.1866 17.3056 19.0402 16.9063 18.8608 16.5177C18.3885 15.4949 17.6962 14.5655 16.8235 13.7827C15.9508 12.9999 14.9148 12.3789 13.7746 11.9552C12.6344 11.5315 11.4123 11.3135 10.1781 11.3135C8.94396 11.3135 7.72188 11.5315 6.58166 11.9552C5.44144 12.3789 4.40541 12.9999 3.53273 13.7827C2.66004 14.5655 1.96779 15.4949 1.49549 16.5177C1.31604 16.9063 1.16968 17.3056 1.05717 17.712C0.754064 18.8068 1.70106 19.7439 2.8371 19.7439L10.1781 19.7439H17.5191Z" fill="black"/>
<path fill-rule="evenodd" clip-rule="evenodd" d="M20.7283 15.656C20.9541 16.145 21.1391 16.649 21.2816 17.1637C21.5406 18.0996 21.4027 18.9997 21.015 19.7449H22.2611H29.1546C30.2907 19.7449 31.2371 18.8091 30.9472 17.7107C30.8401 17.3051 30.7009 16.9066 30.5303 16.5187C30.0805 15.4959 29.4212 14.5665 28.5901 13.7837C27.7589 13.0008 26.7723 12.3798 25.6863 11.9562C24.6004 11.5325 23.4365 11.3145 22.2611 11.3145C21.0857 11.3145 19.9218 11.5325 18.8359 11.9562C18.6142 12.0427 18.3967 12.1374 18.1837 12.24C18.1882 12.244 18.1927 12.2481 18.1971 12.2521C19.2696 13.2142 20.1339 14.3685 20.7283 15.656ZM15.3266 19.7445H17.5192C18.5155 19.7445 19.3664 19.0238 19.3562 18.108C19.3661 19.0235 18.5153 19.7439 17.5192 19.7439H15.3056C15.3126 19.7442 15.3196 19.7443 15.3266 19.7445Z" fill="black"/>
<circle cx="22.5976" cy="4.11398" r="4.11398" fill="black"/>
</svg>
