<svg width="32" height="32" viewBox="0 0 32 32" fill="none" xmlns="http://www.w3.org/2000/svg">
<rect x="17.502" y="13.2881" width="9.20624" height="15.712" rx="2" fill="black"/>
<rect x="5.22656" y="13.2881" width="9.20624" height="15.712" rx="2" fill="black"/>
<path fill-rule="evenodd" clip-rule="evenodd" d="M14.9102 10.6289C14.0817 10.6289 13.4102 11.3005 13.4102 12.1289V22.4268C13.4102 23.0884 13.8385 23.65 14.433 23.8493V21.235C14.433 20.4618 15.0598 19.835 15.833 19.835H16.1018C16.875 19.835 17.5018 20.4618 17.5018 21.235V23.8494C18.0963 23.6501 18.5247 23.0885 18.5247 22.4268V12.1289C18.5247 11.3005 17.8532 10.6289 17.0247 10.6289H14.9102Z" fill="black"/>
<path d="M14.9786 3.38106C15.5398 2.87298 16.3947 2.87298 16.9559 3.38106L28.4472 13.7852C29.4464 14.6898 28.8064 16.3501 27.4586 16.3501H4.47596C3.12813 16.3501 2.48818 14.6898 3.48733 13.7852L14.9786 3.38106Z" fill="black"/>
</svg>
