<svg width="23" height="19" viewBox="0 0 23 19" fill="none" xmlns="http://www.w3.org/2000/svg">
<path d="M12.9146 18.9995C13.417 18.9995 13.8066 18.7739 14.3296 18.333L22.4199 10.6938C22.7993 10.3145 22.9429 9.93506 22.9429 9.59668C22.9429 9.24805 22.7993 8.86865 22.4199 8.48926L14.3296 0.921875C13.7451 0.439941 13.4375 0.183594 12.9351 0.183594C12.2275 0.183594 11.7148 0.757812 11.7148 1.44482V5.3208H11.4175C4.04492 5.3208 0.835449 10.0479 0.835449 17.6255C0.835449 18.5073 1.33789 18.9995 1.88135 18.9995C2.32227 18.9995 2.79395 18.897 3.14258 18.2407C4.93701 14.8877 7.44922 13.8828 11.4175 13.8828H11.7148V17.7998C11.7148 18.4868 12.2275 18.9995 12.9146 18.9995Z" fill="white"/>
</svg>
