<svg width="22" height="20" viewBox="0 0 22 20" fill="none" xmlns="http://www.w3.org/2000/svg">
<path d="M10.2247 0.63537C10.5928 -0.103158 11.6465 -0.103159 12.0146 0.635369L14.4477 5.51667C14.5942 5.81043 14.8754 6.01364 15.2003 6.06038L20.6244 6.84076C21.4477 6.95921 21.7749 7.97248 21.1764 8.55011L17.2642 12.3259C17.0257 12.5561 16.9168 12.8895 16.9734 13.2161L17.8986 18.5576C18.0399 19.3732 17.1858 19.9975 16.4516 19.6153L11.5814 17.0802C11.292 16.9296 10.9473 16.9296 10.6579 17.0802L5.78775 19.6153C5.05354 19.9975 4.19941 19.3732 4.34069 18.5576L5.26596 13.2161C5.32254 12.8895 5.2136 12.5561 4.97509 12.3259L1.06289 8.55011C0.464392 7.97248 0.791632 6.95921 1.61493 6.84076L7.03901 6.06038C7.3639 6.01364 7.64516 5.81044 7.79159 5.51667L10.2247 0.63537Z" fill="black"/>
</svg>
