<svg width="21" height="21" viewBox="0 0 21 21" fill="none" xmlns="http://www.w3.org/2000/svg">
<path d="M10.2324 14.2051L11.4014 13.0186C10.2412 12.9307 9.48535 12.5791 8.91406 12.0078C7.37598 10.4697 7.38477 8.29004 8.90527 6.76953L11.7705 3.9043C13.3086 2.375 15.4707 2.36621 17.0088 3.9043C18.5469 5.44238 18.5293 7.61328 17.0088 9.13379L15.2861 10.8564C15.5322 11.4189 15.585 12.0693 15.4971 12.6406L18.0811 10.0654C20.1816 7.95605 20.1992 4.97656 18.0723 2.84082C15.9365 0.705078 12.9482 0.722656 10.8389 2.83203L7.8418 5.83789C5.73242 7.94727 5.71484 10.9355 7.85059 13.0625C8.4043 13.6162 9.10742 14.0117 10.2324 14.2051ZM10.4521 6.96289L9.2832 8.14941C10.4434 8.24609 11.1992 8.58887 11.7705 9.16016C13.3086 10.6982 13.2998 12.8779 11.7793 14.3984L8.90527 17.2637C7.37598 18.793 5.21387 18.8018 3.67578 17.2725C2.1377 15.7256 2.14648 13.5635 3.67578 12.0342L5.39844 10.3115C5.15234 9.75781 5.09082 9.09863 5.1875 8.52734L2.60352 11.1025C0.50293 13.2119 0.485352 16.2002 2.6123 18.3271C4.74805 20.4629 7.73633 20.4453 9.83691 18.3447L12.8428 15.3301C14.9521 13.2207 14.9697 10.2324 12.834 8.10547C12.2803 7.55176 11.5771 7.15625 10.4521 6.96289Z" fill="#00CFFF"/>
</svg>
