<svg width="32" height="32" viewBox="0 0 32 32" fill="none" xmlns="http://www.w3.org/2000/svg">
<ellipse cx="15.9996" cy="7" rx="7.06601" ry="7" fill="#1DA4F6"/>
<path d="M28.1136 31C29.2286 31 30.1493 30.0986 29.9658 29.0091C29.7936 27.987 29.489 26.9851 29.0567 26.0251C28.3465 24.4479 27.3056 23.0148 25.9933 21.8076C24.681 20.6005 23.1231 19.6429 21.4085 18.9896C19.694 18.3363 17.8563 18 16.0005 18C14.1446 18 12.3069 18.3363 10.5924 18.9896C8.87779 19.6429 7.31989 20.6005 6.00761 21.8076C4.69534 23.0148 3.65438 24.4479 2.94418 26.0251C2.51192 26.9851 2.20734 27.987 2.03515 29.0091C1.8516 30.0986 2.77232 31 3.8873 31L16.0005 31H28.1136Z" fill="#1DA4F6"/>
<path fill-rule="evenodd" clip-rule="evenodd" d="M29.9781 25.6177C30.445 26.6546 30.7746 27.7381 30.961 28.8445C31.2662 30.6566 29.7307 32 28.1132 32L3.88685 32C2.26934 32 0.733758 30.6566 1.03904 28.8445C1.22544 27.7381 1.55497 26.6546 2.02185 25.6177C2.78898 23.9141 3.91113 22.3711 5.32029 21.0748C6.7293 19.7787 8.39805 18.7541 10.2295 18.0562C12.061 17.3584 14.0216 17 16 17C17.9784 17 19.939 17.3584 21.7705 18.0562C23.6019 18.7541 25.2707 19.7787 26.6797 21.0748C28.0889 22.3711 29.211 23.9141 29.9781 25.6177ZM29.9653 29.0091C30.1489 30.0986 29.2281 31 28.1132 31L3.88685 31C2.77186 31 1.85115 30.0986 2.0347 29.0091C2.20689 27.987 2.51147 26.9851 2.94372 26.0251C3.65392 24.4479 4.69488 23.0148 6.00716 21.8076C7.31944 20.6005 8.87734 19.6429 10.5919 18.9896C12.3065 18.3363 14.1442 18 16 18C17.8558 18 19.6935 18.3363 21.4081 18.9896C23.1227 19.6429 24.6806 20.6005 25.9928 21.8076C27.3051 23.0148 28.3461 24.4479 29.0563 26.0251C29.4885 26.9851 29.7931 27.987 29.9653 29.0091Z" fill="#1DA4F6"/>
</svg>
