<svg width="39" height="32" viewBox="0 0 39 32" fill="none" xmlns="http://www.w3.org/2000/svg">
<ellipse cx="14.9996" cy="7" rx="7.06601" ry="7" fill="#1DA4F6"/>
<path d="M27.1136 31C28.2286 31 29.1493 30.0986 28.9658 29.0091C28.7936 27.987 28.489 26.9851 28.0567 26.0251C27.3465 24.4479 26.3056 23.0148 24.9933 21.8076C23.681 20.6005 22.1231 19.6429 20.4085 18.9896C18.694 18.3363 16.8563 18 15.0005 18C13.1446 18 11.3069 18.3363 9.59237 18.9896C7.87779 19.6429 6.31989 20.6005 5.00761 21.8076C3.69534 23.0148 2.65438 24.4479 1.94418 26.0251C1.51192 26.9851 1.20734 27.987 1.03515 29.0091C0.851604 30.0986 1.77232 31 2.8873 31L15.0005 31H27.1136Z" fill="#1DA4F6"/>
<path fill-rule="evenodd" clip-rule="evenodd" d="M28.9781 25.6177C29.445 26.6546 29.7746 27.7381 29.961 28.8445C30.2662 30.6566 28.7307 32 27.1132 32L2.88685 32C1.26934 32 -0.266242 30.6566 0.039037 28.8445C0.225436 27.7381 0.554966 26.6546 1.02185 25.6177C1.78898 23.9141 2.91113 22.3711 4.32029 21.0748C5.7293 19.7787 7.39805 18.7541 9.22954 18.0562C11.061 17.3584 13.0216 17 15 17C16.9784 17 18.939 17.3584 20.7705 18.0562C22.6019 18.7541 24.2707 19.7787 25.6797 21.0748C27.0889 22.3711 28.211 23.9141 28.9781 25.6177ZM28.9653 29.0091C29.1489 30.0986 28.2281 31 27.1132 31L2.88685 31C1.77186 31 0.851148 30.0986 1.0347 29.0091C1.20689 27.987 1.51147 26.9851 1.94372 26.0251C2.65392 24.4479 3.69488 23.0148 5.00716 21.8076C6.31944 20.6005 7.87734 19.6429 9.59191 18.9896C11.3065 18.3363 13.1442 18 15 18C16.8558 18 18.6935 18.3363 20.4081 18.9896C22.1227 19.6429 23.6806 20.6005 24.9928 21.8076C26.3051 23.0148 27.3461 24.4479 28.0563 26.0251C28.4885 26.9851 28.7931 27.987 28.9653 29.0091Z" fill="#1DA4F6"/>
<rect x="30" y="8" width="4" height="14" rx="2" fill="#1DA4F6"/>
<rect x="25" y="13" width="14" height="4" rx="2" fill="#1DA4F6"/>
</svg>
