<svg width="54" height="47" viewBox="0 0 54 47" fill="none" xmlns="http://www.w3.org/2000/svg">
<path d="M0.899902 14.3671C0.899902 10.331 4.17181 7.05908 8.2079 7.05908H14.9943C15.2824 7.05908 15.5159 6.82555 15.5159 6.53749C15.5159 3.36875 18.0847 0.799988 21.2534 0.799988H26.9999H32.7464C35.9151 0.799988 38.4839 3.36875 38.4839 6.53749C38.4839 6.82555 38.7174 7.05908 39.0055 7.05908H45.7919C49.828 7.05908 53.0999 10.331 53.0999 14.3671V36.7C53.0999 42.2228 48.6227 46.7 43.0999 46.7H10.8999C5.37706 46.7 0.899902 42.2228 0.899902 36.7V14.3671Z" fill="url(#paint0_linear)"/>
<rect x="17.1001" y="16.1" width="19.8" height="19.8" rx="9.9" fill="#FAFAFA"/>
<defs>
<linearGradient id="paint0_linear" x1="0.999512" y1="47.0001" x2="52.9995" y2="1.00006" gradientUnits="userSpaceOnUse">
<stop stop-color="#1FAEF7"/>
<stop offset="1" stop-color="#6BCDFF"/>
</linearGradient>
</defs>
</svg>
