<svg width="207" height="41" viewBox="0 0 207 41" fill="none" xmlns="http://www.w3.org/2000/svg">
<path d="M184 20.5H198.5" stroke="#161616" stroke-width="7" stroke-linecap="round" stroke-linejoin="round"/>
<path d="M203 4.5H184V36.5H193.5H203" stroke="#161616" stroke-width="7" stroke-linecap="round" stroke-linejoin="round"/>
<path fill-rule="evenodd" clip-rule="evenodd" d="M2.19048 1C1.53299 1 1 1.53299 1 2.19048V19H17C21.9706 19 26 14.9706 26 10C26 5.02944 21.9706 1 17 1H2.19048ZM13 7H8V17H13C15.7614 17 18 14.7614 18 12C18 9.23858 15.7614 7 13 7Z" fill="#161616"/>
<path fill-rule="evenodd" clip-rule="evenodd" d="M16.5 19H1V38.7619C1 39.4457 1.55431 40 2.23809 40H16.5C22.299 40 27 35.299 27 29.5C27 23.701 22.299 19 16.5 19ZM12.5 21H8V34H12.5C16.0899 34 19 31.0899 19 27.5C19 23.9101 16.0899 21 12.5 21Z" fill="#161616"/>
<path fill-rule="evenodd" clip-rule="evenodd" d="M50.5 40C61.2696 40 70 31.2696 70 20.5C70 9.73045 61.2696 1 50.5 1C39.7304 1 31 9.73045 31 20.5C31 31.2696 39.7304 40 50.5 40ZM50.5001 33.3414C57.5922 33.3414 63.3415 27.5921 63.3415 20.5C63.3415 13.4078 57.5922 7.65849 50.5001 7.65849C43.4079 7.65849 37.6586 13.4078 37.6586 20.5C37.6586 27.5921 43.4079 33.3414 50.5001 33.3414Z" fill="#161616"/>
<path fill-rule="evenodd" clip-rule="evenodd" d="M153.039 1.19783C157.245 0.0390147 161.71 0.329855 165.734 2.02249C169.757 3.71467 173.105 6.70838 175.267 10.5243C176.22 12.2061 175.63 14.342 173.948 15.295C172.266 16.2481 170.13 15.6574 169.177 13.9757C167.768 11.4892 165.599 9.56 163.02 8.47496C160.441 7.39039 157.587 7.20548 154.898 7.94641C152.207 8.68758 149.82 10.3174 148.116 12.5969C146.41 14.8774 145.487 17.677 145.5 20.5602C145.513 23.4435 146.462 26.2341 148.187 28.4981C149.912 30.7611 152.314 32.3683 155.01 33.0841C157.706 33.7996 160.559 33.588 163.128 32.4791C165.698 31.3698 167.849 29.4201 169.236 26.9201C170.173 25.2297 172.304 24.6196 173.994 25.5572C175.684 26.4949 176.295 28.6253 175.357 30.3156C173.229 34.1514 169.909 37.1762 165.902 38.906C161.893 40.6362 157.431 40.9691 153.215 39.8498C148.999 38.7307 145.277 36.2266 142.62 32.7416C139.965 29.2577 138.52 24.9861 138.5 20.5919C138.48 16.1978 139.886 11.9131 142.51 8.4047C145.134 4.89524 148.833 2.35642 153.039 1.19783Z" fill="#161616"/>
<path d="M80 4.5V27.5C80 32.4706 84.0294 36.5 89 36.5V36.5C93.9706 36.5 98 32.4706 98 27.5V4.5" stroke="#161616" stroke-width="7" stroke-linecap="round" stroke-linejoin="round"/>
<path d="M130 36.5L130 13.5C130 8.52941 125.971 4.49997 121 4.49997V4.49997C116.029 4.49997 112 8.52941 112 13.5L112 36.5" stroke="#161616" stroke-width="7" stroke-linecap="round" stroke-linejoin="round"/>
</svg>
