<svg width="816" height="616" viewBox="0 0 816 616" fill="none" xmlns="http://www.w3.org/2000/svg">
<g clip-path="url(#clip0)">
<path fill-rule="evenodd" clip-rule="evenodd" d="M719.874 98.0014C719.874 90.5593 726.15 84.5264 733.891 84.5264H791.962C799.703 84.5264 805.979 90.5593 805.979 98.0014C805.979 105.443 799.703 111.476 791.962 111.476H733.891C726.15 111.476 719.874 105.443 719.874 98.0014Z" fill="#1A1A1A"/>
<path fill-rule="evenodd" clip-rule="evenodd" d="M720 32.643C720 25.1092 725.726 19.002 732.788 19.002H802.212C809.274 19.002 815 25.1092 815 32.643C815 40.1767 809.274 46.284 802.212 46.284H747V143.72H802.212C809.274 143.72 815 149.827 815 157.361C815 164.895 809.274 171.002 802.212 171.002H732.788C725.726 171.002 720 164.895 720 157.361V32.643Z" fill="#1A1A1A"/>
<path fill-rule="evenodd" clip-rule="evenodd" d="M5.42857 19C2.98274 19 1 21.0704 1 23.6244V88.9209H60.52C79.0105 88.9209 94 73.2686 94 53.9604C94 34.6523 79.0105 19 60.52 19H5.42857ZM45.64 42.307H27.04V81.1519H45.64C55.9125 81.1519 64.24 72.4562 64.24 61.7294C64.24 51.0027 55.9125 42.307 45.64 42.307Z" fill="#1A1A1A"/>
<path fill-rule="evenodd" clip-rule="evenodd" d="M59.4231 88.9209H1V166.163C1 168.835 3.08933 171.002 5.66666 171.002H59.4231C81.2808 171.002 99 152.627 99 129.961C99 107.295 81.2808 88.9209 59.4231 88.9209ZM44.3462 96.7381H27.3846V147.55H44.3462C57.8771 147.55 68.8462 136.176 68.8462 122.144C68.8462 108.113 57.8771 96.7381 44.3462 96.7381Z" fill="#1A1A1A"/>
<path fill-rule="evenodd" clip-rule="evenodd" d="M198 171.028C240.526 171.028 275 136.995 275 95.0148C275 53.0341 240.526 19.002 198 19.002C155.474 19.002 121 53.0341 121 95.0148C121 136.995 155.474 171.028 198 171.028ZM198 145.072C226.005 145.072 248.708 122.66 248.708 95.0146C248.708 67.3688 226.005 44.9574 198 44.9574C169.995 44.9574 147.293 67.3688 147.293 95.0146C147.293 122.66 169.995 145.072 198 145.072Z" fill="#1A1A1A"/>
<path fill-rule="evenodd" clip-rule="evenodd" d="M609.081 21.6537C625.885 17.2502 643.721 18.3554 659.798 24.7874C675.87 31.2177 689.244 42.5938 697.884 57.0945C701.691 63.485 699.331 71.6014 692.613 75.223C685.895 78.8446 677.362 76.6 673.554 70.2095C667.925 60.7608 659.261 53.4299 648.956 49.3068C638.654 45.1854 627.253 44.4828 616.508 47.2983C605.761 50.1147 596.224 56.3082 589.415 64.97C582.602 73.636 578.913 84.2746 578.965 95.2309C579.017 106.187 582.807 116.791 589.701 125.395C596.592 133.994 606.186 140.101 616.959 142.821C627.728 145.541 639.123 144.736 649.386 140.523C659.653 136.307 668.248 128.898 673.788 119.398C677.534 112.975 686.045 110.656 692.798 114.219C699.55 117.782 701.988 125.878 698.242 132.301C689.742 146.877 676.478 158.371 660.468 164.945C644.455 171.52 626.63 172.784 609.784 168.531C592.942 164.279 578.072 154.763 567.461 141.52C556.852 128.281 551.08 112.049 551.001 95.3513C550.921 78.6535 556.538 62.3716 567.019 49.0398C577.504 35.7039 592.28 26.0563 609.081 21.6537Z" fill="#1A1A1A"/>
<path fill-rule="evenodd" clip-rule="evenodd" d="M317 19.002C324.732 19.002 331 25.1092 331 32.643V122.284C331 134.123 340.85 143.72 353 143.72C365.15 143.72 375 134.123 375 122.284V32.643C375 25.1092 381.268 19.002 389 19.002C396.732 19.002 403 25.1092 403 32.643V122.284C403 149.19 380.614 171.002 353 171.002C325.386 171.002 303 149.19 303 122.284V32.643C303 25.1092 309.268 19.002 317 19.002Z" fill="#1A1A1A"/>
<path fill-rule="evenodd" clip-rule="evenodd" d="M518 171.002C510.268 171.002 504 164.895 504 157.361L504 67.7199C504 55.8812 494.15 46.284 482 46.284C469.85 46.284 460 55.8812 460 67.7199L460 157.361C460 164.895 453.732 171.002 446 171.002C438.268 171.002 432 164.895 432 157.361L432 67.7199C432 40.8138 454.386 19.002 482 19.002C509.614 19.002 532 40.8137 532 67.7199L532 157.361C532 164.895 525.732 171.002 518 171.002Z" fill="#1A1A1A"/>
<g filter="url(#filter0_i)">
<path fill-rule="evenodd" clip-rule="evenodd" d="M238.892 63.6326C246.742 73.3401 251.156 86.1394 250.576 100.592C249.41 129.689 223.686 151.724 194.623 149.884C165.56 148.045 143.491 122.994 145.331 93.931C147.053 66.7246 169.116 45.6472 195.769 44.5743C201.038 43.7765 209.078 41.4828 210.784 34.8924C210.784 34.8924 223.632 41.2107 238.892 63.6326Z" fill="url(#paint0_linear)"/>
</g>
<g filter="url(#filter1_f)">
<path fill-rule="evenodd" clip-rule="evenodd" d="M181.27 60.7926C181.269 55.3504 185.681 50.9386 191.123 50.9385C198.742 50.9383 206.47 51.5688 214.074 54.8044C221.807 58.0953 228.496 63.6745 234.91 72.0414C238.222 76.3603 237.405 82.5458 233.086 85.8569C228.767 89.1681 222.581 88.3511 219.27 84.0321C214.353 77.6179 210.202 74.5747 206.357 72.9387C202.382 71.2474 197.793 70.6462 191.124 70.6463C185.681 70.6464 181.27 66.2347 181.27 60.7926Z" fill="white" fill-opacity="0.3"/>
</g>
<g filter="url(#filter2_d)">
<g filter="url(#filter3_i)">
<path d="M237.243 199.734C237.243 199.734 272.773 210.994 290.243 162.734L322.454 166.734C322.454 166.734 323.954 223.734 247.454 219.734L237.243 199.734Z" fill="url(#paint1_linear)"/>
</g>
<g filter="url(#filter4_i)">
<path d="M286.623 172.522C286.623 172.522 298.103 185.562 310.623 172.522C310.623 172.522 335.454 168.234 305.954 201.234L298.454 207.234L287.454 214.734C287.454 214.734 309.714 209.283 326.954 175.862C327.801 174.221 328.635 172.513 329.454 170.734C329.454 170.734 337.454 135.234 304.743 129.482C304.743 129.482 278.783 125.182 277.743 152.442C277.753 152.442 277.623 165.222 286.623 172.522Z" fill="url(#paint2_linear)"/>
</g>
<g filter="url(#filter5_f)">
<path fill-rule="evenodd" clip-rule="evenodd" d="M289.954 140.368C289.954 136.98 292.569 134.234 295.795 134.234C300.311 134.234 304.891 134.627 309.398 136.641C313.982 138.689 317.946 142.161 321.748 147.369C323.711 150.057 323.227 153.907 320.667 155.968C318.107 158.029 314.441 157.521 312.478 154.832C309.563 150.84 307.103 148.946 304.824 147.928C302.468 146.875 299.748 146.501 295.795 146.501C292.569 146.501 289.954 143.755 289.954 140.368Z" fill="#4ADFFC"/>
</g>
</g>
<g filter="url(#filter6_di)">
<path d="M79.7432 238.734C79.7432 238.734 81.7427 246.734 91.3489 243.234L91.5311 241.234V238.734V235.234V228.234C91.5311 228.234 91.3689 225.634 90.0889 224.704C90.0889 224.704 87.5311 220.234 90.1089 210.824C90.1089 210.824 102.031 173.734 140.129 186.104C140.129 186.104 208.929 215.974 152.589 300.754C152.589 300.754 119.678 350.734 176.849 363.884C176.849 363.884 165.759 390.954 144.049 409.534C144.049 409.534 138.509 413.184 130.289 416.834C130.289 416.834 116.269 422.054 119.399 439.664C119.399 439.664 119.919 467.834 128.859 481.924C128.859 481.924 137.079 491.184 146.079 479.444C146.079 479.444 184.949 434.054 197.729 412.144C197.729 412.144 224.859 366.234 227.989 342.754C227.989 342.754 238.159 306.754 196.949 306.754C196.949 306.754 195.176 306.734 195.176 305.234C195.176 305.234 194.676 303.234 196.949 303.234C196.949 303.234 238.676 298.234 232.676 342.754C232.676 342.754 232.676 366.234 188.869 434.054C188.869 434.054 179.031 447.234 176.149 460.594L147.909 526.924C147.909 526.924 147.519 536.184 129.909 547.924C129.909 547.924 125.609 550.144 128.339 561.884C128.339 561.884 131.989 583.794 139.039 593.454C139.039 593.454 144.351 602.584 151.531 593.454L181.031 530.234L210.531 466.234C210.531 466.234 272.031 350.234 255.031 263.734C255.031 263.734 236.031 150.234 138.529 150.234C138.499 150.234 65.9541 150.234 79.7432 238.734Z" fill="url(#paint3_linear)"/>
</g>
<g filter="url(#filter7_f)">
<path fill-rule="evenodd" clip-rule="evenodd" d="M201.929 337.523C199.215 335.456 197.352 332.291 197.045 328.622C196.468 321.743 201.577 315.698 208.456 315.121C214.391 314.624 219.705 318.358 221.423 323.81C226.122 334.798 222.903 358.427 210.227 366.152C211.907 351.448 208.616 344.676 201.929 337.523Z" fill="white" fill-opacity="0.3"/>
</g>
</g>
<defs>
<filter id="filter0_i" x="142" y="26.002" width="122.573" height="127.214" filterUnits="userSpaceOnUse" color-interpolation-filters="sRGB">
<feFlood flood-opacity="0" result="BackgroundImageFix"/>
<feBlend mode="normal" in="SourceGraphic" in2="BackgroundImageFix" result="shape"/>
<feColorMatrix in="SourceAlpha" type="matrix" values="0 0 0 0 0 0 0 0 0 0 0 0 0 0 0 0 0 0 127 0" result="hardAlpha"/>
<feOffset dx="10" dy="-5"/>
<feGaussianBlur stdDeviation="10"/>
<feComposite in2="hardAlpha" operator="arithmetic" k2="-1" k3="1"/>
<feColorMatrix type="matrix" values="0 0 0 0 0.00392157 0 0 0 0 0.384314 0 0 0 0 1 0 0 0 1 0"/>
<feBlend mode="normal" in2="shape" result="effect1_innerShadow"/>
</filter>
<filter id="filter1_f" x="171.27" y="40.9385" width="75.6751" height="56.9527" filterUnits="userSpaceOnUse" color-interpolation-filters="sRGB">
<feFlood flood-opacity="0" result="BackgroundImageFix"/>
<feBlend mode="normal" in="SourceGraphic" in2="BackgroundImageFix" result="shape"/>
<feGaussianBlur stdDeviation="5" result="effect1_foregroundBlur"/>
</filter>
<filter id="filter2_d" x="207.243" y="129.234" width="153.074" height="150.701" filterUnits="userSpaceOnUse" color-interpolation-filters="sRGB">
<feFlood flood-opacity="0" result="BackgroundImageFix"/>
<feColorMatrix in="SourceAlpha" type="matrix" values="0 0 0 0 0 0 0 0 0 0 0 0 0 0 0 0 0 0 127 0"/>
<feOffset dy="30"/>
<feGaussianBlur stdDeviation="15"/>
<feColorMatrix type="matrix" values="0 0 0 0 0 0 0 0 0 0 0 0 0 0 0 0 0 0 0.35 0"/>
<feBlend mode="normal" in2="BackgroundImageFix" result="effect1_dropShadow"/>
<feBlend mode="normal" in="SourceGraphic" in2="effect1_dropShadow" result="shape"/>
</filter>
<filter id="filter3_i" x="237.243" y="157.734" width="105.213" height="62.2011" filterUnits="userSpaceOnUse" color-interpolation-filters="sRGB">
<feFlood flood-opacity="0" result="BackgroundImageFix"/>
<feBlend mode="normal" in="SourceGraphic" in2="BackgroundImageFix" result="shape"/>
<feColorMatrix in="SourceAlpha" type="matrix" values="0 0 0 0 0 0 0 0 0 0 0 0 0 0 0 0 0 0 127 0" result="hardAlpha"/>
<feOffset dx="20" dy="-5"/>
<feGaussianBlur stdDeviation="17.5"/>
<feComposite in2="hardAlpha" operator="arithmetic" k2="-1" k3="1"/>
<feColorMatrix type="matrix" values="0 0 0 0 0.00392157 0 0 0 0 0.384314 0 0 0 0 1 0 0 0 1 0"/>
<feBlend mode="normal" in2="shape" result="effect1_innerShadow"/>
</filter>
<filter id="filter4_i" x="271.743" y="129.234" width="58.5741" height="90.5" filterUnits="userSpaceOnUse" color-interpolation-filters="sRGB">
<feFlood flood-opacity="0" result="BackgroundImageFix"/>
<feBlend mode="normal" in="SourceGraphic" in2="BackgroundImageFix" result="shape"/>
<feColorMatrix in="SourceAlpha" type="matrix" values="0 0 0 0 0 0 0 0 0 0 0 0 0 0 0 0 0 0 127 0" result="hardAlpha"/>
<feOffset dx="-6" dy="5"/>
<feGaussianBlur stdDeviation="5"/>
<feComposite in2="hardAlpha" operator="arithmetic" k2="-1" k3="1"/>
<feColorMatrix type="matrix" values="0 0 0 0 0.298039 0 0 0 0 0.862745 0 0 0 0 1 0 0 0 1 0"/>
<feBlend mode="normal" in2="shape" result="effect1_innerShadow"/>
</filter>
<filter id="filter5_f" x="279.954" y="124.234" width="53" height="43" filterUnits="userSpaceOnUse" color-interpolation-filters="sRGB">
<feFlood flood-opacity="0" result="BackgroundImageFix"/>
<feBlend mode="normal" in="SourceGraphic" in2="BackgroundImageFix" result="shape"/>
<feGaussianBlur stdDeviation="5" result="effect1_foregroundBlur"/>
</filter>
<filter id="filter6_di" x="28" y="150.234" width="254.002" height="507.278" filterUnits="userSpaceOnUse" color-interpolation-filters="sRGB">
<feFlood flood-opacity="0" result="BackgroundImageFix"/>
<feColorMatrix in="SourceAlpha" type="matrix" values="0 0 0 0 0 0 0 0 0 0 0 0 0 0 0 0 0 0 127 0"/>
<feOffset dx="-20" dy="30"/>
<feGaussianBlur stdDeviation="15"/>
<feColorMatrix type="matrix" values="0 0 0 0 0 0 0 0 0 0 0 0 0 0 0 0 0 0 0.35 0"/>
<feBlend mode="normal" in2="BackgroundImageFix" result="effect1_dropShadow"/>
<feBlend mode="normal" in="SourceGraphic" in2="effect1_dropShadow" result="shape"/>
<feColorMatrix in="SourceAlpha" type="matrix" values="0 0 0 0 0 0 0 0 0 0 0 0 0 0 0 0 0 0 127 0" result="hardAlpha"/>
<feOffset dx="24"/>
<feGaussianBlur stdDeviation="20"/>
<feComposite in2="hardAlpha" operator="arithmetic" k2="-1" k3="1"/>
<feColorMatrix type="matrix" values="0 0 0 0 0.00392157 0 0 0 0 0.384314 0 0 0 0 1 0 0 0 1 0"/>
<feBlend mode="normal" in2="shape" result="effect2_innerShadow"/>
</filter>
<filter id="filter7_f" x="186" y="304.002" width="50.0626" height="72.9854" filterUnits="userSpaceOnUse" color-interpolation-filters="sRGB">
<feFlood flood-opacity="0" result="BackgroundImageFix"/>
<feBlend mode="normal" in="SourceGraphic" in2="BackgroundImageFix" result="shape"/>
<feGaussianBlur stdDeviation="5" result="effect1_foregroundBlur"/>
</filter>
<linearGradient id="paint0_linear" x1="246.244" y1="57.4979" x2="225.815" y2="143.27" gradientUnits="userSpaceOnUse">
<stop stop-color="#23C8FE"/>
<stop offset="1" stop-color="#037CFF"/>
</linearGradient>
<linearGradient id="paint1_linear" x1="321.954" y1="163.234" x2="319.836" y2="211.999" gradientUnits="userSpaceOnUse">
<stop stop-color="#00B2FF"/>
<stop offset="1" stop-color="#006FFD"/>
</linearGradient>
<linearGradient id="paint2_linear" x1="321.954" y1="134.234" x2="308.362" y2="181.782" gradientUnits="userSpaceOnUse">
<stop stop-color="#1FDBFD"/>
<stop offset="1" stop-color="#0194FE"/>
</linearGradient>
<linearGradient id="paint3_linear" x1="245.954" y1="228.734" x2="245.954" y2="787.234" gradientUnits="userSpaceOnUse">
<stop stop-color="#00C0FF"/>
<stop offset="1" stop-color="#006FFD"/>
</linearGradient>
<clipPath id="clip0">
<rect width="816" height="616" fill="white"/>
</clipPath>
</defs>
</svg>
