<svg width="150" height="28" viewBox="0 0 150 28" fill="none" xmlns="http://www.w3.org/2000/svg">
<path fill-rule="evenodd" clip-rule="evenodd" d="M132.4 14.5501C132.4 13.1795 133.556 12.0684 134.982 12.0684H145.677C147.103 12.0684 148.259 13.1795 148.259 14.5501C148.259 15.9208 147.103 17.0319 145.677 17.0319H134.982C133.556 17.0319 132.4 15.9208 132.4 14.5501Z" fill="#1A1A1A"/>
<path fill-rule="evenodd" clip-rule="evenodd" d="M132.423 2.51285C132.423 1.12531 133.477 0.000488281 134.778 0.000488281H147.564C148.865 0.000488281 149.92 1.12531 149.92 2.51285C149.92 3.90039 148.865 5.02522 147.564 5.02522H137.396V22.9707H147.564C148.865 22.9707 149.92 24.0955 149.92 25.483C149.92 26.8706 148.865 27.9954 147.564 27.9954H134.778C133.477 27.9954 132.423 26.8706 132.423 25.483V2.51285Z" fill="#1A1A1A"/>
<path fill-rule="evenodd" clip-rule="evenodd" d="M0.815641 0C0.365175 0 0 0.381323 0 0.851708V12.8778H10.9622C14.3677 12.8778 17.1285 9.99503 17.1285 6.43891C17.1285 2.8828 14.3677 0 10.9622 0H0.815641ZM8.22166 4.29261H4.79597V11.447H8.22166C10.1136 11.447 11.6474 9.8454 11.6474 7.86978C11.6474 5.89416 10.1136 4.29261 8.22166 4.29261Z" fill="#1A1A1A"/>
<path fill-rule="evenodd" clip-rule="evenodd" d="M10.7602 12.8779H0V27.1041C0 27.5963 0.384807 27.9954 0.859492 27.9954H10.7602C14.7859 27.9954 18.0494 24.6112 18.0494 20.4367C18.0494 16.2621 14.7859 12.8779 10.7602 12.8779ZM7.98337 14.3177H4.85944V23.6761H7.98337C10.4755 23.6761 12.4957 21.5812 12.4957 18.9969C12.4957 16.4126 10.4755 14.3177 7.98337 14.3177Z" fill="#1A1A1A"/>
<path fill-rule="evenodd" clip-rule="evenodd" d="M36.2832 28.0001C44.1155 28.0001 50.4648 21.7322 50.4648 14.0003C50.4648 6.26842 44.1155 0.000488281 36.2832 0.000488281C28.4509 0.000488281 22.1016 6.26842 22.1016 14.0003C22.1016 21.7322 28.4509 28.0001 36.2832 28.0001ZM36.2833 23.2197C41.4411 23.2197 45.6224 19.092 45.6224 14.0003C45.6224 8.90855 41.4411 4.78088 36.2833 4.78088C31.1254 4.78088 26.9441 8.90855 26.9441 14.0003C26.9441 19.092 31.1254 23.2197 36.2833 23.2197Z" fill="#1A1A1A"/>
<path fill-rule="evenodd" clip-rule="evenodd" d="M111.995 0.488882C115.09 -0.322143 118.375 -0.118591 121.336 1.06604C124.296 2.25035 126.759 4.34557 128.35 7.01626C129.052 8.19324 128.617 9.6881 127.38 10.3551C126.142 11.0221 124.571 10.6087 123.87 9.43174C122.833 7.69151 121.237 6.34133 119.339 5.58195C117.442 4.82289 115.342 4.69347 113.363 5.21203C111.384 5.73075 109.627 6.87144 108.373 8.46675C107.118 10.0628 106.439 12.0222 106.448 14.0401C106.458 16.058 107.156 18.0111 108.426 19.5956C109.695 21.1794 111.462 22.3042 113.446 22.8052C115.429 23.306 117.528 23.1579 119.418 22.3818C121.309 21.6054 122.892 20.2408 123.913 18.4912C124.602 17.3082 126.17 16.8811 127.414 17.5373C128.657 18.1936 129.106 19.6846 128.416 20.8676C126.851 23.5522 124.408 25.6692 121.459 26.8798C118.51 28.0907 115.227 28.3237 112.125 27.5403C109.023 26.7571 106.284 25.0045 104.33 22.5655C102.376 20.1272 101.313 17.1376 101.298 14.0623C101.283 10.9869 102.318 7.98818 104.248 5.53278C106.179 3.0766 108.901 1.29974 111.995 0.488882Z" fill="#1A1A1A"/>
<path fill-rule="evenodd" clip-rule="evenodd" d="M58.1996 0.000488281C59.6236 0.000488281 60.7781 1.12531 60.7781 2.51285V19.0227C60.7781 21.2031 62.5921 22.9707 64.8299 22.9707C67.0677 22.9707 68.8818 21.2031 68.8818 19.0227V2.51285C68.8818 1.12531 70.0363 0.000488281 71.4603 0.000488281C72.8844 0.000488281 74.0388 1.12531 74.0388 2.51285V19.0227C74.0388 23.9782 69.9159 27.9954 64.8299 27.9954C59.744 27.9954 55.6211 23.9782 55.6211 19.0227V2.51285C55.6211 1.12531 56.7755 0.000488281 58.1996 0.000488281Z" fill="#1A1A1A"/>
<path fill-rule="evenodd" clip-rule="evenodd" d="M95.2194 27.9951C93.7953 27.9951 92.6409 26.8703 92.6409 25.4828L92.6409 8.97292C92.6409 6.79251 90.8268 5.02493 88.589 5.02493C86.3512 5.02493 84.5371 6.79251 84.5371 8.97293L84.5371 25.4828C84.5371 26.8703 83.3827 27.9951 81.9586 27.9951C80.5346 27.9951 79.3801 26.8703 79.3801 25.4828L79.3801 8.97293C79.3801 4.01743 83.5031 0.000200958 88.589 0.00020138C93.6749 0.000201802 97.7979 4.01743 97.7979 8.97293L97.7979 25.4828C97.7979 26.8703 96.6434 27.9951 95.2194 27.9951Z" fill="#1A1A1A"/>
</svg>
