<?xml version="1.0" encoding="utf-8"?>
<!-- Generator: Adobe Illustrator 25.3.1, SVG Export Plug-In . SVG Version: 6.00 Build 0)  -->
<svg version="1.1" id="Capa_1" xmlns="http://www.w3.org/2000/svg" xmlns:xlink="http://www.w3.org/1999/xlink" x="0px" y="0px"
	 viewBox="0 0 512 512" style="enable-background:new 0 0 512 512;" xml:space="preserve">
<style type="text/css">
	.st0{fill:#1483F7;}
</style>
<g>
	<g>
		<g>
			<g>
				<circle class="st0" cx="256" cy="277.3" r="106.7"/>
				<path class="st0" d="M469.3,106.7h-67.7c-8.6,0-16.6-3.3-22.6-9.4l-39-39c-10.1-10.1-23.5-15.6-37.7-15.6h-92.6
					c-14.2,0-27.6,5.6-37.7,15.6l-39,39c-6.1,6-14.1,9.4-22.6,9.4H42.7C19.1,106.7,0,125.8,0,149.3v277.3
					c0,23.5,19.1,42.7,42.7,42.7h426.7c23.5,0,42.7-19.1,42.7-42.7V149.3C512,125.8,492.9,106.7,469.3,106.7z M256,405.3
					c-70.6,0-128-57.4-128-128s57.4-128,128-128s128,57.4,128,128S326.6,405.3,256,405.3z M426.7,213.3c-11.8,0-21.3-9.6-21.3-21.3
					c0-11.8,9.6-21.3,21.3-21.3c11.8,0,21.3,9.6,21.3,21.3C448,203.8,438.4,213.3,426.7,213.3z"/>
			</g>
		</g>
	</g>
</g>
</svg>
