<svg width="16" height="17" viewBox="0 0 16 17" fill="none" xmlns="http://www.w3.org/2000/svg">
<path d="M1.53906 8.97656L7.45312 9C7.5625 9 7.61719 9.04688 7.61719 9.16406L7.63281 15.0625C7.63281 15.8047 7.96094 16.4141 8.57812 16.4141C9.17188 16.4141 9.49219 15.8594 9.77344 15.2422L15.7578 2.35156C15.9062 2.04688 15.9766 1.77344 15.9766 1.54688C15.9766 1.03125 15.5938 0.640625 15.0703 0.640625C14.8359 0.640625 14.5625 0.703125 14.2578 0.851562L1.36719 6.82812C0.773438 7.10156 0.195312 7.42969 0.195312 8.03125C0.195312 8.63281 0.773438 8.97656 1.53906 8.97656Z" fill="#1FAEF7"/>
</svg>
