<svg width="24" height="26" viewBox="0 0 24 26" fill="none" xmlns="http://www.w3.org/2000/svg">
<path d="M23 12.3118C23.0042 13.9366 22.6273 15.5393 21.9 16.9895C21.0376 18.7273 19.7119 20.189 18.0713 21.2108C16.4307 22.2326 14.5401 22.7743 12.6111 22.775C10.9979 22.7793 9.40657 22.3997 7.96666 21.6672L1 24.006L3.32222 16.9895C2.59491 15.5393 2.21801 13.9366 2.22222 12.3118C2.22297 10.3691 2.76074 8.4649 3.77532 6.81258C4.78989 5.16026 6.24119 3.82506 7.96666 2.95653C9.40657 2.22403 10.9979 1.84443 12.6111 1.84867H13.2222C15.7697 1.99022 18.1759 3.07318 19.98 4.8902C21.7841 6.70722 22.8594 9.13061 23 11.6964V12.3118Z" stroke="white" stroke-width="2" stroke-linecap="round" stroke-linejoin="round"/>
</svg>
