<svg width="36" height="36" viewBox="0 0 36 36" fill="none" xmlns="http://www.w3.org/2000/svg">
<g clip-path="url(#clip0)">
<rect width="36" height="36" rx="6" fill="#1FAEF7"/>
<g filter="url(#filter0_d)">
<path d="M28.8618 5.07413C28.5123 4.90111 28.0921 5.04118 27.9176 5.38791L21.4995 18.2354L20.2424 17.6058C19.2015 17.0846 17.9326 17.509 17.4114 18.5471L17.0967 19.1755L24.6415 22.9544L24.9562 22.3257C25.4759 21.2878 25.0606 20.0204 24.0148 19.4954L22.7575 18.8656L29.1756 6.01824C29.3493 5.6708 29.2085 5.2485 28.8618 5.07413V5.07413Z" fill="white" stroke="white" stroke-width="0.5"/>
<path d="M13.7344 30.625C14.1227 30.625 14.4375 30.3102 14.4375 29.9219C14.4375 29.5336 14.1227 29.2188 13.7344 29.2188C13.3461 29.2188 13.0312 29.5336 13.0312 29.9219C13.0312 30.3102 13.3461 30.625 13.7344 30.625Z" fill="white"/>
<path d="M6.70313 26.4063C7.09145 26.4063 7.40625 26.0915 7.40625 25.7031C7.40625 25.3148 7.09145 25 6.70313 25C6.3148 25 6 25.3148 6 25.7031C6 26.0915 6.3148 26.4063 6.70313 26.4063Z" fill="white"/>
<path d="M9.51563 27.8125C9.90395 27.8125 10.2188 27.4977 10.2188 27.1094C10.2188 26.7211 9.90395 26.4062 9.51563 26.4062C9.1273 26.4062 8.8125 26.7211 8.8125 27.1094C8.8125 27.4977 9.1273 27.8125 9.51563 27.8125Z" fill="white"/>
<path d="M10.9219 29.2188H8.10938C7.72144 29.2188 7.40625 28.9036 7.40625 28.5156C7.40625 28.127 7.09177 27.8125 6.70313 27.8125C6.31448 27.8125 6 28.127 6 28.5156C6 29.6788 6.94622 30.625 8.10938 30.625H10.9219C11.3105 30.625 11.625 30.3105 11.625 29.9219C11.625 29.5332 11.3105 29.2188 10.9219 29.2188Z" fill="white"/>
<path d="M10.7173 23.1909C10.4097 23.2294 10.1639 23.4649 10.1117 23.7698C10.0595 24.0754 10.2126 24.3789 10.4894 24.5176L13.8491 26.1999C14.4555 26.5034 15.1256 26.6242 15.7793 26.5548C15.7024 26.8666 15.8486 27.201 16.1474 27.3513L19.2908 28.9258C19.555 29.0561 19.8613 29.0102 20.073 28.8228C20.183 28.7248 22.5778 26.5702 23.9776 24.1954L16.4024 20.4014C14.7052 22.6565 10.7604 23.1853 10.7173 23.1909V23.1909Z" fill="white" stroke="white" stroke-width="0.5"/>
<path d="M9.06988 17.4788C9.61101 18.2003 10.3686 19.968 9.06988 21.2667C8.52874 20.7256 7.77115 19.2104 9.06988 17.4788Z" fill="white"/>
<path d="M7 19.3727C7.82459 18.7602 9.57426 17.9027 11.0585 19.3727C10.4401 19.9853 8.97901 20.8428 7 19.3727Z" fill="white"/>
<path d="M13.6967 14.5411C14.0832 15.0565 14.6243 16.3192 13.6967 17.2468C13.3101 16.8603 12.769 15.778 13.6967 14.5411Z" fill="white"/>
<path d="M12.2181 15.894C12.8071 15.4564 14.0569 14.8439 15.1171 15.894C14.6753 16.3315 13.6317 16.944 12.2181 15.894Z" fill="white"/>
<path d="M8.05605 14C8.33214 14.3681 8.71866 15.27 8.05605 15.9326C7.77996 15.6565 7.39343 14.8835 8.05605 14Z" fill="white"/>
<path d="M7 14.9664C7.42071 14.6538 8.3134 14.2163 9.07067 14.9664C8.75514 15.2789 8.0097 15.7164 7 14.9664Z" fill="white"/>
</g>
</g>
<defs>
<filter id="filter0_d" x="-4" y="-5.25006" width="43.5001" height="45.8751" filterUnits="userSpaceOnUse" color-interpolation-filters="sRGB">
<feFlood flood-opacity="0" result="BackgroundImageFix"/>
<feColorMatrix in="SourceAlpha" type="matrix" values="0 0 0 0 0 0 0 0 0 0 0 0 0 0 0 0 0 0 127 0"/>
<feOffset/>
<feGaussianBlur stdDeviation="5"/>
<feColorMatrix type="matrix" values="0 0 0 0 0 0 0 0 0 0 0 0 0 0 0 0 0 0 0.1 0"/>
<feBlend mode="normal" in2="BackgroundImageFix" result="effect1_dropShadow"/>
<feBlend mode="normal" in="SourceGraphic" in2="effect1_dropShadow" result="shape"/>
</filter>
<clipPath id="clip0">
<rect width="36" height="36" fill="white"/>
</clipPath>
</defs>
</svg>
