<svg width="24" height="25" viewBox="0 0 24 25" fill="none" xmlns="http://www.w3.org/2000/svg">
<rect y="0.5" width="24" height="24" rx="12" fill="#F1DAFC"/>
<rect x="12.6875" y="10.1382" width="5.5" height="8.866" rx="1" fill="#CF69FF"/>
<rect x="5.8125" y="10.1382" width="5.5" height="8.866" rx="1" fill="#CF69FF"/>
<rect x="10.2803" y="7.89307" width="3.44086" height="8.49658" rx="1.5" fill="#CF69FF"/>
<path d="M11.3484 4.55983C11.7231 4.23786 12.2769 4.23786 12.6516 4.55983L19.4793 10.4255C20.1831 11.0301 19.7555 12.184 18.8277 12.184H5.17231C4.24446 12.184 3.81687 11.0301 4.52066 10.4255L11.3484 4.55983Z" fill="#CF69FF"/>
<path d="M8.56348 16.2302C8.56348 15.1257 9.45891 14.2302 10.5635 14.2302H13.4385C14.543 14.2302 15.4385 15.1257 15.4385 16.2302V19.0502C15.4385 20.1548 14.543 21.0502 13.4385 21.0502H10.5635C9.45891 21.0502 8.56348 20.1548 8.56348 19.0502V16.2302Z" fill="#F1DAFC"/>
<ellipse cx="12.001" cy="10.8202" rx="2.0625" ry="2.046" fill="#F1DAFC"/>
</svg>
