<svg width="24" height="19" viewBox="0 0 24 19" fill="none" xmlns="http://www.w3.org/2000/svg">
<rect x="12.75" y="6.69611" width="6" height="9.672" rx="1" fill="white"/>
<rect x="5.25" y="6.69611" width="6" height="9.672" rx="1" fill="white"/>
<rect x="10.1235" y="4.24713" width="3.75367" height="9.269" rx="1.5" fill="white"/>
<path d="M11.3484 0.559826C11.7231 0.237858 12.2769 0.237858 12.6516 0.559827L20.3454 7.16948C21.0492 7.77411 20.6216 8.928 19.6937 8.928H4.30629C3.37844 8.928 2.95084 7.77411 3.65464 7.16948L11.3484 0.559826Z" fill="white"/>
<path d="M8.25 13.16C8.25 12.0554 9.14543 11.16 10.25 11.16H13.75C14.8546 11.16 15.75 12.0554 15.75 13.16V16.6C15.75 17.7045 14.8546 18.6 13.75 18.6H10.25C9.14543 18.6 8.25 17.7045 8.25 16.6V13.16Z" fill="#FF795B"/>
<ellipse cx="12" cy="7.44013" rx="2.25" ry="2.232" fill="#FF795B"/>
</svg>
