<svg width="30" height="32" viewBox="0 0 30 32" fill="none" xmlns="http://www.w3.org/2000/svg">
<path d="M26.6004 24.8634C26.6004 26.3158 25.5511 27.8308 23.4171 29.0394C21.3131 30.2311 18.3395 30.9998 15.0004 30.9998C11.6613 30.9998 8.68764 30.2311 6.58367 29.0394C4.44971 27.8308 3.40039 26.3158 3.40039 24.8634C3.40039 23.411 4.44971 21.896 6.58367 20.6874C8.68764 19.4957 11.6613 18.7271 15.0004 18.7271C18.3395 18.7271 21.3131 19.4957 23.4171 20.6874C25.5511 21.896 26.6004 23.411 26.6004 24.8634Z" fill="white" stroke="#1A1A1A" stroke-width="2"/>
<path d="M15.0002 21.4619C18.5874 21.4619 21.0502 17.9413 21.0502 14.2119C21.0502 10.4826 18.5874 6.96191 15.0002 6.96191C11.413 6.96191 8.9502 10.4826 8.9502 14.2119C8.9502 17.9413 11.413 21.4619 15.0002 21.4619Z" fill="white" stroke="#1A1A1A" stroke-width="2.5"/>
<path d="M29.5 15.4675C29.5 23.3982 23.0123 29.8349 15 29.8349C6.98768 29.8349 0.5 23.3982 0.5 15.4675C0.5 7.53678 6.98768 1.1001 15 1.1001C23.0123 1.1001 29.5 7.53678 29.5 15.4675Z" stroke="white"/>
</svg>
