<svg width="18" height="19" viewBox="0 0 18 19" fill="none" xmlns="http://www.w3.org/2000/svg">
<path d="M14.8521 16.5562L15.4248 4.48682H16.4209C16.7612 4.48682 17.0352 4.19629 17.0352 3.85596C17.0352 3.51562 16.7612 3.2334 16.4209 3.2334H12.6274V1.98828C12.6274 0.792969 11.8223 0.0292969 10.5439 0.0292969H7.43945C6.16113 0.0292969 5.36426 0.792969 5.36426 1.98828V3.2334H1.5791C1.24707 3.2334 0.964844 3.52393 0.964844 3.85596C0.964844 4.19629 1.24707 4.48682 1.5791 4.48682H2.5835L3.15625 16.5645C3.21436 17.7515 3.99463 18.5151 5.19824 18.5151H12.8101C13.9971 18.5151 14.7939 17.7432 14.8521 16.5562ZM6.69238 2.07129C6.69238 1.59814 7.03271 1.26611 7.53906 1.26611H10.4526C10.959 1.26611 11.3076 1.59814 11.3076 2.07129V3.2334H6.69238V2.07129ZM5.31445 17.2617C4.84131 17.2617 4.48438 16.9048 4.45947 16.415L3.87842 4.48682H14.0967L13.5488 16.415C13.5239 16.9131 13.1753 17.2617 12.6772 17.2617H5.31445ZM11.4653 15.8091C11.7393 15.8091 11.9385 15.585 11.9468 15.2695L12.1958 6.56201C12.2041 6.25488 11.9966 6.02246 11.7144 6.02246C11.457 6.02246 11.2412 6.26318 11.2329 6.56201L10.9839 15.2612C10.9756 15.5684 11.1831 15.8091 11.4653 15.8091ZM6.54297 15.8091C6.8252 15.8091 7.03271 15.5684 7.02441 15.2612L6.76709 6.56201C6.75879 6.26318 6.54297 6.02246 6.28564 6.02246C6.00342 6.02246 5.7959 6.25488 5.8042 6.56201L6.05322 15.2695C6.06152 15.585 6.26074 15.8091 6.54297 15.8091ZM9 15.8091C9.27393 15.8091 9.50635 15.5684 9.50635 15.2695V6.56201C9.50635 6.26318 9.27393 6.02246 9 6.02246C8.73438 6.02246 8.50195 6.26318 8.50195 6.56201V15.2695C8.50195 15.5684 8.73438 15.8091 9 15.8091Z" fill="black"/>
</svg>
