<svg width="36" height="36" viewBox="0 0 36 36" fill="none" xmlns="http://www.w3.org/2000/svg">
<g clip-path="url(#clip0)">
<circle cx="18" cy="18" r="18" fill="#1FAEF7"/>
<g filter="url(#filter0_d)">
<path d="M17.9293 7C15.01 7 12.2654 8.13688 10.2011 10.2011C8.13684 12.2654 7 15.01 7 17.9293C7 20.8486 8.13684 23.5932 10.2011 25.6575C12.2654 27.7218 15.01 28.8587 17.9294 28.8587C18.6535 28.8587 19.3669 28.7885 20.0618 28.6518C18.955 27.3503 18.1269 25.8662 17.5987 24.2339L16.7368 21.5702C15.2062 21.0676 14.0975 19.6259 14.0975 17.9293C14.0975 15.8164 15.8165 14.0974 17.9294 14.0974C18.6466 14.0974 19.3181 14.2959 19.8927 14.6402V13.5274C19.8927 12.4594 20.7616 11.5905 21.8296 11.5905C22.0353 11.5905 22.2334 11.623 22.4195 11.6826V11.4463C22.4195 10.3783 23.2884 9.50938 24.3564 9.50938C24.6017 9.50938 24.8362 9.5557 25.0523 9.6392C23.0711 7.93159 20.5718 7 17.9293 7Z" fill="white"/>
<path d="M17.9293 15.4445C16.5591 15.4445 15.4445 16.5591 15.4445 17.9292C15.4445 18.5799 15.6962 19.1727 16.107 19.6161C15.8576 18.6987 16.2788 17.737 17.1343 17.3008L17.3594 17.186C17.3699 17.1807 17.3804 17.1757 17.3911 17.1709C18.306 16.7629 19.3597 17.0874 19.8926 17.9069V17.7126V16.409C19.4377 15.8228 18.727 15.4445 17.9293 15.4445Z" fill="white"/>
<path d="M29.4102 14.1166C29.0849 14.1166 28.8204 14.3812 28.8204 14.7064V18.8861C28.8204 19.258 28.5188 19.5596 28.1468 19.5596C27.7748 19.5596 27.4732 19.258 27.4732 18.8861V12.078C27.4732 11.7527 27.2086 11.4881 26.8834 11.4881C26.5581 11.4881 26.2935 11.7528 26.2935 12.078V18.8861C26.2935 19.258 25.9919 19.5596 25.6199 19.5596C25.2479 19.5596 24.9464 19.258 24.9464 18.8861V12.078V11.4463C24.9464 11.121 24.6817 10.8564 24.3565 10.8564C24.0313 10.8564 23.7666 11.1211 23.7666 11.4463V18.9462C23.7666 19.3182 23.4651 19.6198 23.0931 19.6198C22.7211 19.6198 22.4195 19.3182 22.4195 18.9462V13.5274C22.4195 13.2021 22.1549 12.9375 21.8297 12.9375C21.5044 12.9375 21.2398 13.2022 21.2398 13.5274V20.7541C21.2398 21.067 21.0243 21.3387 20.7197 21.4099C20.4152 21.4813 20.1015 21.3333 19.9626 21.0529L18.804 18.7127C18.6477 18.397 18.2762 18.2597 17.9531 18.3955L17.7463 18.501C17.4544 18.6498 17.3158 18.9841 17.4166 19.2958L18.8803 23.8192C19.3909 25.3973 20.2138 26.8212 21.3261 28.0516L22.0198 28.8191C22.1318 28.9429 22.1937 29.1039 22.1937 29.2708V29.7994H28.5272L28.5319 29.2648C28.5329 29.1558 28.5603 29.0487 28.6118 28.9526C29.5164 27.2649 29.995 25.3606 29.9959 23.4458L30.0001 14.7061C30.0001 14.3812 29.7355 14.1166 29.4102 14.1166Z" fill="white"/>
</g>
</g>
<defs>
<filter id="filter0_d" x="-3" y="-3" width="43.0001" height="42.7994" filterUnits="userSpaceOnUse" color-interpolation-filters="sRGB">
<feFlood flood-opacity="0" result="BackgroundImageFix"/>
<feColorMatrix in="SourceAlpha" type="matrix" values="0 0 0 0 0 0 0 0 0 0 0 0 0 0 0 0 0 0 127 0"/>
<feOffset/>
<feGaussianBlur stdDeviation="5"/>
<feColorMatrix type="matrix" values="0 0 0 0 0 0 0 0 0 0 0 0 0 0 0 0 0 0 0.1 0"/>
<feBlend mode="normal" in2="BackgroundImageFix" result="effect1_dropShadow"/>
<feBlend mode="normal" in="SourceGraphic" in2="effect1_dropShadow" result="shape"/>
</filter>
<clipPath id="clip0">
<rect width="36" height="36" fill="white"/>
</clipPath>
</defs>
</svg>
