<svg width="10" height="20" viewBox="0 0 10 20" fill="none" xmlns="http://www.w3.org/2000/svg">
<path d="M6.63086 13.2305C6.63086 12.7161 6.50391 12.3125 6.25 12.0195C5.99609 11.7266 5.55013 11.4499 4.91211 11.1895C4.27409 10.929 3.6849 10.6654 3.14453 10.3984C2.60417 10.1315 2.13867 9.82227 1.74805 9.4707C1.35742 9.11914 1.05794 8.71224 0.849609 8.25C0.641276 7.78776 0.537109 7.22786 0.537109 6.57031C0.537109 5.47005 0.908203 4.5651 1.65039 3.85547C2.39258 3.13932 3.38216 2.72266 4.61914 2.60547V0.544922H6.17188V2.64453C7.36328 2.82031 8.29753 3.31185 8.97461 4.11914C9.6582 4.91992 10 5.9388 10 7.17578H6.69922C6.69922 6.4987 6.56901 5.97786 6.30859 5.61328C6.04818 5.2487 5.67708 5.06641 5.19531 5.06641C4.76562 5.06641 4.43034 5.20312 4.18945 5.47656C3.95508 5.74349 3.83789 6.11458 3.83789 6.58984C3.83789 7.07161 3.97461 7.45573 4.24805 7.74219C4.52148 8.02214 4.96094 8.29232 5.56641 8.55273C6.17188 8.80664 6.74154 9.07357 7.27539 9.35352C7.81576 9.62695 8.28125 9.93945 8.67188 10.291C9.0625 10.6426 9.36849 11.0527 9.58984 11.5215C9.8112 11.9902 9.92188 12.5534 9.92188 13.2109C9.92188 14.3242 9.56706 15.2324 8.85742 15.9355C8.1543 16.6387 7.19401 17.0488 5.97656 17.166V19.1289H4.42383V17.1562C3.00456 17.0065 1.91406 16.5215 1.15234 15.7012C0.397135 14.8743 0.0195312 13.7871 0.0195312 12.4395H3.31055C3.31055 13.1816 3.47331 13.748 3.79883 14.1387C4.13086 14.5228 4.59961 14.7148 5.20508 14.7148C5.64779 14.7148 5.99609 14.5846 6.25 14.3242C6.50391 14.0573 6.63086 13.6927 6.63086 13.2305Z" fill="#FBFBFB"/>
</svg>
