<svg width="11" height="18" viewBox="0 0 11 18" fill="none" xmlns="http://www.w3.org/2000/svg">
<path d="M5.976 17.836C5.82 17.836 5.688 17.782 5.58 17.674C5.472 17.566 5.418 17.434 5.418 17.278V16.162C4.722 16.126 4.062 16 3.438 15.784C2.826 15.568 2.292 15.274 1.836 14.902C1.392 14.518 1.062 14.068 0.846 13.552C0.738 13.3 0.738 13.072 0.846 12.868C0.966 12.652 1.17 12.514 1.458 12.454C1.662 12.406 1.86 12.442 2.052 12.562C2.244 12.67 2.388 12.832 2.484 13.048C2.664 13.444 3.024 13.78 3.564 14.056C4.104 14.32 4.722 14.476 5.418 14.524V9.61C4.146 9.418 3.138 8.974 2.394 8.278C1.662 7.582 1.296 6.73 1.296 5.722C1.296 5.014 1.476 4.402 1.836 3.886C2.208 3.358 2.7 2.944 3.312 2.644C3.936 2.332 4.638 2.14 5.418 2.068V1.204C5.418 1.036 5.472 0.903999 5.58 0.807999C5.688 0.699999 5.82 0.645999 5.976 0.645999C6.144 0.645999 6.276 0.699999 6.372 0.807999C6.48 0.903999 6.534 1.036 6.534 1.204V2.068C7.47 2.14 8.232 2.392 8.82 2.824C9.408 3.244 9.894 3.784 10.278 4.444C10.434 4.708 10.5 4.954 10.476 5.182C10.452 5.398 10.338 5.572 10.134 5.704C9.93 5.848 9.708 5.884 9.468 5.812C9.228 5.728 9.042 5.572 8.91 5.344C8.67 4.9 8.364 4.534 7.992 4.246C7.62 3.958 7.134 3.772 6.534 3.688V8.206C7.77 8.374 8.748 8.8 9.468 9.484C10.2 10.168 10.566 11.068 10.566 12.184C10.566 12.988 10.374 13.672 9.99 14.236C9.618 14.788 9.12 15.226 8.496 15.55C7.884 15.874 7.23 16.072 6.534 16.144V17.278C6.534 17.434 6.48 17.566 6.372 17.674C6.276 17.782 6.144 17.836 5.976 17.836ZM3.078 5.74C3.078 6.052 3.138 6.358 3.258 6.658C3.39 6.958 3.624 7.234 3.96 7.486C4.296 7.726 4.782 7.912 5.418 8.044V3.67C4.734 3.742 4.17 3.952 3.726 4.3C3.294 4.648 3.078 5.128 3.078 5.74ZM8.766 12.238C8.766 11.698 8.592 11.206 8.244 10.762C7.896 10.306 7.326 9.982 6.534 9.79V14.488C7.146 14.38 7.668 14.14 8.1 13.768C8.544 13.384 8.766 12.874 8.766 12.238Z" fill="#696969"/>
</svg>
