<svg width="24" height="24" viewBox="0 0 24 24" fill="none" xmlns="http://www.w3.org/2000/svg">
<g filter="url(#filter0_i)">
<rect width="24" height="24" rx="12" fill="white"/>
</g>
<path d="M13.6309 15.2305C13.6309 14.7161 13.5039 14.3125 13.25 14.0195C12.9961 13.7266 12.5501 13.4499 11.9121 13.1895C11.2741 12.929 10.6849 12.6654 10.1445 12.3984C9.60417 12.1315 9.13867 11.8223 8.74805 11.4707C8.35742 11.1191 8.05794 10.7122 7.84961 10.25C7.64128 9.78776 7.53711 9.22786 7.53711 8.57031C7.53711 7.47005 7.9082 6.5651 8.65039 5.85547C9.39258 5.13932 10.3822 4.72266 11.6191 4.60547V2.54492H13.1719V4.64453C14.3633 4.82031 15.2975 5.31185 15.9746 6.11914C16.6582 6.91992 17 7.9388 17 9.17578H13.6992C13.6992 8.4987 13.569 7.97786 13.3086 7.61328C13.0482 7.2487 12.6771 7.06641 12.1953 7.06641C11.7656 7.06641 11.4303 7.20312 11.1895 7.47656C10.9551 7.74349 10.8379 8.11458 10.8379 8.58984C10.8379 9.07161 10.9746 9.45573 11.248 9.74219C11.5215 10.0221 11.9609 10.2923 12.5664 10.5527C13.1719 10.8066 13.7415 11.0736 14.2754 11.3535C14.8158 11.627 15.2812 11.9395 15.6719 12.291C16.0625 12.6426 16.3685 13.0527 16.5898 13.5215C16.8112 13.9902 16.9219 14.5534 16.9219 15.2109C16.9219 16.3242 16.5671 17.2324 15.8574 17.9355C15.1543 18.6387 14.194 19.0488 12.9766 19.166V21.1289H11.4238V19.1562C10.0046 19.0065 8.91406 18.5215 8.15234 17.7012C7.39714 16.8743 7.01953 15.7871 7.01953 14.4395H10.3105C10.3105 15.1816 10.4733 15.748 10.7988 16.1387C11.1309 16.5228 11.5996 16.7148 12.2051 16.7148C12.6478 16.7148 12.9961 16.5846 13.25 16.3242C13.5039 16.0573 13.6309 15.6927 13.6309 15.2305Z" fill="#212121"/>
<defs>
<filter id="filter0_i" x="0" y="0" width="24" height="24" filterUnits="userSpaceOnUse" color-interpolation-filters="sRGB">
<feFlood flood-opacity="0" result="BackgroundImageFix"/>
<feBlend mode="normal" in="SourceGraphic" in2="BackgroundImageFix" result="shape"/>
<feColorMatrix in="SourceAlpha" type="matrix" values="0 0 0 0 0 0 0 0 0 0 0 0 0 0 0 0 0 0 127 0" result="hardAlpha"/>
<feOffset/>
<feGaussianBlur stdDeviation="6.5"/>
<feComposite in2="hardAlpha" operator="arithmetic" k2="-1" k3="1"/>
<feColorMatrix type="matrix" values="0 0 0 0 0 0 0 0 0 0 0 0 0 0 0 0 0 0 0.13 0"/>
<feBlend mode="normal" in2="shape" result="effect1_innerShadow"/>
</filter>
</defs>
</svg>
