<svg width="28" height="29" viewBox="0 0 28 29" fill="none" xmlns="http://www.w3.org/2000/svg">
<path d="M17.8535 3.65566C18.6099 2.70477 19.9939 2.54708 20.9448 3.30345L22.8127 4.78929C23.7636 5.54566 23.9213 6.92967 23.165 7.88056L21.0342 10.5594L15.7227 6.33446L17.8535 3.65566Z" fill="white" stroke="black" stroke-width="1.6"/>
<mask id="path-2-inside-1" fill="white">
<path d="M6.9438 16.0865C6.6 16.5188 6.67167 17.1478 7.1039 17.4917L12.1011 21.4666C12.5333 21.8104 13.1624 21.7388 13.5062 21.3065L22.2282 10.3414L15.6658 5.12135L6.9438 16.0865Z"/>
</mask>
<path d="M6.9438 16.0865C6.6 16.5188 6.67167 17.1478 7.1039 17.4917L12.1011 21.4666C12.5333 21.8104 13.1624 21.7388 13.5062 21.3065L22.2282 10.3414L15.6658 5.12135L6.9438 16.0865Z" fill="white" stroke="black" stroke-width="3.2" mask="url(#path-2-inside-1)"/>
<path d="M7.52818 17.0128L6.1555 23.8096L12.4695 20.9433L7.52818 17.0128ZM7.56054 16.8526L7.56048 16.8529L7.56054 16.8526Z" stroke="black" stroke-width="1.8" stroke-miterlimit="4.62023" stroke-linecap="round" stroke-linejoin="round"/>
<path d="M7.01156 22.4374C6.96654 22.6061 7.14423 22.7474 7.29851 22.6656L12.5737 19.8679C12.7011 19.8004 12.7173 19.6245 12.6045 19.5347L8.86869 16.5631C8.7559 16.4734 8.5881 16.5288 8.55095 16.6681L7.01156 22.4374Z" fill="white"/>
</svg>
