<svg width="30" height="26" viewBox="0 0 30 26" fill="none" xmlns="http://www.w3.org/2000/svg">
<path d="M14.5509 4.54458L14.912 4.92944L15.2768 4.54811C17.4198 2.30815 19.4458 1.12996 21.2364 0.697448C23.0185 0.266963 24.5952 0.567259 25.8809 1.33627C28.4731 2.88673 29.9625 6.40532 29.3714 9.92757C28.7772 13.4691 26.6919 16.4515 23.9486 19.0242C21.2797 21.5271 18.0232 23.6097 15.0005 25.4177C11.9778 23.6097 8.72154 21.5271 6.0526 19.0241C3.30933 16.4515 1.2239 13.4691 0.628902 9.9275C0.0371113 6.40502 1.5267 2.88569 4.09893 1.33546C5.37414 0.566917 6.93403 0.267477 8.69067 0.697126C10.456 1.12889 12.45 2.30545 14.5509 4.54458Z" fill="#FF2E00" fill-opacity="0.24" stroke="url(#paint0_linear)"/>
<defs>
<linearGradient id="paint0_linear" x1="15" y1="0" x2="15" y2="26" gradientUnits="userSpaceOnUse">
<stop stop-color="#FF2E00"/>
<stop offset="1" stop-color="#FF2E00"/>
</linearGradient>
</defs>
</svg>
