<svg width="10" height="17" viewBox="0 0 10 17" fill="none" xmlns="http://www.w3.org/2000/svg">
<path d="M4.63965 2.14967C4.63965 1.50906 5.15896 0.989746 5.79957 0.989746C6.44018 0.989746 6.9595 1.50906 6.9595 2.14967V13.7473C6.9595 14.1477 6.63492 14.4723 6.23454 14.4723C5.35371 14.4723 4.63965 13.7582 4.63965 12.8774V2.14967Z" fill="black"/>
<path d="M5.03636 2.6134C4.85987 2.64731 4.69353 2.53098 4.66482 2.35357C4.5452 1.61435 5.04438 0.900547 5.77977 0.759246L9.4119 0.0613473C9.58839 0.0274351 9.75473 0.143765 9.78344 0.321178C9.90305 1.0604 9.40388 1.7742 8.66849 1.9155L5.03636 2.6134Z" fill="black"/>
<rect y="10.2588" width="6.95954" height="6.74126" rx="3.37063" fill="black"/>
</svg>
