<svg width="36" height="36" viewBox="0 0 36 36" fill="none" xmlns="http://www.w3.org/2000/svg">
<g clip-path="url(#clip0)">
<path d="M2.24264 21.6985C0.45178 19.9076 0.45178 17.004 2.24264 15.2132L15.2132 2.24261C17.0041 0.451747 19.9076 0.451747 21.6985 2.24261L34.669 15.2132C36.4599 17.004 36.4599 19.9076 34.669 21.6985L21.6985 34.669C19.9076 36.4599 17.0041 36.4599 15.2132 34.669L2.24264 21.6985Z" fill="#1FAEF7"/>
<g filter="url(#filter0_d)">
<path d="M24.452 20.1774L24.7572 19.5059C24.7895 19.435 24.8415 19.3749 24.907 19.3328C24.9725 19.2906 25.0488 19.2681 25.1267 19.2679H25.3583C25.4402 19.2679 25.5201 19.2926 25.5877 19.3388C25.6552 19.385 25.7072 19.4505 25.7369 19.5268C25.7666 19.6031 25.7725 19.6865 25.7539 19.7662C25.7353 19.8459 25.6931 19.9182 25.6327 19.9734L23.7674 21.6833L24.4517 20.178L24.452 20.1774Z" fill="white"/>
<path d="M11.654 19.2678H12.3469C12.4198 19.2678 12.4914 19.2875 12.5541 19.3247C12.6169 19.3619 12.6684 19.4154 12.7033 19.4794L14.9087 23.5226C14.9356 23.5719 14.9724 23.615 15.0168 23.6494C15.0612 23.6837 15.1122 23.7084 15.1667 23.7221L16.7908 24.1281C16.8736 24.1488 16.9608 24.1429 17.0401 24.1112L21.1004 22.4871C21.1927 22.4501 21.2683 22.3806 21.3128 22.2917L22.7125 19.4923C22.746 19.4246 22.7978 19.3678 22.862 19.3281C22.9262 19.2884 23.0003 19.2675 23.0758 19.2678H23.3429C23.4108 19.2678 23.4777 19.2849 23.5373 19.3174C23.5969 19.3499 23.6475 19.3969 23.6842 19.454C23.721 19.5111 23.7429 19.5766 23.7478 19.6443C23.7528 19.7121 23.7406 19.78 23.7125 19.8419L22.2406 23.0794L16.3319 28.2006H13.6411V27.3885C13.6411 27.3352 13.6306 27.2824 13.6102 27.2331C13.5898 27.1838 13.5599 27.1391 13.5222 27.1014L13.1858 26.765C13.0723 26.6522 12.9824 26.5179 12.9212 26.3701C12.8599 26.2222 12.8286 26.0637 12.8291 25.9037V23.3282C12.829 23.2702 12.8166 23.2129 12.7927 23.1601L11.2844 19.8419C11.2562 19.78 11.2441 19.7121 11.249 19.6443C11.254 19.5766 11.2758 19.5111 11.3126 19.454C11.3494 19.3969 11.3999 19.3499 11.4596 19.3174C11.5192 19.2849 11.5861 19.2678 11.654 19.2678V19.2678Z" fill="white"/>
<path d="M17.2953 29.0127H13.235V29.8248H17.2953V29.0127Z" fill="white"/>
<path d="M9.1747 16.4257C9.1747 12.1718 12.6355 8.71106 16.8893 8.71106H19.3255C23.5794 8.71106 27.0402 12.1718 27.0402 16.4257V16.8317H9.1747V16.4257Z" fill="white"/>
<path d="M28.6643 18.4559H7.55056C7.44291 18.4557 7.3397 18.4129 7.26358 18.3368C7.18746 18.2607 7.14464 18.1575 7.14452 18.0498V17.6438H29.0703V18.0498C29.0702 18.1575 29.0274 18.2607 28.9513 18.3368C28.8751 18.4129 28.7719 18.4557 28.6643 18.4559Z" fill="white"/>
<path d="M16.4833 6.2749H19.7315C19.8392 6.2749 19.9425 6.31768 20.0186 6.39383C20.0948 6.46997 20.1376 6.57325 20.1376 6.68094C20.1376 6.78862 20.0948 6.8919 20.0186 6.96804C19.9425 7.04419 19.8392 7.08697 19.7315 7.08697H18.9195V7.89904H17.2953V7.08697H16.4833C16.3756 7.08697 16.2723 7.04419 16.1962 6.96804C16.12 6.8919 16.0772 6.78862 16.0772 6.68094C16.0772 6.57325 16.12 6.46997 16.1962 6.39383C16.2723 6.31768 16.3756 6.2749 16.4833 6.2749V6.2749Z" fill="white"/>
</g>
</g>
<defs>
<filter id="filter0_d" x="-4.88562" y="-4.53723" width="45.9861" height="45.9861" filterUnits="userSpaceOnUse" color-interpolation-filters="sRGB">
<feFlood flood-opacity="0" result="BackgroundImageFix"/>
<feColorMatrix in="SourceAlpha" type="matrix" values="0 0 0 0 0 0 0 0 0 0 0 0 0 0 0 0 0 0 127 0"/>
<feOffset/>
<feGaussianBlur stdDeviation="5"/>
<feColorMatrix type="matrix" values="0 0 0 0 0 0 0 0 0 0 0 0 0 0 0 0 0 0 0.1 0"/>
<feBlend mode="normal" in2="BackgroundImageFix" result="effect1_dropShadow"/>
<feBlend mode="normal" in="SourceGraphic" in2="effect1_dropShadow" result="shape"/>
</filter>
<clipPath id="clip0">
<rect width="36" height="36" fill="white"/>
</clipPath>
</defs>
</svg>
