<?xml version="1.0" encoding="utf-8"?>
<!-- Generator: Adobe Illustrator 25.3.1, SVG Export Plug-In . SVG Version: 6.00 Build 0)  -->
<svg version="1.1" id="Capa_1" xmlns="http://www.w3.org/2000/svg" xmlns:xlink="http://www.w3.org/1999/xlink" x="0px" y="0px"
	 viewBox="0 0 512 512" style="enable-background:new 0 0 512 512;" xml:space="preserve">
<style type="text/css">
	.st0{fill:#1483F7;}
</style>
<g>
	<g>
		<g>
			<g>
				<path class="st0" d="M265.3,404.8c-14.9-0.2-29.2-5.6-40.6-15.2l-75.1-66.1c-11.8-11-29.9-11.9-42.7-2.1L0,400v51
					c-0.8,13.7,9.7,25.4,23.4,26.1c0.7,0,1.4,0,2.1,0h378.2c15.2,0,30.3-11,30.3-26.2V317.4l-135.7,78.5
					C288.3,401.9,276.9,405,265.3,404.8z"/>
				<circle class="st0" cx="259.7" cy="240.9" r="30.3"/>
				<path class="st0" d="M505.7,88.7c-4.4-6-11.2-9.8-18.6-10.3L111.6,34.9c-7.3-0.6-14.6,1.3-20.7,5.5c-5.4,4.6-9,11-10.3,17.9
					l-6.2,53.7h329.3c31.4,0.7,56.8,25.8,57.9,57.2v243.2c0-1.4,6.2-2.8,9-5.5c5.7-4.5,9-11.3,9-18.6l32.4-279.7
					C512.6,101.4,510.3,94.2,505.7,88.7z"/>
				<path class="st0" d="M403.7,139.6H25.5C10.4,139.6,0,154.1,0,169.3v196.3L91,299.4c23.1-17.1,55-15.7,76.5,3.4l75.8,66.1
					c11.4,9.7,27.7,11.1,40.6,3.4L434,285V169.3C433,153.1,419.9,140.3,403.7,139.6z M259.7,298.8c-32,0-57.9-25.9-57.9-57.9
					c0-32,25.9-57.9,57.9-57.9c32,0,57.9,25.9,57.9,57.9S291.7,298.8,259.7,298.8z"/>
			</g>
		</g>
	</g>
</g>
</svg>
