<svg width="29" height="27" viewBox="0 0 29 27" fill="none" xmlns="http://www.w3.org/2000/svg">
<path d="M13.8248 25.423L14.0913 25.591L14.3579 25.423C17.0636 23.718 20.077 21.7066 22.5512 19.2524C25.0276 16.7961 26.9946 13.8662 27.5574 10.3186C28.122 6.75982 26.7237 3.08847 24.0783 1.41487C22.742 0.569493 21.1073 0.250867 19.3073 0.710748C17.6329 1.13857 15.8448 2.23153 14.0206 4.14102C12.2311 2.23287 10.4691 1.13944 8.81348 0.711137C7.03225 0.250341 5.41019 0.569977 4.08324 1.41583C1.45743 3.08965 0.0594732 6.7602 0.624718 10.3188C1.1882 13.8662 3.15532 16.7961 5.63166 19.2524C8.10584 21.7066 11.119 23.718 13.8248 25.423Z" fill="url(#paint0_radial)"/>
<path d="M13.8248 25.423L14.0913 25.591L14.3579 25.423C17.0636 23.718 20.077 21.7066 22.5512 19.2524C25.0276 16.7961 26.9946 13.8662 27.5574 10.3186C28.122 6.75982 26.7237 3.08847 24.0783 1.41487C22.742 0.569493 21.1073 0.250867 19.3073 0.710748C17.6329 1.13857 15.8448 2.23153 14.0206 4.14102C12.2311 2.23287 10.4691 1.13944 8.81348 0.711137C7.03225 0.250341 5.41019 0.569977 4.08324 1.41583C1.45743 3.08965 0.0594732 6.7602 0.624718 10.3188C1.1882 13.8662 3.15532 16.7961 5.63166 19.2524C8.10584 21.7066 11.119 23.718 13.8248 25.423Z" fill="url(#paint1_linear)" fill-opacity="0.5"/>
<path d="M13.8248 25.423L14.0913 25.591L14.3579 25.423C17.0636 23.718 20.077 21.7066 22.5512 19.2524C25.0276 16.7961 26.9946 13.8662 27.5574 10.3186C28.122 6.75982 26.7237 3.08847 24.0783 1.41487C22.742 0.569493 21.1073 0.250867 19.3073 0.710748C17.6329 1.13857 15.8448 2.23153 14.0206 4.14102C12.2311 2.23287 10.4691 1.13944 8.81348 0.711137C7.03225 0.250341 5.41019 0.569977 4.08324 1.41583C1.45743 3.08965 0.0594732 6.7602 0.624718 10.3188C1.1882 13.8662 3.15532 16.7961 5.63166 19.2524C8.10584 21.7066 11.119 23.718 13.8248 25.423Z" stroke="#08BD7C"/>
<defs>
<radialGradient id="paint0_radial" cx="0" cy="0" r="1" gradientUnits="userSpaceOnUse" gradientTransform="translate(14.0909 13.5455) rotate(90) scale(15.8182 17.2562)">
<stop offset="0.661458" stop-color="#00E391"/>
<stop offset="0.890625" stop-color="#C2FFE9"/>
</radialGradient>
<linearGradient id="paint1_linear" x1="14.0909" y1="1" x2="14.0909" y2="25" gradientUnits="userSpaceOnUse">
<stop offset="0.432292" stop-color="#00E391"/>
<stop offset="1" stop-color="#00915C"/>
</linearGradient>
</defs>
</svg>
