<svg width="32" height="32" viewBox="0 0 32 32" fill="none" xmlns="http://www.w3.org/2000/svg">
<path d="M22.0534 11.5447C22.0534 9.97263 21.4029 8.46494 20.245 7.35332C19.087 6.24169 17.5165 5.61719 15.8789 5.61719C14.2414 5.61719 12.6708 6.24169 11.5129 7.35332C10.355 8.46494 9.70444 9.97263 9.70444 11.5447C9.70444 18.4601 6.61719 20.436 6.61719 20.436H25.1407C25.1407 20.436 22.0534 18.4601 22.0534 11.5447Z" fill="#999999"/>
<path fill-rule="evenodd" clip-rule="evenodd" d="M9.70071 5.46538C11.357 3.87539 13.5813 3 15.8794 3C18.1775 3 20.4019 3.87539 22.0581 5.46538C23.718 7.05887 24.6714 9.24343 24.6714 11.545C24.6714 14.5988 25.3487 16.3675 25.8733 17.2908C26.14 17.7603 26.3844 18.0417 26.5218 18.1809C26.5783 18.2382 26.6179 18.2726 26.6353 18.2871C27.5564 18.9271 27.9703 20.0877 27.6533 21.1713C27.3268 22.287 26.3036 23.0537 25.1412 23.0537H6.61766C5.45519 23.0537 4.432 22.287 4.10555 21.1713C3.78848 20.0877 4.20244 18.9271 5.12356 18.2871C5.1409 18.2726 5.18056 18.2382 5.23701 18.1809C5.37443 18.0417 5.61879 17.7603 5.88553 17.2908C6.41015 16.3675 7.08746 14.5988 7.08746 11.545C7.08746 9.24342 8.04084 7.05887 9.70071 5.46538ZM11.3644 17.8188H20.3944C19.8281 16.202 19.4365 14.1412 19.4365 11.545C19.4365 10.7024 19.0888 9.87154 18.4328 9.24177C17.7731 8.60852 16.8565 8.2349 15.8794 8.2349C14.9023 8.2349 13.9857 8.60852 13.326 9.24177C12.67 9.87154 12.3224 10.7024 12.3224 11.545C12.3224 14.1412 11.9308 16.202 11.3644 17.8188Z" fill="#999999"/>
<path d="M17.8959 24.9863C18.7626 24.9863 19.4928 25.7111 19.1874 26.5222V26.5222C19.0041 27.0091 18.7353 27.4516 18.3965 27.8242C18.0577 28.1969 17.6555 28.4926 17.2128 28.6942C16.7702 28.8959 16.2957 28.9998 15.8166 28.9998C15.3374 28.9998 14.863 28.8959 14.4203 28.6942C13.9777 28.4926 13.5755 28.1969 13.2367 27.8242C12.8979 27.4516 12.6291 27.0091 12.4457 26.5222V26.5222C12.1403 25.7111 12.8706 24.9863 13.7372 24.9863L15.8166 24.9863H17.8959Z" fill="#999999"/>
</svg>
