<svg width="36" height="36" viewBox="0 0 36 36" fill="none" xmlns="http://www.w3.org/2000/svg">
<g clip-path="url(#clip0)">
<path d="M17.7266 11.8407L22.88 16.9941L22.9046 16.7242C22.9046 14.0165 20.7041 11.8161 17.9965 11.8161L17.7266 11.8407Z" fill="#949494"/>
<path d="M17.996 8.54408C22.5114 8.54408 26.1761 12.2088 26.1761 16.7242C26.1761 17.7794 25.9634 18.7856 25.5953 19.7099L30.3807 24.4952C32.851 22.4339 34.7979 19.7672 36.0004 16.7242C33.1619 9.54211 26.1843 4.45407 17.9961 4.45407C15.7056 4.45407 13.5134 4.86305 11.4766 5.59926L15.0104 9.12484C15.9346 8.76495 16.9408 8.54408 17.996 8.54408Z" fill="#949494"/>
<path d="M1.63599 4.08592L5.36611 7.81604L6.11052 8.56045C3.41109 10.6709 1.27609 13.4767 0 16.7241C2.83033 23.9062 9.81609 28.9943 17.9962 28.9943C20.532 28.9943 22.9533 28.5035 25.1702 27.6118L25.8655 28.3071L30.6345 33.0843L32.7204 31.0066L3.72191 2L1.63599 4.08592ZM10.6832 13.1249L13.2109 15.6526C13.1372 16.0043 13.0882 16.356 13.0882 16.7241C13.0882 19.4318 15.2886 21.6322 17.9962 21.6322C18.3643 21.6322 18.7161 21.5831 19.0596 21.5095L21.5873 24.0371C20.4993 24.577 19.2887 24.9042 17.9962 24.9042C13.4808 24.9042 9.81609 21.2395 9.81609 16.7241C9.81609 15.4317 10.1433 14.221 10.6832 13.1249Z" fill="#949494"/>
</g>
<defs>
<clipPath id="clip0">
<rect width="36" height="36" fill="white"/>
</clipPath>
</defs>
</svg>
