<svg width="22" height="20" viewBox="0 0 22 20" fill="none" xmlns="http://www.w3.org/2000/svg">
<path d="M10.3418 3.76603L10.9323 4.42618L11.5291 3.77178C13.0641 2.08876 14.48 1.24316 15.6838 0.938149C16.8705 0.637461 17.9008 0.847482 18.7424 1.3755C20.4674 2.45778 21.5252 4.98322 21.1107 7.57388C20.6932 10.1843 19.2256 12.4029 17.2522 14.3442C15.3983 16.1679 13.1428 17.7034 11.0004 19.0554C8.85797 17.7034 6.60264 16.1679 4.74878 14.3442C2.77539 12.4029 1.30763 10.1842 0.889528 7.57376C0.474546 4.98278 1.53263 2.45605 3.24411 1.37409C4.07816 0.846815 5.09517 0.638346 6.26147 0.937571C7.44537 1.24131 8.83741 2.08419 10.3418 3.76603Z" stroke="black" stroke-width="1.6"/>
</svg>
