<svg width="32" height="32" viewBox="0 0 32 32" fill="none" xmlns="http://www.w3.org/2000/svg">
<rect x="9.16016" y="3" width="3.12" height="8.32" rx="1.56" fill="#999999"/>
<rect x="20.5996" y="3" width="3.12" height="8.32" rx="1.56" fill="#999999"/>
<path d="M5 15.4805H27.88V26.0005C27.88 27.6573 26.5369 29.0005 24.88 29.0005H8C6.34314 29.0005 5 27.6573 5 26.0005V15.4805Z" fill="#999999"/>
<path fill-rule="evenodd" clip-rule="evenodd" d="M19.5609 7.16016H13.32V9.76C13.32 11.1959 12.1559 12.36 10.72 12.36C9.28406 12.36 8.12 11.1959 8.12 9.76V7.16016H8C6.34315 7.16016 5 8.5033 5 10.1602V14.4402H27.88V10.1602C27.88 8.5033 26.5369 7.16016 24.88 7.16016H24.7609V9.76008C24.7609 11.196 23.5968 12.3601 22.1609 12.3601C20.7249 12.3601 19.5609 11.196 19.5609 9.76008V7.16016Z" fill="#999999"/>
</svg>
