<svg width="30" height="45" viewBox="0 0 30 45" fill="none" xmlns="http://www.w3.org/2000/svg">
<circle cx="15" cy="7.19922" r="7" fill="#999999"/>
<mask id="path-2-outside-1" maskUnits="userSpaceOnUse" x="0" y="17.1992" width="30" height="15" fill="black">
<rect fill="white" y="17.1992" width="30" height="15"/>
<path d="M27 31.1992C28.1046 31.1992 29.0167 30.2978 28.8349 29.2083C28.6643 28.1862 28.3625 27.1843 27.9343 26.2243C27.2307 24.6471 26.1995 23.214 24.8995 22.0068C23.5995 20.7997 22.0561 19.8421 20.3576 19.1888C18.659 18.5355 16.8385 18.1992 15 18.1992C13.1615 18.1992 11.341 18.5355 9.64243 19.1888C7.94387 19.8421 6.40052 20.7997 5.1005 22.0068C3.80048 23.214 2.76925 24.6471 2.06569 26.2243C1.63747 27.1843 1.33573 28.1862 1.16515 29.2083C0.983316 30.2978 1.89543 31.1992 3 31.1992L15 31.1992H27Z"/>
</mask>
<path d="M27 31.1992C28.1046 31.1992 29.0167 30.2978 28.8349 29.2083C28.6643 28.1862 28.3625 27.1843 27.9343 26.2243C27.2307 24.6471 26.1995 23.214 24.8995 22.0068C23.5995 20.7997 22.0561 19.8421 20.3576 19.1888C18.659 18.5355 16.8385 18.1992 15 18.1992C13.1615 18.1992 11.341 18.5355 9.64243 19.1888C7.94387 19.8421 6.40052 20.7997 5.1005 22.0068C3.80048 23.214 2.76925 24.6471 2.06569 26.2243C1.63747 27.1843 1.33573 28.1862 1.16515 29.2083C0.983316 30.2978 1.89543 31.1992 3 31.1992L15 31.1992H27Z" fill="#999999"/>
<path d="M27 31.1992C28.1046 31.1992 29.0167 30.2978 28.8349 29.2083C28.6643 28.1862 28.3625 27.1843 27.9343 26.2243C27.2307 24.6471 26.1995 23.214 24.8995 22.0068C23.5995 20.7997 22.0561 19.8421 20.3576 19.1888C18.659 18.5355 16.8385 18.1992 15 18.1992C13.1615 18.1992 11.341 18.5355 9.64243 19.1888C7.94387 19.8421 6.40052 20.7997 5.1005 22.0068C3.80048 23.214 2.76925 24.6471 2.06569 26.2243C1.63747 27.1843 1.33573 28.1862 1.16515 29.2083C0.983316 30.2978 1.89543 31.1992 3 31.1992L15 31.1992H27Z" stroke="white" stroke-width="2" mask="url(#path-2-outside-1)"/>
</svg>
