<svg width="29" height="25" viewBox="0 0 29 25" fill="none" xmlns="http://www.w3.org/2000/svg">
<path d="M1 2.5C1 1.67157 1.67157 1 2.5 1H26.5C27.3284 1 28 1.67157 28 2.5C28 3.32843 27.3284 4 26.5 4H2.5C1.67157 4 1 3.32843 1 2.5Z" fill="#CCCCCC"/>
<path d="M2.5 0.75C1.5335 0.75 0.75 1.5335 0.75 2.5C0.75 3.4665 1.5335 4.25 2.5 4.25H26.5C27.4665 4.25 28.25 3.4665 28.25 2.5C28.25 1.5335 27.4665 0.75 26.5 0.75H2.5Z" stroke="#CCCCCC" stroke-opacity="0.77" stroke-width="0.5"/>
<path d="M1 12.5C1 11.6716 1.67157 11 2.5 11H26.5C27.3284 11 28 11.6716 28 12.5C28 13.3284 27.3284 14 26.5 14H2.5C1.67157 14 1 13.3284 1 12.5Z" fill="#CCCCCC"/>
<path d="M2.5 10.75C1.5335 10.75 0.75 11.5335 0.75 12.5C0.75 13.4665 1.5335 14.25 2.5 14.25H26.5C27.4665 14.25 28.25 13.4665 28.25 12.5C28.25 11.5335 27.4665 10.75 26.5 10.75H2.5Z" stroke="#CCCCCC" stroke-opacity="0.77" stroke-width="0.5"/>
<path d="M1 22.5C1 21.6716 1.67157 21 2.5 21H26.5C27.3284 21 28 21.6716 28 22.5C28 23.3284 27.3284 24 26.5 24H2.5C1.67157 24 1 23.3284 1 22.5Z" fill="#CCCCCC"/>
<path d="M2.5 20.75C1.5335 20.75 0.75 21.5335 0.75 22.5C0.75 23.4665 1.5335 24.25 2.5 24.25H26.5C27.4665 24.25 28.25 23.4665 28.25 22.5C28.25 21.5335 27.4665 20.75 26.5 20.75H2.5Z" stroke="#CCCCCC" stroke-opacity="0.77" stroke-width="0.5"/>
</svg>
