<svg width="77" height="77" viewBox="0 0 77 77" fill="none" xmlns="http://www.w3.org/2000/svg">
<g filter="url(#filter0_d)">
<path d="M36.8855 25.208C37.6845 24.1153 39.3155 24.1153 40.1145 25.208L44.1334 30.7046C44.3803 31.0422 44.7268 31.2939 45.1241 31.4244L51.5936 33.5481C52.8797 33.9703 53.3837 35.5215 52.5914 36.619L48.6058 42.1398C48.361 42.4789 48.2286 42.8862 48.2274 43.3044L48.2067 50.1135C48.2026 51.4671 46.8831 52.4258 45.5945 52.0114L39.1123 49.9269C38.7141 49.7989 38.2859 49.7989 37.8877 49.9269L31.4055 52.0114C30.1169 52.4258 28.7974 51.4671 28.7933 50.1135L28.7726 43.3044C28.7714 42.8862 28.639 42.4789 28.3942 42.1398L24.4086 36.619C23.6163 35.5215 24.1203 33.9703 25.4064 33.5481L31.8759 31.4244C32.2732 31.2939 32.6197 31.0422 32.8666 30.7046L36.8855 25.208Z" fill="white"/>
</g>
<path d="M32.2752 41.4388C31.8711 40.1505 32.8333 38.8401 34.1835 38.8401H42.8164C44.1666 38.8401 45.1289 40.1505 44.7247 41.4388L43.0808 46.6788C42.8192 47.5126 42.0464 48.0801 41.1725 48.0801H35.8274C34.9535 48.0801 34.1808 47.5126 33.9192 46.6788L32.2752 41.4388Z" fill="#242424"/>
<ellipse cx="38.4996" cy="34" rx="3.52008" ry="3.52" fill="#242424"/>
<defs>
<filter id="filter0_d" x="0.0292969" y="0.38855" width="76.9416" height="75.7204" filterUnits="userSpaceOnUse" color-interpolation-filters="sRGB">
<feFlood flood-opacity="0" result="BackgroundImageFix"/>
<feColorMatrix in="SourceAlpha" type="matrix" values="0 0 0 0 0 0 0 0 0 0 0 0 0 0 0 0 0 0 127 0"/>
<feOffset/>
<feGaussianBlur stdDeviation="12"/>
<feColorMatrix type="matrix" values="0 0 0 0 0 0 0 0 0 0 0 0 0 0 0 0 0 0 0.25 0"/>
<feBlend mode="normal" in2="BackgroundImageFix" result="effect1_dropShadow"/>
<feBlend mode="normal" in="SourceGraphic" in2="effect1_dropShadow" result="shape"/>
</filter>
</defs>
</svg>
