<svg width="32" height="26" viewBox="0 0 32 26" fill="none" xmlns="http://www.w3.org/2000/svg">
<rect x="18.8828" y="11.5327" width="5.96667" height="11.5435" rx="1.25" fill="white" stroke="black" stroke-width="1.5"/>
<rect x="7.15039" y="10.4458" width="5.96667" height="12.6304" rx="1.25" fill="white" stroke="black" stroke-width="1.5"/>
<rect x="13.6865" y="7.65771" width="4.6281" height="12.3641" rx="1.5" fill="#999999"/>
<rect x="13.1172" y="14.3804" width="5.76667" height="10.1957" rx="2.15" fill="white" stroke="black" stroke-width="1.5"/>
<rect x="13.8672" y="22.7393" width="4.26667" height="3.26087" fill="white"/>
<rect x="12.7998" y="23.8262" width="6.4" height="2.17391" fill="white"/>
<path d="M15.1145 1.82375C15.6136 1.3595 16.3864 1.3595 16.8855 1.82375L27.4359 11.6388C28.3005 12.4432 27.7314 13.8906 26.5504 13.8906H5.44958C4.26865 13.8906 3.69948 12.4432 4.56412 11.6388L15.1145 1.82375Z" fill="white" stroke="black" stroke-width="1.5"/>
<rect x="8" y="11.3262" width="4.26667" height="4.34783" fill="white"/>
<rect x="19.7334" y="11.8696" width="4.26667" height="3.26087" fill="white"/>
<rect x="11.7334" y="11.3262" width="8.53333" height="2.17391" fill="white"/>
<path d="M15.6448 11.4054C14.1403 11.4589 12.7095 12.0007 11.6451 12.9198C10.5808 13.8389 9.96342 15.0659 9.9194 16.3496L12.3609 16.3845C12.3867 15.6322 12.7485 14.9132 13.3722 14.3745C13.996 13.8359 14.8345 13.5184 15.7162 13.487L15.6448 11.4054Z" fill="white"/>
<path d="M16.3086 11.243C17.6865 11.194 19.0304 11.6766 20.0654 12.5921C21.1004 13.5077 21.7481 14.7869 21.8761 16.1679L19.6484 16.3788C19.5734 15.5695 19.1938 14.8198 18.5873 14.2833C17.9808 13.7467 17.1932 13.4639 16.3857 13.4926L16.3086 11.243Z" fill="white"/>
<path d="M6.23312 12.209C6.83881 12.1874 7.4309 12.4379 7.88821 12.9092C8.34551 13.3805 8.63347 14.037 8.69314 14.7442L7.90934 14.8261C7.86945 14.3532 7.67694 13.9144 7.37121 13.5993C7.06548 13.2842 6.66965 13.1168 6.26473 13.1312L6.23312 12.209Z" fill="white"/>
<path d="M25.6247 12.428C25.001 12.4506 24.412 12.6933 23.9814 13.1051C23.5508 13.5169 23.3121 14.0658 23.3155 14.6365L24.0944 14.6354C24.0922 14.2488 24.2538 13.8771 24.5455 13.5982C24.8371 13.3192 25.236 13.1549 25.6585 13.1396L25.6247 12.428Z" fill="white"/>
<path d="M17.3045 21.6972C17.3315 22.4852 17.6378 23.2337 18.1613 23.7905C18.6847 24.3472 19.3859 24.6704 20.1223 24.6944L20.1442 23.8245C19.6144 23.8072 19.11 23.5747 18.7334 23.1742C18.3569 22.7736 18.1365 22.2352 18.1171 21.6682L17.3045 21.6972Z" fill="white"/>
<path d="M17.1726 22.7841C17.1996 23.5721 17.5505 24.319 18.1539 24.8729C18.7573 25.4268 19.5679 25.7462 20.4209 25.766L20.4511 24.8958C19.8374 24.8815 19.2542 24.6518 18.8201 24.2533C18.3861 23.8548 18.1337 23.3175 18.1142 22.7506L17.1726 22.7841Z" fill="white"/>
<path d="M14.7634 21.7001C14.7342 22.4881 14.3997 23.2365 13.8277 23.793C13.2557 24.3495 12.4893 24.6724 11.6842 24.696L11.6598 23.826C12.239 23.809 12.7903 23.5768 13.2018 23.1764C13.6133 22.7761 13.854 22.2377 13.8749 21.6708L14.7634 21.7001Z" fill="white"/>
<path d="M14.819 22.7846C14.7899 23.5726 14.4115 24.3195 13.7608 24.8734C13.1101 25.4273 12.236 25.7467 11.316 25.7665L11.2836 24.8963C11.9453 24.882 12.5742 24.6523 13.0423 24.2538C13.5105 23.8553 13.7827 23.318 13.8036 22.7511L14.819 22.7846Z" fill="white"/>
</svg>
