<svg width="23" height="23" viewBox="0 0 23 23" fill="none" xmlns="http://www.w3.org/2000/svg">
<circle cx="11.5" cy="11.5" r="10.5" fill="white" stroke="black"/>
<rect x="10.25" y="9.375" width="2.5" height="8.625" rx="1" fill="black" stroke="black"/>
<path d="M12.75 6.25024C12.75 6.9406 12.1904 7.50024 11.5 7.50024C10.8096 7.50024 10.25 6.9406 10.25 6.25024C10.25 5.55989 10.8096 5.00024 11.5 5.00024C12.1904 5.00024 12.75 5.55989 12.75 6.25024Z" fill="white" stroke="black"/>
<path d="M11.75 6.49991C11.75 6.85998 11.7285 7.0656 11.6775 7.17959C11.6603 7.21795 11.6485 7.22463 11.6464 7.22584C11.6463 7.2259 11.6462 7.22594 11.6462 7.22598C11.6417 7.22875 11.6056 7.24991 11.5 7.24991C11.0858 7.24991 10.75 6.91412 10.75 6.49991C10.75 6.08569 11.0858 5.74991 11.5 5.74991C11.6056 5.74991 11.6417 5.77107 11.6462 5.77384C11.6462 5.77387 11.6463 5.77392 11.6464 5.77397C11.6485 5.77518 11.6603 5.78187 11.6775 5.82022C11.7285 5.93422 11.75 6.13984 11.75 6.49991Z" fill="white" stroke="black"/>
</svg>
