<svg width="16" height="16" viewBox="0 0 16 16" fill="none" xmlns="http://www.w3.org/2000/svg">
<path d="M11.3333 1.33337H4.66659C2.82564 1.33337 1.33325 2.82576 1.33325 4.66671V11.3334C1.33325 13.1743 2.82564 14.6667 4.66659 14.6667H11.3333C13.1742 14.6667 14.6666 13.1743 14.6666 11.3334V4.66671C14.6666 2.82576 13.1742 1.33337 11.3333 1.33337Z" fill="black" stroke="black" stroke-width="1.7" stroke-linecap="round" stroke-linejoin="round"/>
<path d="M10.6668 7.57996C10.7491 8.13479 10.6543 8.70143 10.396 9.1993C10.1376 9.69716 9.72889 10.1009 9.22788 10.3531C8.72687 10.6052 8.15909 10.693 7.60532 10.6039C7.05155 10.5148 6.53997 10.2533 6.14336 9.85673C5.74674 9.46012 5.48528 8.94854 5.39618 8.39477C5.30707 7.84099 5.39484 7.27322 5.64701 6.77221C5.89919 6.27119 6.30292 5.86245 6.80079 5.60412C7.29865 5.34578 7.8653 5.25102 8.42013 5.33329C8.98608 5.41721 9.51003 5.68093 9.91459 6.08549C10.3192 6.49006 10.5829 7.01401 10.6668 7.57996Z" stroke="white" stroke-width="1.7" stroke-linecap="round" stroke-linejoin="round"/>
<path d="M12.4443 3.73328H12.4531" stroke="white" stroke-width="2" stroke-linecap="round" stroke-linejoin="round"/>
</svg>
