<svg width="32" height="27" viewBox="0 0 32 27" fill="none" xmlns="http://www.w3.org/2000/svg">
<ellipse cx="11.0612" cy="4.09843" rx="4.35126" ry="4.09843" fill="#00E391"/>
<path d="M29.5881 18.8031C30.6927 18.8031 31.6129 17.8932 31.331 16.8252C31.2269 16.4309 31.0916 16.0434 30.9257 15.6663C30.4884 14.6718 29.8473 13.7682 29.0392 13.007C28.2311 12.2459 27.2718 11.6421 26.2159 11.2301C25.1601 10.8182 24.0285 10.6062 22.8856 10.6062C21.7428 10.6062 20.6112 10.8182 19.5553 11.2301C18.4995 11.6421 17.5401 12.2459 16.732 13.007C15.9239 13.7682 15.2829 14.6718 14.8455 15.6663C14.6797 16.0434 14.5443 16.4309 14.4402 16.8252C14.1583 17.8932 15.0785 18.8031 16.1831 18.8031L22.8856 18.8031H29.5881Z" fill="#00E391"/>
<mask id="path-3-outside-1" maskUnits="userSpaceOnUse" x="0" y="8.6062" width="23" height="13" fill="black">
<rect fill="white" y="8.6062" width="23" height="13"/>
<path d="M18.2753 18.8031C19.3799 18.8031 20.3006 17.8919 20.0059 16.8274C19.8965 16.4323 19.7542 16.0441 19.5797 15.6663C19.1205 14.6718 18.4474 13.7682 17.5989 13.007C16.7504 12.2459 15.7431 11.6421 14.6345 11.2301C13.5258 10.8182 12.3376 10.6062 11.1376 10.6062C9.93767 10.6062 8.74945 10.8182 7.64082 11.2301C6.53219 11.6421 5.52486 12.2459 4.67635 13.007C3.82784 13.7682 3.15477 14.6718 2.69556 15.6663C2.52108 16.0441 2.37878 16.4323 2.26939 16.8274C1.97467 17.8919 2.89543 18.8031 4 18.8031L11.1376 18.8031H18.2753Z"/>
</mask>
<path d="M18.2753 18.8031C19.3799 18.8031 20.3006 17.8919 20.0059 16.8274C19.8965 16.4323 19.7542 16.0441 19.5797 15.6663C19.1205 14.6718 18.4474 13.7682 17.5989 13.007C16.7504 12.2459 15.7431 11.6421 14.6345 11.2301C13.5258 10.8182 12.3376 10.6062 11.1376 10.6062C9.93767 10.6062 8.74945 10.8182 7.64082 11.2301C6.53219 11.6421 5.52486 12.2459 4.67635 13.007C3.82784 13.7682 3.15477 14.6718 2.69556 15.6663C2.52108 16.0441 2.37878 16.4323 2.26939 16.8274C1.97467 17.8919 2.89543 18.8031 4 18.8031L11.1376 18.8031H18.2753Z" fill="#00E391"/>
<path d="M18.2753 18.8031C19.3799 18.8031 20.3006 17.8919 20.0059 16.8274C19.8965 16.4323 19.7542 16.0441 19.5797 15.6663C19.1205 14.6718 18.4474 13.7682 17.5989 13.007C16.7504 12.2459 15.7431 11.6421 14.6345 11.2301C13.5258 10.8182 12.3376 10.6062 11.1376 10.6062C9.93767 10.6062 8.74945 10.8182 7.64082 11.2301C6.53219 11.6421 5.52486 12.2459 4.67635 13.007C3.82784 13.7682 3.15477 14.6718 2.69556 15.6663C2.52108 16.0441 2.37878 16.4323 2.26939 16.8274C1.97467 17.8919 2.89543 18.8031 4 18.8031L11.1376 18.8031H18.2753Z" stroke="white" stroke-width="4" mask="url(#path-3-outside-1)"/>
<ellipse cx="23.0148" cy="4.09843" rx="4.35126" ry="4.09843" fill="#00E391"/>
</svg>
