<svg width="512" height="512" viewBox="0 0 512 512" fill="none" xmlns="http://www.w3.org/2000/svg">
<rect width="512" height="512" rx="100" fill="#0097D3"/>
<path d="M113.52 197.56H174.32V371H113.52V197.56ZM143.92 178.36C132.827 178.36 123.867 175.267 117.04 169.08C110.213 162.893 106.8 155.213 106.8 146.04C106.8 136.867 110.213 129.187 117.04 123C123.867 116.813 132.827 113.72 143.92 113.72C155.013 113.72 163.973 116.707 170.8 122.68C177.627 128.44 181.04 135.907 181.04 145.08C181.04 154.68 177.627 162.68 170.8 169.08C163.973 175.267 155.013 178.36 143.92 178.36ZM326.793 194.68C348.339 194.68 365.619 201.08 378.633 213.88C391.859 226.68 398.473 245.987 398.473 271.8V371H337.673V281.72C337.673 258.04 328.179 246.2 309.193 246.2C298.739 246.2 290.313 249.613 283.913 256.44C277.726 263.267 274.633 273.507 274.633 287.16V371H213.833V197.56H271.753V216.44C278.579 209.4 286.686 204.067 296.073 200.44C305.459 196.6 315.699 194.68 326.793 194.68Z" fill="white"/>
</svg>
