<svg width="71" height="75" viewBox="0 0 71 75" fill="none" xmlns="http://www.w3.org/2000/svg">
<g filter="url(#filter0_d_11356_33902)">
<path fill-rule="evenodd" clip-rule="evenodd" d="M35.5 50C35.5 50 46 43.1818 46 35.2273C46 32.5148 44.8938 29.9135 42.9246 27.9955C40.9555 26.0775 38.2848 25 35.5 25C32.7152 25 30.0445 26.0775 28.0754 27.9955C26.1062 29.9135 25 32.5148 25 35.2273C25 43.1818 35.5 50 35.5 50ZM41 35.9375C41 39.1016 38.5376 41.6667 35.5 41.6667C32.4624 41.6667 30 39.1016 30 35.9375C30 32.7734 32.4624 30.2083 35.5 30.2083C38.5376 30.2083 41 32.7734 41 35.9375Z" fill="white"/>
<path d="M35.5 50L34.9554 50.8387C35.2866 51.0538 35.7134 51.0538 36.0446 50.8387L35.5 50ZM42.9246 27.9955L42.2269 28.7118L42.9246 27.9955ZM28.0754 27.9955L28.7731 28.7118H28.7731L28.0754 27.9955ZM45 35.2273C45 38.7926 42.6206 42.2391 40.0332 44.8994C38.7615 46.2068 37.4863 47.2767 36.5278 48.0202C36.0493 48.3913 35.6518 48.6795 35.3758 48.8736C35.2379 48.9706 35.1305 49.044 35.0587 49.0925C35.0228 49.1167 34.9958 49.1347 34.9784 49.1462C34.9697 49.152 34.9633 49.1561 34.9595 49.1586C34.9575 49.1599 34.9562 49.1608 34.9556 49.1612C34.9552 49.1614 34.955 49.1615 34.955 49.1616C34.955 49.1616 34.9551 49.1615 34.9551 49.1615C34.9552 49.1614 34.9554 49.1613 35.5 50C36.0446 50.8387 36.0449 50.8385 36.0452 50.8383C36.0453 50.8382 36.0457 50.838 36.046 50.8378C36.0466 50.8374 36.0473 50.8369 36.0483 50.8363C36.0501 50.8351 36.0526 50.8335 36.0557 50.8314C36.062 50.8273 36.0707 50.8216 36.0819 50.8142C36.1042 50.7994 36.1362 50.7782 36.1772 50.7505C36.2592 50.6952 36.3774 50.6143 36.5265 50.5094C36.8248 50.2996 37.2476 49.9929 37.7535 49.6005C38.7637 48.8171 40.1135 47.6853 41.4668 46.2938C44.1294 43.5563 47 39.6165 47 35.2273H45ZM42.2269 28.7118C44.0057 30.4444 45 32.7887 45 35.2273H47C47 32.241 45.7818 29.3825 43.6224 27.2792L42.2269 28.7118ZM35.5 26C38.0279 26 40.4472 26.9784 42.2269 28.7118L43.6224 27.2792C41.4638 25.1766 38.5416 24 35.5 24V26ZM28.7731 28.7118C30.5528 26.9784 32.9721 26 35.5 26V24C32.4584 24 29.5362 25.1766 27.3776 27.2791L28.7731 28.7118ZM26 35.2273C26 32.7887 26.9943 30.4444 28.7731 28.7118L27.3776 27.2791C25.2182 29.3825 24 32.241 24 35.2273H26ZM35.5 50C36.0446 49.1613 36.0448 49.1614 36.0449 49.1615C36.0449 49.1615 36.045 49.1616 36.045 49.1616C36.045 49.1615 36.0448 49.1614 36.0444 49.1612C36.0438 49.1608 36.0425 49.1599 36.0405 49.1586C36.0367 49.1561 36.0303 49.152 36.0216 49.1462C36.0042 49.1347 35.9772 49.1167 35.9413 49.0925C35.8695 49.044 35.7621 48.9706 35.6242 48.8736C35.3482 48.6795 34.9507 48.3913 34.4722 48.0202C33.5137 47.2767 32.2385 46.2068 30.9668 44.8994C28.3794 42.2391 26 38.7926 26 35.2273H24C24 39.6165 26.8706 43.5563 29.5332 46.2938C30.8865 47.6853 32.2363 48.8171 33.2465 49.6005C33.7524 49.9929 34.1752 50.2996 34.4735 50.5094C34.6226 50.6143 34.7408 50.6952 34.8228 50.7505C34.8638 50.7782 34.8958 50.7994 34.9181 50.8142C34.9293 50.8216 34.938 50.8273 34.9443 50.8314C34.9474 50.8335 34.9499 50.8351 34.9517 50.8363C34.9527 50.8369 34.9534 50.8374 34.954 50.8378C34.9543 50.838 34.9547 50.8382 34.9548 50.8383C34.9551 50.8385 34.9554 50.8387 35.5 50ZM35.5 42.6667C39.1279 42.6667 42 39.615 42 35.9375H40C40 38.5882 37.9472 40.6667 35.5 40.6667V42.6667ZM29 35.9375C29 39.615 31.8721 42.6667 35.5 42.6667V40.6667C33.0528 40.6667 31 38.5882 31 35.9375H29ZM35.5 29.2083C31.8721 29.2083 29 32.26 29 35.9375H31C31 33.2868 33.0528 31.2083 35.5 31.2083V29.2083ZM42 35.9375C42 32.26 39.1279 29.2083 35.5 29.2083V31.2083C37.9472 31.2083 40 33.2868 40 35.9375H42Z" fill="white"/>
</g>
<defs>
<filter id="filter0_d_11356_33902" x="0" y="0" width="71" height="75" filterUnits="userSpaceOnUse" color-interpolation-filters="sRGB">
<feFlood flood-opacity="0" result="BackgroundImageFix"/>
<feColorMatrix in="SourceAlpha" type="matrix" values="0 0 0 0 0 0 0 0 0 0 0 0 0 0 0 0 0 0 127 0" result="hardAlpha"/>
<feOffset/>
<feGaussianBlur stdDeviation="12"/>
<feComposite in2="hardAlpha" operator="out"/>
<feColorMatrix type="matrix" values="0 0 0 0 0.486275 0 0 0 0 0.541318 0 0 0 0 0.690196 0 0 0 0.56 0"/>
<feBlend mode="normal" in2="BackgroundImageFix" result="effect1_dropShadow_11356_33902"/>
<feBlend mode="normal" in="SourceGraphic" in2="effect1_dropShadow_11356_33902" result="shape"/>
</filter>
</defs>
</svg>