<svg width="32" height="30" viewBox="0 0 32 30" fill="none" xmlns="http://www.w3.org/2000/svg">
<path d="M4.33545 11C4.33545 5.47715 8.8126 1 14.3355 1H20.0023C25.5252 1 30.0023 5.47715 30.0023 11V11.2127C30.0023 16.7355 25.5252 21.2127 20.0023 21.2127H4.33545V11Z" stroke="black" stroke-width="2"/>
<path d="M8.91895 11.4141C8.91895 10.4476 9.70245 9.66406 10.6689 9.66406C11.6354 9.66406 12.4189 10.4476 12.4189 11.4141C12.4189 12.3806 11.6354 13.1641 10.6689 13.1641C9.70245 13.1641 8.91895 12.3806 8.91895 11.4141Z" fill="black"/>
<path d="M15.3359 11.4141C15.3359 10.4476 16.1194 9.66406 17.0859 9.66406C18.0524 9.66406 18.8359 10.4476 18.8359 11.4141C18.8359 12.3806 18.0524 13.1641 17.0859 13.1641C16.1194 13.1641 15.3359 12.3806 15.3359 11.4141Z" fill="black"/>
<path d="M21.7524 11.4141C21.7524 10.4476 22.5359 9.66406 23.5024 9.66406C24.4689 9.66406 25.2524 10.4476 25.2524 11.4141C25.2524 12.3806 24.4689 13.1641 23.5024 13.1641C22.5359 13.1641 21.7524 12.3806 21.7524 11.4141Z" fill="black"/>
<path d="M6.07909 25.4792C5.495 26.2143 4.31193 25.7621 4.31445 24.8048L4.33537 16.8504C4.3372 16.1558 5.01013 15.6869 5.65274 15.9325L10.4853 17.7794C11.128 18.025 11.3564 18.8383 10.9326 19.3716L6.07909 25.4792Z" stroke="black" stroke-width="2"/>
<path d="M6.32639 22.119L6.32639 14.6188L13.4721 19.185C13.4805 19.1904 13.4771 19.2036 13.4672 19.2036L9.05422 19.2038C9.04866 19.2038 9.04408 19.1991 9.04408 19.1934L9.04408 18.8829C9.04408 18.8735 9.0325 18.8689 9.02657 18.876L6.32639 22.119Z" fill="white" stroke="white" stroke-width="2"/>
</svg>
