<svg width="33" height="30" viewBox="0 0 33 30" fill="none" xmlns="http://www.w3.org/2000/svg">
<path d="M4.72656 10C4.72656 4.47715 9.20372 0 14.7266 0H22.7266C28.2494 0 32.7266 4.47715 32.7266 10V11C32.7266 16.5228 28.2494 21 22.7266 21H4.72656V10Z" fill="white"/>
<path d="M9.72656 11C9.72656 9.89543 10.622 9 11.7266 9C12.8311 9 13.7266 9.89543 13.7266 11C13.7266 12.1046 12.8311 13 11.7266 13C10.622 13 9.72656 12.1046 9.72656 11Z" fill="#333333"/>
<path d="M16.7266 11C16.7266 9.89543 17.622 9 18.7266 9C19.8311 9 20.7266 9.89543 20.7266 11C20.7266 12.1046 19.8311 13 18.7266 13C17.622 13 16.7266 12.1046 16.7266 11Z" fill="#333333"/>
<path d="M23.7266 11C23.7266 9.89543 24.622 9 25.7266 9C26.8311 9 27.7266 9.89543 27.7266 11C27.7266 12.1046 26.8311 13 25.7266 13C24.622 13 23.7266 12.1046 23.7266 11Z" fill="#333333"/>
<path d="M6.47349 26.6171C5.8736 27.3361 4.70309 26.91 4.70568 25.9737L4.72932 17.4116C4.73123 16.7187 5.4202 16.2377 6.07133 16.4747L11.5331 18.4626C12.1843 18.6996 12.4029 19.5109 11.9589 20.043L6.47349 26.6171Z" fill="white"/>
</svg>
