<svg width="96" height="96" viewBox="0 0 96 96" fill="none" xmlns="http://www.w3.org/2000/svg">
<path d="M49.8658 0.800157C42.8265 0.781803 35.8824 2.42643 29.5992 5.60013C22.0699 9.36315 15.7369 15.1481 11.3097 22.3071C6.88246 29.466 4.53579 37.7161 4.53253 46.1334C4.5149 52.8948 6.03157 59.5683 8.9638 65.6528C9.19531 66.1332 9.23768 66.6846 9.06905 67.1905L0.464125 93.0053C-0.0570468 94.5688 1.43043 96.0563 2.99395 95.5351L28.8087 86.9302C29.3146 86.7615 29.866 86.8039 30.3464 87.0354C36.4309 89.9676 43.1044 91.4843 49.8658 91.4667C58.2831 91.4634 66.5332 89.1167 73.6922 84.6895C80.8511 80.2623 86.6361 73.9293 90.3991 66.4C93.5728 60.1168 95.2174 53.1727 95.1991 46.1334V43.4667C94.5858 32.3502 89.8937 21.8505 82.0212 13.978C74.1487 6.10553 63.649 1.41345 52.5325 0.800157H49.8658Z" fill="url(#paint0_radial)" stroke="#1FAEF7" stroke-width="0.1" stroke-linecap="round" stroke-linejoin="round"/>
<g filter="url(#filter0_d)">
<path d="M76.0003 47.2001C76.0113 51.4236 75.0245 55.5901 73.1203 59.36C70.8625 63.8776 67.3915 67.6774 63.0962 70.3337C58.8008 72.9901 53.8507 74.3981 48.8003 74.4C44.6726 74.4108 40.5995 73.4685 36.8977 71.6483C36.7326 71.5671 36.5422 71.5527 36.3677 71.6109L19.7096 77.1636C19.1702 77.3434 18.657 76.8302 18.8368 76.2908L24.3895 59.6327C24.4477 59.4582 24.4333 59.2678 24.3521 59.1027C22.5319 55.4009 21.5896 51.3278 21.6004 47.2001C21.6023 42.1497 23.0103 37.1996 25.6667 32.9042C28.323 28.6089 32.1228 25.1379 36.6404 22.8801C40.4103 20.9759 44.5768 19.9891 48.8003 20.0001H50.4003C57.0702 20.3681 63.3701 23.1833 68.0936 27.9068C72.8171 32.6303 75.6323 38.9302 76.0003 45.6001V47.2001Z" fill="url(#paint1_radial)"/>
</g>
<path d="M38.9798 35.6096H42.119L50.903 56H46.7558L44.855 51.3344H36.0134L34.1702 56H30.1094L38.9798 35.6096ZM43.5878 48.224L40.4486 39.9296L37.2518 48.224H43.5878Z" fill="#FBFBFB"/>
<path d="M62.4822 54.2432H62.3957C62.0501 54.8576 61.4933 55.3664 60.7253 55.7696C59.9574 56.1536 59.0838 56.3456 58.1045 56.3456C57.5477 56.3456 56.9621 56.2688 56.3477 56.1152C55.7525 55.9808 55.1957 55.7504 54.6773 55.424C54.1781 55.0784 53.7557 54.6368 53.4101 54.0992C53.0837 53.5424 52.9205 52.8608 52.9205 52.0544C52.9205 51.0176 53.2085 50.192 53.7845 49.5776C54.3797 48.9632 55.1381 48.4928 56.0597 48.1664C56.9813 47.84 57.9989 47.6288 59.1125 47.5328C60.2453 47.4176 61.3493 47.36 62.4246 47.36V47.0144C62.4246 46.1504 62.1078 45.5168 61.4742 45.1136C60.8598 44.6912 60.1206 44.48 59.2566 44.48C58.527 44.48 57.8262 44.6336 57.1541 44.9408C56.4821 45.248 55.9253 45.6224 55.4837 46.064L53.6981 43.9616C54.4853 43.232 55.3877 42.6848 56.4053 42.32C57.4421 41.9552 58.4885 41.7728 59.5445 41.7728C60.7733 41.7728 61.7813 41.9456 62.5685 42.2912C63.3749 42.6368 64.0085 43.088 64.4693 43.6448C64.9301 44.2016 65.2469 44.8256 65.4197 45.5168C65.6117 46.208 65.7078 46.8992 65.7078 47.5904V56H62.4822V54.2432ZM62.4246 49.6928H61.647C61.0902 49.6928 60.5045 49.7216 59.8901 49.7792C59.2757 49.8176 58.7094 49.9232 58.191 50.096C57.6726 50.2496 57.2406 50.48 56.895 50.7872C56.5494 51.0752 56.3765 51.4784 56.3765 51.9968C56.3765 52.3232 56.4438 52.6016 56.5782 52.832C56.7318 53.0432 56.9238 53.216 57.1541 53.3504C57.3846 53.4848 57.6438 53.5808 57.9318 53.6384C58.2198 53.696 58.5078 53.7248 58.7958 53.7248C59.9862 53.7248 60.8885 53.408 61.5029 52.7744C62.1173 52.1408 62.4246 51.2768 62.4246 50.1824V49.6928Z" fill="#FBFBFB"/>
<path fill-rule="evenodd" clip-rule="evenodd" d="M38.8234 35.3696H42.2778L51.2686 56.24H46.5953L44.6945 51.5744H36.1775L34.3343 56.24H29.7441L38.8234 35.3696ZM39.138 35.8496L30.4764 55.76H34.0078L35.851 51.0944H45.0172L46.918 55.76H50.5392L41.9619 35.8496H39.138ZM40.4515 39.2569L43.9361 48.464H36.903L40.4515 39.2569ZM37.6024 47.984H43.2412L40.4474 40.6022L37.6024 47.984ZM59.5454 42.0128C58.5179 42.0128 57.4985 42.1901 56.4865 42.5462C55.5723 42.874 54.7549 43.3531 54.0329 43.9839L55.5036 45.7155C55.9343 45.3284 56.4527 44.998 57.0553 44.7225C57.7582 44.4012 58.493 44.24 59.2574 44.24C60.1605 44.24 60.9477 44.4609 61.6075 44.9134C62.3193 45.368 62.6654 46.0844 62.6654 47.0144V47.6H62.4254C61.3588 47.6 60.2629 47.6571 59.1377 47.7715L59.1341 47.7719C58.0379 47.8664 57.0406 48.0739 56.1408 48.3926C55.2498 48.7081 54.525 49.1596 53.9592 49.7431C53.4349 50.3032 53.1614 51.0646 53.1614 52.0544C53.1614 52.8265 53.3172 53.4624 53.6156 53.9736C53.9435 54.4825 54.3419 54.8983 54.8105 55.2237C55.3047 55.5341 55.8347 55.7531 56.4015 55.8811L56.4069 55.8823C57.0048 56.0318 57.5707 56.1056 58.1054 56.1056C59.0517 56.1056 59.887 55.9204 60.6168 55.556C61.3522 55.1695 61.8696 54.6906 62.1875 54.1255L62.2563 54.0032H62.723V55.76H65.4686V47.5904C65.4686 46.9217 65.3758 46.2521 65.1894 45.581L65.1877 45.575C65.0238 44.9191 64.7236 44.3274 64.2854 43.7978C63.8535 43.276 63.2537 42.8455 62.4749 42.5118C61.7282 42.184 60.7542 42.0128 59.5454 42.0128ZM56.3266 42.0936C57.3879 41.7201 58.4612 41.5328 59.5454 41.5328C60.7937 41.5328 61.8372 41.7078 62.6647 42.0709C63.4984 42.4283 64.1655 42.9001 64.6551 43.4918C65.1378 44.0749 65.4709 44.7302 65.6527 45.4555C65.8498 46.1658 65.9486 46.8776 65.9486 47.5904V56.24H62.243V54.8857C61.8855 55.3145 61.4148 55.6791 60.8378 55.9821L60.8336 55.9843C60.0279 56.3871 59.1166 56.5856 58.1054 56.5856C57.5274 56.5856 56.9231 56.506 56.2932 56.3487C56.2922 56.3485 56.2913 56.3482 56.2904 56.348L56.3486 56.1152L56.2958 56.3493C56.2949 56.3491 56.294 56.3489 56.2932 56.3487C55.6723 56.2082 55.091 55.9674 54.5504 55.6271L54.5415 55.6215C54.015 55.2569 53.5709 54.7917 53.2092 54.2289L53.2038 54.2206C52.8511 53.6189 52.6814 52.8929 52.6814 52.0544C52.6814 50.9714 52.9835 50.082 53.6104 49.4134L53.6131 49.4106C54.2375 48.766 55.029 48.2771 55.9805 47.9401C56.9233 47.6062 57.9606 47.3914 59.0909 47.2938C60.1467 47.1865 61.1782 47.1288 62.1854 47.1209V47.36H62.4254V47.12C62.3456 47.12 62.2656 47.1203 62.1854 47.1209V47.0144C62.1854 46.2179 61.8992 45.6679 61.3462 45.316L61.339 45.3115C60.7707 44.9207 60.0808 44.72 59.2574 44.72C58.5627 44.72 57.8959 44.866 57.2548 45.159C56.6042 45.4565 56.0724 45.8156 55.6544 46.2337L55.4703 46.4178L53.3673 43.9418L53.5359 43.7855C54.347 43.0338 55.2787 42.4692 56.3266 42.0936ZM65.6527 45.4555C65.653 45.4565 65.6532 45.4575 65.6535 45.4586L65.4206 45.5168L65.6519 45.4525C65.6522 45.4535 65.6524 45.4545 65.6527 45.4555ZM59.8723 49.5399C60.492 49.4819 61.0839 49.4528 61.6478 49.4528H62.6654V50.1824C62.6654 51.3234 62.3438 52.2529 61.6761 52.9414C61.0025 53.6361 60.0286 53.9648 58.7966 53.9648C58.4925 53.9648 58.1888 53.9343 57.8856 53.8737C57.5742 53.8114 57.2896 53.7067 57.0341 53.5577C56.7756 53.4069 56.5585 53.2118 56.385 52.9731L56.3707 52.9535C56.2106 52.679 56.1374 52.3562 56.1374 51.9968C56.1374 51.4207 56.3323 50.9459 56.7392 50.6053C57.1138 50.2731 57.5763 50.0286 58.1197 49.867C58.658 49.688 59.2426 49.5795 59.8723 49.5399ZM61.6478 49.9328C61.0993 49.9328 60.5212 49.9611 59.9134 50.0181L59.906 50.0188C59.3098 50.0561 58.7641 50.1582 58.2677 50.3237L58.2601 50.3262C57.7698 50.4715 57.3705 50.6864 57.0553 50.9665L57.0496 50.9716C56.7674 51.2068 56.6174 51.5375 56.6174 51.9968C56.6174 52.2848 56.6755 52.5161 56.7804 52.7007C56.9128 52.88 57.0773 53.0272 57.276 53.1431C57.4813 53.2628 57.7151 53.3501 57.9797 53.403C58.2525 53.4576 58.5248 53.4848 58.7966 53.4848C59.9455 53.4848 60.7764 53.1798 61.3316 52.6073C61.8927 52.0286 62.1854 51.2302 62.1854 50.1824V49.9328H61.6478Z" fill="#FBFBFB"/>
<defs>
<filter id="filter0_d" x="5.80078" y="7" width="83.2002" height="83.2002" filterUnits="userSpaceOnUse" color-interpolation-filters="sRGB">
<feFlood flood-opacity="0" result="BackgroundImageFix"/>
<feColorMatrix in="SourceAlpha" type="matrix" values="0 0 0 0 0 0 0 0 0 0 0 0 0 0 0 0 0 0 127 0"/>
<feOffset/>
<feGaussianBlur stdDeviation="6.5"/>
<feColorMatrix type="matrix" values="0 0 0 0 1 0 0 0 0 1 0 0 0 0 1 0 0 0 0.42 0"/>
<feBlend mode="normal" in2="BackgroundImageFix" result="effect1_dropShadow"/>
<feBlend mode="normal" in="SourceGraphic" in2="effect1_dropShadow" result="shape"/>
</filter>
<radialGradient id="paint0_radial" cx="0" cy="0" r="1" gradientUnits="userSpaceOnUse" gradientTransform="translate(48.0719 91.5636) rotate(-92.3859) scale(83.8545)">
<stop stop-color="#1FAEF7" stop-opacity="0.24"/>
<stop offset="0.323037" stop-color="#1FAEF7" stop-opacity="0.298147"/>
<stop offset="1" stop-color="#1FAEF7" stop-opacity="0.42"/>
</radialGradient>
<radialGradient id="paint1_radial" cx="0" cy="0" r="1" gradientUnits="userSpaceOnUse" gradientTransform="translate(47.2004 77.6) rotate(-90) scale(57.6)">
<stop stop-color="#008DD6"/>
<stop offset="1" stop-color="#4EBFF9"/>
</radialGradient>
</defs>
</svg>
