<svg width="10" height="17" viewBox="0 0 10 17" fill="none" xmlns="http://www.w3.org/2000/svg">
<path d="M4.63928 2.14918C4.63928 1.50857 5.1586 0.989258 5.79921 0.989258C6.43981 0.989258 6.95913 1.50857 6.95913 2.14918V13.7468C6.95913 14.1472 6.63456 14.4718 6.23418 14.4718C5.35334 14.4718 4.63928 13.7577 4.63928 12.8769V2.14918Z" fill="black"/>
<path d="M5.03636 2.61316C4.85987 2.64707 4.69353 2.53074 4.66482 2.35333C4.5452 1.61411 5.04438 0.900303 5.77977 0.759002L9.4119 0.0611031C9.58839 0.0271909 9.75473 0.143521 9.78344 0.320934C9.90305 1.06015 9.40388 1.77396 8.66849 1.91526L5.03636 2.61316Z" fill="black"/>
<rect y="10.2585" width="6.95954" height="6.74126" rx="3.37063" fill="black"/>
</svg>
