<svg width="22" height="21" viewBox="0 0 22 21" fill="none" xmlns="http://www.w3.org/2000/svg">
<path d="M1.38648 14.1056L1.61957 14.8184L1.38648 14.1056C1.27789 14.1411 1.17127 14.1818 1.06695 14.2276C0.442942 12.8836 0.750973 11.2211 1.89505 10.2255L11.9007 1.51856C13.0193 0.545108 14.5928 0.509281 15.7382 1.3382C15.6429 1.4751 15.5561 1.61821 15.4786 1.76664C15.2509 2.20236 15.1064 2.67689 15.054 3.16386C15.0016 3.65089 15.0423 4.14212 15.176 4.60947C15.3096 5.07693 15.5338 5.51143 15.8375 5.88678L16.3684 5.45723L15.8375 5.88678C16.1413 6.26223 16.5178 6.57 16.9457 6.79143C17.3736 7.01286 17.8426 7.14264 18.325 7.17442C18.8072 7.20619 19.2922 7.13935 19.7524 6.98015C19.8931 6.93146 20.0307 6.87441 20.1645 6.80946C20.7642 8.14633 20.4509 9.78592 19.3182 10.7716L9.3126 19.4786C8.18963 20.4558 6.60832 20.4881 5.4619 19.6494C5.53149 19.5407 5.59553 19.4282 5.65371 19.3123C5.86863 18.8842 5.9996 18.4174 6.03999 17.9387C6.08037 17.4599 6.0295 16.9774 5.88991 16.5183C5.7503 16.0591 5.5244 15.6314 5.22386 15.2599C4.92328 14.8884 4.5537 14.5803 4.13528 14.3544C3.71678 14.1285 3.25822 13.9896 2.78584 13.9467C2.31344 13.9039 1.83781 13.958 1.38648 14.1056ZM9.30406 4.84756C8.68698 5.38454 8.61641 6.32225 9.12359 6.94908C9.45338 7.35669 9.95536 7.54425 10.4401 7.48628C10.3826 7.89338 10.4881 8.32159 10.7615 8.65949C11.0913 9.06716 11.5934 9.25472 12.0782 9.19665C12.0243 9.60034 12.1304 10.0237 12.4012 10.3585C12.7832 10.8306 13.3962 11.0075 13.9457 10.8496C13.8106 11.3157 13.8999 11.8383 14.2215 12.2358C14.7415 12.8784 15.6895 12.9741 16.3229 12.4229C16.9399 11.8859 17.0105 10.9482 16.5033 10.3214C16.1214 9.84927 15.5084 9.67236 14.9589 9.83023C15.094 9.36415 15.0047 8.8416 14.683 8.44408C14.3532 8.0364 13.8511 7.84885 13.3663 7.90691C13.4202 7.50323 13.3142 7.07982 13.0433 6.74507C12.7135 6.33747 12.2115 6.14992 11.7269 6.20788C11.7843 5.80079 11.6788 5.37256 11.4054 5.03467C10.8855 4.39203 9.93748 4.29636 9.30406 4.84756Z" fill="black" stroke="black" stroke-width="1.5"/>
</svg>
