<svg width="36" height="35" viewBox="0 0 36 35" fill="none" xmlns="http://www.w3.org/2000/svg">
<ellipse cx="12.4111" cy="5.77193" rx="5" ry="5.08773" fill="white"/>
<path d="M34 24.0262C35.1046 24.0262 36.0195 23.1226 35.8074 22.0386C35.6799 21.3873 35.4898 20.7487 35.2388 20.1322C34.7362 18.8976 33.9997 17.7759 33.0711 16.831C32.1425 15.8862 31.0401 15.1366 29.8268 14.6253C28.6136 14.1139 27.3132 13.8507 26 13.8507C24.6868 13.8507 23.3864 14.1139 22.1732 14.6253C20.9599 15.1366 19.8575 15.8862 18.9289 16.831C18.0003 17.7759 17.2638 18.8976 16.7612 20.1322C16.5102 20.7487 16.3201 21.3873 16.1926 22.0386C15.9805 23.1226 16.8954 24.0262 18 24.0262L26 24.0262H34Z" fill="white"/>
<mask id="path-3-outside-1" maskUnits="userSpaceOnUse" x="0" y="11.8507" width="25" height="15" fill="black">
<rect fill="white" y="11.8507" width="25" height="15"/>
<path d="M21 24.0262C22.1046 24.0262 23.0202 23.1218 22.798 22.0398C22.6641 21.3881 22.4644 20.7491 22.2007 20.1322C21.6731 18.8976 20.8996 17.7759 19.9246 16.831C18.9496 15.8862 17.7921 15.1366 16.5182 14.6253C15.2443 14.1139 13.8789 13.8507 12.5 13.8507C11.1211 13.8507 9.75574 14.1139 8.48182 14.6253C7.2079 15.1366 6.05039 15.8862 5.07538 16.831C4.10036 17.7759 3.32694 18.8976 2.79926 20.1322C2.53559 20.7491 2.33586 21.3881 2.202 22.0398C1.97978 23.1218 2.89543 24.0262 4 24.0262L12.5 24.0262H21Z"/>
</mask>
<path d="M21 24.0262C22.1046 24.0262 23.0202 23.1218 22.798 22.0398C22.6641 21.3881 22.4644 20.7491 22.2007 20.1322C21.6731 18.8976 20.8996 17.7759 19.9246 16.831C18.9496 15.8862 17.7921 15.1366 16.5182 14.6253C15.2443 14.1139 13.8789 13.8507 12.5 13.8507C11.1211 13.8507 9.75574 14.1139 8.48182 14.6253C7.2079 15.1366 6.05039 15.8862 5.07538 16.831C4.10036 17.7759 3.32694 18.8976 2.79926 20.1322C2.53559 20.7491 2.33586 21.3881 2.202 22.0398C1.97978 23.1218 2.89543 24.0262 4 24.0262L12.5 24.0262H21Z" fill="white"/>
<path d="M21 24.0262C22.1046 24.0262 23.0202 23.1218 22.798 22.0398C22.6641 21.3881 22.4644 20.7491 22.2007 20.1322C21.6731 18.8976 20.8996 17.7759 19.9246 16.831C18.9496 15.8862 17.7921 15.1366 16.5182 14.6253C15.2443 14.1139 13.8789 13.8507 12.5 13.8507C11.1211 13.8507 9.75574 14.1139 8.48182 14.6253C7.2079 15.1366 6.05039 15.8862 5.07538 16.831C4.10036 17.7759 3.32694 18.8976 2.79926 20.1322C2.53559 20.7491 2.33586 21.3881 2.202 22.0398C1.97978 23.1218 2.89543 24.0262 4 24.0262L12.5 24.0262H21Z" stroke="#212121" stroke-width="4" mask="url(#path-3-outside-1)"/>
<ellipse cx="26.1484" cy="5.77193" rx="5" ry="5.08773" fill="white"/>
</svg>
