<svg width="25" height="24" viewBox="0 0 25 24" fill="none" xmlns="http://www.w3.org/2000/svg">
<path d="M7.3457 23.0498C7.87207 23.0498 8.2373 22.7705 8.89258 22.1904L12.5986 18.8926H19.4951C22.6963 18.8926 24.415 17.1201 24.415 13.9727V5.74414C24.415 2.59668 22.6963 0.824219 19.4951 0.824219H5.65918C2.45801 0.824219 0.739258 2.58594 0.739258 5.74414V13.9727C0.739258 17.1309 2.45801 18.8926 5.65918 18.8926H6.1748V21.6855C6.1748 22.5127 6.59375 23.0498 7.3457 23.0498ZM7.78613 21.084V17.9688C7.78613 17.3887 7.56055 17.1631 6.98047 17.1631H5.65918C3.48926 17.1631 2.46875 16.0566 2.46875 13.9619V5.74414C2.46875 3.64941 3.48926 2.55371 5.65918 2.55371H19.4951C21.6543 2.55371 22.6855 3.64941 22.6855 5.74414V13.9619C22.6855 16.0566 21.6543 17.1631 19.4951 17.1631H12.5342C11.9326 17.1631 11.6318 17.249 11.2236 17.668L7.78613 21.084ZM12.6416 15.1221C13.2217 15.1221 13.5547 14.7246 13.5547 14.0908V10.9756H16.8203C17.4219 10.9756 17.8408 10.6641 17.8408 10.084C17.8408 9.49316 17.4434 9.1709 16.8203 9.1709H13.5547V5.85156C13.5547 5.21777 13.2217 4.82031 12.6416 4.82031C12.0615 4.82031 11.75 5.23926 11.75 5.85156V9.1709H8.49512C7.86133 9.1709 7.45312 9.49316 7.45312 10.084C7.45312 10.6641 7.89355 10.9756 8.49512 10.9756H11.75V14.0908C11.75 14.7031 12.0615 15.1221 12.6416 15.1221Z" fill="black"/>
</svg>
