<svg width="138" height="54" viewBox="0 0 138 54" fill="none" xmlns="http://www.w3.org/2000/svg">
<g filter="url(#filter0_d)">
<path d="M13 26C13 18.8203 18.8203 13 26 13H112C119.18 13 125 18.8203 125 26V28C125 35.1797 119.18 41 112 41H26C18.8203 41 13 35.1797 13 28V26Z" fill="white"/>
</g>
<path d="M21.5057 21.504H24.4577C24.8577 21.504 25.2457 21.548 25.6217 21.636C25.9977 21.716 26.3297 21.852 26.6177 22.044C26.9137 22.236 27.1497 22.488 27.3257 22.8C27.5017 23.112 27.5897 23.492 27.5897 23.94C27.5897 24.556 27.4137 25.06 27.0617 25.452C26.7177 25.836 26.2457 26.096 25.6457 26.232L27.9137 30H26.0897L24.1217 26.4H23.0177V30H21.5057V21.504ZM24.2537 25.164C24.4697 25.164 24.6857 25.148 24.9017 25.116C25.1177 25.084 25.3097 25.024 25.4777 24.936C25.6537 24.848 25.7977 24.724 25.9097 24.564C26.0217 24.396 26.0777 24.184 26.0777 23.928C26.0777 23.696 26.0257 23.508 25.9217 23.364C25.8177 23.212 25.6857 23.092 25.5257 23.004C25.3657 22.916 25.1817 22.856 24.9737 22.824C24.7737 22.792 24.5777 22.776 24.3857 22.776H23.0177V25.164H24.2537ZM33.3759 26.544C33.3759 26.36 33.3479 26.184 33.2919 26.016C33.2439 25.848 33.1639 25.7 33.0519 25.572C32.9399 25.444 32.7959 25.344 32.6199 25.272C32.4519 25.192 32.2519 25.152 32.0199 25.152C31.5879 25.152 31.2199 25.284 30.9159 25.548C30.6199 25.804 30.4559 26.136 30.4239 26.544H33.3759ZM34.8159 27.192C34.8159 27.256 34.8159 27.32 34.8159 27.384C34.8159 27.448 34.8119 27.512 34.8039 27.576H30.4239C30.4399 27.784 30.4919 27.976 30.5799 28.152C30.6759 28.32 30.7999 28.468 30.9519 28.596C31.1039 28.716 31.2759 28.812 31.4679 28.884C31.6599 28.956 31.8599 28.992 32.0679 28.992C32.4279 28.992 32.7319 28.928 32.9799 28.8C33.2279 28.664 33.4319 28.48 33.5919 28.248L34.5519 29.016C33.9839 29.784 33.1599 30.168 32.0799 30.168C31.6319 30.168 31.2199 30.1 30.8439 29.964C30.4679 29.82 30.1399 29.62 29.8599 29.364C29.5879 29.108 29.3719 28.796 29.2119 28.428C29.0599 28.052 28.9839 27.628 28.9839 27.156C28.9839 26.692 29.0599 26.272 29.2119 25.896C29.3719 25.512 29.5879 25.188 29.8599 24.924C30.1319 24.652 30.4519 24.444 30.8199 24.3C31.1959 24.148 31.5999 24.072 32.0319 24.072C32.4319 24.072 32.7999 24.14 33.1359 24.276C33.4799 24.404 33.7759 24.6 34.0239 24.864C34.2719 25.12 34.4639 25.444 34.5999 25.836C34.7439 26.22 34.8159 26.672 34.8159 27.192ZM43.5666 24.072C43.9426 24.072 44.2626 24.14 44.5266 24.276C44.7986 24.404 45.0186 24.576 45.1866 24.792C45.3626 25.008 45.4906 25.256 45.5706 25.536C45.6506 25.816 45.6906 26.104 45.6906 26.4V30H44.2506V26.808C44.2506 26.64 44.2386 26.464 44.2146 26.28C44.1906 26.096 44.1386 25.932 44.0586 25.788C43.9786 25.636 43.8666 25.512 43.7226 25.416C43.5866 25.32 43.4026 25.272 43.1706 25.272C42.9466 25.272 42.7546 25.32 42.5946 25.416C42.4346 25.512 42.3026 25.636 42.1986 25.788C42.0946 25.94 42.0186 26.112 41.9706 26.304C41.9226 26.488 41.8986 26.672 41.8986 26.856V30H40.4586V26.52C40.4586 26.16 40.3706 25.864 40.1946 25.632C40.0266 25.392 39.7586 25.272 39.3906 25.272C39.1746 25.272 38.9866 25.32 38.8266 25.416C38.6666 25.504 38.5346 25.62 38.4306 25.764C38.3346 25.908 38.2586 26.076 38.2026 26.268C38.1546 26.452 38.1306 26.64 38.1306 26.832V30H36.6906V24.24H38.0586V25.164H38.0826C38.1466 25.02 38.2306 24.884 38.3346 24.756C38.4466 24.628 38.5746 24.512 38.7186 24.408C38.8706 24.304 39.0426 24.224 39.2346 24.168C39.4266 24.104 39.6386 24.072 39.8706 24.072C40.3186 24.072 40.6906 24.172 40.9866 24.372C41.2826 24.572 41.5106 24.836 41.6706 25.164C41.8626 24.812 42.1186 24.544 42.4386 24.36C42.7586 24.168 43.1346 24.072 43.5666 24.072ZM47.5103 27.096C47.5103 26.64 47.5903 26.228 47.7503 25.86C47.9183 25.484 48.1423 25.164 48.4223 24.9C48.7023 24.636 49.0343 24.432 49.4183 24.288C49.8023 24.144 50.2103 24.072 50.6423 24.072C51.0743 24.072 51.4823 24.144 51.8663 24.288C52.2503 24.432 52.5823 24.636 52.8623 24.9C53.1423 25.164 53.3623 25.484 53.5223 25.86C53.6903 26.228 53.7743 26.64 53.7743 27.096C53.7743 27.552 53.6903 27.968 53.5223 28.344C53.3623 28.72 53.1423 29.044 52.8623 29.316C52.5823 29.58 52.2503 29.788 51.8663 29.94C51.4823 30.092 51.0743 30.168 50.6423 30.168C50.2103 30.168 49.8023 30.092 49.4183 29.94C49.0343 29.788 48.7023 29.58 48.4223 29.316C48.1423 29.044 47.9183 28.72 47.7503 28.344C47.5903 27.968 47.5103 27.552 47.5103 27.096ZM48.9743 27.096C48.9743 27.32 49.0063 27.544 49.0703 27.768C49.1423 27.992 49.2463 28.192 49.3823 28.368C49.5183 28.544 49.6903 28.688 49.8983 28.8C50.1063 28.912 50.3543 28.968 50.6423 28.968C50.9303 28.968 51.1783 28.912 51.3863 28.8C51.5943 28.688 51.7663 28.544 51.9023 28.368C52.0383 28.192 52.1383 27.992 52.2023 27.768C52.2743 27.544 52.3103 27.32 52.3103 27.096C52.3103 26.872 52.2743 26.652 52.2023 26.436C52.1383 26.212 52.0383 26.012 51.9023 25.836C51.7663 25.66 51.5943 25.52 51.3863 25.416C51.1783 25.304 50.9303 25.248 50.6423 25.248C50.3543 25.248 50.1063 25.304 49.8983 25.416C49.6903 25.52 49.5183 25.66 49.3823 25.836C49.2463 26.012 49.1423 26.212 49.0703 26.436C49.0063 26.652 48.9743 26.872 48.9743 27.096ZM54.7866 24.24H56.3586L57.8706 28.44H57.8946L59.4186 24.24H60.9426L58.6506 30H57.1146L54.7866 24.24ZM66.3389 26.544C66.3389 26.36 66.3109 26.184 66.2549 26.016C66.2069 25.848 66.1269 25.7 66.0149 25.572C65.9029 25.444 65.7589 25.344 65.5829 25.272C65.4149 25.192 65.2149 25.152 64.9829 25.152C64.5509 25.152 64.1829 25.284 63.8789 25.548C63.5829 25.804 63.4189 26.136 63.3869 26.544H66.3389ZM67.7789 27.192C67.7789 27.256 67.7789 27.32 67.7789 27.384C67.7789 27.448 67.7749 27.512 67.7669 27.576H63.3869C63.4029 27.784 63.4549 27.976 63.5429 28.152C63.6389 28.32 63.7629 28.468 63.9149 28.596C64.0669 28.716 64.2389 28.812 64.4309 28.884C64.6229 28.956 64.8229 28.992 65.0309 28.992C65.3909 28.992 65.6949 28.928 65.9429 28.8C66.1909 28.664 66.3949 28.48 66.5549 28.248L67.5149 29.016C66.9469 29.784 66.1229 30.168 65.0429 30.168C64.5949 30.168 64.1829 30.1 63.8069 29.964C63.4309 29.82 63.1029 29.62 62.8229 29.364C62.5509 29.108 62.3349 28.796 62.1749 28.428C62.0229 28.052 61.9469 27.628 61.9469 27.156C61.9469 26.692 62.0229 26.272 62.1749 25.896C62.3349 25.512 62.5509 25.188 62.8229 24.924C63.0949 24.652 63.4149 24.444 63.7829 24.3C64.1589 24.148 64.5629 24.072 64.9949 24.072C65.3949 24.072 65.7629 24.14 66.0989 24.276C66.4429 24.404 66.7389 24.6 66.9869 24.864C67.2349 25.12 67.4269 25.444 67.5629 25.836C67.7069 26.22 67.7789 26.672 67.7789 27.192ZM73.2055 21.504H74.7175V30H73.2055V21.504ZM77.0002 24.24H78.3682V25.164H78.3922C78.5202 24.876 78.7402 24.624 79.0522 24.408C79.3722 24.184 79.7482 24.072 80.1802 24.072C80.5562 24.072 80.8762 24.14 81.1402 24.276C81.4122 24.404 81.6322 24.576 81.8002 24.792C81.9762 25.008 82.1042 25.256 82.1842 25.536C82.2642 25.816 82.3042 26.104 82.3042 26.4V30H80.8642V26.808C80.8642 26.64 80.8522 26.464 80.8282 26.28C80.8042 26.096 80.7522 25.932 80.6722 25.788C80.5922 25.636 80.4802 25.512 80.3362 25.416C80.2002 25.32 80.0162 25.272 79.7842 25.272C79.5522 25.272 79.3522 25.32 79.1842 25.416C79.0162 25.504 78.8762 25.62 78.7642 25.764C78.6602 25.908 78.5802 26.076 78.5242 26.268C78.4682 26.452 78.4402 26.64 78.4402 26.832V30H77.0002V24.24ZM83.6366 25.392V24.24H84.6446V22.572H86.0606V24.24H87.5006V25.392H86.0606V28.068C86.0606 28.324 86.1046 28.536 86.1926 28.704C86.2886 28.872 86.4966 28.956 86.8166 28.956C86.9126 28.956 87.0166 28.948 87.1286 28.932C87.2406 28.908 87.3406 28.876 87.4286 28.836L87.4766 29.964C87.3486 30.012 87.1966 30.048 87.0206 30.072C86.8446 30.104 86.6766 30.12 86.5166 30.12C86.1326 30.12 85.8206 30.068 85.5806 29.964C85.3406 29.852 85.1486 29.704 85.0046 29.52C84.8686 29.328 84.7726 29.112 84.7166 28.872C84.6686 28.624 84.6446 28.36 84.6446 28.08V25.392H83.6366ZM93.0788 26.544C93.0788 26.36 93.0508 26.184 92.9948 26.016C92.9468 25.848 92.8668 25.7 92.7548 25.572C92.6428 25.444 92.4988 25.344 92.3228 25.272C92.1548 25.192 91.9548 25.152 91.7228 25.152C91.2908 25.152 90.9228 25.284 90.6188 25.548C90.3228 25.804 90.1588 26.136 90.1268 26.544H93.0788ZM94.5188 27.192C94.5188 27.256 94.5188 27.32 94.5188 27.384C94.5188 27.448 94.5148 27.512 94.5068 27.576H90.1268C90.1428 27.784 90.1948 27.976 90.2828 28.152C90.3788 28.32 90.5028 28.468 90.6548 28.596C90.8068 28.716 90.9788 28.812 91.1708 28.884C91.3628 28.956 91.5628 28.992 91.7708 28.992C92.1308 28.992 92.4348 28.928 92.6828 28.8C92.9308 28.664 93.1348 28.48 93.2948 28.248L94.2548 29.016C93.6868 29.784 92.8628 30.168 91.7828 30.168C91.3348 30.168 90.9228 30.1 90.5468 29.964C90.1708 29.82 89.8428 29.62 89.5628 29.364C89.2908 29.108 89.0748 28.796 88.9148 28.428C88.7628 28.052 88.6868 27.628 88.6868 27.156C88.6868 26.692 88.7628 26.272 88.9148 25.896C89.0748 25.512 89.2908 25.188 89.5628 24.924C89.8348 24.652 90.1548 24.444 90.5228 24.3C90.8988 24.148 91.3028 24.072 91.7348 24.072C92.1348 24.072 92.5028 24.14 92.8388 24.276C93.1828 24.404 93.4788 24.6 93.7268 24.864C93.9748 25.12 94.1668 25.444 94.3028 25.836C94.4468 26.22 94.5188 26.672 94.5188 27.192ZM96.3934 24.24H97.7734V25.2H97.7974C97.9574 24.864 98.1814 24.592 98.4694 24.384C98.7574 24.176 99.0934 24.072 99.4774 24.072C99.5334 24.072 99.5934 24.076 99.6574 24.084C99.7214 24.084 99.7774 24.092 99.8254 24.108V25.428C99.7294 25.404 99.6454 25.388 99.5734 25.38C99.5094 25.372 99.4454 25.368 99.3814 25.368C99.0534 25.368 98.7894 25.428 98.5894 25.548C98.3894 25.668 98.2334 25.812 98.1214 25.98C98.0094 26.148 97.9334 26.32 97.8934 26.496C97.8534 26.672 97.8334 26.812 97.8334 26.916V30H96.3934V24.24ZM105.09 26.544C105.09 26.36 105.062 26.184 105.006 26.016C104.958 25.848 104.878 25.7 104.766 25.572C104.654 25.444 104.51 25.344 104.334 25.272C104.166 25.192 103.966 25.152 103.734 25.152C103.302 25.152 102.934 25.284 102.63 25.548C102.334 25.804 102.17 26.136 102.138 26.544H105.09ZM106.53 27.192C106.53 27.256 106.53 27.32 106.53 27.384C106.53 27.448 106.526 27.512 106.518 27.576H102.138C102.154 27.784 102.206 27.976 102.294 28.152C102.39 28.32 102.514 28.468 102.666 28.596C102.818 28.716 102.99 28.812 103.182 28.884C103.374 28.956 103.574 28.992 103.782 28.992C104.142 28.992 104.446 28.928 104.694 28.8C104.942 28.664 105.146 28.48 105.306 28.248L106.266 29.016C105.698 29.784 104.874 30.168 103.794 30.168C103.346 30.168 102.934 30.1 102.558 29.964C102.182 29.82 101.854 29.62 101.574 29.364C101.302 29.108 101.086 28.796 100.926 28.428C100.774 28.052 100.698 27.628 100.698 27.156C100.698 26.692 100.774 26.272 100.926 25.896C101.086 25.512 101.302 25.188 101.574 24.924C101.846 24.652 102.166 24.444 102.534 24.3C102.91 24.148 103.314 24.072 103.746 24.072C104.146 24.072 104.514 24.14 104.85 24.276C105.194 24.404 105.49 24.6 105.738 24.864C105.986 25.12 106.178 25.444 106.314 25.836C106.458 26.22 106.53 26.672 106.53 27.192ZM111.56 25.776C111.432 25.608 111.256 25.464 111.032 25.344C110.808 25.216 110.564 25.152 110.3 25.152C110.068 25.152 109.856 25.2 109.664 25.296C109.472 25.392 109.376 25.552 109.376 25.776C109.376 26 109.48 26.16 109.688 26.256C109.904 26.344 110.216 26.436 110.624 26.532C110.84 26.58 111.056 26.644 111.272 26.724C111.496 26.804 111.696 26.912 111.872 27.048C112.056 27.176 112.204 27.34 112.316 27.54C112.428 27.732 112.484 27.968 112.484 28.248C112.484 28.6 112.416 28.9 112.28 29.148C112.152 29.388 111.976 29.584 111.752 29.736C111.536 29.888 111.28 29.996 110.984 30.06C110.696 30.132 110.396 30.168 110.084 30.168C109.636 30.168 109.2 30.088 108.776 29.928C108.352 29.76 108 29.524 107.72 29.22L108.668 28.332C108.828 28.54 109.036 28.712 109.292 28.848C109.548 28.984 109.832 29.052 110.144 29.052C110.248 29.052 110.352 29.04 110.456 29.016C110.568 28.992 110.668 28.956 110.756 28.908C110.852 28.852 110.928 28.78 110.984 28.692C111.04 28.604 111.068 28.496 111.068 28.368C111.068 28.128 110.956 27.956 110.732 27.852C110.516 27.748 110.188 27.644 109.748 27.54C109.532 27.492 109.32 27.432 109.112 27.36C108.912 27.28 108.732 27.18 108.572 27.06C108.412 26.932 108.284 26.776 108.188 26.592C108.092 26.408 108.044 26.18 108.044 25.908C108.044 25.588 108.108 25.312 108.236 25.08C108.372 24.848 108.548 24.66 108.764 24.516C108.98 24.364 109.224 24.252 109.496 24.18C109.768 24.108 110.048 24.072 110.336 24.072C110.752 24.072 111.156 24.144 111.548 24.288C111.948 24.432 112.264 24.652 112.496 24.948L111.56 25.776ZM113.388 25.392V24.24H114.396V22.572H115.812V24.24H117.252V25.392H115.812V28.068C115.812 28.324 115.856 28.536 115.944 28.704C116.04 28.872 116.248 28.956 116.568 28.956C116.664 28.956 116.768 28.948 116.88 28.932C116.992 28.908 117.092 28.876 117.18 28.836L117.228 29.964C117.1 30.012 116.948 30.048 116.772 30.072C116.596 30.104 116.428 30.12 116.268 30.12C115.884 30.12 115.572 30.068 115.332 29.964C115.092 29.852 114.9 29.704 114.756 29.52C114.62 29.328 114.524 29.112 114.468 28.872C114.42 28.624 114.396 28.36 114.396 28.08V25.392H113.388Z" fill="black"/>
<path d="M68.5 48L75.8612 40.5H61.1388L68.5 48Z" fill="white"/>
<defs>
<filter id="filter0_d" x="0" y="0" width="138" height="54" filterUnits="userSpaceOnUse" color-interpolation-filters="sRGB">
<feFlood flood-opacity="0" result="BackgroundImageFix"/>
<feColorMatrix in="SourceAlpha" type="matrix" values="0 0 0 0 0 0 0 0 0 0 0 0 0 0 0 0 0 0 127 0" result="hardAlpha"/>
<feOffset/>
<feGaussianBlur stdDeviation="6.5"/>
<feColorMatrix type="matrix" values="0 0 0 0 0 0 0 0 0 0 0 0 0 0 0 0 0 0 0.13 0"/>
<feBlend mode="normal" in2="BackgroundImageFix" result="effect1_dropShadow"/>
<feBlend mode="normal" in="SourceGraphic" in2="effect1_dropShadow" result="shape"/>
</filter>
</defs>
</svg>
