<svg width="72" height="76" viewBox="0 0 72 76" fill="none" xmlns="http://www.w3.org/2000/svg">
<g filter="url(#filter0_d_11411_33232)">
<path fill-rule="evenodd" clip-rule="evenodd" d="M27.3121 24.75C27.3121 24.3358 27.6479 24 28.0621 24H28.7221C29.1363 24 29.4721 24.3358 29.4721 24.75V30.61C29.4721 31.0242 29.1363 31.36 28.7221 31.36H28.0621C27.6479 31.36 27.3121 31.0242 27.3121 30.61V24.75ZM42.144 24.75C42.144 24.3358 42.4798 24 42.894 24H43.554C43.9682 24 44.304 24.3358 44.304 24.75V30.61C44.304 31.0242 43.9682 31.36 43.554 31.36H42.894C42.4798 31.36 42.144 31.0242 42.144 30.61V24.75ZM24 29.199C24 28.1375 24.8271 27.269 25.8721 27.2031V30.5486C25.8721 31.952 27.0098 33.0897 28.4132 33.0897C29.8166 33.0897 30.9543 31.952 30.9543 30.5486V27.199H40.6865V30.5486C40.6865 31.952 41.8242 33.0897 43.2277 33.0897C44.6311 33.0897 45.7688 31.952 45.7688 30.5486V27.199H46C47.1046 27.199 48 28.0945 48 29.199V49.199C48 50.3036 47.1046 51.199 46 51.199H26C24.8954 51.199 24 50.3036 24 49.199V29.199ZM36.0001 31.9994C35.1164 31.9994 34.4001 32.7157 34.4001 33.5994V37.5995H30.4001C29.5164 37.5995 28.8001 38.3159 28.8001 39.1995C28.8001 40.0832 29.5164 40.7995 30.4001 40.7995H34.4001V44.7994C34.4001 45.683 35.1164 46.3994 36.0001 46.3994C36.8837 46.3994 37.6001 45.683 37.6001 44.7994V40.7995H41.6001C42.4837 40.7995 43.2001 40.0832 43.2001 39.1995C43.2001 38.3159 42.4837 37.5995 41.6001 37.5995H37.6001V33.5994C37.6001 32.7157 36.8837 31.9994 36.0001 31.9994Z" fill="white"/>
</g>
<defs>
<filter id="filter0_d_11411_33232" x="0" y="0" width="72" height="75.1992" filterUnits="userSpaceOnUse" color-interpolation-filters="sRGB">
<feFlood flood-opacity="0" result="BackgroundImageFix"/>
<feColorMatrix in="SourceAlpha" type="matrix" values="0 0 0 0 0 0 0 0 0 0 0 0 0 0 0 0 0 0 127 0" result="hardAlpha"/>
<feOffset/>
<feGaussianBlur stdDeviation="12"/>
<feComposite in2="hardAlpha" operator="out"/>
<feColorMatrix type="matrix" values="0 0 0 0 0.486275 0 0 0 0 0.541318 0 0 0 0 0.690196 0 0 0 0.56 0"/>
<feBlend mode="normal" in2="BackgroundImageFix" result="effect1_dropShadow_11411_33232"/>
<feBlend mode="normal" in="SourceGraphic" in2="effect1_dropShadow_11411_33232" result="shape"/>
</filter>
</defs>
</svg>
