<svg width="19" height="27" viewBox="0 0 19 27" fill="none" xmlns="http://www.w3.org/2000/svg">
<path d="M1.50781 26.1367C2.10547 26.1367 2.46875 25.832 3.64062 24.6484L9.33594 18.9766C9.39453 18.9297 9.44141 18.8828 9.5 18.8828C9.54688 18.8828 9.60547 18.9297 9.66406 18.9766L15.3594 24.6484C16.5078 25.8086 16.8945 26.1367 17.4922 26.1367C18.2188 26.1367 18.793 25.6914 18.793 24.625V4.64453C18.793 2.20703 17.5859 0.976562 15.1602 0.976562H3.83984C1.41406 0.976562 0.207031 2.20703 0.207031 4.64453V24.625C0.207031 25.6914 0.78125 26.1367 1.50781 26.1367ZM2.38672 23.2891C2.22266 23.4531 2.09375 23.4062 2.09375 23.1836V4.67969C2.09375 3.50781 2.71484 2.86328 3.93359 2.86328H15.0664C16.2734 2.86328 16.9062 3.50781 16.9062 4.67969V23.1836C16.9062 23.4062 16.7773 23.4414 16.6133 23.2891L10.0859 16.832C9.875 16.6211 9.66406 16.5625 9.5 16.5625C9.32422 16.5625 9.125 16.6211 8.91406 16.832L2.38672 23.2891Z" fill="black"/>
</svg>
