<svg width="23" height="23" viewBox="0 0 23 23" fill="none" xmlns="http://www.w3.org/2000/svg">
<path d="M14.9922 10.5898H20.3242C21.8125 10.5898 22.5625 9.83984 22.5625 8.29297V3.05469C22.5625 1.50781 21.8125 0.769531 20.3242 0.769531H14.9922C13.4922 0.769531 12.7422 1.50781 12.7422 3.05469V8.29297C12.7422 9.83984 13.4922 10.5898 14.9922 10.5898ZM3.22656 10.5898H8.57031C10.0586 10.5898 10.8086 9.83984 10.8086 8.29297V3.05469C10.8086 1.50781 10.0586 0.769531 8.57031 0.769531H3.22656C1.73828 0.769531 0.988281 1.50781 0.988281 3.05469V8.29297C0.988281 9.83984 1.73828 10.5898 3.22656 10.5898ZM3.25 8.9375C2.83984 8.9375 2.64062 8.72656 2.64062 8.29297V3.05469C2.64062 2.63281 2.83984 2.42188 3.25 2.42188H8.53516C8.94531 2.42188 9.15625 2.63281 9.15625 3.05469V8.29297C9.15625 8.72656 8.94531 8.9375 8.53516 8.9375H3.25ZM15.0156 8.9375C14.5938 8.9375 14.3945 8.72656 14.3945 8.29297V3.05469C14.3945 2.63281 14.5938 2.42188 15.0156 2.42188H20.3008C20.7109 2.42188 20.9102 2.63281 20.9102 3.05469V8.29297C20.9102 8.72656 20.7109 8.9375 20.3008 8.9375H15.0156ZM4.89062 6.91016H6.89453C7.05859 6.91016 7.12891 6.83984 7.12891 6.64062V4.69531C7.12891 4.50781 7.05859 4.4375 6.89453 4.4375H4.89062C4.71484 4.4375 4.65625 4.50781 4.65625 4.69531V6.64062C4.65625 6.83984 4.71484 6.91016 4.89062 6.91016ZM16.7148 6.91016H18.7188C18.8945 6.91016 18.9648 6.83984 18.9648 6.64062V4.69531C18.9648 4.50781 18.8945 4.4375 18.7188 4.4375H16.7148C16.5508 4.4375 16.4922 4.50781 16.4922 4.69531V6.64062C16.4922 6.83984 16.5508 6.91016 16.7148 6.91016ZM3.22656 22.3438H8.57031C10.0586 22.3438 10.8086 21.6055 10.8086 20.0586V14.8086C10.8086 13.2734 10.0586 12.5234 8.57031 12.5234H3.22656C1.73828 12.5234 0.988281 13.2734 0.988281 14.8086V20.0586C0.988281 21.6055 1.73828 22.3438 3.22656 22.3438ZM13.5391 15.5586H15.543C15.707 15.5586 15.7773 15.4883 15.7773 15.2891V13.3438C15.7773 13.1562 15.707 13.0859 15.543 13.0859H13.5391C13.3633 13.0859 13.3047 13.1562 13.3047 13.3438V15.2891C13.3047 15.4883 13.3633 15.5586 13.5391 15.5586ZM19.7617 15.5586H21.7656C21.9297 15.5586 22 15.4883 22 15.2891V13.3438C22 13.1562 21.9297 13.0859 21.7656 13.0859H19.7617C19.5859 13.0859 19.5273 13.1562 19.5273 13.3438V15.2891C19.5273 15.4883 19.5859 15.5586 19.7617 15.5586ZM3.25 20.6914C2.83984 20.6914 2.64062 20.4805 2.64062 20.0586V14.8203C2.64062 14.3867 2.83984 14.1758 3.25 14.1758H8.53516C8.94531 14.1758 9.15625 14.3867 9.15625 14.8203V20.0586C9.15625 20.4805 8.94531 20.6914 8.53516 20.6914H3.25ZM4.89062 18.6758H6.89453C7.05859 18.6758 7.12891 18.6055 7.12891 18.3945V16.4609C7.12891 16.2734 7.05859 16.2031 6.89453 16.2031H4.89062C4.71484 16.2031 4.65625 16.2734 4.65625 16.4609V18.3945C4.65625 18.6055 4.71484 18.6758 4.89062 18.6758ZM16.6797 18.6758H18.6836C18.8477 18.6758 18.918 18.6055 18.918 18.3945V16.4609C18.918 16.2734 18.8477 16.2031 18.6836 16.2031H16.6797C16.5039 16.2031 16.4453 16.2734 16.4453 16.4609V18.3945C16.4453 18.6055 16.5039 18.6758 16.6797 18.6758ZM13.5391 21.7812H15.543C15.707 21.7812 15.7773 21.7109 15.7773 21.5117V19.5664C15.7773 19.3789 15.707 19.3086 15.543 19.3086H13.5391C13.3633 19.3086 13.3047 19.3789 13.3047 19.5664V21.5117C13.3047 21.7109 13.3633 21.7812 13.5391 21.7812ZM19.7617 21.7812H21.7656C21.9297 21.7812 22 21.7109 22 21.5117V19.5664C22 19.3789 21.9297 19.3086 21.7656 19.3086H19.7617C19.5859 19.3086 19.5273 19.3789 19.5273 19.5664V21.5117C19.5273 21.7109 19.5859 21.7812 19.7617 21.7812Z" fill="black"/>
</svg>
