<svg width="26" height="27" viewBox="0 0 26 27" fill="none" xmlns="http://www.w3.org/2000/svg">
<circle cx="8.50129" cy="4.25031" r="4.25031" fill="#CCCCCC"/>
<path d="M13.8892 18.8212C15.608 18.8212 17.0544 17.3701 16.3542 15.8005C15.927 14.8428 15.3008 13.9726 14.5115 13.2397C13.7221 12.5067 12.785 11.9253 11.7537 11.5286C10.7223 11.1319 9.61695 10.9277 8.50063 10.9277C7.38431 10.9277 6.27892 11.1319 5.24758 11.5286C4.21623 11.9253 3.27913 12.5067 2.48978 13.2397C1.70042 13.9726 1.07427 14.8428 0.647072 15.8005C-0.0531058 17.3701 1.3933 18.8212 3.11202 18.8212L8.50063 18.8212H13.8892Z" fill="#CCCCCC"/>
<path d="M17 9.43546C17 9.89826 17.3752 10.2734 17.838 10.2734L24.2573 10.2734C24.7201 10.2734 25.0952 9.89826 25.0952 9.43546C25.0952 8.97266 24.7201 8.59749 24.2573 8.59749H17.838C17.3752 8.59749 17 8.97266 17 9.43546Z" fill="url(#paint0_radial)"/>
<path d="M17 9.43546C17 9.89826 17.3752 10.2734 17.838 10.2734L24.2573 10.2734C24.7201 10.2734 25.0952 9.89826 25.0952 9.43546C25.0952 8.97266 24.7201 8.59749 24.2573 8.59749H17.838C17.3752 8.59749 17 8.97266 17 9.43546Z" fill="#CCCCCC"/>
<path d="M20.3271 12.9112C20.3271 13.3583 20.6896 13.7207 21.1367 13.7207C21.5838 13.7207 21.9462 13.3583 21.9462 12.9112V6.15049C21.9462 5.7034 21.5838 5.34097 21.1367 5.34097C20.6896 5.34097 20.3271 5.7034 20.3271 6.15049V12.9112Z" fill="url(#paint1_radial)"/>
<path d="M20.3271 12.9112C20.3271 13.3583 20.6896 13.7207 21.1367 13.7207C21.5838 13.7207 21.9462 13.3583 21.9462 12.9112V6.15049C21.9462 5.7034 21.5838 5.34097 21.1367 5.34097C20.6896 5.34097 20.3271 5.7034 20.3271 6.15049V12.9112Z" fill="#CCCCCC"/>
<defs>
<radialGradient id="paint0_radial" cx="0" cy="0" r="1" gradientUnits="userSpaceOnUse" gradientTransform="translate(11.7531 9.43546) rotate(-90) scale(0.837974 4.04762)">
<stop stop-color="#C4C4C4"/>
<stop offset="1" stop-color="#C4C4C4" stop-opacity="0"/>
</radialGradient>
<radialGradient id="paint1_radial" cx="0" cy="0" r="1" gradientUnits="userSpaceOnUse" gradientTransform="translate(19.2778 9.53084) rotate(-90) scale(4.18987 0.809523)">
<stop stop-color="#C4C4C4"/>
<stop offset="1" stop-color="#C4C4C4" stop-opacity="0"/>
</radialGradient>
</defs>
</svg>
