<svg width="96" height="96" viewBox="0 0 96 96" fill="none" xmlns="http://www.w3.org/2000/svg">
<path d="M44.5301 2.82119C45.3221 -0.940397 50.6779 -0.940397 51.4699 2.82119C52.1475 6.03958 56.446 6.68915 58.0396 3.81398C59.9023 0.453546 65.0202 2.0363 64.6711 5.8648C64.3724 9.14045 68.2889 11.0314 70.6571 8.75495C73.425 6.09426 77.8502 9.11913 76.391 12.6744C75.1426 15.7162 78.3292 18.6806 81.2614 17.2051C84.6885 15.4806 88.0279 19.6788 85.5883 22.6449C83.501 25.1826 85.6745 28.957 88.9103 28.4136C92.6921 27.7784 94.6489 32.7769 91.4457 34.8903C88.705 36.6985 89.6723 40.9475 92.9241 41.3844C96.7247 41.8951 97.1249 47.2498 93.4427 48.3227C90.2922 49.2407 89.9673 53.5867 92.9462 54.9652C96.4278 56.5763 95.236 61.8114 91.4019 61.7485C88.1215 61.6946 86.5334 65.7516 88.9746 67.9491C91.8279 70.5175 89.1499 75.1679 85.5047 73.9747C82.3859 72.9538 79.6756 76.3612 81.3623 79.1826C83.3337 82.4801 79.4075 86.1324 76.2751 83.915C73.5949 82.0178 70.0033 84.4729 70.7856 87.6674C71.6999 91.4009 66.8745 93.7308 64.533 90.6862C62.5297 88.0813 58.3758 89.3659 58.1843 92.6496C57.9603 96.4875 52.6643 97.2878 51.322 93.6866C50.1735 90.6054 45.8265 90.6054 44.678 93.6866C43.3357 97.2878 38.0397 96.4875 37.8157 92.6496C37.6241 89.3659 33.4703 88.0813 31.467 90.6862C29.1255 93.7308 24.3001 91.4009 25.2144 87.6674C25.9967 84.4729 22.4051 82.0178 19.7249 83.915C16.5924 86.1324 12.6663 82.4801 14.6377 79.1826C16.3244 76.3612 13.6141 72.9538 10.4953 73.9747C6.85005 75.1679 4.17211 70.5175 7.02537 67.9491C9.4666 65.7516 7.87845 61.6946 4.59806 61.7485C0.764008 61.8114 -0.427789 56.5763 3.05381 54.9652C6.03264 53.5867 5.70779 49.2407 2.55731 48.3227C-1.12492 47.2498 -0.724671 41.8951 3.07592 41.3844C6.32767 40.9475 7.29498 36.6985 4.55434 34.8903C1.35113 32.7769 3.30785 27.7784 7.08973 28.4136C10.3255 28.957 12.499 25.1826 10.4117 22.6449C7.97213 19.6788 11.3115 15.4806 14.7386 17.2051C17.6708 18.6806 20.8574 15.7162 19.609 12.6744C18.1498 9.11913 22.575 6.09426 25.3429 8.75495C27.7111 11.0314 31.6276 9.14045 31.3289 5.8648C30.9798 2.03629 36.0977 0.453546 37.9604 3.81398C39.554 6.68915 43.8525 6.03958 44.5301 2.82119Z" fill="url(#paint0_radial)"/>
<g filter="url(#filter0_d)">
<rect x="19.2422" y="19.2422" width="57.6" height="57.6" rx="28.8" fill="url(#paint1_radial)"/>
</g>
<path d="M65.5 47.1798L57.5 51.6798C57.5 50.9021 57.185 50.0614 57.0143 49.7089L63.5 46.6798C64.5 46.1798 65.3333 46.8465 65.5 47.1798Z" fill="white"/>
<path d="M56.5 49.1798C56 48.6798 55 48.6798 54.5 48.6798L54 48.6798L59.5 46.1798C60.5 45.6798 61.3333 46.3465 61.5 46.6798L56.5 49.1798Z" fill="white"/>
<path fill-rule="evenodd" clip-rule="evenodd" d="M35.5 58.6798C35.3333 59.0131 34.7 59.6798 33.5 59.6798H30.5C29.5 59.6798 27.5 59.2798 27.5 57.6798L27 49.6798C27 48.1798 27.5 47 29.5 46.6798C29.5933 46.6686 29.6925 46.6562 29.7967 46.6431C31.3676 46.4462 34.0933 46.1045 35.499 47.6798C36.6657 47.1798 40.099 46.4798 44.499 47.6798C46.1657 48.1798 50.499 49.2798 54.499 49.6798C55.256 49.7555 56.5 50.0798 56.5 51.6798C56.5 52.1798 56.099 53.1798 54.499 53.1798H47.999C47.8324 53.1798 47.499 53.2798 47.499 53.6798C47.499 53.8464 47.599 54.1798 47.999 54.1798H53.999C54.6657 54.1798 56.299 53.9798 57.499 53.1798L66.499 47.6798C66.999 47.3464 68.7232 47.0159 69.499 48.1798C69.8324 48.6798 69.999 49.6798 68.999 50.6798L58.499 58.1798C57.6657 58.8465 54.899 60.0798 50.499 59.6798L35.5 58.6798ZM31.25 57.5C31.9403 57.5 32.5 56.9404 32.5 56.25C32.5 55.5596 31.9403 55 31.25 55C30.5596 55 30 55.5596 30 56.25C30 56.9404 30.5596 57.5 31.25 57.5Z" fill="white"/>
<rect x="48.5" y="32" width="4" height="14" rx="2" fill="white"/>
<rect x="43.5" y="41" width="4" height="14" rx="2" transform="rotate(-90 43.5 41)" fill="white"/>
<defs>
<filter id="filter0_d" x="6.24219" y="6.24219" width="83.6" height="83.6" filterUnits="userSpaceOnUse" color-interpolation-filters="sRGB">
<feFlood flood-opacity="0" result="BackgroundImageFix"/>
<feColorMatrix in="SourceAlpha" type="matrix" values="0 0 0 0 0 0 0 0 0 0 0 0 0 0 0 0 0 0 127 0"/>
<feOffset/>
<feGaussianBlur stdDeviation="6.5"/>
<feColorMatrix type="matrix" values="0 0 0 0 1 0 0 0 0 1 0 0 0 0 1 0 0 0 0.42 0"/>
<feBlend mode="normal" in2="BackgroundImageFix" result="effect1_dropShadow"/>
<feBlend mode="normal" in="SourceGraphic" in2="effect1_dropShadow" result="shape"/>
</filter>
<radialGradient id="paint0_radial" cx="0" cy="0" r="1" gradientUnits="userSpaceOnUse" gradientTransform="translate(49.125 -0.152569) rotate(90) scale(97.9275 97.6751)">
<stop stop-color="#1FAEF7" stop-opacity="0.42"/>
<stop offset="1" stop-color="#1FAEF7" stop-opacity="0.24"/>
</radialGradient>
<radialGradient id="paint1_radial" cx="0" cy="0" r="1" gradientUnits="userSpaceOnUse" gradientTransform="translate(48.9149 76.8422) rotate(-90) scale(57.6)">
<stop stop-color="#008DD6"/>
<stop offset="0.291667" stop-color="#129FE6"/>
<stop offset="0.744792" stop-color="#25B0F8"/>
<stop offset="1" stop-color="#4EBFF9"/>
</radialGradient>
</defs>
</svg>
