<svg width="33" height="33" viewBox="0 0 33 33" fill="none" xmlns="http://www.w3.org/2000/svg">
<path d="M16.5 28.5C23.1274 28.5 28.5 23.1274 28.5 16.5C28.5 9.87258 23.1274 4.5 16.5 4.5C9.87258 4.5 4.5 9.87258 4.5 16.5C4.5 23.1274 9.87258 28.5 16.5 28.5Z" stroke="black" stroke-width="3" stroke-linecap="round" stroke-linejoin="round"/>
<path d="M3.5 16.5C3.5 17.0523 3.94772 17.5 4.5 17.5C5.05228 17.5 5.5 17.0523 5.5 16.5C5.5 15.9477 5.05228 15.5 4.5 15.5C3.94772 15.5 3.5 15.9477 3.5 16.5Z" fill="black" stroke="black" stroke-linecap="round" stroke-linejoin="round"/>
<path d="M26.7686 20.7798C26.5932 21.1774 26.0267 21.2932 26.1043 21.7208C26.1818 22.1484 26.3857 22.543 26.6895 22.8536L26.7686 22.9327C27.0138 23.1776 27.2082 23.4683 27.3409 23.7884C27.4736 24.1084 27.5418 24.4515 27.5418 24.798C27.5418 25.1444 27.4736 25.4875 27.3409 25.8075C27.2082 26.1276 27.0138 26.4183 26.7686 26.6632C26.5238 26.9083 26.233 27.1028 25.913 27.2354C25.5929 27.3681 25.2499 27.4364 24.9034 27.4364C24.5569 27.4364 24.2139 27.3681 23.8938 27.2354C23.5738 27.1028 23.283 26.9083 23.0382 26.6632L22.9591 26.5841C22.6484 26.2802 22.2538 26.0763 21.8262 25.9988C21.3986 25.9213 20.8976 26.3245 20.5 26.5C20.1101 26.6671 19.8376 26.5936 19.6034 26.9473C19.3692 27.301 19.2435 27.7154 19.2418 28.1395V28.3636C19.2418 29.0628 18.9641 29.7334 18.4696 30.2278C17.9752 30.7222 17.3047 31 16.6055 31C15.9062 31 15.2357 30.7222 14.7413 30.2278C14.2469 29.7334 13.9691 29.0628 13.9691 28.3636V28.245C13.9589 27.8087 13.8177 27.3855 13.5638 27.0306C13.3099 26.6756 12.6891 26.9193 12.2795 26.7686C11.8819 26.5932 11.7068 26.0267 11.2792 26.1043C10.8516 26.1818 10.457 26.3857 10.1464 26.6895L10.0673 26.7686C9.82242 27.0138 9.53166 27.2082 9.21162 27.3409C8.89157 27.4736 8.5485 27.5418 8.20205 27.5418C7.85559 27.5418 7.51253 27.4736 7.19248 27.3409C6.87243 27.2082 6.58167 27.0138 6.33682 26.7686C6.0917 26.5238 5.89724 26.233 5.76457 25.913C5.6319 25.5929 5.56361 25.2499 5.56361 24.9034C5.56361 24.5569 5.6319 24.2139 5.76457 23.8938C5.89724 23.5738 6.0917 23.283 6.33682 23.0382L6.41591 22.9591C6.7198 22.6484 6.92365 22.2538 7.00119 21.8262C7.07872 21.3986 6.51229 21.0903 6.33682 20.6927C6.16972 20.3028 6.40636 19.8376 6.0527 19.6034C5.69905 19.3692 5.28463 19.2435 4.86045 19.2418H4.63636C3.93716 19.2418 3.26659 18.9641 2.77217 18.4696C2.27776 17.9752 2 17.3047 2 16.6055C2 15.9062 2.27776 15.2357 2.77217 14.7413C3.26659 14.2469 3.93716 13.9691 4.63636 13.9691H4.755C5.19131 13.9589 5.61446 13.8177 5.96944 13.5638C6.32442 13.3099 6.34935 12.9096 6.5 12.5C6.67547 12.1024 6.97327 11.7068 6.89573 11.2792C6.8182 10.8516 6.61434 10.457 6.31045 10.1464L6.23136 10.0673C5.98624 9.82242 5.79179 9.53166 5.65912 9.21162C5.52644 8.89157 5.45815 8.5485 5.45815 8.20205C5.45815 7.85559 5.52644 7.51253 5.65912 7.19248C5.79179 6.87243 5.98624 6.58167 6.23136 6.33682C6.47621 6.0917 6.76697 5.89724 7.08702 5.76457C7.40707 5.6319 7.75013 5.56361 8.09659 5.56361C8.44305 5.56361 8.78611 5.6319 9.10616 5.76457C9.42621 5.89724 9.71697 6.0917 9.96182 6.33682L10.0409 6.41591C10.3516 6.7198 10.7462 6.92365 11.1738 7.00119C11.6014 7.07872 11.9037 6.51229 12.3013 6.33682L12.44 6.31045C12.8299 6.14336 13.2678 6.40636 13.5021 6.0527C13.7363 5.69905 13.8619 5.28463 13.8636 4.86045V4.63636C13.8636 3.93716 14.1414 3.26659 14.6358 2.77217C15.1302 2.27776 15.8008 2 16.5 2C17.1992 2 17.8698 2.27776 18.3642 2.77217C18.8586 3.26659 19.1364 3.93716 19.1364 4.63636V4.755C19.1381 5.17917 19.2637 5.59359 19.4979 5.94725C19.7322 6.30091 20.1101 6.24881 20.5 6.41591C20.8976 6.59138 21.2932 6.97327 21.7208 6.89573C22.1484 6.8182 22.543 6.61434 22.8536 6.31045L22.9327 6.23136C23.1776 5.98624 23.4683 5.79179 23.7884 5.65912C24.1084 5.52644 24.4515 5.45815 24.798 5.45815C25.1444 5.45815 25.4875 5.52644 25.8075 5.65912C26.1276 5.79179 26.4183 5.98624 26.6632 6.23136C26.9083 6.47621 27.1028 6.76697 27.2354 7.08702C27.3681 7.40707 27.4364 7.75013 27.4364 8.09659C27.4364 8.44305 27.3681 8.78611 27.2354 9.10616C27.1028 9.42621 26.9083 9.71697 26.6632 9.96182L26.5841 10.0409C26.2802 10.3516 26.0763 10.7462 25.9988 11.1738C25.9213 11.6014 26.4877 11.796 26.6632 12.1935V12.44C26.8303 12.8299 26.5936 13.2678 26.9473 13.5021C27.301 13.7363 27.7154 13.8619 28.1395 13.8636H28.3636C29.0628 13.8636 29.7334 14.1414 30.2278 14.6358C30.7222 15.1302 31 15.8008 31 16.5C31 17.1992 30.7222 17.8698 30.2278 18.3642C29.7334 18.8586 29.0628 19.1364 28.3636 19.1364H28.245C27.8208 19.1381 27.4064 19.2637 27.0528 19.4979C26.6991 19.7322 26.9357 20.39 26.7686 20.7798Z" stroke="black" stroke-width="2.4" stroke-linecap="round" stroke-linejoin="round"/>
<path d="M6.5 25.5C6.5 26.0523 6.94772 26.5 7.5 26.5C8.05228 26.5 8.5 26.0523 8.5 25.5C8.5 24.9477 8.05228 24.5 7.5 24.5C6.94772 24.5 6.5 24.9477 6.5 25.5Z" fill="black" stroke="black" stroke-linecap="round" stroke-linejoin="round"/>
<path d="M23.5 25C23.5 25.8284 24.1716 26.5 25 26.5C25.8284 26.5 26.5 25.8284 26.5 25C26.5 24.1716 25.8284 23.5 25 23.5C24.1716 23.5 23.5 24.1716 23.5 25Z" fill="black" stroke="black" stroke-linecap="round" stroke-linejoin="round"/>
<path d="M15.5 28.5C15.5 29.0523 15.9477 29.5 16.5 29.5C17.0523 29.5 17.5 29.0523 17.5 28.5C17.5 27.9477 17.0523 27.5 16.5 27.5C15.9477 27.5 15.5 27.9477 15.5 28.5Z" fill="black" stroke="black" stroke-linecap="round" stroke-linejoin="round"/>
<path d="M27.5 16.5C27.5 17.0523 27.9477 17.5 28.5 17.5C29.0523 17.5 29.5 17.0523 29.5 16.5C29.5 15.9477 29.0523 15.5 28.5 15.5C27.9477 15.5 27.5 15.9477 27.5 16.5Z" fill="black" stroke="black" stroke-linecap="round" stroke-linejoin="round"/>
<path d="M24.5 7.5C24.5 8.05228 24.9477 8.5 25.5 8.5C26.0523 8.5 26.5 8.05228 26.5 7.5C26.5 6.94772 26.0523 6.5 25.5 6.5C24.9477 6.5 24.5 6.94772 24.5 7.5Z" fill="black" stroke="black" stroke-linecap="round" stroke-linejoin="round"/>
<path d="M15.5 4.5C15.5 5.05228 15.9477 5.5 16.5 5.5C17.0523 5.5 17.5 5.05228 17.5 4.5C17.5 3.94772 17.0523 3.5 16.5 3.5C15.9477 3.5 15.5 3.94772 15.5 4.5Z" fill="black" stroke="black" stroke-linecap="round" stroke-linejoin="round"/>
<path d="M6.5 7.5C6.5 8.05228 6.94772 8.5 7.5 8.5C8.05228 8.5 8.5 8.05228 8.5 7.5C8.5 6.94772 8.05228 6.5 7.5 6.5C6.94772 6.5 6.5 6.94772 6.5 7.5Z" fill="black" stroke="black" stroke-linecap="round" stroke-linejoin="round"/>
<path d="M16.5 27C22.299 27 27 22.299 27 16.5C27 10.701 22.299 6 16.5 6C10.701 6 6 10.701 6 16.5C6 22.299 10.701 27 16.5 27Z" fill="white"/>
</svg>
