<svg width="512" height="512" viewBox="0 0 512 512" fill="none" xmlns="http://www.w3.org/2000/svg">
<rect x="5" y="5" width="502" height="502" rx="95" fill="#FFFC00" stroke="#E6E300" stroke-width="10"/>
<path d="M368.739 356.439C381.91 354.335 409.407 349.362 410.173 336.107C410.388 332.381 407.783 329.071 404.131 328.481V328.468C363.489 321.659 337.898 274.952 341.846 265.61C344.692 258.856 357.393 256.242 362.992 254.044C389.791 243.322 378.245 224.974 362.415 224.974C355.285 224.974 346.827 232.694 339.026 229.062C341.443 187.983 345.739 159.048 316.631 131.063C278.849 94.7962 202.184 99.018 176.029 158.605C168.255 176.283 171.236 208.596 172.484 229.062C166.98 231.515 159.112 228.874 153.674 226.274C139.966 219.761 116.523 241.164 148.558 254.031C162.441 259.566 175.572 261.147 168.242 276.292C167.45 277.74 162.992 288.783 152.533 301.14C122.377 336.804 94.9064 322.222 102.13 339.31V339.337C106.708 350.207 131.037 354.562 142.799 356.439C146.034 362.59 143.685 376.717 154.708 376.717C160.629 376.717 171.907 371.825 189.576 374.84C213.395 378.888 240.449 429.174 300.318 386.259L300.331 386.232C313.234 376.985 322.297 370.136 349.74 375.631C369.638 379.545 364.107 365.593 368.739 356.439Z" fill="white"/>
<path d="M255.255 410.183C255.483 410.223 254.812 410.263 254.115 410.263C232.865 410.263 218.846 400.163 207.577 392.038C166.406 362.356 147.879 407.416 137.952 362.678C81.0444 352.565 92.2193 324.468 106.694 322.064C123.37 319.244 136.986 309.721 147.732 296.989C154.775 288.649 165.078 271.269 163.817 268.288C162.475 265.064 150.321 261.935 146.39 260.35C105.916 244.019 134.719 209.73 156.841 220.219C160.718 222.086 163.615 222.879 165.695 223.188C164.46 203.028 162.341 173.642 170.175 155.779C201.956 83.0656 309.882 82.6224 341.81 155.793C349.672 173.709 347.512 203.028 346.277 222.906C352.838 221.267 360.162 215.25 371.834 220.085C390.078 226.733 394.613 251.392 360.645 262.069C357.56 263.077 349.269 265.749 348.196 268.315C346.626 272.075 367.608 315.752 405.358 322.091C412.388 323.26 417.392 329.558 416.976 336.757C416.01 353.814 391.031 359.657 374.074 362.678C371.592 373.92 369.754 383.563 357.358 383.563C336.162 382.314 329.441 374.054 304.449 392.078C289.665 402.662 275.123 411.432 255.255 410.183ZM295.299 382.086C325.658 360.234 333.05 368.36 357.332 370.119C360.243 370.119 358.163 365.109 364.415 350.645C369.727 349.584 399.764 345.353 403.306 336.986H403.292L403.104 335.347C357.922 327.745 338.242 281.329 337.423 279.355C324.022 251.741 360.994 251.97 370.573 241.964C374.463 237.881 371.673 234.308 366.95 232.589C358.928 229.258 356.245 236.162 343.729 236.739C337.33 236.457 335.854 234.711 332.191 233.234C335.17 191.37 339.275 161.89 312.136 135.714C277.873 102.728 206.732 105.616 182.464 161.165C175.152 177.819 178.426 211.53 179.767 233.328C177.178 233.825 169.921 241.426 151.072 232.334C145.907 229.876 127.837 238.364 151.367 247.873C157.699 250.412 172.027 253.125 176.185 263.117C182.571 278.509 151.515 328.135 108.881 335.307V335.32L108.653 336.986C112.436 346.011 146.135 350.201 147.477 350.618C153.701 365.62 149.677 356.984 153.165 369.018C154.587 373.853 166.486 364.277 190.996 368.548C216.606 372.913 241.679 420.538 295.299 382.086Z" fill="black" stroke="black" stroke-width="4"/>
</svg>
