<svg width="512" height="512" viewBox="0 0 512 512" fill="none" xmlns="http://www.w3.org/2000/svg">
<path d="M256 512C397.385 512 512 397.385 512 256C512 114.615 397.385 0 256 0C114.615 0 0 114.615 0 256C0 397.385 114.615 512 256 512Z" fill="#1ED760"/>
<path d="M359.941 376.661V376.682C355.61 376.682 352.922 375.338 348.89 372.97C284.485 334.144 209.541 332.522 135.514 347.69C131.482 348.736 126.213 350.378 123.226 350.378C113.2 350.378 106.906 342.421 106.906 334.058C106.906 323.413 113.2 318.357 120.965 316.714C205.509 298.048 291.909 299.69 365.594 343.765C371.888 347.797 375.621 351.402 375.621 360.789C375.621 370.133 368.282 376.661 359.941 376.661Z" fill="#191515"/>
<path d="M387.734 308.98H387.713C382.337 308.98 378.732 306.612 374.998 304.649C310.465 266.462 214.294 251.06 128.705 274.292C123.756 275.636 121.068 276.98 116.417 276.98C105.366 276.98 96.4062 267.998 96.4062 256.969C96.4062 245.94 101.782 238.601 112.406 235.614C141.1 227.55 170.412 221.556 213.356 221.556C280.342 221.556 345.068 238.174 396.076 268.532C404.438 273.481 407.745 279.902 407.745 288.862C407.638 299.977 398.977 308.98 387.734 308.98V308.98Z" fill="#191515"/>
<path d="M97.0254 149.282C133.356 138.636 174.039 133.602 218.327 133.602C293.676 133.602 372.652 149.282 430.359 182.946C438.423 187.596 443.671 193.996 443.671 206.263C443.671 220.3 432.3 230.306 419.735 230.306L419.713 230.284C414.337 230.284 411.031 228.94 406.38 226.252C332.908 182.391 201.473 171.874 116.439 195.618C112.705 196.642 108.055 198.284 103.105 198.284C89.4734 198.284 79.0627 187.639 79.0627 173.922C79.0627 159.906 87.7454 151.97 97.0254 149.282Z" fill="#191515"/>
</svg>
