<svg width="22" height="20" viewBox="0 0 22 20" fill="none" xmlns="http://www.w3.org/2000/svg">
<path d="M10.1121 1.71335C10.4852 0.99348 11.5148 0.993481 11.8879 1.71335L13.8477 5.4954C13.9971 5.78359 14.277 5.98137 14.5985 6.02586L18.8977 6.62082C19.733 6.73642 20.059 7.77051 19.4409 8.34425L16.3938 11.1731C16.1441 11.4049 16.0296 11.7479 16.09 12.0832L16.8178 16.1246C16.9637 16.9351 16.1223 17.5647 15.3859 17.196L11.4477 15.2242C11.1659 15.0831 10.8341 15.0831 10.5523 15.2242L6.61412 17.196C5.87773 17.5647 5.03627 16.9351 5.18224 16.1246L5.91004 12.0832C5.97043 11.7479 5.85594 11.4049 5.60624 11.1731L2.55905 8.34425C1.94101 7.7705 2.26699 6.73642 3.10233 6.62082L7.40147 6.02586C7.72299 5.98137 8.00291 5.78359 8.15225 5.4954L10.1121 1.71335Z" fill="#FBFBFB"/>
</svg>
