<svg width="32" height="33" viewBox="0 0 32 33" fill="none" xmlns="http://www.w3.org/2000/svg">
<path d="M16 32.6562C24.7188 32.6562 31.9375 25.4375 31.9375 16.7188C31.9375 8.01562 24.7031 0.78125 15.9844 0.78125C7.28125 0.78125 0.0625 8.01562 0.0625 16.7188C0.0625 25.4375 7.29688 32.6562 16 32.6562ZM16 7.95312C16.375 7.95312 16.6875 8.10938 17.0156 8.4375L22.7656 14.2031C22.9688 14.4219 23.125 14.7188 23.125 15.0781C23.125 15.7812 22.5938 16.3281 21.875 16.3281C21.5156 16.3281 21.2031 16.1875 20.9688 15.9531L18.875 13.8281L17.1562 11.7656L17.2812 15.375V24.2344C17.2812 24.9844 16.75 25.5 16 25.5C15.25 25.5 14.7188 24.9844 14.7188 24.2344V15.375L14.8594 11.7812L13.1406 13.8281L11.0312 15.9531C10.8281 16.1719 10.5 16.3281 10.125 16.3281C9.42188 16.3281 8.90625 15.7812 8.90625 15.0781C8.90625 14.7188 9.01562 14.4219 9.23438 14.2031L15 8.4375C15.3438 8.09375 15.6406 7.95312 16 7.95312Z" fill="#00CFFF"/>
</svg>
