<svg width="32" height="29" viewBox="0 0 32 29" fill="none" xmlns="http://www.w3.org/2000/svg">
<rect x="1.03722" y="0.0941094" width="21.3147" height="12.7592" rx="3.25" transform="matrix(0.751979 -0.654377 0.630985 0.779856 2.49377 17.0603)" stroke="black" stroke-width="1.5"/>
<rect width="1.58377" height="1.59381" rx="0.791886" transform="matrix(0.754366 -0.656454 0.629001 0.777404 13.9082 9.53101)" fill="black"/>
<rect width="1.58377" height="1.59381" rx="0.791886" transform="matrix(0.754366 -0.656454 0.629001 0.777404 15.6621 11.3625)" fill="black"/>
<rect width="1.58377" height="1.59381" rx="0.791886" transform="matrix(0.754366 -0.656454 0.629001 0.777404 17.418 13.1819)" fill="black"/>
<rect width="1.58377" height="1.59381" rx="0.791886" transform="matrix(0.754366 -0.656454 0.629001 0.777404 19.3672 15.1921)" fill="black"/>
<mask id="path-6-inside-1" fill="white">
<path d="M9.97386 25.0184C10.6591 24.232 11.051 23.2178 11.0791 22.1584C11.1071 21.0989 10.7695 20.0639 10.127 19.2397C9.48442 18.4155 8.57924 17.8564 7.57443 17.6629C6.56962 17.4695 5.53123 17.6545 4.6463 18.1847L6.79167 22.0362L9.97386 25.0184Z"/>
</mask>
<path d="M9.97386 25.0184C10.6591 24.232 11.051 23.2178 11.0791 22.1584C11.1071 21.0989 10.7695 20.0639 10.127 19.2397C9.48442 18.4155 8.57924 17.8564 7.57443 17.6629C6.56962 17.4695 5.53123 17.6545 4.6463 18.1847L6.79167 22.0362L9.97386 25.0184Z" fill="white" stroke="black" stroke-width="2.8" mask="url(#path-6-inside-1)"/>
<path d="M8.61079 24.491C8.91588 24.2255 9.16756 23.9003 9.35146 23.5339C9.53536 23.1676 9.64788 22.7672 9.68259 22.3558C9.7173 21.9443 9.67353 21.5298 9.55376 21.1359C9.434 20.742 9.2406 20.3764 8.98459 20.06C8.72859 19.7436 8.415 19.4826 8.06173 19.2919C7.70846 19.1011 7.32243 18.9844 6.92567 18.9485C6.52892 18.9125 6.12921 18.9578 5.74937 19.082C5.36953 19.2062 5.01701 19.4068 4.71191 19.6723L6.66135 22.0817L8.61079 24.491Z" fill="#FBFBFB"/>
<mask id="path-8-inside-2" fill="white">
<path d="M20.6091 4.05413C19.924 4.84048 19.532 5.85471 19.504 6.91416C19.4759 7.9736 19.8135 9.00863 20.4561 9.8328C21.0986 10.657 22.0038 11.2161 23.0086 11.4096C24.0134 11.603 25.0518 11.418 25.9367 10.8878L23.7913 7.03632L20.6091 4.05413Z"/>
</mask>
<path d="M20.6091 4.05413C19.924 4.84048 19.532 5.85471 19.504 6.91416C19.4759 7.9736 19.8135 9.00863 20.4561 9.8328C21.0986 10.657 22.0038 11.2161 23.0086 11.4096C24.0134 11.603 25.0518 11.418 25.9367 10.8878L23.7913 7.03632L20.6091 4.05413Z" fill="white" stroke="black" stroke-width="2.8" mask="url(#path-8-inside-2)"/>
<path d="M21.9722 4.58151C21.6671 4.847 21.4154 5.17221 21.2315 5.53857C21.0476 5.90493 20.9351 6.30527 20.9004 6.71673C20.8657 7.12819 20.9095 7.54271 21.0292 7.93662C21.149 8.33054 21.3424 8.69613 21.5984 9.01253C21.8544 9.32893 22.168 9.58994 22.5213 9.78066C22.8745 9.97137 23.2606 10.0881 23.6573 10.1241C24.0541 10.1601 24.4538 10.1147 24.8336 9.99046C25.2135 9.86626 25.566 9.66569 25.8711 9.4002L23.9217 6.99085L21.9722 4.58151Z" fill="#FBFBFB"/>
<rect width="5.19445" height="10.3598" transform="matrix(0.754366 -0.656454 0.629001 0.777404 20.9854 3.4209)" fill="#FBFBFB"/>
</svg>
