<svg width="76" height="76" viewBox="0 0 76 76" fill="none" xmlns="http://www.w3.org/2000/svg">
<g filter="url(#filter0_d_11411_33222)">
<path fill-rule="evenodd" clip-rule="evenodd" d="M26.1377 43.7606C25.7506 43.8885 25.3866 44.0814 25.0595 44.3312C23.3907 42.0389 23.7217 38.7538 25.8515 36.8814L39.0582 25.2706C41.17 23.414 44.2801 23.6234 46.1504 25.6937C45.8109 26.0173 45.5257 26.3981 45.308 26.819C45.0644 27.2901 44.9103 27.8022 44.8545 28.326C44.7987 28.8498 44.8424 29.3751 44.983 29.8718C45.1236 30.3685 45.3584 30.827 45.6739 31.221C45.9895 31.615 46.3796 31.9369 46.8221 32.1682C47.2646 32.3995 47.7507 32.5358 48.2528 32.5692C48.7548 32.6026 49.2629 32.5325 49.7481 32.363C50.1822 32.2112 50.5904 31.9824 50.9541 31.6875C52.6074 33.9789 52.2725 37.2513 50.1485 39.1186L36.9418 50.7294C34.833 52.5835 31.7285 52.3772 29.8573 50.3149C30.1476 50.0215 30.391 49.6804 30.5778 49.3046C30.8044 48.8484 30.9431 48.3498 30.9859 47.8374C31.0287 47.325 30.9747 46.8088 30.8271 46.3183C30.6795 45.8277 30.4411 45.3724 30.1255 44.9784C29.81 44.5844 29.4234 44.2594 28.988 44.0219C28.5525 43.7844 28.0767 43.6391 27.5877 43.5942C27.0986 43.5494 26.6059 43.6059 26.1377 43.7606ZM36.8121 32.6376C36.473 32.2142 36.5239 31.5763 36.9306 31.2188C37.3372 30.8612 37.9457 30.9195 38.2848 31.3429C38.6238 31.7663 38.5729 32.4042 38.1663 32.7618C37.7596 33.1193 37.1512 33.061 36.8121 32.6376ZM39.0925 33.4996C38.6858 33.8571 38.6349 34.4951 38.974 34.9185C39.3131 35.3419 39.9215 35.4001 40.3282 35.0426C40.7349 34.6851 40.7858 34.0471 40.4467 33.6237C40.1076 33.2003 39.4991 33.1421 39.0925 33.4996ZM41.1383 37.1841C40.7992 36.7607 40.8501 36.1228 41.2568 35.7653C41.6635 35.4077 42.2719 35.466 42.611 35.8894C42.9501 36.3128 42.8992 36.9507 42.4925 37.3082C42.0858 37.6658 41.4774 37.6075 41.1383 37.1841ZM43.6595 38.2687C43.2528 38.6262 43.2019 39.2641 43.541 39.6875C43.8801 40.1109 44.4885 40.1692 44.8952 39.8116C45.3018 39.4541 45.3527 38.8162 45.0136 38.3928C44.6746 37.9694 44.0661 37.9111 43.6595 38.2687Z" fill="white"/>
<path d="M25.9025 43.0484C25.6951 43.1169 25.4935 43.2008 25.2991 43.2991C24.2905 41.3715 24.689 38.902 26.3467 37.4447L39.5534 25.8338C41.1811 24.4028 43.499 24.4088 45.1104 25.7344C44.9335 25.9662 44.7766 26.2139 44.6418 26.4745C44.3557 27.0277 44.1744 27.6296 44.1087 28.2466C44.043 28.8637 44.0941 29.4853 44.2613 30.0761C44.4286 30.667 44.7089 31.2158 45.0885 31.6899C45.4682 32.164 45.9391 32.5529 46.4746 32.8329C47.0102 33.1128 47.5978 33.2773 48.203 33.3176C48.808 33.3578 49.4171 33.2731 49.9955 33.071C50.2469 32.9831 50.4904 32.8738 50.7235 32.7447C51.7034 34.6658 51.2984 37.109 49.6533 38.5553L36.4466 50.1662C34.8156 51.6001 32.4918 51.5912 30.88 50.2577C31.0183 50.0618 31.1419 49.8547 31.2494 49.6383C31.5187 49.0964 31.6827 48.5057 31.7333 47.8998C31.7839 47.2939 31.7202 46.6832 31.5453 46.1021C31.3704 45.521 31.0874 44.9797 30.7109 44.5096C30.3344 44.0394 29.8714 43.6494 29.3471 43.3634C28.8228 43.0774 28.2481 42.9016 27.6561 42.8474C27.0641 42.7931 26.468 42.8616 25.9025 43.0484L26.1377 43.7606L25.9025 43.0484ZM36.4354 30.6555C35.7225 31.2822 35.6414 32.3756 36.2267 33.1064C36.6902 33.6853 37.4496 33.8849 38.1094 33.6507C37.9004 34.223 37.9898 34.8893 38.3886 35.3873C38.8513 35.9651 39.6088 36.1651 40.2678 35.9328C40.0664 36.5014 40.1579 37.1597 40.5529 37.6529C41.1544 38.404 42.2539 38.5167 42.9877 37.8715C43.7006 37.2448 43.7817 36.1514 43.1964 35.4206C42.7337 34.8428 41.9762 34.6428 41.3172 34.875C41.5186 34.3064 41.4271 33.6481 41.0321 33.1549C40.5685 32.5761 39.8092 32.3764 39.1494 32.6106C39.3584 32.0383 39.269 31.372 38.8702 30.8741C38.2687 30.123 37.1692 30.0103 36.4354 30.6555ZM43.1642 37.7054C42.4514 38.3321 42.3703 39.4255 42.9556 40.1563C43.557 40.9074 44.6565 41.0201 45.3904 40.3749C46.1033 39.7482 46.1844 38.6548 45.5991 37.924C44.9976 37.1729 43.8981 37.0602 43.1642 37.7054Z" stroke="white" stroke-width="1.5"/>
</g>
<defs>
<filter id="filter0_d_11411_33222" x="0" y="0" width="76" height="76" filterUnits="userSpaceOnUse" color-interpolation-filters="sRGB">
<feFlood flood-opacity="0" result="BackgroundImageFix"/>
<feColorMatrix in="SourceAlpha" type="matrix" values="0 0 0 0 0 0 0 0 0 0 0 0 0 0 0 0 0 0 127 0" result="hardAlpha"/>
<feOffset/>
<feGaussianBlur stdDeviation="12"/>
<feComposite in2="hardAlpha" operator="out"/>
<feColorMatrix type="matrix" values="0 0 0 0 0.486275 0 0 0 0 0.541318 0 0 0 0 0.690196 0 0 0 0.56 0"/>
<feBlend mode="normal" in2="BackgroundImageFix" result="effect1_dropShadow_11411_33222"/>
<feBlend mode="normal" in="SourceGraphic" in2="effect1_dropShadow_11411_33222" result="shape"/>
</filter>
</defs>
</svg>
