<svg width="512" height="512" viewBox="0 0 512 512" fill="none" xmlns="http://www.w3.org/2000/svg">
<rect width="512" height="512" rx="100" fill="#1C0B1B"/>
<path d="M206.262 262.004C178.468 262.004 156.013 284.459 156.424 311.979C156.698 329.641 166.419 344.976 180.727 353.534C175.866 346.072 172.991 337.24 172.854 327.725C172.443 300.204 194.898 277.75 222.692 277.75C228.169 277.75 233.44 278.64 238.369 280.214V225.105C233.235 224.352 227.963 223.941 222.692 223.941C222.418 223.941 222.213 223.941 221.939 223.941V264.469C217.01 262.894 211.739 262.004 206.262 262.004V262.004Z" fill="#F00044"/>
<path d="M326.407 96.7451H325.996H311.757C315.864 117.351 327.434 135.287 343.59 147.473C332.979 133.439 326.544 115.914 326.407 96.7451V96.7451Z" fill="#F00044"/>
<path d="M410.201 180.607C404.792 180.607 399.59 180.059 394.455 179.101V218.601C375.834 218.601 357.761 214.973 340.784 207.716C329.83 203.061 319.63 197.105 310.251 189.917L310.525 311.705C310.388 339.088 299.572 364.76 279.992 384.134C264.042 399.88 243.846 409.943 221.94 413.161C216.805 413.914 211.534 414.324 206.262 414.324C182.85 414.324 160.532 406.725 142.391 392.691C144.444 395.156 146.635 397.552 149.031 399.88C168.747 419.322 194.898 430.07 222.761 430.07C228.032 430.07 233.304 429.659 238.438 428.906C260.345 425.688 280.54 415.625 296.491 399.88C316.07 380.506 326.887 354.834 327.023 327.45L325.997 205.663C335.307 212.851 345.507 218.875 356.529 223.462C373.575 230.65 391.648 234.347 410.201 234.347" fill="#F00044"/>
<path d="M148.826 254.269C168.337 234.895 194.283 224.147 221.94 223.942V209.36C216.805 208.607 211.534 208.196 206.263 208.196C178.332 208.196 152.112 218.944 132.396 238.523C113.022 257.76 101.932 284.048 102 311.363C102 338.884 112.885 364.693 132.533 384.203C135.682 387.284 138.899 390.159 142.322 392.761C126.851 374.345 118.43 351.343 118.362 327.109C118.43 299.794 129.452 273.506 148.826 254.269V254.269Z" fill="#08FFF9"/>
<path d="M394.455 179.102V164.451H394.319C375.287 164.451 357.762 158.153 343.659 147.474C355.913 163.63 373.849 175.131 394.455 179.102Z" fill="#08FFF9"/>
<path d="M219.886 376.194C226.39 376.536 232.62 375.646 238.37 373.797C258.223 367.294 272.531 348.81 272.531 327.04L272.599 245.574V96.7455H311.758C310.731 91.6111 310.183 86.4082 310.115 81H256.169V229.761L256.101 311.226C256.101 332.996 241.793 351.48 221.94 357.984C216.19 359.9 209.96 360.79 203.456 360.38C195.173 359.9 187.437 357.436 180.728 353.465C189.148 366.472 203.525 375.304 219.886 376.194V376.194Z" fill="#08FFF9"/>
<path d="M221.939 413.161C243.846 409.943 264.041 399.88 279.992 384.134C299.571 364.761 310.388 339.089 310.525 311.705L310.251 189.917C319.561 197.105 329.762 203.13 340.784 207.717C357.83 214.905 375.903 218.601 394.455 218.601V179.101C373.849 175.13 355.913 163.629 343.659 147.473C327.503 135.287 315.865 117.351 311.826 96.7451H272.599V245.506L272.53 326.971C272.53 348.741 258.222 367.225 238.369 373.729C232.619 375.645 226.389 376.535 219.886 376.125C203.456 375.235 189.148 366.404 180.727 353.465C166.419 344.976 156.698 329.573 156.425 311.91C156.014 284.39 178.468 261.936 206.262 261.936C211.739 261.936 217.01 262.826 221.939 264.4V223.873C194.282 224.078 168.336 234.826 148.826 254.2C129.452 273.437 118.362 299.725 118.43 326.971C118.43 351.206 126.85 374.208 142.391 392.623C160.601 406.657 182.85 414.256 206.262 414.256C211.534 414.325 216.805 413.914 221.939 413.161V413.161Z" fill="white"/>
</svg>
