<svg width="512" height="512" viewBox="0 0 512 512" fill="none" xmlns="http://www.w3.org/2000/svg">
<rect width="512" height="512" rx="100" fill="#00A2F3"/>
<path d="M437 143.805C423.538 149.708 409.194 153.62 394.239 155.52C409.624 146.338 421.366 131.909 426.887 114.518C412.542 123.067 396.705 129.105 379.827 132.475C366.206 117.978 346.794 109 325.617 109C284.53 109 251.452 142.335 251.452 183.201C251.452 189.081 251.95 194.735 253.172 200.117C191.473 197.11 136.879 167.551 100.204 122.524C93.8014 133.628 90.0456 146.338 90.0456 160.02C90.0456 185.711 103.281 208.485 123.01 221.67C111.087 221.444 99.3897 217.984 89.48 212.533C89.48 212.759 89.48 213.053 89.48 213.347C89.48 249.396 115.205 279.339 148.938 286.237C142.898 287.888 136.314 288.679 129.481 288.679C124.73 288.679 119.933 288.408 115.431 287.413C125.046 316.79 152.332 338.388 184.777 339.089C159.527 358.832 127.467 370.728 92.7606 370.728C86.6745 370.728 80.8372 370.456 75 369.71C107.874 390.901 146.834 403 188.849 403C325.413 403 400.076 289.923 400.076 191.908C400.076 188.629 399.963 185.463 399.805 182.319C414.533 171.871 426.909 158.822 437 143.805Z" fill="white"/>
</svg>
