<svg width="21" height="22" viewBox="0 0 21 22" fill="none" xmlns="http://www.w3.org/2000/svg">
<path d="M0 5.5C0 2.73858 2.23858 0.5 5 0.5H16C18.7614 0.5 21 2.73858 21 5.5V16.5C21 19.2614 18.7614 21.5 16 21.5H5C2.23858 21.5 0 19.2614 0 16.5V5.5Z" fill="#E4EEF1"/>
<path d="M11.9678 14.1074C11.9678 13.6445 11.8535 13.2812 11.625 13.0176C11.3965 12.7539 10.9951 12.5049 10.4209 12.2705C9.84668 12.0361 9.31641 11.7988 8.83008 11.5586C8.34375 11.3184 7.9248 11.04 7.57324 10.7236C7.22168 10.4072 6.95215 10.041 6.76465 9.625C6.57715 9.20898 6.4834 8.70508 6.4834 8.11328C6.4834 7.12305 6.81738 6.30859 7.48535 5.66992C8.15332 5.02539 9.04395 4.65039 10.1572 4.54492V2.69043H11.5547V4.58008C12.627 4.73828 13.4678 5.18066 14.0771 5.90723C14.6924 6.62793 15 7.54492 15 8.6582H12.0293C12.0293 8.04883 11.9121 7.58008 11.6777 7.25195C11.4434 6.92383 11.1094 6.75977 10.6758 6.75977C10.2891 6.75977 9.9873 6.88281 9.77051 7.12891C9.55957 7.36914 9.4541 7.70312 9.4541 8.13086C9.4541 8.56445 9.57715 8.91016 9.82324 9.16797C10.0693 9.41992 10.4648 9.66309 11.0098 9.89746C11.5547 10.126 12.0674 10.3662 12.5479 10.6182C13.0342 10.8643 13.4531 11.1455 13.8047 11.4619C14.1562 11.7783 14.4316 12.1475 14.6309 12.5693C14.8301 12.9912 14.9297 13.498 14.9297 14.0898C14.9297 15.0918 14.6104 15.9092 13.9717 16.542C13.3389 17.1748 12.4746 17.5439 11.3789 17.6494V19.416H9.98145V17.6406C8.7041 17.5059 7.72266 17.0693 7.03711 16.3311C6.35742 15.5869 6.01758 14.6084 6.01758 13.3955H8.97949C8.97949 14.0635 9.12598 14.5732 9.41895 14.9248C9.71777 15.2705 10.1396 15.4434 10.6846 15.4434C11.083 15.4434 11.3965 15.3262 11.625 15.0918C11.8535 14.8516 11.9678 14.5234 11.9678 14.1074Z" fill="#FBFBFB"/>
</svg>
