<svg width="106" height="106" viewBox="0 0 106 106" fill="none" xmlns="http://www.w3.org/2000/svg">
<g clip-path="url(#clip0)">
<g filter="url(#filter0_d)">
<path d="M98 53C98 28.1472 77.8528 8 53 8V8C28.1472 8 8 28.1472 8 53V53C8 77.8528 28.1472 98 53 98V98C77.8528 98 98 77.8528 98 53V53Z" fill="url(#paint0_radial)"/>
<path d="M98 53C98 28.1472 77.8528 8 53 8V8C28.1472 8 8 28.1472 8 53V53C8 77.8528 28.1472 98 53 98V98C77.8528 98 98 77.8528 98 53V53Z" fill="white"/>
</g>
<path d="M77.8504 41.3679V63.7008C77.8504 68.5333 73.9329 72.4508 69.1004 72.4508H36.9004C32.0679 72.4508 28.1504 68.5333 28.1504 63.7008V41.3679C28.1504 38.0221 30.8627 35.3099 34.2084 35.3099H40.9948C41.9732 35.3099 42.7664 34.5167 42.7664 33.5383C42.7664 31.0599 44.7755 29.0508 47.2539 29.0508H53.0004H58.7469C61.2253 29.0508 63.2344 31.0599 63.2344 33.5383C63.2344 34.5167 64.0276 35.3099 65.006 35.3099H71.7924C75.1381 35.3099 77.8504 38.0221 77.8504 41.3679Z" fill="#1FAEF7" stroke="#1FAEF7" stroke-width="2.5"/>
<rect x="43.0996" y="43.1016" width="19.8" height="19.8" rx="9.9" fill="#1FAEF7" stroke="white" stroke-width="2"/>
</g>
<defs>
<filter id="filter0_d" x="-7" y="-7" width="120" height="120" filterUnits="userSpaceOnUse" color-interpolation-filters="sRGB">
<feFlood flood-opacity="0" result="BackgroundImageFix"/>
<feColorMatrix in="SourceAlpha" type="matrix" values="0 0 0 0 0 0 0 0 0 0 0 0 0 0 0 0 0 0 127 0"/>
<feOffset/>
<feGaussianBlur stdDeviation="7.5"/>
<feColorMatrix type="matrix" values="0 0 0 0 0 0 0 0 0 0 0 0 0 0 0 0 0 0 0.07 0"/>
<feBlend mode="normal" in2="BackgroundImageFix" result="effect1_dropShadow"/>
<feBlend mode="normal" in="SourceGraphic" in2="effect1_dropShadow" result="shape"/>
</filter>
<radialGradient id="paint0_radial" cx="0" cy="0" r="1" gradientUnits="userSpaceOnUse" gradientTransform="translate(156.333 53) rotate(90) scale(45)">
<stop stop-color="#C4C4C4"/>
<stop offset="1" stop-color="#C4C4C4" stop-opacity="0"/>
</radialGradient>
<clipPath id="clip0">
<rect width="106" height="106" fill="white"/>
</clipPath>
</defs>
</svg>
