<svg width="16" height="17" viewBox="0 0 16 17" fill="none" xmlns="http://www.w3.org/2000/svg">
<path d="M12.0785 4.07802C12.0785 6.33026 10.2527 8.15605 8.00035 8.15605C5.74802 8.15605 3.92215 6.33026 3.92215 4.07802C3.92215 1.82579 5.74802 0 8.00035 0C10.2527 0 12.0785 1.82579 12.0785 4.07802Z" fill="white"/>
<path d="M14.6418 17C15.4783 17 16.1746 16.311 15.9611 15.5022C15.8587 15.1144 15.7165 14.7339 15.5355 14.3651C15.1256 13.5297 14.5248 12.7706 13.7674 12.1313C13.01 11.4919 12.1109 10.9847 11.1213 10.6387C10.1317 10.2927 9.07111 10.1146 8 10.1146C6.92889 10.1146 5.86826 10.2927 4.87868 10.6387C3.88911 10.9847 2.98995 11.4919 2.23256 12.1313C1.47517 12.7706 0.874376 13.5297 0.46448 14.3651C0.28351 14.7339 0.141315 15.1144 0.0389327 15.5022C-0.174604 16.311 0.521731 17 1.35823 17H14.6418Z" fill="white"/>
</svg>
