<svg width="24" height="24" viewBox="0 0 24 24" fill="none" xmlns="http://www.w3.org/2000/svg">
<rect width="24" height="24" rx="12" fill="#FFD0C6"/>
<path d="M17 11C17 14.8889 12 18.2222 12 18.2222C12 18.2222 7 14.8889 7 11C7 9.67392 7.52678 8.40215 8.46447 7.46447C9.40215 6.52678 10.6739 6 12 6C13.3261 6 14.5979 6.52678 15.5355 7.46447C16.4732 8.40215 17 9.67392 17 11Z" fill="#FF2D00" stroke="#FF2E00" stroke-width="2" stroke-linecap="round" stroke-linejoin="round"/>
<path d="M12 14C13.6569 14 15 12.6569 15 11C15 9.34315 13.6569 8 12 8C10.3431 8 9 9.34315 9 11C9 12.6569 10.3431 14 12 14Z" fill="#FFD0C6" stroke="#FF2E00" stroke-width="2" stroke-linecap="round" stroke-linejoin="round"/>
</svg>
