<svg width="19" height="19" viewBox="0 0 19 19" fill="none" xmlns="http://www.w3.org/2000/svg">
<path d="M9.23242 13.2051L10.4014 12.0186C9.24121 11.9307 8.48535 11.5791 7.91406 11.0078C6.37598 9.46973 6.38477 7.29004 7.90527 5.76953L10.7705 2.9043C12.3086 1.375 14.4707 1.36621 16.0088 2.9043C17.5469 4.44238 17.5293 6.61328 16.0088 8.13379L14.2861 9.85645C14.5322 10.4189 14.585 11.0693 14.4971 11.6406L17.0811 9.06543C19.1816 6.95605 19.1992 3.97656 17.0723 1.84082C14.9365 -0.294922 11.9482 -0.277344 9.83887 1.83203L6.8418 4.83789C4.73242 6.94727 4.71484 9.93555 6.85059 12.0625C7.4043 12.6162 8.10742 13.0117 9.23242 13.2051ZM9.45215 5.96289L8.2832 7.14941C9.44336 7.24609 10.1992 7.58887 10.7705 8.16016C12.3086 9.69824 12.2998 11.8779 10.7793 13.3984L7.90527 16.2637C6.37598 17.793 4.21387 17.8018 2.67578 16.2725C1.1377 14.7256 1.14648 12.5635 2.67578 11.0342L4.39844 9.31152C4.15234 8.75781 4.09082 8.09863 4.1875 7.52734L1.60352 10.1025C-0.49707 12.2119 -0.514648 15.2002 1.6123 17.3271C3.74805 19.4629 6.73633 19.4453 8.83691 17.3447L11.8428 14.3301C13.9521 12.2207 13.9697 9.23242 11.834 7.10547C11.2803 6.55176 10.5771 6.15625 9.45215 5.96289Z" fill="#1FAEF7"/>
</svg>
