<svg width="19" height="27" viewBox="0 0 19 27" fill="none" xmlns="http://www.w3.org/2000/svg">
<ellipse cx="9.22045" cy="4.60968" rx="4.6101" ry="4.60968" fill="white"/>
<path d="M17.1404 19.2167C17.8584 19.2167 18.4529 18.6292 18.3125 17.9251C18.1974 17.3477 18.0052 16.7817 17.7385 16.2382C17.2752 15.2939 16.596 14.4359 15.7399 13.7132C14.8837 12.9905 13.8673 12.4172 12.7486 12.026C11.63 11.6349 10.431 11.4336 9.22019 11.4336C8.00938 11.4336 6.81042 11.6349 5.69178 12.026C4.57313 12.4172 3.55671 12.9905 2.70053 13.7132C1.84436 14.4359 1.1652 15.2939 0.701845 16.2382C0.43515 16.7817 0.242951 17.3477 0.127843 17.9251C-0.0125254 18.6292 0.58203 19.2167 1.3 19.2167L9.22019 19.2167H17.1404Z" fill="white"/>
</svg>
