<svg width="24" height="24" viewBox="0 0 24 24" fill="none" xmlns="http://www.w3.org/2000/svg">
<path d="M6.8457 23.0498C7.37207 23.0498 7.7373 22.7705 8.39258 22.1904L12.0986 18.8926H18.9951C22.1963 18.8926 23.915 17.1201 23.915 13.9727V5.74414C23.915 2.59668 22.1963 0.824219 18.9951 0.824219H5.15918C1.95801 0.824219 0.239258 2.58594 0.239258 5.74414V13.9727C0.239258 17.1309 1.95801 18.8926 5.15918 18.8926H5.6748V21.6855C5.6748 22.5127 6.09375 23.0498 6.8457 23.0498ZM7.28613 21.084V17.9688C7.28613 17.3887 7.06055 17.1631 6.48047 17.1631H5.15918C2.98926 17.1631 1.96875 16.0566 1.96875 13.9619V5.74414C1.96875 3.64941 2.98926 2.55371 5.15918 2.55371H18.9951C21.1543 2.55371 22.1855 3.64941 22.1855 5.74414V13.9619C22.1855 16.0566 21.1543 17.1631 18.9951 17.1631H12.0342C11.4326 17.1631 11.1318 17.249 10.7236 17.668L7.28613 21.084ZM8.69336 10.2881C8.69336 9.51465 8.03809 8.85938 7.26465 8.85938C6.48047 8.85938 5.83594 9.51465 5.83594 10.2881C5.83594 11.0615 6.49121 11.7168 7.26465 11.7168C8.03809 11.7168 8.69336 11.0615 8.69336 10.2881ZM13.5811 10.2881C13.5811 9.51465 12.9258 8.85938 12.1523 8.85938C11.3789 8.85938 10.7236 9.51465 10.7236 10.2881C10.7236 11.0615 11.3896 11.7168 12.1523 11.7168C12.9258 11.7168 13.5811 11.0615 13.5811 10.2881ZM18.4688 10.2881C18.4688 9.51465 17.8242 8.85938 17.04 8.85938C16.2666 8.85938 15.6113 9.51465 15.6113 10.2881C15.6113 11.0615 16.2773 11.7168 17.04 11.7168C17.8242 11.7168 18.4688 11.0615 18.4688 10.2881Z" fill="black"/>
</svg>
