<svg width="18" height="17" viewBox="0 0 18 17" fill="none" xmlns="http://www.w3.org/2000/svg">
<path d="M7.78588 0.67244C8.23495 -0.224147 9.44505 -0.224147 9.89412 0.672441L11.7515 4.38087C11.932 4.74131 12.265 4.98738 12.6461 5.04194L16.6443 5.61442C17.6512 5.75858 18.0391 7.08705 17.2857 7.8107L14.5104 10.4764C14.2033 10.7714 14.0621 11.2143 14.1373 11.6468L14.8079 15.4994C14.986 16.5226 13.9912 17.3253 13.1104 16.869L9.36353 14.928C9.03312 14.7568 8.64688 14.7568 8.31647 14.928L4.56963 16.869C3.68881 17.3253 2.69398 16.5226 2.87209 15.4994L3.54267 11.6468C3.61794 11.2143 3.47674 10.7714 3.16959 10.4764L0.394293 7.8107C-0.359111 7.08706 0.0288448 5.75858 1.03568 5.61442L5.03393 5.04194C5.41498 4.98738 5.74796 4.74131 5.92849 4.38087L7.78588 0.67244Z" fill="white"/>
</svg>
