<svg width="18" height="16" viewBox="0 0 18 16" fill="none" xmlns="http://www.w3.org/2000/svg">
<path d="M8.33759 0.849345C8.60627 0.180062 9.55373 0.180062 9.82241 0.849346L11.3757 4.71847C11.493 5.01073 11.7709 5.20696 12.0855 5.21977L16.4011 5.39542C17.1552 5.42611 17.4513 6.38819 16.8448 6.83753L13.5568 9.2738C13.2864 9.47415 13.1703 9.8223 13.2663 10.1448L14.4067 13.9753C14.6163 14.6795 13.8455 15.2701 13.2201 14.8846L9.49981 12.5911C9.24243 12.4325 8.91757 12.4325 8.66019 12.5911L4.9399 14.8846C4.31451 15.2701 3.54373 14.6795 3.75334 13.9753L4.89366 10.1448C4.98968 9.8223 4.87358 9.47415 4.60319 9.2738L1.31519 6.83753C0.708751 6.38819 1.00478 5.42611 1.75893 5.39541L6.07447 5.21977C6.38914 5.20696 6.66702 5.01073 6.78435 4.71847L8.33759 0.849345Z" fill="#F8A41E"/>
</svg>
