<svg width="75" height="75" viewBox="0 0 75 75" fill="none" xmlns="http://www.w3.org/2000/svg">
<rect width="75" height="75" rx="20" fill="#212121"/>
<path d="M55 28C55 18.6112 47.3888 11 38 11V11C28.6112 11 21 18.6112 21 28V28C21 37.3888 28.6112 45 38 45V45C47.3888 45 55 37.3888 55 28V28Z" fill="url(#paint0_radial)"/>
<path d="M55 28C55 18.6112 47.3888 11 38 11V11C28.6112 11 21 18.6112 21 28V28C21 37.3888 28.6112 45 38 45V45C47.3888 45 55 37.3888 55 28V28Z" fill="#1FAEF7"/>
<path d="M47 26C47 33 38 39 38 39C38 39 29 33 29 26C29 23.6131 29.9482 21.3239 31.636 19.636C33.3239 17.9482 35.6131 17 38 17C40.3869 17 42.6761 17.9482 44.364 19.636C46.0518 21.3239 47 23.6131 47 26Z" fill="#016A9E"/>
<path d="M38 29C39.6569 29 41 27.6569 41 26C41 24.3431 39.6569 23 38 23C36.3431 23 35 24.3431 35 26C35 27.6569 36.3431 29 38 29Z" fill="#1FAEF7" stroke="#1FAEF7" stroke-width="2" stroke-linecap="round" stroke-linejoin="round"/>
<path d="M22.5302 58.4102H18.3344L17.3822 61H16.5634L20.061 51.7578H20.8036L24.3012 61H23.4887L22.5302 58.4102ZM18.5756 57.7437H22.2826L20.4291 52.71L18.5756 57.7437ZM29.052 54.7793C28.8912 54.7497 28.7198 54.7349 28.5379 54.7349C28.0639 54.7349 27.6619 54.8682 27.3318 55.1348C27.006 55.3971 26.7732 55.7801 26.6336 56.2837V61H25.8782V54.1318H26.6209L26.6336 55.2236C27.0356 54.4111 27.6809 54.0049 28.5696 54.0049C28.7812 54.0049 28.9484 54.0324 29.0711 54.0874L29.052 54.7793ZM33.8219 54.7793C33.6611 54.7497 33.4897 54.7349 33.3078 54.7349C32.8338 54.7349 32.4318 54.8682 32.1017 55.1348C31.7759 55.3971 31.5431 55.7801 31.4035 56.2837V61H30.6481V54.1318H31.3908L31.4035 55.2236C31.8055 54.4111 32.4508 54.0049 33.3395 54.0049C33.5511 54.0049 33.7182 54.0324 33.841 54.0874L33.8219 54.7793ZM36.2686 61H35.5068V54.1318H36.2686V61ZM35.3735 52.145C35.3735 52.0011 35.4201 51.8805 35.5132 51.7832C35.6063 51.6816 35.7332 51.6309 35.894 51.6309C36.0549 51.6309 36.1818 51.6816 36.2749 51.7832C36.3722 51.8805 36.4209 52.0011 36.4209 52.145C36.4209 52.2889 36.3722 52.4095 36.2749 52.5068C36.1818 52.6042 36.0549 52.6528 35.894 52.6528C35.7332 52.6528 35.6063 52.6042 35.5132 52.5068C35.4201 52.4095 35.3735 52.2889 35.3735 52.145ZM40.8671 59.9526L42.9554 54.1318H43.7362L41.1717 61H40.556L37.9789 54.1318H38.7596L40.8671 59.9526ZM47.9475 61.127C47.3635 61.127 46.8345 60.9831 46.3606 60.6953C45.8908 60.4076 45.5248 60.0076 45.2624 59.4956C45.0001 58.9793 44.8689 58.4017 44.8689 57.7627V57.4897C44.8689 56.8296 44.9958 56.235 45.2497 55.7061C45.5079 55.1771 45.8654 54.7624 46.3225 54.4619C46.7795 54.1572 47.2746 54.0049 47.8078 54.0049C48.6415 54.0049 49.3016 54.2905 49.7883 54.8618C50.2792 55.4289 50.5246 56.2054 50.5246 57.1914V57.6167H45.6242V57.7627C45.6242 58.5413 45.8464 59.1909 46.2907 59.7114C46.7393 60.2277 47.3021 60.4858 47.9792 60.4858C48.3855 60.4858 48.7431 60.4118 49.052 60.2637C49.3651 60.1156 49.6487 59.8786 49.9026 59.5527L50.3786 59.9146C49.82 60.7228 49.0097 61.127 47.9475 61.127ZM47.8078 54.6523C47.2365 54.6523 46.7541 54.8618 46.3606 55.2808C45.9712 55.6997 45.7343 56.2625 45.6496 56.9692H49.7693V56.8867C49.7481 56.2266 49.5598 55.6891 49.2043 55.2744C48.8488 54.8597 48.3834 54.6523 47.8078 54.6523ZM52.0889 57.5024C52.0889 56.436 52.3259 55.5876 52.7999 54.957C53.2781 54.3223 53.9255 54.0049 54.7423 54.0049C55.669 54.0049 56.3757 54.3709 56.8624 55.103V51.25H57.6178V61H56.9068L56.8751 60.0859C56.3884 60.7799 55.6733 61.127 54.7296 61.127C53.9382 61.127 53.2992 60.8096 52.8126 60.1748C52.3302 59.5358 52.0889 58.6746 52.0889 57.5913V57.5024ZM52.857 57.6357C52.857 58.5117 53.0326 59.2036 53.3839 59.7114C53.7351 60.215 54.2302 60.4668 54.8692 60.4668C55.8044 60.4668 56.4688 60.0542 56.8624 59.229V56.0044C56.4688 55.1115 55.8087 54.665 54.8819 54.665C54.2429 54.665 53.7457 54.9168 53.3902 55.4204C53.0347 55.9198 52.857 56.6582 52.857 57.6357Z" fill="white"/>
<defs>
<radialGradient id="paint0_radial" cx="0" cy="0" r="1" gradientUnits="userSpaceOnUse" gradientTransform="translate(77.037 28) rotate(90) scale(17)">
<stop stop-color="#C4C4C4"/>
<stop offset="1" stop-color="#C4C4C4" stop-opacity="0"/>
</radialGradient>
</defs>
</svg>
