<svg width="75" height="75" viewBox="0 0 75 75" fill="none" xmlns="http://www.w3.org/2000/svg">
<rect width="75" height="75" rx="20" fill="#1FAEF7"/>
<path d="M55 28C55 18.6112 47.3888 11 38 11V11C28.6112 11 21 18.6112 21 28V28C21 37.3888 28.6112 45 38 45V45C47.3888 45 55 37.3888 55 28V28Z" fill="url(#paint0_radial)"/>
<path d="M55 28C55 18.6112 47.3888 11 38 11V11C28.6112 11 21 18.6112 21 28V28C21 37.3888 28.6112 45 38 45V45C47.3888 45 55 37.3888 55 28V28Z" fill="#1FAEF7"/>
<path d="M47 26C47 33 38 39 38 39C38 39 29 33 29 26C29 23.6131 29.9482 21.3239 31.636 19.636C33.3239 17.9482 35.6131 17 38 17C40.3869 17 42.6761 17.9482 44.364 19.636C46.0518 21.3239 47 23.6131 47 26Z" fill="white"/>
<path d="M38 29C39.6569 29 41 27.6569 41 26C41 24.3431 39.6569 23 38 23C36.3431 23 35 24.3431 35 26C35 27.6569 36.3431 29 38 29Z" fill="#1FAEF7" stroke="#1FAEF7" stroke-width="2" stroke-linecap="round" stroke-linejoin="round"/>
<path d="M21.5463 58.8481H17.9662L17.2172 61H15.5478L19.039 51.7578H20.4799L23.9775 61H22.3017L21.5463 58.8481ZM18.4169 57.5532H21.0956L19.7563 53.7192L18.4169 57.5532ZM28.868 55.541C28.6648 55.5072 28.4554 55.4902 28.2395 55.4902C27.5328 55.4902 27.0568 55.7611 26.8113 56.3027V61H25.2688V54.1318H26.7415L26.7796 54.8999C27.152 54.3032 27.6682 54.0049 28.3284 54.0049C28.5485 54.0049 28.7304 54.0345 28.8743 54.0938L28.868 55.541ZM33.8283 55.541C33.6251 55.5072 33.4157 55.4902 33.1998 55.4902C32.4931 55.4902 32.0171 55.7611 31.7716 56.3027V61H30.2291V54.1318H31.7018L31.7399 54.8999C32.1123 54.3032 32.6286 54.0049 33.2887 54.0049C33.5088 54.0049 33.6907 54.0345 33.8346 54.0938L33.8283 55.541ZM36.8335 61H35.291V54.1318H36.8335V61ZM35.1958 52.3481C35.1958 52.1112 35.2699 51.9144 35.418 51.7578C35.5703 51.6012 35.7861 51.5229 36.0654 51.5229C36.3447 51.5229 36.5605 51.6012 36.7129 51.7578C36.8652 51.9144 36.9414 52.1112 36.9414 52.3481C36.9414 52.5809 36.8652 52.7756 36.7129 52.9321C36.5605 53.0845 36.3447 53.1606 36.0654 53.1606C35.7861 53.1606 35.5703 53.0845 35.418 52.9321C35.2699 52.7756 35.1958 52.5809 35.1958 52.3481ZM41.3304 59.0449L42.784 54.1318H44.3773L41.9969 61H40.6576L38.2582 54.1318H39.8578L41.3304 59.0449ZM48.6711 61.127C47.6936 61.127 46.9001 60.8201 46.2907 60.2065C45.6856 59.5887 45.383 58.7677 45.383 57.7437V57.5532C45.383 56.8677 45.5142 56.2562 45.7766 55.7188C46.0432 55.1771 46.4156 54.756 46.8938 54.4556C47.372 54.1551 47.9052 54.0049 48.4934 54.0049C49.4286 54.0049 50.1501 54.3032 50.6579 54.8999C51.17 55.4966 51.426 56.3408 51.426 57.4326V58.0547H46.9382C46.9848 58.6217 47.1731 59.0703 47.5031 59.4004C47.8375 59.7305 48.2564 59.8955 48.76 59.8955C49.4667 59.8955 50.0422 59.6099 50.4865 59.0386L51.3181 59.832C51.043 60.2425 50.6749 60.562 50.2136 60.7905C49.7566 61.0148 49.2424 61.127 48.6711 61.127ZM48.487 55.2427C48.0639 55.2427 47.7211 55.3908 47.4587 55.687C47.2006 55.9832 47.0355 56.3958 46.9636 56.9248H49.9026V56.8105C49.8687 56.2943 49.7312 55.9049 49.49 55.6426C49.2487 55.376 48.9144 55.2427 48.487 55.2427ZM52.7301 57.5151C52.7301 56.4572 52.9755 55.6087 53.4664 54.9697C53.9573 54.3265 54.6153 54.0049 55.4405 54.0049C56.1684 54.0049 56.7566 54.2588 57.2052 54.7666V51.25H58.7476V61H57.3512L57.275 60.2891C56.8137 60.8477 56.198 61.127 55.4278 61.127C54.6238 61.127 53.9721 60.8032 53.4727 60.1558C52.9776 59.5083 52.7301 58.6281 52.7301 57.5151ZM54.2725 57.6484C54.2725 58.3467 54.4058 58.8926 54.6724 59.2861C54.9433 59.6755 55.3262 59.8701 55.8214 59.8701C56.4519 59.8701 56.9132 59.5887 57.2052 59.0259V56.0933C56.9216 55.5431 56.4646 55.2681 55.8341 55.2681C55.3347 55.2681 54.9496 55.467 54.6788 55.8647C54.408 56.2583 54.2725 56.8529 54.2725 57.6484Z" fill="white"/>
<defs>
<radialGradient id="paint0_radial" cx="0" cy="0" r="1" gradientUnits="userSpaceOnUse" gradientTransform="translate(77.037 28) rotate(90) scale(17)">
<stop stop-color="#C4C4C4"/>
<stop offset="1" stop-color="#C4C4C4" stop-opacity="0"/>
</radialGradient>
</defs>
</svg>
