<svg width="153" height="117" viewBox="0 0 153 117" fill="none" xmlns="http://www.w3.org/2000/svg">
<g filter="url(#filter0_d)">
<rect x="24" y="24" width="105" height="69" rx="20" fill="#212121"/>
</g>
<path d="M60.7754 80.1182C60.6696 81.0915 60.3205 81.8363 59.728 82.3525C59.1398 82.8688 58.3548 83.127 57.373 83.127C56.6875 83.127 56.0802 82.9556 55.5513 82.6128C55.0265 82.27 54.6203 81.7855 54.3325 81.1592C54.0448 80.5286 53.8988 79.8092 53.8945 79.001V77.8013C53.8945 76.9803 54.0384 76.2524 54.3262 75.6177C54.6139 74.9829 55.0265 74.4941 55.564 74.1514C56.1056 73.8044 56.7277 73.6309 57.4302 73.6309C58.4204 73.6309 59.2012 73.8996 59.7725 74.437C60.348 74.9702 60.6823 75.7087 60.7754 76.6523H59.9883C59.7936 75.0824 58.9409 74.2974 57.4302 74.2974C56.5923 74.2974 55.9237 74.6105 55.4243 75.2368C54.9292 75.8631 54.6816 76.7285 54.6816 77.833V78.9629C54.6816 80.0293 54.9229 80.8799 55.4053 81.5146C55.8919 82.1494 56.5479 82.4668 57.373 82.4668C58.1898 82.4668 58.8055 82.2721 59.2202 81.8828C59.6349 81.4893 59.891 80.901 59.9883 80.1182H60.7754ZM66.8311 83C66.7549 82.7842 66.7062 82.4647 66.6851 82.0415C66.4185 82.3885 66.0778 82.6572 65.6631 82.8477C65.2526 83.0339 64.8167 83.127 64.3555 83.127C63.6953 83.127 63.16 82.9429 62.7495 82.5747C62.3433 82.2065 62.1401 81.741 62.1401 81.1782C62.1401 80.5096 62.4173 79.9806 62.9717 79.5913C63.5303 79.202 64.3068 79.0073 65.3013 79.0073H66.6787V78.2266C66.6787 77.7357 66.5264 77.3506 66.2217 77.0713C65.9212 76.7878 65.4811 76.646 64.9014 76.646C64.3724 76.646 63.9344 76.7814 63.5874 77.0522C63.2404 77.3231 63.0669 77.6489 63.0669 78.0298L62.3052 78.0234C62.3052 77.4775 62.5591 77.0057 63.0669 76.6079C63.5747 76.2059 64.1989 76.0049 64.9395 76.0049C65.7054 76.0049 66.3084 76.1974 66.7485 76.5825C67.1929 76.9634 67.4214 77.4966 67.4341 78.1821V81.4321C67.4341 82.0965 67.5039 82.5938 67.6436 82.9238V83H66.8311ZM64.4443 82.4541C64.9521 82.4541 65.4049 82.3314 65.8027 82.0859C66.2048 81.8405 66.4967 81.5125 66.6787 81.1021V79.5913H65.3203C64.5628 79.5998 63.9704 79.7394 63.543 80.0103C63.1156 80.2769 62.9019 80.645 62.9019 81.1147C62.9019 81.4998 63.0436 81.8193 63.3271 82.0732C63.6149 82.3271 63.9873 82.4541 64.4443 82.4541ZM70.189 76.1318L70.2144 77.3062C70.4725 76.883 70.7941 76.5614 71.1792 76.3413C71.5643 76.117 71.9896 76.0049 72.4551 76.0049C73.1914 76.0049 73.7394 76.2122 74.0991 76.627C74.4588 77.0417 74.6408 77.6637 74.645 78.4932V83H73.8896V78.4868C73.8854 77.8732 73.7542 77.4162 73.4961 77.1157C73.2422 76.8153 72.8338 76.665 72.271 76.665C71.8013 76.665 71.3844 76.8132 71.0205 77.1094C70.6608 77.4014 70.3942 77.797 70.2207 78.2964V83H69.4653V76.1318H70.189ZM75.959 76.0239L75.5083 75.6938C75.8892 75.1818 76.0859 74.6444 76.0986 74.0815V73.25H76.8477V73.8911C76.8477 74.7756 76.5514 75.4865 75.959 76.0239ZM79.5962 74.3735V76.1318H81.0181V76.7539H79.5962V81.3306C79.5962 81.7114 79.6639 81.995 79.7993 82.1812C79.939 82.3674 80.1696 82.4604 80.4912 82.4604C80.6182 82.4604 80.8234 82.4393 81.1069 82.397L81.1387 83.019C80.9398 83.091 80.6689 83.127 80.3262 83.127C79.8057 83.127 79.4269 82.9767 79.1899 82.6763C78.953 82.3716 78.8345 81.9251 78.8345 81.3369V76.7539H77.5713V76.1318H78.8345V74.3735H79.5962ZM92.6025 81.9019C92.3317 82.2869 91.9064 82.5874 91.3267 82.8032C90.7511 83.019 90.1058 83.127 89.3906 83.127C88.667 83.127 88.0238 82.9535 87.4609 82.6064C86.8981 82.2594 86.4622 81.7686 86.1533 81.1338C85.8444 80.499 85.6878 79.7712 85.6836 78.9502V77.7822C85.6836 76.5 86.0073 75.4886 86.6548 74.748C87.3022 74.0033 88.1719 73.6309 89.2637 73.6309C90.2158 73.6309 90.9818 73.8742 91.5615 74.3608C92.1413 74.8433 92.4862 75.5098 92.5962 76.3604H91.8154C91.7012 75.6833 91.424 75.1712 90.9839 74.8242C90.548 74.473 89.9767 74.2974 89.27 74.2974C88.4067 74.2974 87.7233 74.6042 87.2197 75.2178C86.7161 75.8314 86.4644 76.6968 86.4644 77.814V78.9058C86.4644 79.6082 86.5828 80.2303 86.8198 80.772C87.061 81.3094 87.4038 81.7262 87.8481 82.0225C88.2967 82.3187 88.8109 82.4668 89.3906 82.4668C90.0635 82.4668 90.6411 82.361 91.1235 82.1494C91.4367 82.0098 91.6694 81.8468 91.8218 81.6606V79.2739H89.3398V78.6138H92.6025V81.9019ZM94.2212 79.4644C94.2212 78.8042 94.3481 78.2096 94.6021 77.6807C94.8602 77.1517 95.222 76.7412 95.6875 76.4492C96.1572 76.153 96.6883 76.0049 97.2808 76.0049C98.1948 76.0049 98.9354 76.3265 99.5024 76.9697C100.069 77.6087 100.353 78.4572 100.353 79.5151V79.6738C100.353 80.3382 100.224 80.937 99.9658 81.4702C99.7119 81.9992 99.3522 82.4076 98.8867 82.6953C98.4212 82.9831 97.8901 83.127 97.2935 83.127C96.3836 83.127 95.6431 82.8075 95.0718 82.1685C94.5047 81.5252 94.2212 80.6746 94.2212 79.6167V79.4644ZM94.9829 79.6738C94.9829 80.4948 95.1945 81.1698 95.6177 81.6987C96.0451 82.2235 96.6037 82.4858 97.2935 82.4858C97.979 82.4858 98.5334 82.2235 98.9565 81.6987C99.384 81.1698 99.5977 80.4736 99.5977 79.6104V79.4644C99.5977 78.9396 99.5003 78.4593 99.3057 78.0234C99.111 77.5876 98.8381 77.2511 98.4868 77.0142C98.1356 76.7729 97.7336 76.6523 97.2808 76.6523C96.6037 76.6523 96.0514 76.9189 95.624 77.4521C95.1966 77.9811 94.9829 78.6751 94.9829 79.5342V79.6738Z" fill="white"/>
<rect x="60" y="33" width="34" height="34" rx="17" fill="#1FAEF7"/>
<path d="M83 44L71 56" stroke="#016A9E" stroke-width="3.3" stroke-linecap="round" stroke-linejoin="round"/>
<path d="M71 44L83 56" stroke="#016A9E" stroke-width="3.3" stroke-linecap="round" stroke-linejoin="round"/>
<defs>
<filter id="filter0_d" x="0" y="0" width="153" height="117" filterUnits="userSpaceOnUse" color-interpolation-filters="sRGB">
<feFlood flood-opacity="0" result="BackgroundImageFix"/>
<feColorMatrix in="SourceAlpha" type="matrix" values="0 0 0 0 0 0 0 0 0 0 0 0 0 0 0 0 0 0 127 0"/>
<feOffset/>
<feGaussianBlur stdDeviation="12"/>
<feColorMatrix type="matrix" values="0 0 0 0 0 0 0 0 0 0 0 0 0 0 0 0 0 0 0.5 0"/>
<feBlend mode="normal" in2="BackgroundImageFix" result="effect1_dropShadow"/>
<feBlend mode="normal" in="SourceGraphic" in2="effect1_dropShadow" result="shape"/>
</filter>
</defs>
</svg>
