<svg width="75" height="75" viewBox="0 0 75 75" fill="none" xmlns="http://www.w3.org/2000/svg">
<rect width="75" height="75" rx="20" fill="#1FAEF7"/>
<path d="M21.1738 57.9912C21.0807 58.9772 20.7168 59.7474 20.082 60.3018C19.4473 60.8519 18.603 61.127 17.5493 61.127C16.813 61.127 16.1634 60.9535 15.6006 60.6064C15.042 60.2552 14.6104 59.758 14.3057 59.1147C14.001 58.4715 13.8423 57.7246 13.8296 56.874V56.0107C13.8296 55.139 13.984 54.3709 14.293 53.7065C14.6019 53.0422 15.0441 52.5301 15.6196 52.1704C16.1994 51.8107 16.868 51.6309 17.6255 51.6309C18.6453 51.6309 19.4663 51.908 20.0884 52.4624C20.7104 53.0168 21.0723 53.7996 21.1738 54.811H19.5742C19.498 54.1466 19.3034 53.6685 18.9902 53.3765C18.6813 53.0802 18.2264 52.9321 17.6255 52.9321C16.9272 52.9321 16.3898 53.1882 16.0132 53.7002C15.6408 54.208 15.4504 54.9549 15.4419 55.9409V56.7598C15.4419 57.7585 15.6196 58.5202 15.9751 59.0449C16.3348 59.5697 16.8595 59.832 17.5493 59.832C18.1799 59.832 18.6538 59.6903 18.9712 59.4067C19.2886 59.1232 19.4896 58.6514 19.5742 57.9912H21.1738ZM26.5693 61C26.5016 60.8688 26.4424 60.6551 26.3916 60.3589C25.9007 60.8709 25.2998 61.127 24.5889 61.127C23.8991 61.127 23.3363 60.9302 22.9004 60.5366C22.4645 60.1431 22.2466 59.6564 22.2466 59.0767C22.2466 58.3446 22.5174 57.7839 23.0591 57.3945C23.605 57.001 24.3836 56.8042 25.395 56.8042H26.3408V56.3535C26.3408 55.998 26.2414 55.7145 26.0425 55.5029C25.8436 55.2871 25.541 55.1792 25.1348 55.1792C24.7835 55.1792 24.4958 55.2681 24.2715 55.4458C24.0472 55.6193 23.9351 55.8415 23.9351 56.1123H22.3926C22.3926 55.7357 22.5174 55.3844 22.7671 55.0586C23.0168 54.7285 23.3553 54.4704 23.7827 54.2842C24.2144 54.098 24.6947 54.0049 25.2236 54.0049C26.0277 54.0049 26.6688 54.208 27.147 54.6143C27.6252 55.0163 27.8706 55.5833 27.8833 56.3154V59.4131C27.8833 60.0309 27.9701 60.5239 28.1436 60.8921V61H26.5693ZM24.8745 59.8892C25.1792 59.8892 25.4648 59.8151 25.7314 59.667C26.0023 59.5189 26.2054 59.32 26.3408 59.0703V57.7754H25.5093C24.938 57.7754 24.5085 57.8748 24.2207 58.0737C23.9329 58.2726 23.7891 58.554 23.7891 58.918C23.7891 59.2142 23.8864 59.4512 24.0811 59.6289C24.2799 59.8024 24.5444 59.8892 24.8745 59.8892ZM30.9302 54.1318L30.9746 54.9253C31.4824 54.3117 32.1489 54.0049 32.9741 54.0049C34.4045 54.0049 35.1323 54.8237 35.1577 56.4614V61H33.6152V56.5503C33.6152 56.1144 33.52 55.7928 33.3296 55.5854C33.1434 55.3739 32.8366 55.2681 32.4092 55.2681C31.7871 55.2681 31.3237 55.5495 31.019 56.1123V61H29.4766V54.1318H30.9302ZM36.2939 54.5L35.5068 54.0112C35.8877 53.4569 36.0845 52.8708 36.0972 52.2529V51.25H37.4492V52.126C37.4492 52.5618 37.3371 53.002 37.1128 53.4463C36.8927 53.8864 36.6198 54.2376 36.2939 54.5ZM40.7246 52.4624V54.1318H41.937V55.2744H40.7246V59.1084C40.7246 59.3708 40.7754 59.5612 40.877 59.6797C40.9827 59.7939 41.1689 59.8511 41.4355 59.8511C41.6133 59.8511 41.7931 59.8299 41.9751 59.7876V60.981C41.6239 61.0783 41.2853 61.127 40.9595 61.127C39.7746 61.127 39.1821 60.4731 39.1821 59.1655V55.2744H38.0522V54.1318H39.1821V52.4624H40.7246ZM53.5913 59.8003C53.257 60.2362 52.7936 60.5662 52.2012 60.7905C51.6087 61.0148 50.9359 61.127 50.1826 61.127C49.4082 61.127 48.7227 60.9513 48.126 60.6001C47.5293 60.2489 47.068 59.7474 46.7422 59.0957C46.4206 58.4398 46.2534 57.6759 46.2407 56.8042V56.0806C46.2407 54.6841 46.575 53.5944 47.2437 52.8115C47.9123 52.0244 48.8454 51.6309 50.043 51.6309C51.0713 51.6309 51.888 51.8848 52.4932 52.3926C53.0983 52.9004 53.4622 53.6325 53.585 54.5889H52.0107C51.833 53.4759 51.1877 52.9194 50.0747 52.9194C49.3553 52.9194 48.8073 53.1797 48.4307 53.7002C48.0583 54.2165 47.8657 54.9761 47.853 55.979V56.6899C47.853 57.6886 48.0625 58.4652 48.4814 59.0195C48.9046 59.5697 49.4907 59.8447 50.2397 59.8447C51.0607 59.8447 51.6447 59.6585 51.9917 59.2861V57.4771H50.0874V56.2583H53.5913V59.8003ZM54.918 57.5024C54.918 56.8296 55.0513 56.2244 55.3179 55.687C55.5845 55.1453 55.959 54.7306 56.4414 54.4429C56.9238 54.1509 57.4782 54.0049 58.1045 54.0049C59.0312 54.0049 59.7824 54.3032 60.3579 54.8999C60.9377 55.4966 61.2508 56.2879 61.2974 57.2739L61.3037 57.6357C61.3037 58.3128 61.1725 58.918 60.9102 59.4512C60.652 59.9844 60.2796 60.397 59.793 60.689C59.3105 60.981 58.752 61.127 58.1172 61.127C57.1481 61.127 56.3716 60.8053 55.7876 60.1621C55.2078 59.5146 54.918 58.6535 54.918 57.5786V57.5024ZM56.4604 57.6357C56.4604 58.3424 56.6064 58.8968 56.8984 59.2988C57.1904 59.6966 57.5967 59.8955 58.1172 59.8955C58.6377 59.8955 59.0418 59.6924 59.3296 59.2861C59.6216 58.8799 59.7676 58.2853 59.7676 57.5024C59.7676 56.8084 59.6174 56.2583 59.3169 55.8521C59.0207 55.4458 58.6165 55.2427 58.1045 55.2427C57.6009 55.2427 57.201 55.4437 56.9048 55.8457C56.6086 56.2435 56.4604 56.8402 56.4604 57.6357Z" fill="white"/>
<rect x="21" y="11" width="34" height="34" rx="17" fill="#1FAEF7"/>
<path d="M44 22L32 34" stroke="white" stroke-width="3.3" stroke-linecap="round" stroke-linejoin="round"/>
<path d="M32 22L44 34" stroke="white" stroke-width="3.3" stroke-linecap="round" stroke-linejoin="round"/>
</svg>
