<svg width="75" height="75" viewBox="0 0 75 75" fill="none" xmlns="http://www.w3.org/2000/svg">
<rect width="75" height="75" rx="20" fill="#212121"/>
<path d="M21.2754 58.1182C21.1696 59.0915 20.8205 59.8363 20.228 60.3525C19.6398 60.8688 18.8548 61.127 17.873 61.127C17.1875 61.127 16.5802 60.9556 16.0513 60.6128C15.5265 60.27 15.1203 59.7855 14.8325 59.1592C14.5448 58.5286 14.3988 57.8092 14.3945 57.001V55.8013C14.3945 54.9803 14.5384 54.2524 14.8262 53.6177C15.1139 52.9829 15.5265 52.4941 16.064 52.1514C16.6056 51.8044 17.2277 51.6309 17.9302 51.6309C18.9204 51.6309 19.7012 51.8996 20.2725 52.437C20.848 52.9702 21.1823 53.7087 21.2754 54.6523H20.4883C20.2936 53.0824 19.4409 52.2974 17.9302 52.2974C17.0923 52.2974 16.4237 52.6105 15.9243 53.2368C15.4292 53.8631 15.1816 54.7285 15.1816 55.833V56.9629C15.1816 58.0293 15.4229 58.8799 15.9053 59.5146C16.3919 60.1494 17.0479 60.4668 17.873 60.4668C18.6898 60.4668 19.3055 60.2721 19.7202 59.8828C20.1349 59.4893 20.391 58.901 20.4883 58.1182H21.2754ZM27.3311 61C27.2549 60.7842 27.2062 60.4647 27.1851 60.0415C26.9185 60.3885 26.5778 60.6572 26.1631 60.8477C25.7526 61.0339 25.3167 61.127 24.8555 61.127C24.1953 61.127 23.66 60.9429 23.2495 60.5747C22.8433 60.2065 22.6401 59.741 22.6401 59.1782C22.6401 58.5096 22.9173 57.9806 23.4717 57.5913C24.0303 57.202 24.8068 57.0073 25.8013 57.0073H27.1787V56.2266C27.1787 55.7357 27.0264 55.3506 26.7217 55.0713C26.4212 54.7878 25.9811 54.646 25.4014 54.646C24.8724 54.646 24.4344 54.7814 24.0874 55.0522C23.7404 55.3231 23.5669 55.6489 23.5669 56.0298L22.8052 56.0234C22.8052 55.4775 23.0591 55.0057 23.5669 54.6079C24.0747 54.2059 24.6989 54.0049 25.4395 54.0049C26.2054 54.0049 26.8084 54.1974 27.2485 54.5825C27.6929 54.9634 27.9214 55.4966 27.9341 56.1821V59.4321C27.9341 60.0965 28.0039 60.5938 28.1436 60.9238V61H27.3311ZM24.9443 60.4541C25.4521 60.4541 25.9049 60.3314 26.3027 60.0859C26.7048 59.8405 26.9967 59.5125 27.1787 59.1021V57.5913H25.8203C25.0628 57.5998 24.4704 57.7394 24.043 58.0103C23.6156 58.2769 23.4019 58.645 23.4019 59.1147C23.4019 59.4998 23.5436 59.8193 23.8271 60.0732C24.1149 60.3271 24.4873 60.4541 24.9443 60.4541ZM30.689 54.1318L30.7144 55.3062C30.9725 54.883 31.2941 54.5614 31.6792 54.3413C32.0643 54.117 32.4896 54.0049 32.9551 54.0049C33.6914 54.0049 34.2394 54.2122 34.5991 54.627C34.9588 55.0417 35.1408 55.6637 35.145 56.4932V61H34.3896V56.4868C34.3854 55.8732 34.2542 55.4162 33.9961 55.1157C33.7422 54.8153 33.3338 54.665 32.771 54.665C32.3013 54.665 31.8844 54.8132 31.5205 55.1094C31.1608 55.4014 30.8942 55.797 30.7207 56.2964V61H29.9653V54.1318H30.689ZM36.459 54.0239L36.0083 53.6938C36.3892 53.1818 36.5859 52.6444 36.5986 52.0815V51.25H37.3477V51.8911C37.3477 52.7756 37.0514 53.4865 36.459 54.0239ZM40.0962 52.3735V54.1318H41.5181V54.7539H40.0962V59.3306C40.0962 59.7114 40.1639 59.995 40.2993 60.1812C40.439 60.3674 40.6696 60.4604 40.9912 60.4604C41.1182 60.4604 41.3234 60.4393 41.6069 60.397L41.6387 61.019C41.4398 61.091 41.1689 61.127 40.8262 61.127C40.3057 61.127 39.9269 60.9767 39.6899 60.6763C39.453 60.3716 39.3345 59.9251 39.3345 59.3369V54.7539H38.0713V54.1318H39.3345V52.3735H40.0962ZM53.1025 59.9019C52.8317 60.2869 52.4064 60.5874 51.8267 60.8032C51.2511 61.019 50.6058 61.127 49.8906 61.127C49.167 61.127 48.5238 60.9535 47.9609 60.6064C47.3981 60.2594 46.9622 59.7686 46.6533 59.1338C46.3444 58.499 46.1878 57.7712 46.1836 56.9502V55.7822C46.1836 54.5 46.5073 53.4886 47.1548 52.748C47.8022 52.0033 48.6719 51.6309 49.7637 51.6309C50.7158 51.6309 51.4818 51.8742 52.0615 52.3608C52.6413 52.8433 52.9862 53.5098 53.0962 54.3604H52.3154C52.2012 53.6833 51.924 53.1712 51.4839 52.8242C51.048 52.473 50.4767 52.2974 49.77 52.2974C48.9067 52.2974 48.2233 52.6042 47.7197 53.2178C47.2161 53.8314 46.9644 54.6968 46.9644 55.814V56.9058C46.9644 57.6082 47.0828 58.2303 47.3198 58.772C47.561 59.3094 47.9038 59.7262 48.3481 60.0225C48.7967 60.3187 49.3109 60.4668 49.8906 60.4668C50.5635 60.4668 51.1411 60.361 51.6235 60.1494C51.9367 60.0098 52.1694 59.8468 52.3218 59.6606V57.2739H49.8398V56.6138H53.1025V59.9019ZM54.7212 57.4644C54.7212 56.8042 54.8481 56.2096 55.1021 55.6807C55.3602 55.1517 55.722 54.7412 56.1875 54.4492C56.6572 54.153 57.1883 54.0049 57.7808 54.0049C58.6948 54.0049 59.4354 54.3265 60.0024 54.9697C60.5695 55.6087 60.853 56.4572 60.853 57.5151V57.6738C60.853 58.3382 60.724 58.937 60.4658 59.4702C60.2119 59.9992 59.8522 60.4076 59.3867 60.6953C58.9212 60.9831 58.3901 61.127 57.7935 61.127C56.8836 61.127 56.1431 60.8075 55.5718 60.1685C55.0047 59.5252 54.7212 58.6746 54.7212 57.6167V57.4644ZM55.4829 57.6738C55.4829 58.4948 55.6945 59.1698 56.1177 59.6987C56.5451 60.2235 57.1037 60.4858 57.7935 60.4858C58.479 60.4858 59.0334 60.2235 59.4565 59.6987C59.884 59.1698 60.0977 58.4736 60.0977 57.6104V57.4644C60.0977 56.9396 60.0003 56.4593 59.8057 56.0234C59.611 55.5876 59.3381 55.2511 58.9868 55.0142C58.6356 54.7729 58.2336 54.6523 57.7808 54.6523C57.1037 54.6523 56.5514 54.9189 56.124 55.4521C55.6966 55.9811 55.4829 56.6751 55.4829 57.5342V57.6738Z" fill="white"/>
<rect x="21" y="11" width="34" height="34" rx="17" fill="#1FAEF7"/>
<path d="M44 22L32 34" stroke="#016A9E" stroke-width="3.3" stroke-linecap="round" stroke-linejoin="round"/>
<path d="M32 22L44 34" stroke="#016A9E" stroke-width="3.3" stroke-linecap="round" stroke-linejoin="round"/>
</svg>
