<svg width="72" height="72" viewBox="0 0 72 72" fill="none" xmlns="http://www.w3.org/2000/svg">
<rect x="1" y="1" width="70" height="70" rx="35" fill="#242424"/>
<g filter="url(#filter0_d)">
<path d="M43.975 15.2474C45.04 13.9781 46.9322 13.8126 48.2014 14.8776L53.834 19.6039C55.1032 20.6689 55.2688 22.5612 54.2038 23.8304L50.0548 28.7749C49.6998 29.198 49.0691 29.2532 48.646 28.8982L39.9493 21.6007C39.5262 21.2457 39.471 20.615 39.826 20.1919L43.975 15.2474Z" fill="white"/>
<rect width="13.2627" height="25.1439" rx="1" transform="matrix(0.76604 0.642792 0.642783 -0.766048 21.9678 41.5249)" fill="white"/>
<path d="M19.2383 53.9792C19.0854 54.6203 19.7297 55.1609 20.3345 54.899L32.135 49.7881C32.6808 49.5517 32.7869 48.8235 32.3312 48.4412L23.5149 41.0434C23.0592 40.6611 22.3605 40.8921 22.2225 41.4706L19.2383 53.9792Z" fill="white"/>
</g>
<defs>
<filter id="filter0_d" x="15.2158" y="10.1758" width="43.6896" height="48.7905" filterUnits="userSpaceOnUse" color-interpolation-filters="sRGB">
<feFlood flood-opacity="0" result="BackgroundImageFix"/>
<feColorMatrix in="SourceAlpha" type="matrix" values="0 0 0 0 0 0 0 0 0 0 0 0 0 0 0 0 0 0 127 0"/>
<feOffset/>
<feGaussianBlur stdDeviation="2"/>
<feColorMatrix type="matrix" values="0 0 0 0 0 0 0 0 0 0 0 0 0 0 0 0 0 0 0.4 0"/>
<feBlend mode="normal" in2="BackgroundImageFix" result="effect1_dropShadow"/>
<feBlend mode="normal" in="SourceGraphic" in2="effect1_dropShadow" result="shape"/>
</filter>
</defs>
</svg>
