<svg width="153" height="117" viewBox="0 0 153 117" fill="none" xmlns="http://www.w3.org/2000/svg">
<g filter="url(#filter0_d)">
<rect x="24" y="24" width="105" height="69" rx="20" fill="#212121"/>
</g>
<path d="M68.1133 82.9019C67.8424 83.2869 67.4172 83.5874 66.8374 83.8032C66.2619 84.019 65.6165 84.127 64.9014 84.127C64.1777 84.127 63.5345 83.9535 62.9717 83.6064C62.4089 83.2594 61.973 82.7686 61.6641 82.1338C61.3551 81.499 61.1986 80.7712 61.1943 79.9502V78.7822C61.1943 77.5 61.5181 76.4886 62.1655 75.748C62.813 75.0033 63.6826 74.6309 64.7744 74.6309C65.7266 74.6309 66.4925 74.8742 67.0723 75.3608C67.652 75.8433 67.9969 76.5098 68.1069 77.3604H67.3262C67.2119 76.6833 66.9347 76.1712 66.4946 75.8242C66.0588 75.473 65.4875 75.2974 64.7808 75.2974C63.9175 75.2974 63.234 75.6042 62.7305 76.2178C62.2269 76.8314 61.9751 77.6968 61.9751 78.814V79.9058C61.9751 80.6082 62.0936 81.2303 62.3306 81.772C62.5718 82.3094 62.9146 82.7262 63.3589 83.0225C63.8075 83.3187 64.3216 83.4668 64.9014 83.4668C65.5742 83.4668 66.1519 83.361 66.6343 83.1494C66.9474 83.0098 67.1802 82.8468 67.3325 82.6606V80.2739H64.8506V79.6138H68.1133V82.9019ZM69.7319 80.4644C69.7319 79.8042 69.8589 79.2096 70.1128 78.6807C70.3709 78.1517 70.7327 77.7412 71.1982 77.4492C71.668 77.153 72.1991 77.0049 72.7915 77.0049C73.7056 77.0049 74.4461 77.3265 75.0132 77.9697C75.5802 78.6087 75.8638 79.4572 75.8638 80.5151V80.6738C75.8638 81.3382 75.7347 81.937 75.4766 82.4702C75.2227 82.9992 74.863 83.4076 74.3975 83.6953C73.932 83.9831 73.4009 84.127 72.8042 84.127C71.8944 84.127 71.1538 83.8075 70.5825 83.1685C70.0155 82.5252 69.7319 81.6746 69.7319 80.6167V80.4644ZM70.4937 80.6738C70.4937 81.4948 70.7052 82.1698 71.1284 82.6987C71.5558 83.2235 72.1144 83.4858 72.8042 83.4858C73.4897 83.4858 74.0441 83.2235 74.4673 82.6987C74.8947 82.1698 75.1084 81.4736 75.1084 80.6104V80.4644C75.1084 79.9396 75.0111 79.4593 74.8164 79.0234C74.6217 78.5876 74.3488 78.2511 73.9976 78.0142C73.6463 77.7729 73.2443 77.6523 72.7915 77.6523C72.1144 77.6523 71.5622 77.9189 71.1348 78.4521C70.7074 78.9811 70.4937 79.6751 70.4937 80.5342V80.6738ZM78.2886 84H77.5269V77.1318H78.2886V84ZM77.3936 75.145C77.3936 75.0011 77.4401 74.8805 77.5332 74.7832C77.6263 74.6816 77.7533 74.6309 77.9141 74.6309C78.0749 74.6309 78.2018 74.6816 78.2949 74.7832C78.3923 74.8805 78.4409 75.0011 78.4409 75.145C78.4409 75.2889 78.3923 75.4095 78.2949 75.5068C78.2018 75.6042 78.0749 75.6528 77.9141 75.6528C77.7533 75.6528 77.6263 75.6042 77.5332 75.5068C77.4401 75.4095 77.3936 75.2889 77.3936 75.145ZM81.0815 77.1318L81.1069 78.3062C81.3651 77.883 81.6867 77.5614 82.0718 77.3413C82.4569 77.117 82.8822 77.0049 83.3477 77.0049C84.084 77.0049 84.632 77.2122 84.9917 77.627C85.3514 78.0417 85.5334 78.6637 85.5376 79.4932V84H84.7822V79.4868C84.778 78.8732 84.6468 78.4162 84.3887 78.1157C84.1348 77.8153 83.7264 77.665 83.1636 77.665C82.6938 77.665 82.277 77.8132 81.9131 78.1094C81.5534 78.4014 81.2868 78.797 81.1133 79.2964V84H80.3579V77.1318H81.0815ZM87.2007 80.5024C87.2007 79.4276 87.4377 78.577 87.9116 77.9507C88.3898 77.3201 89.0373 77.0049 89.854 77.0049C90.7892 77.0049 91.5002 77.3773 91.9868 78.1221L92.0249 77.1318H92.7358V83.8604C92.7358 84.7448 92.4883 85.4451 91.9932 85.9614C91.498 86.4777 90.8273 86.7358 89.981 86.7358C89.5028 86.7358 89.0457 86.6279 88.6099 86.4121C88.1782 86.2005 87.8376 85.917 87.5879 85.5615L88.0132 85.1045C88.5506 85.7646 89.1896 86.0947 89.9302 86.0947C90.5649 86.0947 91.0601 85.9064 91.4155 85.5298C91.771 85.1574 91.9551 84.639 91.9678 83.9746V83.1113C91.4811 83.7884 90.7723 84.127 89.8413 84.127C89.0457 84.127 88.4067 83.8096 87.9243 83.1748C87.4419 82.54 87.2007 81.6831 87.2007 80.604V80.5024ZM87.9688 80.6357C87.9688 81.5117 88.1444 82.2036 88.4956 82.7114C88.8468 83.215 89.342 83.4668 89.981 83.4668C90.9162 83.4668 91.5785 83.0479 91.9678 82.21V79.0171C91.79 78.577 91.534 78.2427 91.1997 78.0142C90.8654 77.7814 90.4634 77.665 89.9937 77.665C89.3547 77.665 88.8574 77.9168 88.502 78.4204C88.1465 78.9198 87.9688 79.6582 87.9688 80.6357Z" fill="white"/>
<path d="M93 50.5C93 41.3873 85.6127 34 76.5 34V34C67.3873 34 60 41.3873 60 50.5V50.5C60 59.6127 67.3873 67 76.5 67V67C85.6127 67 93 59.6127 93 50.5V50.5Z" fill="url(#paint0_radial)"/>
<path d="M93 50.5C93 41.3873 85.6127 34 76.5 34V34C67.3873 34 60 41.3873 60 50.5V50.5C60 59.6127 67.3873 67 76.5 67V67C85.6127 67 93 59.6127 93 50.5V50.5Z" fill="#1FAEF7"/>
<path d="M85 45L74 56L69 51" stroke="#016A9E" stroke-width="3.3" stroke-linecap="round" stroke-linejoin="round"/>
<defs>
<filter id="filter0_d" x="0" y="0" width="153" height="117" filterUnits="userSpaceOnUse" color-interpolation-filters="sRGB">
<feFlood flood-opacity="0" result="BackgroundImageFix"/>
<feColorMatrix in="SourceAlpha" type="matrix" values="0 0 0 0 0 0 0 0 0 0 0 0 0 0 0 0 0 0 127 0"/>
<feOffset/>
<feGaussianBlur stdDeviation="12"/>
<feColorMatrix type="matrix" values="0 0 0 0 0 0 0 0 0 0 0 0 0 0 0 0 0 0 0.5 0"/>
<feBlend mode="normal" in2="BackgroundImageFix" result="effect1_dropShadow"/>
<feBlend mode="normal" in="SourceGraphic" in2="effect1_dropShadow" result="shape"/>
</filter>
<radialGradient id="paint0_radial" cx="0" cy="0" r="1" gradientUnits="userSpaceOnUse" gradientTransform="translate(114.389 50.5) rotate(90) scale(16.5)">
<stop stop-color="#C4C4C4"/>
<stop offset="1" stop-color="#C4C4C4" stop-opacity="0"/>
</radialGradient>
</defs>
</svg>
