<svg width="75" height="75" viewBox="0 0 75 75" fill="none" xmlns="http://www.w3.org/2000/svg">
<rect width="75" height="75" rx="20" fill="#212121"/>
<path d="M29.1133 59.9019C28.8424 60.2869 28.4172 60.5874 27.8374 60.8032C27.2619 61.019 26.6165 61.127 25.9014 61.127C25.1777 61.127 24.5345 60.9535 23.9717 60.6064C23.4089 60.2594 22.973 59.7686 22.6641 59.1338C22.3551 58.499 22.1986 57.7712 22.1943 56.9502V55.7822C22.1943 54.5 22.5181 53.4886 23.1655 52.748C23.813 52.0033 24.6826 51.6309 25.7744 51.6309C26.7266 51.6309 27.4925 51.8742 28.0723 52.3608C28.652 52.8433 28.9969 53.5098 29.1069 54.3604H28.3262C28.2119 53.6833 27.9347 53.1712 27.4946 52.8242C27.0588 52.473 26.4875 52.2974 25.7808 52.2974C24.9175 52.2974 24.234 52.6042 23.7305 53.2178C23.2269 53.8314 22.9751 54.6968 22.9751 55.814V56.9058C22.9751 57.6082 23.0936 58.2303 23.3306 58.772C23.5718 59.3094 23.9146 59.7262 24.3589 60.0225C24.8075 60.3187 25.3216 60.4668 25.9014 60.4668C26.5742 60.4668 27.1519 60.361 27.6343 60.1494C27.9474 60.0098 28.1802 59.8468 28.3325 59.6606V57.2739H25.8506V56.6138H29.1133V59.9019ZM30.7319 57.4644C30.7319 56.8042 30.8589 56.2096 31.1128 55.6807C31.3709 55.1517 31.7327 54.7412 32.1982 54.4492C32.668 54.153 33.1991 54.0049 33.7915 54.0049C34.7056 54.0049 35.4461 54.3265 36.0132 54.9697C36.5802 55.6087 36.8638 56.4572 36.8638 57.5151V57.6738C36.8638 58.3382 36.7347 58.937 36.4766 59.4702C36.2227 59.9992 35.863 60.4076 35.3975 60.6953C34.932 60.9831 34.4009 61.127 33.8042 61.127C32.8944 61.127 32.1538 60.8075 31.5825 60.1685C31.0155 59.5252 30.7319 58.6746 30.7319 57.6167V57.4644ZM31.4937 57.6738C31.4937 58.4948 31.7052 59.1698 32.1284 59.6987C32.5558 60.2235 33.1144 60.4858 33.8042 60.4858C34.4897 60.4858 35.0441 60.2235 35.4673 59.6987C35.8947 59.1698 36.1084 58.4736 36.1084 57.6104V57.4644C36.1084 56.9396 36.0111 56.4593 35.8164 56.0234C35.6217 55.5876 35.3488 55.2511 34.9976 55.0142C34.6463 54.7729 34.2443 54.6523 33.7915 54.6523C33.1144 54.6523 32.5622 54.9189 32.1348 55.4521C31.7074 55.9811 31.4937 56.6751 31.4937 57.5342V57.6738ZM39.2886 61H38.5269V54.1318H39.2886V61ZM38.3936 52.145C38.3936 52.0011 38.4401 51.8805 38.5332 51.7832C38.6263 51.6816 38.7533 51.6309 38.9141 51.6309C39.0749 51.6309 39.2018 51.6816 39.2949 51.7832C39.3923 51.8805 39.4409 52.0011 39.4409 52.145C39.4409 52.2889 39.3923 52.4095 39.2949 52.5068C39.2018 52.6042 39.0749 52.6528 38.9141 52.6528C38.7533 52.6528 38.6263 52.6042 38.5332 52.5068C38.4401 52.4095 38.3936 52.2889 38.3936 52.145ZM42.0815 54.1318L42.1069 55.3062C42.3651 54.883 42.6867 54.5614 43.0718 54.3413C43.4569 54.117 43.8822 54.0049 44.3477 54.0049C45.084 54.0049 45.632 54.2122 45.9917 54.627C46.3514 55.0417 46.5334 55.6637 46.5376 56.4932V61H45.7822V56.4868C45.778 55.8732 45.6468 55.4162 45.3887 55.1157C45.1348 54.8153 44.7264 54.665 44.1636 54.665C43.6938 54.665 43.277 54.8132 42.9131 55.1094C42.5534 55.4014 42.2868 55.797 42.1133 56.2964V61H41.3579V54.1318H42.0815ZM48.2007 57.5024C48.2007 56.4276 48.4377 55.577 48.9116 54.9507C49.3898 54.3201 50.0373 54.0049 50.854 54.0049C51.7892 54.0049 52.5002 54.3773 52.9868 55.1221L53.0249 54.1318H53.7358V60.8604C53.7358 61.7448 53.4883 62.4451 52.9932 62.9614C52.498 63.4777 51.8273 63.7358 50.981 63.7358C50.5028 63.7358 50.0457 63.6279 49.6099 63.4121C49.1782 63.2005 48.8376 62.917 48.5879 62.5615L49.0132 62.1045C49.5506 62.7646 50.1896 63.0947 50.9302 63.0947C51.5649 63.0947 52.0601 62.9064 52.4155 62.5298C52.771 62.1574 52.9551 61.639 52.9678 60.9746V60.1113C52.4811 60.7884 51.7723 61.127 50.8413 61.127C50.0457 61.127 49.4067 60.8096 48.9243 60.1748C48.4419 59.54 48.2007 58.6831 48.2007 57.604V57.5024ZM48.9688 57.6357C48.9688 58.5117 49.1444 59.2036 49.4956 59.7114C49.8468 60.215 50.342 60.4668 50.981 60.4668C51.9162 60.4668 52.5785 60.0479 52.9678 59.21V56.0171C52.79 55.577 52.534 55.2427 52.1997 55.0142C51.8654 54.7814 51.4634 54.665 50.9937 54.665C50.3547 54.665 49.8574 54.9168 49.502 55.4204C49.1465 55.9198 48.9688 56.6582 48.9688 57.6357Z" fill="white"/>
<path d="M55 28C55 18.6112 47.3888 11 38 11V11C28.6112 11 21 18.6112 21 28V28C21 37.3888 28.6112 45 38 45V45C47.3888 45 55 37.3888 55 28V28Z" fill="url(#paint0_radial)"/>
<path d="M55 28C55 18.6112 47.3888 11 38 11V11C28.6112 11 21 18.6112 21 28V28C21 37.3888 28.6112 45 38 45V45C47.3888 45 55 37.3888 55 28V28Z" fill="#1FAEF7"/>
<path d="M46 23L35 34L30 29" stroke="#016A9E" stroke-width="3.3" stroke-linecap="round" stroke-linejoin="round"/>
<defs>
<radialGradient id="paint0_radial" cx="0" cy="0" r="1" gradientUnits="userSpaceOnUse" gradientTransform="translate(77.037 28) rotate(90) scale(17)">
<stop stop-color="#C4C4C4"/>
<stop offset="1" stop-color="#C4C4C4" stop-opacity="0"/>
</radialGradient>
</defs>
</svg>
