<svg width="204" height="117" viewBox="0 0 204 117" fill="none" xmlns="http://www.w3.org/2000/svg">
<g filter="url(#filter0_d)">
<rect x="24" y="24" width="156" height="69" rx="20" fill="#333333"/>
</g>
<path d="M111.027 63.3828C110.552 63.9512 109.881 64.3936 109.014 64.71C108.147 65.0205 107.186 65.1758 106.131 65.1758C105.024 65.1758 104.051 64.9355 103.213 64.4551C102.381 63.9688 101.737 63.2656 101.28 62.3457C100.829 61.4258 100.597 60.3447 100.585 59.1025V58.2324C100.585 56.9551 100.799 55.8506 101.227 54.9189C101.661 53.9814 102.282 53.2666 103.09 52.7744C103.905 52.2764 104.857 52.0273 105.947 52.0273C107.464 52.0273 108.651 52.3906 109.506 53.1172C110.362 53.8379 110.869 54.8896 111.027 56.2725H108.46C108.343 55.54 108.082 55.0039 107.678 54.6641C107.28 54.3242 106.729 54.1543 106.026 54.1543C105.129 54.1543 104.447 54.4912 103.978 55.165C103.509 55.8389 103.272 56.8408 103.266 58.1709V58.9883C103.266 60.3301 103.521 61.3438 104.031 62.0293C104.54 62.7148 105.288 63.0576 106.272 63.0576C107.262 63.0576 107.968 62.8467 108.39 62.4248V60.2188H105.991V58.2764H111.027V63.3828ZM113.329 60.1572C113.329 59.2139 113.51 58.373 113.874 57.6348C114.237 56.8965 114.759 56.3252 115.438 55.9209C116.124 55.5166 116.918 55.3145 117.82 55.3145C119.103 55.3145 120.149 55.707 120.958 56.4922C121.772 57.2773 122.226 58.3438 122.32 59.6914L122.338 60.3418C122.338 61.8008 121.93 62.9727 121.116 63.8574C120.301 64.7363 119.209 65.1758 117.838 65.1758C116.467 65.1758 115.371 64.7363 114.551 63.8574C113.736 62.9785 113.329 61.7832 113.329 60.2715V60.1572ZM115.869 60.3418C115.869 61.2441 116.039 61.9355 116.379 62.416C116.718 62.8906 117.205 63.1279 117.838 63.1279C118.453 63.1279 118.933 62.8936 119.279 62.4248C119.625 61.9502 119.798 61.1943 119.798 60.1572C119.798 59.2725 119.625 58.5869 119.279 58.1006C118.933 57.6143 118.447 57.3711 117.82 57.3711C117.199 57.3711 116.718 57.6143 116.379 58.1006C116.039 58.5811 115.869 59.3281 115.869 60.3418ZM127.303 65H124.754V55.4902H127.303V65ZM124.604 53.0293C124.604 52.6484 124.73 52.335 124.982 52.0889C125.24 51.8428 125.589 51.7197 126.028 51.7197C126.462 51.7197 126.808 51.8428 127.065 52.0889C127.323 52.335 127.452 52.6484 127.452 53.0293C127.452 53.416 127.32 53.7324 127.057 53.9785C126.799 54.2246 126.456 54.3477 126.028 54.3477C125.601 54.3477 125.255 54.2246 124.991 53.9785C124.733 53.7324 124.604 53.416 124.604 53.0293ZM132.461 55.4902L132.54 56.5889C133.22 55.7393 134.131 55.3145 135.274 55.3145C136.282 55.3145 137.032 55.6104 137.524 56.2021C138.016 56.7939 138.268 57.6787 138.28 58.8564V65H135.74V58.918C135.74 58.3789 135.622 57.9893 135.388 57.749C135.154 57.5029 134.764 57.3799 134.219 57.3799C133.504 57.3799 132.968 57.6846 132.611 58.2939V65H130.071V55.4902H132.461ZM140.564 60.1748C140.564 58.7158 140.91 57.541 141.601 56.6504C142.298 55.7598 143.236 55.3145 144.414 55.3145C145.457 55.3145 146.268 55.6719 146.848 56.3867L146.954 55.4902H149.256V64.6836C149.256 65.5156 149.066 66.2393 148.685 66.8545C148.31 67.4697 147.78 67.9385 147.094 68.2607C146.409 68.583 145.606 68.7441 144.686 68.7441C143.989 68.7441 143.309 68.6035 142.647 68.3223C141.985 68.0469 141.484 67.6895 141.144 67.25L142.269 65.7031C142.902 66.4121 143.669 66.7666 144.572 66.7666C145.246 66.7666 145.77 66.585 146.145 66.2217C146.52 65.8643 146.708 65.3545 146.708 64.6924V64.1826C146.122 64.8447 145.351 65.1758 144.396 65.1758C143.253 65.1758 142.328 64.7305 141.619 63.8398C140.916 62.9434 140.564 61.7568 140.564 60.2803V60.1748ZM143.104 60.3594C143.104 61.2207 143.277 61.8975 143.623 62.3896C143.968 62.876 144.443 63.1191 145.046 63.1191C145.82 63.1191 146.374 62.8291 146.708 62.249V58.25C146.368 57.6699 145.82 57.3799 145.064 57.3799C144.455 57.3799 143.974 57.6289 143.623 58.127C143.277 58.625 143.104 59.3691 143.104 60.3594Z" fill="white"/>
<path d="M76 58C76 48.6112 68.3888 41 59 41V41C49.6112 41 42 48.6112 42 58V58C42 67.3888 49.6112 75 59 75V75C68.3888 75 76 67.3888 76 58V58Z" fill="url(#paint0_radial)"/>
<path d="M76 58C76 48.6112 68.3888 41 59 41V41C49.6112 41 42 48.6112 42 58V58C42 67.3888 49.6112 75 59 75V75C68.3888 75 76 67.3888 76 58V58Z" fill="#1FAEF7"/>
<path d="M67 53L56 64L51 59" stroke="white" stroke-width="3.3" stroke-linecap="round" stroke-linejoin="round"/>
<defs>
<filter id="filter0_d" x="0" y="0" width="204" height="117" filterUnits="userSpaceOnUse" color-interpolation-filters="sRGB">
<feFlood flood-opacity="0" result="BackgroundImageFix"/>
<feColorMatrix in="SourceAlpha" type="matrix" values="0 0 0 0 0 0 0 0 0 0 0 0 0 0 0 0 0 0 127 0"/>
<feOffset/>
<feGaussianBlur stdDeviation="12"/>
<feColorMatrix type="matrix" values="0 0 0 0 0 0 0 0 0 0 0 0 0 0 0 0 0 0 0.5 0"/>
<feBlend mode="normal" in2="BackgroundImageFix" result="effect1_dropShadow"/>
<feBlend mode="normal" in="SourceGraphic" in2="effect1_dropShadow" result="shape"/>
</filter>
<radialGradient id="paint0_radial" cx="0" cy="0" r="1" gradientUnits="userSpaceOnUse" gradientTransform="translate(98.037 58) rotate(90) scale(17)">
<stop stop-color="#C4C4C4"/>
<stop offset="1" stop-color="#C4C4C4" stop-opacity="0"/>
</radialGradient>
</defs>
</svg>
