<svg width="75" height="75" viewBox="0 0 75 75" fill="none" xmlns="http://www.w3.org/2000/svg">
<rect width="75" height="75" rx="20" fill="#1FAEF7"/>
<path d="M28.9292 59.8003C28.5949 60.2362 28.1315 60.5662 27.5391 60.7905C26.9466 61.0148 26.2738 61.127 25.5205 61.127C24.7461 61.127 24.0605 60.9513 23.4639 60.6001C22.8672 60.2489 22.4059 59.7474 22.0801 59.0957C21.7585 58.4398 21.5913 57.6759 21.5786 56.8042V56.0806C21.5786 54.6841 21.9129 53.5944 22.5815 52.8115C23.2502 52.0244 24.1833 51.6309 25.3809 51.6309C26.4092 51.6309 27.2259 51.8848 27.8311 52.3926C28.4362 52.9004 28.8001 53.6325 28.9229 54.5889H27.3486C27.1709 53.4759 26.5256 52.9194 25.4126 52.9194C24.6932 52.9194 24.1452 53.1797 23.7686 53.7002C23.3962 54.2165 23.2036 54.9761 23.1909 55.979V56.6899C23.1909 57.6886 23.4004 58.4652 23.8193 59.0195C24.2425 59.5697 24.8286 59.8447 25.5776 59.8447C26.3986 59.8447 26.9826 59.6585 27.3296 59.2861V57.4771H25.4253V56.2583H28.9292V59.8003ZM30.2559 57.5024C30.2559 56.8296 30.3892 56.2244 30.6558 55.687C30.9224 55.1453 31.2969 54.7306 31.7793 54.4429C32.2617 54.1509 32.8161 54.0049 33.4424 54.0049C34.3691 54.0049 35.1203 54.3032 35.6958 54.8999C36.2756 55.4966 36.5887 56.2879 36.6353 57.2739L36.6416 57.6357C36.6416 58.3128 36.5104 58.918 36.248 59.4512C35.9899 59.9844 35.6175 60.397 35.1309 60.689C34.6484 60.981 34.0898 61.127 33.4551 61.127C32.486 61.127 31.7095 60.8053 31.1255 60.1621C30.5457 59.5146 30.2559 58.6535 30.2559 57.5786V57.5024ZM31.7983 57.6357C31.7983 58.3424 31.9443 58.8968 32.2363 59.2988C32.5283 59.6966 32.9346 59.8955 33.4551 59.8955C33.9756 59.8955 34.3797 59.6924 34.6675 59.2861C34.9595 58.8799 35.1055 58.2853 35.1055 57.5024C35.1055 56.8084 34.9552 56.2583 34.6548 55.8521C34.3586 55.4458 33.9544 55.2427 33.4424 55.2427C32.9388 55.2427 32.5389 55.4437 32.2427 55.8457C31.9465 56.2435 31.7983 56.8402 31.7983 57.6357ZM39.5869 61H38.0444V54.1318H39.5869V61ZM37.9492 52.3481C37.9492 52.1112 38.0233 51.9144 38.1714 51.7578C38.3237 51.6012 38.5396 51.5229 38.8188 51.5229C39.0981 51.5229 39.314 51.6012 39.4663 51.7578C39.6187 51.9144 39.6948 52.1112 39.6948 52.3481C39.6948 52.5809 39.6187 52.7756 39.4663 52.9321C39.314 53.0845 39.0981 53.1606 38.8188 53.1606C38.5396 53.1606 38.3237 53.0845 38.1714 52.9321C38.0233 52.7756 37.9492 52.5809 37.9492 52.3481ZM42.7036 54.1318L42.748 54.9253C43.2559 54.3117 43.9224 54.0049 44.7476 54.0049C46.1779 54.0049 46.9058 54.8237 46.9312 56.4614V61H45.3887V56.5503C45.3887 56.1144 45.2935 55.7928 45.103 55.5854C44.9168 55.3739 44.61 55.2681 44.1826 55.2681C43.5605 55.2681 43.0972 55.5495 42.7925 56.1123V61H41.25V54.1318H42.7036ZM48.2388 57.5151C48.2388 56.4487 48.4884 55.5981 48.9878 54.9634C49.4914 54.3244 50.1579 54.0049 50.9873 54.0049C51.7702 54.0049 52.3859 54.2778 52.8345 54.8237L52.9043 54.1318H54.2944V60.7905C54.2944 61.6919 54.013 62.4028 53.4502 62.9233C52.8916 63.4438 52.1362 63.7041 51.1841 63.7041C50.6805 63.7041 50.1875 63.5983 49.7051 63.3867C49.2269 63.1794 48.863 62.9064 48.6133 62.5679L49.3433 61.6411C49.8172 62.2039 50.4012 62.4854 51.0952 62.4854C51.6073 62.4854 52.0114 62.3457 52.3076 62.0664C52.6038 61.7913 52.752 61.3851 52.752 60.8477V60.3843C52.3076 60.8794 51.7152 61.127 50.9746 61.127C50.1706 61.127 49.5125 60.8075 49.0005 60.1685C48.4927 59.5295 48.2388 58.645 48.2388 57.5151ZM49.7749 57.6484C49.7749 58.3382 49.9146 58.882 50.1938 59.2798C50.4774 59.6733 50.8688 59.8701 51.3682 59.8701C51.9902 59.8701 52.4515 59.6035 52.752 59.0703V56.0488C52.46 55.5283 52.0029 55.2681 51.3809 55.2681C50.873 55.2681 50.4774 55.4691 50.1938 55.8711C49.9146 56.2731 49.7749 56.8656 49.7749 57.6484Z" fill="white"/>
<path d="M55 28C55 18.6112 47.3888 11 38 11V11C28.6112 11 21 18.6112 21 28V28C21 37.3888 28.6112 45 38 45V45C47.3888 45 55 37.3888 55 28V28Z" fill="url(#paint0_radial)"/>
<path d="M55 28C55 18.6112 47.3888 11 38 11V11C28.6112 11 21 18.6112 21 28V28C21 37.3888 28.6112 45 38 45V45C47.3888 45 55 37.3888 55 28V28Z" fill="#1FAEF7"/>
<path d="M46 23L35 34L30 29" stroke="white" stroke-width="3.3" stroke-linecap="round" stroke-linejoin="round"/>
<defs>
<radialGradient id="paint0_radial" cx="0" cy="0" r="1" gradientUnits="userSpaceOnUse" gradientTransform="translate(77.037 28) rotate(90) scale(17)">
<stop stop-color="#C4C4C4"/>
<stop offset="1" stop-color="#C4C4C4" stop-opacity="0"/>
</radialGradient>
</defs>
</svg>
