<svg width="122" height="83" viewBox="0 0 122 83" fill="none" xmlns="http://www.w3.org/2000/svg">
<rect y="13" width="122" height="70" rx="20" fill="#242424"/>
<path d="M24.4527 71H22.607V66.2612H17.839V71H15.9859V60.3359H17.839V64.7744H22.607V60.3359H24.4527V71ZM28.8212 71H27.0414V63.0752H28.8212V71ZM26.9315 61.0171C26.9315 60.7437 27.017 60.5166 27.1879 60.3359C27.3637 60.1553 27.6127 60.0649 27.935 60.0649C28.2572 60.0649 28.5063 60.1553 28.682 60.3359C28.8578 60.5166 28.9457 60.7437 28.9457 61.0171C28.9457 61.2856 28.8578 61.5103 28.682 61.6909C28.5063 61.8667 28.2572 61.9546 27.935 61.9546C27.6127 61.9546 27.3637 61.8667 27.1879 61.6909C27.017 61.5103 26.9315 61.2856 26.9315 61.0171ZM35.3649 64.7012C35.1306 64.6621 34.8889 64.6426 34.6398 64.6426C33.8244 64.6426 33.2751 64.9551 32.9919 65.5801V71H31.2121V63.0752H32.9113L32.9553 63.9614C33.385 63.2729 33.9807 62.9287 34.7424 62.9287C34.9963 62.9287 35.2063 62.9629 35.3723 63.0312L35.3649 64.7012ZM40.2827 71.1465C39.1548 71.1465 38.2393 70.7925 37.5361 70.0845C36.8379 69.3716 36.4888 68.4243 36.4888 67.2427V67.0229C36.4888 66.2319 36.6401 65.5264 36.9429 64.9062C37.2505 64.2812 37.6802 63.7954 38.2319 63.4487C38.7837 63.1021 39.3989 62.9287 40.0776 62.9287C41.1567 62.9287 41.9893 63.2729 42.5752 63.9614C43.166 64.6499 43.4614 65.624 43.4614 66.8838V67.6016H38.2832C38.3369 68.2559 38.5542 68.7734 38.9351 69.1543C39.3208 69.5352 39.8042 69.7256 40.3853 69.7256C41.2007 69.7256 41.8647 69.396 42.3774 68.7368L43.3369 69.6523C43.0195 70.126 42.5947 70.4946 42.0625 70.7583C41.5352 71.0171 40.9419 71.1465 40.2827 71.1465ZM40.0703 64.3569C39.582 64.3569 39.1865 64.5278 38.8838 64.8696C38.5859 65.2114 38.3955 65.6875 38.3125 66.2979H41.7036V66.166C41.6646 65.5703 41.5059 65.1211 41.2275 64.8184C40.9492 64.5107 40.5635 64.3569 40.0703 64.3569ZM53.4142 68.6782L56.1241 60.3359H58.1603L54.3224 71H52.5279L48.7047 60.3359H50.7335L53.4142 68.6782ZM62.8144 71.1465C61.6864 71.1465 60.7709 70.7925 60.0678 70.0845C59.3695 69.3716 59.0204 68.4243 59.0204 67.2427V67.0229C59.0204 66.2319 59.1718 65.5264 59.4745 64.9062C59.7821 64.2812 60.2118 63.7954 60.7636 63.4487C61.3153 63.1021 61.9306 62.9287 62.6093 62.9287C63.6884 62.9287 64.5209 63.2729 65.1068 63.9614C65.6977 64.6499 65.9931 65.624 65.9931 66.8838V67.6016H60.8148C60.8686 68.2559 61.0858 68.7734 61.4667 69.1543C61.8524 69.5352 62.3358 69.7256 62.9169 69.7256C63.7323 69.7256 64.3964 69.396 64.9091 68.7368L65.8686 69.6523C65.5512 70.126 65.1264 70.4946 64.5941 70.7583C64.0668 71.0171 63.4735 71.1465 62.8144 71.1465ZM62.602 64.3569C62.1137 64.3569 61.7182 64.5278 61.4154 64.8696C61.1176 65.2114 60.9272 65.6875 60.8441 66.2979H64.2353V66.166C64.1962 65.5703 64.0375 65.1211 63.7592 64.8184C63.4809 64.5107 63.0951 64.3569 62.602 64.3569ZM69.4826 63.0752L69.5339 63.9907C70.1198 63.2827 70.8889 62.9287 71.841 62.9287C73.4914 62.9287 74.3313 63.8735 74.3605 65.7632V71H72.5808V65.8657C72.5808 65.3628 72.4709 64.9917 72.2512 64.7524C72.0363 64.5083 71.6823 64.3862 71.1892 64.3862C70.4714 64.3862 69.9367 64.7109 69.5852 65.3604V71H67.8054V63.0752H69.4826ZM76.2974 66.979C76.2974 65.7583 76.5806 64.7793 77.147 64.042C77.7134 63.2998 78.4727 62.9287 79.4248 62.9287C80.2646 62.9287 80.9434 63.2217 81.4609 63.8076V59.75H83.2407V71H81.6294L81.5415 70.1797C81.0093 70.8242 80.2988 71.1465 79.4102 71.1465C78.4824 71.1465 77.7305 70.7729 77.1543 70.0259C76.583 69.2788 76.2974 68.2632 76.2974 66.979ZM78.0771 67.1328C78.0771 67.9385 78.231 68.5684 78.5386 69.0225C78.8511 69.4717 79.293 69.6963 79.8643 69.6963C80.5918 69.6963 81.124 69.3716 81.4609 68.7222V65.3384C81.1338 64.7036 80.6064 64.3862 79.8789 64.3862C79.3027 64.3862 78.8584 64.6157 78.5459 65.0747C78.2334 65.5288 78.0771 66.2148 78.0771 67.1328ZM85.2142 66.9644C85.2142 66.188 85.368 65.4897 85.6756 64.8696C85.9832 64.2446 86.4153 63.7661 86.972 63.4341C87.5286 63.0972 88.1683 62.9287 88.8909 62.9287C89.9603 62.9287 90.827 63.2729 91.491 63.9614C92.16 64.6499 92.5213 65.563 92.575 66.7007L92.5823 67.1182C92.5823 67.8994 92.431 68.5977 92.1282 69.2129C91.8304 69.8281 91.4007 70.3042 90.8392 70.6411C90.2825 70.978 89.638 71.1465 88.9056 71.1465C87.7874 71.1465 86.8914 70.7754 86.2176 70.0332C85.5486 69.2861 85.2142 68.2925 85.2142 67.0522V66.9644ZM86.9939 67.1182C86.9939 67.9336 87.1624 68.5732 87.4993 69.0371C87.8362 69.4961 88.305 69.7256 88.9056 69.7256C89.5062 69.7256 89.9725 69.4912 90.3045 69.0225C90.6414 68.5537 90.8099 67.8677 90.8099 66.9644C90.8099 66.1636 90.6365 65.5288 90.2898 65.0601C89.9481 64.5913 89.4817 64.3569 88.8909 64.3569C88.3099 64.3569 87.8484 64.5889 87.5066 65.0527C87.1648 65.5117 86.9939 66.2002 86.9939 67.1182ZM98.6866 64.7012C98.4522 64.6621 98.2105 64.6426 97.9615 64.6426C97.1461 64.6426 96.5968 64.9551 96.3136 65.5801V71H94.5338V63.0752H96.233L96.277 63.9614C96.7066 63.2729 97.3023 62.9287 98.0641 62.9287C98.318 62.9287 98.5279 62.9629 98.6939 63.0312L98.6866 64.7012ZM104.703 68.8467C104.703 68.5293 104.571 68.2876 104.308 68.1216C104.049 67.9556 103.617 67.8091 103.011 67.6821C102.406 67.5552 101.9 67.394 101.495 67.1987C100.606 66.769 100.162 66.1465 100.162 65.3311C100.162 64.6475 100.45 64.0762 101.026 63.6172C101.602 63.1582 102.335 62.9287 103.224 62.9287C104.171 62.9287 104.935 63.1631 105.516 63.6318C106.102 64.1006 106.395 64.7085 106.395 65.4556H104.615C104.615 65.1138 104.488 64.8306 104.234 64.606C103.98 64.3765 103.643 64.2617 103.224 64.2617C102.833 64.2617 102.513 64.3521 102.264 64.5327C102.02 64.7134 101.898 64.9551 101.898 65.2578C101.898 65.5312 102.013 65.7437 102.242 65.895C102.472 66.0464 102.935 66.2002 103.634 66.3564C104.332 66.5078 104.879 66.6909 105.274 66.9058C105.675 67.1157 105.97 67.3696 106.161 67.6675C106.356 67.9653 106.454 68.3267 106.454 68.7515C106.454 69.4644 106.158 70.043 105.567 70.4873C104.976 70.9268 104.203 71.1465 103.246 71.1465C102.596 71.1465 102.017 71.0293 101.51 70.7949C101.002 70.5605 100.606 70.2383 100.323 69.8281C100.04 69.418 99.8983 68.9761 99.8983 68.5024H101.627C101.651 68.9224 101.81 69.2471 102.103 69.4766C102.396 69.7012 102.784 69.8135 103.267 69.8135C103.736 69.8135 104.093 69.7256 104.337 69.5498C104.581 69.3691 104.703 69.1348 104.703 68.8467Z" fill="white"/>
<g filter="url(#filter0_d)">
<path d="M58.8855 25.208C59.6845 24.1153 61.3155 24.1153 62.1145 25.208L66.1334 30.7046C66.3803 31.0422 66.7268 31.2939 67.1241 31.4244L73.5936 33.5481C74.8797 33.9703 75.3837 35.5215 74.5914 36.619L70.6058 42.1398C70.361 42.4789 70.2286 42.8862 70.2274 43.3044L70.2067 50.1135C70.2026 51.4671 68.8831 52.4258 67.5945 52.0114L61.1123 49.9269C60.7141 49.7989 60.2859 49.7989 59.8877 49.9269L53.4055 52.0114C52.1169 52.4258 50.7974 51.4671 50.7933 50.1135L50.7726 43.3044C50.7714 42.8862 50.639 42.4789 50.3942 42.1398L46.4086 36.619C45.6163 35.5215 46.1203 33.9703 47.4064 33.5481L53.8759 31.4244C54.2732 31.2939 54.6197 31.0422 54.8666 30.7046L58.8855 25.208Z" fill="white"/>
</g>
<path d="M54.2752 41.439C53.8711 40.1507 54.8333 38.8403 56.1835 38.8403H64.8164C66.1666 38.8403 67.1289 40.1507 66.7247 41.439L65.0808 46.679C64.8192 47.5129 64.0464 48.0803 63.1725 48.0803H57.8274C56.9535 48.0803 56.1808 47.5129 55.9192 46.679L54.2752 41.439Z" fill="#242424"/>
<ellipse cx="60.4996" cy="34" rx="3.52008" ry="3.52" fill="#242424"/>
<defs>
<filter id="filter0_d" x="22.0293" y="0.388672" width="76.9416" height="75.7204" filterUnits="userSpaceOnUse" color-interpolation-filters="sRGB">
<feFlood flood-opacity="0" result="BackgroundImageFix"/>
<feColorMatrix in="SourceAlpha" type="matrix" values="0 0 0 0 0 0 0 0 0 0 0 0 0 0 0 0 0 0 127 0"/>
<feOffset/>
<feGaussianBlur stdDeviation="12"/>
<feColorMatrix type="matrix" values="0 0 0 0 0 0 0 0 0 0 0 0 0 0 0 0 0 0 0.25 0"/>
<feBlend mode="normal" in2="BackgroundImageFix" result="effect1_dropShadow"/>
<feBlend mode="normal" in="SourceGraphic" in2="effect1_dropShadow" result="shape"/>
</filter>
</defs>
</svg>
