<svg width="153" height="117" viewBox="0 0 153 117" fill="none" xmlns="http://www.w3.org/2000/svg">
<g filter="url(#filter0_d)">
<rect x="24" y="24" width="105" height="69" rx="20" fill="#212121"/>
</g>
<path d="M50.5303 84H49.7495V74.7578H50.5303V84ZM53.5898 77.1318L53.6152 78.3062C53.8734 77.883 54.195 77.5614 54.5801 77.3413C54.9652 77.117 55.3905 77.0049 55.856 77.0049C56.5923 77.0049 57.1403 77.2122 57.5 77.627C57.8597 78.0417 58.0417 78.6637 58.0459 79.4932V84H57.2905V79.4868C57.2863 78.8732 57.1551 78.4162 56.897 78.1157C56.6431 77.8153 56.2347 77.665 55.6719 77.665C55.2021 77.665 54.7853 77.8132 54.4214 78.1094C54.0617 78.4014 53.7951 78.797 53.6216 79.2964V84H52.8662V77.1318H53.5898ZM61.1943 75.3735V77.1318H62.6162V77.7539H61.1943V82.3306C61.1943 82.7114 61.262 82.995 61.3975 83.1812C61.5371 83.3674 61.7677 83.4604 62.0894 83.4604C62.2163 83.4604 62.4215 83.4393 62.7051 83.397L62.7368 84.019C62.5379 84.091 62.2671 84.127 61.9243 84.127C61.4038 84.127 61.0251 83.9767 60.7881 83.6763C60.5511 83.3716 60.4326 82.9251 60.4326 82.3369V77.7539H59.1694V77.1318H60.4326V75.3735H61.1943ZM66.8501 84.127C66.2661 84.127 65.7371 83.9831 65.2632 83.6953C64.7935 83.4076 64.4274 83.0076 64.165 82.4956C63.9027 81.9793 63.7715 81.4017 63.7715 80.7627V80.4897C63.7715 79.8296 63.8984 79.235 64.1523 78.7061C64.4105 78.1771 64.7681 77.7624 65.2251 77.4619C65.6821 77.1572 66.1772 77.0049 66.7104 77.0049C67.5441 77.0049 68.2043 77.2905 68.6909 77.8618C69.1818 78.4289 69.4272 79.2054 69.4272 80.1914V80.6167H64.5269V80.7627C64.5269 81.5413 64.749 82.1909 65.1934 82.7114C65.6419 83.2277 66.2048 83.4858 66.8818 83.4858C67.2881 83.4858 67.6457 83.4118 67.9546 83.2637C68.2677 83.1156 68.5513 82.8786 68.8052 82.5527L69.2812 82.9146C68.7227 83.7228 67.9123 84.127 66.8501 84.127ZM66.7104 77.6523C66.1392 77.6523 65.6567 77.8618 65.2632 78.2808C64.8739 78.6997 64.6369 79.2625 64.5522 79.9692H68.6719V79.8867C68.6507 79.2266 68.4624 78.6891 68.1069 78.2744C67.7515 77.8597 67.286 77.6523 66.7104 77.6523ZM74.0801 77.7793C73.9193 77.7497 73.7479 77.7349 73.5659 77.7349C73.092 77.7349 72.6899 77.8682 72.3599 78.1348C72.034 78.3971 71.8013 78.7801 71.6616 79.2837V84H70.9062V77.1318H71.6489L71.6616 78.2236C72.0636 77.4111 72.709 77.0049 73.5977 77.0049C73.8092 77.0049 73.9764 77.0324 74.0991 77.0874L74.0801 77.7793ZM77.8188 84.127C77.2349 84.127 76.7059 83.9831 76.2319 83.6953C75.7622 83.4076 75.3962 83.0076 75.1338 82.4956C74.8714 81.9793 74.7402 81.4017 74.7402 80.7627V80.4897C74.7402 79.8296 74.8672 79.235 75.1211 78.7061C75.3792 78.1771 75.7368 77.7624 76.1938 77.4619C76.6509 77.1572 77.146 77.0049 77.6792 77.0049C78.5129 77.0049 79.173 77.2905 79.6597 77.8618C80.1506 78.4289 80.396 79.2054 80.396 80.1914V80.6167H75.4956V80.7627C75.4956 81.5413 75.7178 82.1909 76.1621 82.7114C76.6107 83.2277 77.1735 83.4858 77.8506 83.4858C78.2568 83.4858 78.6144 83.4118 78.9233 83.2637C79.2365 83.1156 79.52 82.8786 79.7739 82.5527L80.25 82.9146C79.6914 83.7228 78.881 84.127 77.8188 84.127ZM77.6792 77.6523C77.1079 77.6523 76.6255 77.8618 76.2319 78.2808C75.8426 78.6997 75.6056 79.2625 75.521 79.9692H79.6406V79.8867C79.6195 79.2266 79.4312 78.6891 79.0757 78.2744C78.7202 77.8597 78.2547 77.6523 77.6792 77.6523ZM85.9883 82.2544C85.9883 81.8778 85.8359 81.5752 85.5312 81.3467C85.2308 81.1182 84.7759 80.9404 84.1665 80.8135C83.5571 80.6823 83.0832 80.5342 82.7446 80.3691C82.4103 80.1999 82.1606 79.9946 81.9956 79.7534C81.8348 79.5122 81.7544 79.2202 81.7544 78.8774C81.7544 78.3358 81.9808 77.8893 82.4336 77.5381C82.8864 77.1826 83.4661 77.0049 84.1729 77.0049C84.9388 77.0049 85.5524 77.1953 86.0137 77.5762C86.4792 77.9528 86.7119 78.4458 86.7119 79.0552H85.9502C85.9502 78.6532 85.7809 78.3188 85.4424 78.0522C85.1081 77.7856 84.6849 77.6523 84.1729 77.6523C83.6735 77.6523 83.2715 77.7645 82.9668 77.9888C82.6663 78.2088 82.5161 78.4966 82.5161 78.8521C82.5161 79.1948 82.641 79.4614 82.8906 79.6519C83.1445 79.8381 83.6037 80.0094 84.2681 80.166C84.9367 80.3226 85.436 80.4897 85.7661 80.6675C86.1004 80.8452 86.348 81.0589 86.5088 81.3086C86.6696 81.5583 86.75 81.8608 86.75 82.2163C86.75 82.7961 86.5151 83.2594 86.0454 83.6064C85.5799 83.9535 84.9705 84.127 84.2173 84.127C83.4175 84.127 82.7679 83.9344 82.2686 83.5493C81.7734 83.16 81.5259 82.6691 81.5259 82.0767H82.2876C82.3172 82.521 82.5034 82.868 82.8462 83.1177C83.1932 83.3631 83.6502 83.4858 84.2173 83.4858C84.7463 83.4858 85.1737 83.3695 85.4995 83.1367C85.8254 82.904 85.9883 82.6099 85.9883 82.2544ZM89.6445 75.3735V77.1318H91.0664V77.7539H89.6445V82.3306C89.6445 82.7114 89.7122 82.995 89.8477 83.1812C89.9873 83.3674 90.2179 83.4604 90.5396 83.4604C90.6665 83.4604 90.8717 83.4393 91.1553 83.397L91.187 84.019C90.9881 84.091 90.7173 84.127 90.3745 84.127C89.854 84.127 89.4753 83.9767 89.2383 83.6763C89.0013 83.3716 88.8828 82.9251 88.8828 82.3369V77.7539H87.6196V77.1318H88.8828V75.3735H89.6445ZM95.3003 84.127C94.7163 84.127 94.1873 83.9831 93.7134 83.6953C93.2437 83.4076 92.8776 83.0076 92.6152 82.4956C92.3529 81.9793 92.2217 81.4017 92.2217 80.7627V80.4897C92.2217 79.8296 92.3486 79.235 92.6025 78.7061C92.8607 78.1771 93.2183 77.7624 93.6753 77.4619C94.1323 77.1572 94.6274 77.0049 95.1606 77.0049C95.9943 77.0049 96.6545 77.2905 97.1411 77.8618C97.632 78.4289 97.8774 79.2054 97.8774 80.1914V80.6167H92.9771V80.7627C92.9771 81.5413 93.1992 82.1909 93.6436 82.7114C94.0921 83.2277 94.6549 83.4858 95.332 83.4858C95.7383 83.4858 96.0959 83.4118 96.4048 83.2637C96.7179 83.1156 97.0015 82.8786 97.2554 82.5527L97.7314 82.9146C97.1729 83.7228 96.3625 84.127 95.3003 84.127ZM95.1606 77.6523C94.5894 77.6523 94.1069 77.8618 93.7134 78.2808C93.3241 78.6997 93.0871 79.2625 93.0024 79.9692H97.1221V79.8867C97.1009 79.2266 96.9126 78.6891 96.5571 78.2744C96.2017 77.8597 95.7362 77.6523 95.1606 77.6523ZM99.0518 80.5024C99.0518 79.436 99.2887 78.5876 99.7627 77.957C100.241 77.3223 100.888 77.0049 101.705 77.0049C102.632 77.0049 103.339 77.3709 103.825 78.103V74.25H104.581V84H103.87L103.838 83.0859C103.351 83.7799 102.636 84.127 101.692 84.127C100.901 84.127 100.262 83.8096 99.7754 83.1748C99.293 82.5358 99.0518 81.6746 99.0518 80.5913V80.5024ZM99.8198 80.6357C99.8198 81.5117 99.9954 82.2036 100.347 82.7114C100.698 83.215 101.193 83.4668 101.832 83.4668C102.767 83.4668 103.432 83.0542 103.825 82.229V79.0044C103.432 78.1115 102.771 77.665 101.845 77.665C101.206 77.665 100.708 77.9168 100.353 78.4204C99.9976 78.9198 99.8198 79.6582 99.8198 80.6357Z" fill="white"/>
<rect x="60" y="35" width="33" height="33" rx="16.5" fill="#1FAEF7"/>
<g filter="url(#filter1_d)">
<path d="M75.6379 42.953C76.174 41.7907 77.826 41.7907 78.3621 42.953L80.034 46.5776C80.2525 47.0513 80.7014 47.3775 81.2194 47.4389L85.1833 47.9089C86.4544 48.0596 86.9649 49.6307 86.0251 50.4997L83.0945 53.2099C82.7115 53.5641 82.5401 54.0918 82.6417 54.6035L83.4196 58.5186C83.6691 59.774 82.3327 60.745 81.2157 60.1198L77.7327 58.1701C77.2775 57.9153 76.7225 57.9153 76.2673 58.1701L72.7843 60.1198C71.6673 60.745 70.3309 59.774 70.5804 58.5186L71.3583 54.6035C71.4599 54.0918 71.2885 53.5641 70.9055 53.2099L67.9749 50.4997C67.0351 49.6307 67.5456 48.0596 68.8167 47.9089L72.7806 47.4389C73.2986 47.3775 73.7475 47.0513 73.966 46.5776L75.6379 42.953Z" fill="#016A9E"/>
</g>
<defs>
<filter id="filter0_d" x="0" y="0" width="153" height="117" filterUnits="userSpaceOnUse" color-interpolation-filters="sRGB">
<feFlood flood-opacity="0" result="BackgroundImageFix"/>
<feColorMatrix in="SourceAlpha" type="matrix" values="0 0 0 0 0 0 0 0 0 0 0 0 0 0 0 0 0 0 127 0"/>
<feOffset/>
<feGaussianBlur stdDeviation="12"/>
<feColorMatrix type="matrix" values="0 0 0 0 0 0 0 0 0 0 0 0 0 0 0 0 0 0 0.5 0"/>
<feBlend mode="normal" in2="BackgroundImageFix" result="effect1_dropShadow"/>
<feBlend mode="normal" in="SourceGraphic" in2="effect1_dropShadow" result="shape"/>
</filter>
<filter id="filter1_d" x="43.4912" y="18.0811" width="67.017" height="66.2335" filterUnits="userSpaceOnUse" color-interpolation-filters="sRGB">
<feFlood flood-opacity="0" result="BackgroundImageFix"/>
<feColorMatrix in="SourceAlpha" type="matrix" values="0 0 0 0 0 0 0 0 0 0 0 0 0 0 0 0 0 0 127 0"/>
<feOffset/>
<feGaussianBlur stdDeviation="12"/>
<feColorMatrix type="matrix" values="0 0 0 0 0 0 0 0 0 0 0 0 0 0 0 0 0 0 0.25 0"/>
<feBlend mode="normal" in2="BackgroundImageFix" result="effect1_dropShadow"/>
<feBlend mode="normal" in="SourceGraphic" in2="effect1_dropShadow" result="shape"/>
</filter>
</defs>
</svg>
