<svg width="75" height="75" viewBox="0 0 75 75" fill="none" xmlns="http://www.w3.org/2000/svg">
<g clip-path="url(#clip0)">
<rect width="75" height="75" rx="20" fill="#212121"/>
<rect x="21" y="11" width="34" height="34" rx="17" fill="#1FAEF7"/>
<g filter="url(#filter0_d)">
<path d="M36.6379 18.953C37.174 17.7907 38.826 17.7907 39.3621 18.953L41.034 22.5776C41.2525 23.0513 41.7014 23.3775 42.2194 23.4389L46.1833 23.9089C47.4544 24.0596 47.9649 25.6307 47.0251 26.4997L44.0945 29.2099C43.7115 29.5641 43.5401 30.0918 43.6417 30.6035L44.4196 34.5186C44.6691 35.774 43.3327 36.745 42.2157 36.1198L38.7327 34.1701C38.2775 33.9153 37.7225 33.9153 37.2673 34.1701L33.7843 36.1198C32.6673 36.745 31.3309 35.774 31.5804 34.5186L32.3583 30.6035C32.4599 30.0918 32.2885 29.5641 31.9055 29.2099L28.9749 26.4997C28.0351 25.6307 28.5456 24.0596 29.8167 23.9089L33.7806 23.4389C34.2986 23.3775 34.7475 23.0513 34.966 22.5776L36.6379 18.953Z" fill="#016A9E"/>
</g>
<path d="M11.5303 61H10.7495V51.7578H11.5303V61ZM14.5898 54.1318L14.6152 55.3062C14.8734 54.883 15.195 54.5614 15.5801 54.3413C15.9652 54.117 16.3905 54.0049 16.856 54.0049C17.5923 54.0049 18.1403 54.2122 18.5 54.627C18.8597 55.0417 19.0417 55.6637 19.0459 56.4932V61H18.2905V56.4868C18.2863 55.8732 18.1551 55.4162 17.897 55.1157C17.6431 54.8153 17.2347 54.665 16.6719 54.665C16.2021 54.665 15.7853 54.8132 15.4214 55.1094C15.0617 55.4014 14.7951 55.797 14.6216 56.2964V61H13.8662V54.1318H14.5898ZM22.1943 52.3735V54.1318H23.6162V54.7539H22.1943V59.3306C22.1943 59.7114 22.262 59.995 22.3975 60.1812C22.5371 60.3674 22.7677 60.4604 23.0894 60.4604C23.2163 60.4604 23.4215 60.4393 23.7051 60.397L23.7368 61.019C23.5379 61.091 23.2671 61.127 22.9243 61.127C22.4038 61.127 22.0251 60.9767 21.7881 60.6763C21.5511 60.3716 21.4326 59.9251 21.4326 59.3369V54.7539H20.1694V54.1318H21.4326V52.3735H22.1943ZM27.8501 61.127C27.2661 61.127 26.7371 60.9831 26.2632 60.6953C25.7935 60.4076 25.4274 60.0076 25.165 59.4956C24.9027 58.9793 24.7715 58.4017 24.7715 57.7627V57.4897C24.7715 56.8296 24.8984 56.235 25.1523 55.7061C25.4105 55.1771 25.7681 54.7624 26.2251 54.4619C26.6821 54.1572 27.1772 54.0049 27.7104 54.0049C28.5441 54.0049 29.2043 54.2905 29.6909 54.8618C30.1818 55.4289 30.4272 56.2054 30.4272 57.1914V57.6167H25.5269V57.7627C25.5269 58.5413 25.749 59.1909 26.1934 59.7114C26.6419 60.2277 27.2048 60.4858 27.8818 60.4858C28.2881 60.4858 28.6457 60.4118 28.9546 60.2637C29.2677 60.1156 29.5513 59.8786 29.8052 59.5527L30.2812 59.9146C29.7227 60.7228 28.9123 61.127 27.8501 61.127ZM27.7104 54.6523C27.1392 54.6523 26.6567 54.8618 26.2632 55.2808C25.8739 55.6997 25.6369 56.2625 25.5522 56.9692H29.6719V56.8867C29.6507 56.2266 29.4624 55.6891 29.1069 55.2744C28.7515 54.8597 28.286 54.6523 27.7104 54.6523ZM35.0801 54.7793C34.9193 54.7497 34.7479 54.7349 34.5659 54.7349C34.092 54.7349 33.6899 54.8682 33.3599 55.1348C33.034 55.3971 32.8013 55.7801 32.6616 56.2837V61H31.9062V54.1318H32.6489L32.6616 55.2236C33.0636 54.4111 33.709 54.0049 34.5977 54.0049C34.8092 54.0049 34.9764 54.0324 35.0991 54.0874L35.0801 54.7793ZM38.8188 61.127C38.2349 61.127 37.7059 60.9831 37.2319 60.6953C36.7622 60.4076 36.3962 60.0076 36.1338 59.4956C35.8714 58.9793 35.7402 58.4017 35.7402 57.7627V57.4897C35.7402 56.8296 35.8672 56.235 36.1211 55.7061C36.3792 55.1771 36.7368 54.7624 37.1938 54.4619C37.6509 54.1572 38.146 54.0049 38.6792 54.0049C39.5129 54.0049 40.173 54.2905 40.6597 54.8618C41.1506 55.4289 41.396 56.2054 41.396 57.1914V57.6167H36.4956V57.7627C36.4956 58.5413 36.7178 59.1909 37.1621 59.7114C37.6107 60.2277 38.1735 60.4858 38.8506 60.4858C39.2568 60.4858 39.6144 60.4118 39.9233 60.2637C40.2365 60.1156 40.52 59.8786 40.7739 59.5527L41.25 59.9146C40.6914 60.7228 39.881 61.127 38.8188 61.127ZM38.6792 54.6523C38.1079 54.6523 37.6255 54.8618 37.2319 55.2808C36.8426 55.6997 36.6056 56.2625 36.521 56.9692H40.6406V56.8867C40.6195 56.2266 40.4312 55.6891 40.0757 55.2744C39.7202 54.8597 39.2547 54.6523 38.6792 54.6523ZM46.9883 59.2544C46.9883 58.8778 46.8359 58.5752 46.5312 58.3467C46.2308 58.1182 45.7759 57.9404 45.1665 57.8135C44.5571 57.6823 44.0832 57.5342 43.7446 57.3691C43.4103 57.1999 43.1606 56.9946 42.9956 56.7534C42.8348 56.5122 42.7544 56.2202 42.7544 55.8774C42.7544 55.3358 42.9808 54.8893 43.4336 54.5381C43.8864 54.1826 44.4661 54.0049 45.1729 54.0049C45.9388 54.0049 46.5524 54.1953 47.0137 54.5762C47.4792 54.9528 47.7119 55.4458 47.7119 56.0552H46.9502C46.9502 55.6532 46.7809 55.3188 46.4424 55.0522C46.1081 54.7856 45.6849 54.6523 45.1729 54.6523C44.6735 54.6523 44.2715 54.7645 43.9668 54.9888C43.6663 55.2088 43.5161 55.4966 43.5161 55.8521C43.5161 56.1948 43.641 56.4614 43.8906 56.6519C44.1445 56.8381 44.6037 57.0094 45.2681 57.166C45.9367 57.3226 46.436 57.4897 46.7661 57.6675C47.1004 57.8452 47.348 58.0589 47.5088 58.3086C47.6696 58.5583 47.75 58.8608 47.75 59.2163C47.75 59.7961 47.5151 60.2594 47.0454 60.6064C46.5799 60.9535 45.9705 61.127 45.2173 61.127C44.4175 61.127 43.7679 60.9344 43.2686 60.5493C42.7734 60.16 42.5259 59.6691 42.5259 59.0767H43.2876C43.3172 59.521 43.5034 59.868 43.8462 60.1177C44.1932 60.3631 44.6502 60.4858 45.2173 60.4858C45.7463 60.4858 46.1737 60.3695 46.4995 60.1367C46.8254 59.904 46.9883 59.6099 46.9883 59.2544ZM50.6445 52.3735V54.1318H52.0664V54.7539H50.6445V59.3306C50.6445 59.7114 50.7122 59.995 50.8477 60.1812C50.9873 60.3674 51.2179 60.4604 51.5396 60.4604C51.6665 60.4604 51.8717 60.4393 52.1553 60.397L52.187 61.019C51.9881 61.091 51.7173 61.127 51.3745 61.127C50.854 61.127 50.4753 60.9767 50.2383 60.6763C50.0013 60.3716 49.8828 59.9251 49.8828 59.3369V54.7539H48.6196V54.1318H49.8828V52.3735H50.6445ZM56.3003 61.127C55.7163 61.127 55.1873 60.9831 54.7134 60.6953C54.2437 60.4076 53.8776 60.0076 53.6152 59.4956C53.3529 58.9793 53.2217 58.4017 53.2217 57.7627V57.4897C53.2217 56.8296 53.3486 56.235 53.6025 55.7061C53.8607 55.1771 54.2183 54.7624 54.6753 54.4619C55.1323 54.1572 55.6274 54.0049 56.1606 54.0049C56.9943 54.0049 57.6545 54.2905 58.1411 54.8618C58.632 55.4289 58.8774 56.2054 58.8774 57.1914V57.6167H53.9771V57.7627C53.9771 58.5413 54.1992 59.1909 54.6436 59.7114C55.0921 60.2277 55.6549 60.4858 56.332 60.4858C56.7383 60.4858 57.0959 60.4118 57.4048 60.2637C57.7179 60.1156 58.0015 59.8786 58.2554 59.5527L58.7314 59.9146C58.1729 60.7228 57.3625 61.127 56.3003 61.127ZM56.1606 54.6523C55.5894 54.6523 55.1069 54.8618 54.7134 55.2808C54.3241 55.6997 54.0871 56.2625 54.0024 56.9692H58.1221V56.8867C58.1009 56.2266 57.9126 55.6891 57.5571 55.2744C57.2017 54.8597 56.7362 54.6523 56.1606 54.6523ZM60.0518 57.5024C60.0518 56.436 60.2887 55.5876 60.7627 54.957C61.2409 54.3223 61.8883 54.0049 62.7051 54.0049C63.6318 54.0049 64.3385 54.3709 64.8252 55.103V51.25H65.5806V61H64.8696L64.8379 60.0859C64.3512 60.7799 63.6361 61.127 62.6924 61.127C61.901 61.127 61.262 60.8096 60.7754 60.1748C60.293 59.5358 60.0518 58.6746 60.0518 57.5913V57.5024ZM60.8198 57.6357C60.8198 58.5117 60.9954 59.2036 61.3467 59.7114C61.6979 60.215 62.193 60.4668 62.832 60.4668C63.7673 60.4668 64.4316 60.0542 64.8252 59.229V56.0044C64.4316 55.1115 63.7715 54.665 62.8447 54.665C62.2057 54.665 61.7085 54.9168 61.353 55.4204C60.9976 55.9198 60.8198 56.6582 60.8198 57.6357Z" fill="white"/>
</g>
<defs>
<filter id="filter0_d" x="4.49121" y="-5.91895" width="67.017" height="66.2335" filterUnits="userSpaceOnUse" color-interpolation-filters="sRGB">
<feFlood flood-opacity="0" result="BackgroundImageFix"/>
<feColorMatrix in="SourceAlpha" type="matrix" values="0 0 0 0 0 0 0 0 0 0 0 0 0 0 0 0 0 0 127 0"/>
<feOffset/>
<feGaussianBlur stdDeviation="12"/>
<feColorMatrix type="matrix" values="0 0 0 0 0 0 0 0 0 0 0 0 0 0 0 0 0 0 0.25 0"/>
<feBlend mode="normal" in2="BackgroundImageFix" result="effect1_dropShadow"/>
<feBlend mode="normal" in="SourceGraphic" in2="effect1_dropShadow" result="shape"/>
</filter>
<clipPath id="clip0">
<rect width="75" height="75" fill="white"/>
</clipPath>
</defs>
</svg>
