<svg width="75" height="75" viewBox="0 0 75 75" fill="none" xmlns="http://www.w3.org/2000/svg">
<g clip-path="url(#clip0)">
<rect width="75" height="75" rx="20" fill="#1FAEF7"/>
<rect x="21" y="11" width="34" height="34" rx="17" fill="#1FAEF7"/>
<g filter="url(#filter0_d)">
<path d="M36.6379 18.953C37.174 17.7907 38.826 17.7907 39.3621 18.953L41.034 22.5776C41.2525 23.0513 41.7014 23.3775 42.2194 23.4389L46.1833 23.9089C47.4544 24.0596 47.9649 25.6307 47.0251 26.4997L44.0945 29.2099C43.7115 29.5641 43.5401 30.0918 43.6417 30.6035L44.4196 34.5186C44.6691 35.774 43.3327 36.745 42.2157 36.1198L38.7327 34.1701C38.2775 33.9153 37.7225 33.9153 37.2673 34.1701L33.7843 36.1198C32.6673 36.745 31.3309 35.774 31.5804 34.5186L32.3583 30.6035C32.4599 30.0918 32.2885 29.5641 31.9055 29.2099L28.9749 26.4997C28.0351 25.6307 28.5456 24.0596 29.8167 23.9089L33.7806 23.4389C34.2986 23.3775 34.7475 23.0513 34.966 22.5776L36.6379 18.953Z" fill="white"/>
</g>
<path d="M11.1304 61H9.53076V51.7578H11.1304V61ZM14.3867 54.1318L14.4312 54.9253C14.939 54.3117 15.6055 54.0049 16.4307 54.0049C17.861 54.0049 18.5889 54.8237 18.6143 56.4614V61H17.0718V56.5503C17.0718 56.1144 16.9766 55.7928 16.7861 55.5854C16.5999 55.3739 16.2931 55.2681 15.8657 55.2681C15.2437 55.2681 14.7803 55.5495 14.4756 56.1123V61H12.9331V54.1318H14.3867ZM22.1245 52.4624V54.1318H23.3369V55.2744H22.1245V59.1084C22.1245 59.3708 22.1753 59.5612 22.2769 59.6797C22.3826 59.7939 22.5688 59.8511 22.8354 59.8511C23.0132 59.8511 23.193 59.8299 23.375 59.7876V60.981C23.0238 61.0783 22.6852 61.127 22.3594 61.127C21.1745 61.127 20.582 60.4731 20.582 59.1655V55.2744H19.4521V54.1318H20.582V52.4624H22.1245ZM27.5454 61.127C26.5679 61.127 25.7744 60.8201 25.165 60.2065C24.5599 59.5887 24.2573 58.7677 24.2573 57.7437V57.5532C24.2573 56.8677 24.3885 56.2562 24.6509 55.7188C24.9175 55.1771 25.2899 54.756 25.7681 54.4556C26.2463 54.1551 26.7795 54.0049 27.3677 54.0049C28.3029 54.0049 29.0244 54.3032 29.5322 54.8999C30.0443 55.4966 30.3003 56.3408 30.3003 57.4326V58.0547H25.8125C25.859 58.6217 26.0474 59.0703 26.3774 59.4004C26.7118 59.7305 27.1307 59.8955 27.6343 59.8955C28.341 59.8955 28.9165 59.6099 29.3608 59.0386L30.1924 59.832C29.9173 60.2425 29.5492 60.562 29.0879 60.7905C28.6309 61.0148 28.1167 61.127 27.5454 61.127ZM27.3613 55.2427C26.9382 55.2427 26.5954 55.3908 26.333 55.687C26.0749 55.9832 25.9098 56.3958 25.8379 56.9248H28.7769V56.8105C28.743 56.2943 28.6055 55.9049 28.3643 55.6426C28.123 55.376 27.7887 55.2427 27.3613 55.2427ZM35.0991 55.541C34.896 55.5072 34.6865 55.4902 34.4707 55.4902C33.764 55.4902 33.2879 55.7611 33.0425 56.3027V61H31.5V54.1318H32.9727L33.0107 54.8999C33.3831 54.3032 33.8994 54.0049 34.5596 54.0049C34.7796 54.0049 34.9616 54.0345 35.1055 54.0938L35.0991 55.541ZM38.9712 61.127C37.9937 61.127 37.2002 60.8201 36.5908 60.2065C35.9857 59.5887 35.6831 58.7677 35.6831 57.7437V57.5532C35.6831 56.8677 35.8143 56.2562 36.0767 55.7188C36.3433 55.1771 36.7157 54.756 37.1938 54.4556C37.672 54.1551 38.2052 54.0049 38.7935 54.0049C39.7287 54.0049 40.4502 54.3032 40.958 54.8999C41.4701 55.4966 41.7261 56.3408 41.7261 57.4326V58.0547H37.2383C37.2848 58.6217 37.4731 59.0703 37.8032 59.4004C38.1375 59.7305 38.5565 59.8955 39.0601 59.8955C39.7668 59.8955 40.3423 59.6099 40.7866 59.0386L41.6182 59.832C41.3431 60.2425 40.9749 60.562 40.5137 60.7905C40.0566 61.0148 39.5425 61.127 38.9712 61.127ZM38.7871 55.2427C38.3639 55.2427 38.0212 55.3908 37.7588 55.687C37.5007 55.9832 37.3356 56.3958 37.2637 56.9248H40.2026V56.8105C40.1688 56.2943 40.0312 55.9049 39.79 55.6426C39.5488 55.376 39.2145 55.2427 38.7871 55.2427ZM46.7788 59.1338C46.7788 58.8587 46.6646 58.6493 46.436 58.5054C46.2118 58.3615 45.8372 58.2345 45.3125 58.1245C44.7878 58.0145 44.3498 57.8748 43.9985 57.7056C43.2284 57.3332 42.8433 56.7936 42.8433 56.0869C42.8433 55.4945 43.0929 54.9993 43.5923 54.6016C44.0916 54.2038 44.7264 54.0049 45.4966 54.0049C46.3175 54.0049 46.9798 54.208 47.4834 54.6143C47.9912 55.0205 48.2451 55.5474 48.2451 56.1948H46.7026C46.7026 55.8986 46.5926 55.6532 46.3726 55.4585C46.1525 55.2596 45.8605 55.1602 45.4966 55.1602C45.158 55.1602 44.8809 55.2384 44.665 55.395C44.4535 55.5516 44.3477 55.7611 44.3477 56.0234C44.3477 56.2604 44.4471 56.4445 44.646 56.5757C44.8449 56.7069 45.2469 56.8402 45.8521 56.9756C46.4572 57.1068 46.9312 57.2655 47.2739 57.4517C47.6209 57.6336 47.877 57.8537 48.042 58.1118C48.2113 58.37 48.2959 58.6831 48.2959 59.0513C48.2959 59.6691 48.0399 60.1706 47.5278 60.5557C47.0158 60.9365 46.3451 61.127 45.5156 61.127C44.9528 61.127 44.4513 61.0254 44.0112 60.8223C43.5711 60.6191 43.2284 60.3398 42.9829 59.9844C42.7375 59.6289 42.6147 59.2459 42.6147 58.8354H44.1128C44.134 59.1994 44.2715 59.4808 44.5254 59.6797C44.7793 59.8743 45.1157 59.9717 45.5347 59.9717C45.9409 59.9717 46.2498 59.8955 46.4614 59.7432C46.673 59.5866 46.7788 59.3835 46.7788 59.1338ZM51.5776 52.4624V54.1318H52.79V55.2744H51.5776V59.1084C51.5776 59.3708 51.6284 59.5612 51.73 59.6797C51.8358 59.7939 52.022 59.8511 52.2886 59.8511C52.4663 59.8511 52.6462 59.8299 52.8281 59.7876V60.981C52.4769 61.0783 52.1383 61.127 51.8125 61.127C50.6276 61.127 50.0352 60.4731 50.0352 59.1655V55.2744H48.9053V54.1318H50.0352V52.4624H51.5776ZM56.9985 61.127C56.021 61.127 55.2275 60.8201 54.6182 60.2065C54.013 59.5887 53.7104 58.7677 53.7104 57.7437V57.5532C53.7104 56.8677 53.8416 56.2562 54.104 55.7188C54.3706 55.1771 54.743 54.756 55.2212 54.4556C55.6994 54.1551 56.2326 54.0049 56.8208 54.0049C57.756 54.0049 58.4775 54.3032 58.9854 54.8999C59.4974 55.4966 59.7534 56.3408 59.7534 57.4326V58.0547H55.2656C55.3122 58.6217 55.5005 59.0703 55.8306 59.4004C56.1649 59.7305 56.5838 59.8955 57.0874 59.8955C57.7941 59.8955 58.3696 59.6099 58.814 59.0386L59.6455 59.832C59.3704 60.2425 59.0023 60.562 58.541 60.7905C58.084 61.0148 57.5698 61.127 56.9985 61.127ZM56.8145 55.2427C56.3913 55.2427 56.0485 55.3908 55.7861 55.687C55.528 55.9832 55.363 56.3958 55.291 56.9248H58.23V56.8105C58.1961 56.2943 58.0586 55.9049 57.8174 55.6426C57.5762 55.376 57.2419 55.2427 56.8145 55.2427ZM60.6675 57.5151C60.6675 56.4572 60.9129 55.6087 61.4038 54.9697C61.8947 54.3265 62.5527 54.0049 63.3779 54.0049C64.1058 54.0049 64.694 54.2588 65.1426 54.7666V51.25H66.6851V61H65.2886L65.2124 60.2891C64.7511 60.8477 64.1354 61.127 63.3652 61.127C62.5612 61.127 61.9095 60.8032 61.4102 60.1558C60.915 59.5083 60.6675 58.6281 60.6675 57.5151ZM62.21 57.6484C62.21 58.3467 62.3433 58.8926 62.6099 59.2861C62.8807 59.6755 63.2637 59.8701 63.7588 59.8701C64.3893 59.8701 64.8506 59.5887 65.1426 59.0259V56.0933C64.859 55.5431 64.402 55.2681 63.7715 55.2681C63.2721 55.2681 62.887 55.467 62.6162 55.8647C62.3454 56.2583 62.21 56.8529 62.21 57.6484Z" fill="white"/>
</g>
<defs>
<filter id="filter0_d" x="4.49121" y="-5.91895" width="67.017" height="66.2335" filterUnits="userSpaceOnUse" color-interpolation-filters="sRGB">
<feFlood flood-opacity="0" result="BackgroundImageFix"/>
<feColorMatrix in="SourceAlpha" type="matrix" values="0 0 0 0 0 0 0 0 0 0 0 0 0 0 0 0 0 0 127 0"/>
<feOffset/>
<feGaussianBlur stdDeviation="12"/>
<feColorMatrix type="matrix" values="0 0 0 0 0 0 0 0 0 0 0 0 0 0 0 0 0 0 0.25 0"/>
<feBlend mode="normal" in2="BackgroundImageFix" result="effect1_dropShadow"/>
<feBlend mode="normal" in="SourceGraphic" in2="effect1_dropShadow" result="shape"/>
</filter>
<clipPath id="clip0">
<rect width="75" height="75" fill="white"/>
</clipPath>
</defs>
</svg>
