<svg width="122" height="70" viewBox="0 0 122 70" fill="none" xmlns="http://www.w3.org/2000/svg">
<rect width="122" height="70" rx="20" fill="#242424"/>
<path d="M15.9021 58.0005H14.0564V47.3364H15.9021V58.0005ZM20.1095 50.0757L20.1607 50.9912C20.7467 50.2832 21.5157 49.9292 22.4679 49.9292C24.1183 49.9292 24.9581 50.874 24.9874 52.7637V58.0005H23.2076V52.8662C23.2076 52.3633 23.0978 51.9922 22.878 51.7529C22.6632 51.5088 22.3092 51.3867 21.816 51.3867C21.0982 51.3867 20.5636 51.7114 20.212 52.3608V58.0005H18.4322V50.0757H20.1095ZM30.0517 55.7446L31.7289 50.0757H33.5673L30.8207 58.0005H29.2753L26.5067 50.0757H28.3524L30.0517 55.7446ZM37.0275 58.0005H35.2478V50.0757H37.0275V58.0005ZM35.1379 48.0176C35.1379 47.7441 35.2233 47.5171 35.3942 47.3364C35.57 47.1558 35.819 47.0654 36.1413 47.0654C36.4636 47.0654 36.7126 47.1558 36.8884 47.3364C37.0642 47.5171 37.1521 47.7441 37.1521 48.0176C37.1521 48.2861 37.0642 48.5107 36.8884 48.6914C36.7126 48.8672 36.4636 48.9551 36.1413 48.9551C35.819 48.9551 35.57 48.8672 35.3942 48.6914C35.2233 48.5107 35.1379 48.2861 35.1379 48.0176ZM41.6523 48.1494V50.0757H43.0513V51.394H41.6523V55.8179C41.6523 56.1206 41.7109 56.3403 41.8281 56.4771C41.9502 56.6089 42.165 56.6748 42.4727 56.6748C42.6777 56.6748 42.8853 56.6504 43.0952 56.6016V57.9785C42.6899 58.0908 42.2993 58.147 41.9233 58.147C40.5562 58.147 39.8726 57.3926 39.8726 55.8838V51.394H38.5688V50.0757H39.8726V48.1494H41.6523ZM48.3572 58.147C47.2293 58.147 46.3138 57.793 45.6106 57.085C44.9124 56.3721 44.5633 55.4248 44.5633 54.2432V54.0234C44.5633 53.2324 44.7146 52.5269 45.0174 51.9067C45.325 51.2817 45.7547 50.7959 46.3064 50.4492C46.8582 50.1025 47.4734 49.9292 48.1521 49.9292C49.2313 49.9292 50.0638 50.2734 50.6497 50.9619C51.2405 51.6504 51.5359 52.6245 51.5359 53.8843V54.6021H46.3577C46.4114 55.2563 46.6287 55.7739 47.0096 56.1548C47.3953 56.5356 47.8787 56.7261 48.4598 56.7261C49.2752 56.7261 49.9393 56.3965 50.452 55.7373L51.4114 56.6528C51.094 57.1265 50.6692 57.4951 50.137 57.7588C49.6097 58.0176 49.0164 58.147 48.3572 58.147ZM48.1448 51.3574C47.6565 51.3574 47.261 51.5283 46.9583 51.8701C46.6604 52.2119 46.47 52.688 46.387 53.2983H49.7781V53.1665C49.7391 52.5708 49.5804 52.1216 49.3021 51.8188C49.0237 51.5112 48.638 51.3574 48.1448 51.3574ZM63.8764 53.4814H59.5844V58.0005H57.7313V47.3364H64.5063V48.8306H59.5844V52.002H63.8764V53.4814ZM70.215 51.7017C69.9807 51.6626 69.739 51.6431 69.4899 51.6431C68.6745 51.6431 68.1252 51.9556 67.842 52.5806V58.0005H66.0622V50.0757H67.7614L67.8054 50.9619C68.2351 50.2734 68.8308 49.9292 69.5925 49.9292C69.8464 49.9292 70.0564 49.9634 70.2224 50.0317L70.215 51.7017ZM73.6826 58.0005H71.9028V50.0757H73.6826V58.0005ZM71.793 48.0176C71.793 47.7441 71.8784 47.5171 72.0493 47.3364C72.2251 47.1558 72.4741 47.0654 72.7964 47.0654C73.1187 47.0654 73.3677 47.1558 73.5435 47.3364C73.7192 47.5171 73.8071 47.7441 73.8071 48.0176C73.8071 48.2861 73.7192 48.5107 73.5435 48.6914C73.3677 48.8672 73.1187 48.9551 72.7964 48.9551C72.4741 48.9551 72.2251 48.8672 72.0493 48.6914C71.8784 48.5107 71.793 48.2861 71.793 48.0176ZM79.5672 58.147C78.4393 58.147 77.5237 57.793 76.8206 57.085C76.1224 56.3721 75.7732 55.4248 75.7732 54.2432V54.0234C75.7732 53.2324 75.9246 52.5269 76.2273 51.9067C76.535 51.2817 76.9646 50.7959 77.5164 50.4492C78.0682 50.1025 78.6834 49.9292 79.3621 49.9292C80.4412 49.9292 81.2737 50.2734 81.8597 50.9619C82.4505 51.6504 82.7459 52.6245 82.7459 53.8843V54.6021H77.5677C77.6214 55.2563 77.8387 55.7739 78.2195 56.1548C78.6053 56.5356 79.0887 56.7261 79.6697 56.7261C80.4852 56.7261 81.1492 56.3965 81.6619 55.7373L82.6214 56.6528C82.304 57.1265 81.8792 57.4951 81.347 57.7588C80.8196 58.0176 80.2264 58.147 79.5672 58.147ZM79.3548 51.3574C78.8665 51.3574 78.471 51.5283 78.1683 51.8701C77.8704 52.2119 77.68 52.688 77.597 53.2983H80.9881V53.1665C80.949 52.5708 80.7903 52.1216 80.512 51.8188C80.2337 51.5112 79.8479 51.3574 79.3548 51.3574ZM86.2354 50.0757L86.2867 50.9912C86.8727 50.2832 87.6417 49.9292 88.5938 49.9292C90.2442 49.9292 91.0841 50.874 91.1134 52.7637V58.0005H89.3336V52.8662C89.3336 52.3633 89.2237 51.9922 89.004 51.7529C88.7892 51.5088 88.4352 51.3867 87.942 51.3867C87.2242 51.3867 86.6895 51.7114 86.338 52.3608V58.0005H84.5582V50.0757H86.2354ZM93.0502 53.9795C93.0502 52.7588 93.3334 51.7798 93.8998 51.0425C94.4662 50.3003 95.2255 49.9292 96.1776 49.9292C97.0175 49.9292 97.6962 50.2222 98.2138 50.8081V46.7505H99.9936V58.0005H98.3822L98.2943 57.1802C97.7621 57.8247 97.0517 58.147 96.163 58.147C95.2353 58.147 94.4833 57.7734 93.9071 57.0264C93.3358 56.2793 93.0502 55.2637 93.0502 53.9795ZM94.83 54.1333C94.83 54.939 94.9838 55.5688 95.2914 56.0229C95.6039 56.4722 96.0458 56.6968 96.6171 56.6968C97.3446 56.6968 97.8769 56.3721 98.2138 55.7227V52.3389C97.8866 51.7041 97.3593 51.3867 96.6317 51.3867C96.0556 51.3867 95.6112 51.6162 95.2987 52.0752C94.9862 52.5293 94.83 53.2153 94.83 54.1333ZM106.742 55.8472C106.742 55.5298 106.611 55.2881 106.347 55.1221C106.088 54.9561 105.656 54.8096 105.05 54.6826C104.445 54.5557 103.94 54.3945 103.534 54.1992C102.646 53.7695 102.201 53.147 102.201 52.3315C102.201 51.6479 102.489 51.0767 103.066 50.6177C103.642 50.1587 104.374 49.9292 105.263 49.9292C106.21 49.9292 106.974 50.1636 107.555 50.6323C108.141 51.1011 108.434 51.709 108.434 52.4561H106.654C106.654 52.1143 106.528 51.8311 106.274 51.6064C106.02 51.377 105.683 51.2622 105.263 51.2622C104.872 51.2622 104.552 51.3525 104.303 51.5332C104.059 51.7139 103.937 51.9556 103.937 52.2583C103.937 52.5317 104.052 52.7441 104.281 52.8955C104.511 53.0469 104.975 53.2007 105.673 53.3569C106.371 53.5083 106.918 53.6914 107.314 53.9062C107.714 54.1162 108.009 54.3701 108.2 54.668C108.395 54.9658 108.493 55.3271 108.493 55.752C108.493 56.4648 108.197 57.0435 107.607 57.4878C107.016 57.9272 106.242 58.147 105.285 58.147C104.635 58.147 104.057 58.0298 103.549 57.7954C103.041 57.561 102.646 57.2388 102.363 56.8286C102.079 56.4185 101.938 55.9766 101.938 55.5029H103.666C103.691 55.9229 103.849 56.2476 104.142 56.4771C104.435 56.7017 104.823 56.814 105.307 56.814C105.776 56.814 106.132 56.7261 106.376 56.5503C106.62 56.3696 106.742 56.1353 106.742 55.8472Z" fill="white"/>
<ellipse cx="53.4111" cy="20" rx="5" ry="5" fill="white"/>
<path d="M75 37.9399C76.1046 37.9399 77.0201 37.0358 76.8007 35.9532C76.6733 35.3247 76.4854 34.7084 76.2388 34.1131C75.7362 32.8999 74.9997 31.7975 74.0711 30.8689C73.1425 29.9403 72.0401 29.2037 70.8268 28.7011C69.6136 28.1986 68.3132 27.9399 67 27.9399C65.6868 27.9399 64.3864 28.1986 63.1732 28.7011C61.9599 29.2037 60.8575 29.9403 59.9289 30.8689C59.0003 31.7975 58.2638 32.8999 57.7612 34.1131C57.5146 34.7084 57.3267 35.3247 57.1993 35.9532C56.9799 37.0358 57.8954 37.9399 59 37.9399L67 37.9399H75Z" fill="white"/>
<mask id="path-5-outside-1" maskUnits="userSpaceOnUse" x="41" y="25.9399" width="25" height="14" fill="black">
<rect fill="white" x="41" y="25.9399" width="25" height="14"/>
<path d="M62 37.9399C63.1046 37.9399 64.0208 37.035 63.791 35.9546C63.6572 35.3256 63.4598 34.7089 63.2007 34.1131C62.6731 32.8999 61.8996 31.7975 60.9246 30.8689C59.9496 29.9403 58.7921 29.2037 57.5182 28.7011C56.2443 28.1986 54.8789 27.9399 53.5 27.9399C52.1211 27.9399 50.7557 28.1986 49.4818 28.7011C48.2079 29.2037 47.0504 29.9403 46.0754 30.8689C45.1004 31.7975 44.3269 32.8999 43.7993 34.1131C43.5402 34.7089 43.3428 35.3256 43.209 35.9546C42.9792 37.035 43.8954 37.9399 45 37.9399L53.5 37.9399H62Z"/>
</mask>
<path d="M62 37.9399C63.1046 37.9399 64.0208 37.035 63.791 35.9546C63.6572 35.3256 63.4598 34.7089 63.2007 34.1131C62.6731 32.8999 61.8996 31.7975 60.9246 30.8689C59.9496 29.9403 58.7921 29.2037 57.5182 28.7011C56.2443 28.1986 54.8789 27.9399 53.5 27.9399C52.1211 27.9399 50.7557 28.1986 49.4818 28.7011C48.2079 29.2037 47.0504 29.9403 46.0754 30.8689C45.1004 31.7975 44.3269 32.8999 43.7993 34.1131C43.5402 34.7089 43.3428 35.3256 43.209 35.9546C42.9792 37.035 43.8954 37.9399 45 37.9399L53.5 37.9399H62Z" fill="white"/>
<path d="M62 37.9399C63.1046 37.9399 64.0208 37.035 63.791 35.9546C63.6572 35.3256 63.4598 34.7089 63.2007 34.1131C62.6731 32.8999 61.8996 31.7975 60.9246 30.8689C59.9496 29.9403 58.7921 29.2037 57.5182 28.7011C56.2443 28.1986 54.8789 27.9399 53.5 27.9399C52.1211 27.9399 50.7557 28.1986 49.4818 28.7011C48.2079 29.2037 47.0504 29.9403 46.0754 30.8689C45.1004 31.7975 44.3269 32.8999 43.7993 34.1131C43.5402 34.7089 43.3428 35.3256 43.209 35.9546C42.9792 37.035 43.8954 37.9399 45 37.9399L53.5 37.9399H62Z" stroke="#242424" stroke-width="4" mask="url(#path-5-outside-1)"/>
<circle cx="67.1484" cy="20" r="5" fill="white"/>
</svg>
