<svg width="75" height="75" viewBox="0 0 75 75" fill="none" xmlns="http://www.w3.org/2000/svg">
<rect x="33.2578" y="18" width="40" height="40" rx="20" fill="#1FAEF7" fill-opacity="0.55"/>
<rect x="33.2578" y="18" width="40" height="40" rx="20" stroke="#1FAEF7" stroke-width="0.5"/>
<rect x="1" y="18" width="40" height="40" rx="20" fill="#1FAEF7" fill-opacity="0.55"/>
<path d="M36.5 27.5L36.5528 27.3944C36.8469 26.8062 37 26.1576 37 25.5V25.5V25.5C37 25.8288 37.0766 26.1531 37.2236 26.4472L37.5 27V27C38.8235 28.9852 39.7958 31.1832 40.3745 33.4979L40.5 34L40.8818 36.6727C40.9605 37.2236 41 37.7793 41 38.3357V38.3357C41 39.11 40.9235 39.8824 40.7717 40.6417L40.5 42L40.4214 42.2749C39.8085 44.4204 38.9979 46.5043 38 48.5V48.5L37 50L36.5 49L35.5228 47.2899C34.8442 46.1023 34.3318 44.827 34 43.5V43.5L33.8638 42.9552C33.6222 41.9887 33.5 40.9962 33.5 40V40V37.5V36.2427C33.5 35.4163 33.5816 34.5918 33.7437 33.7814V33.7814C33.9141 32.9294 34.1725 32.0975 34.5148 31.2989L34.7971 30.6401C35.2647 29.549 35.8313 28.503 36.4898 27.5154L36.5 27.5Z" fill="#1FAEF7" fill-opacity="0.55"/>
<rect x="1" y="18" width="40" height="40" rx="20" stroke="#1FAEF7" stroke-width="0.5"/>
<path d="M34.3337 51.8094C34.3337 51.8094 30.5241 57.3547 21.0004 57.3547C11.4766 57.3547 7.66699 51.8094 7.66699 51.8094C8.14318 48.9522 13.8741 46.5713 21.0004 46.5713C28.1266 46.5713 33.7471 48.7733 34.3337 51.8094Z" fill="white"/>
<path d="M66.7145 51.8094C66.7145 51.8094 62.905 57.3547 53.3812 57.3547C43.8575 57.3547 40.0479 51.8094 40.0479 51.8094C40.524 48.9522 46.255 46.5713 53.3812 46.5713C60.5075 46.5713 66.128 48.7733 66.7145 51.8094Z" fill="white"/>
<path d="M20.5245 47.269C25.1583 47.269 28.3649 42.7824 28.3649 37.9999C28.3649 33.2174 25.1583 28.7309 20.5245 28.7309C15.8907 28.7309 12.684 33.2174 12.684 37.9999C12.684 42.7824 15.8907 47.269 20.5245 47.269Z" fill="white" stroke="#16648C" stroke-width="3.3"/>
<path d="M52.9043 47.269C57.5382 47.269 60.7448 42.7824 60.7448 37.9999C60.7448 33.2174 57.5382 28.7309 52.9043 28.7309C48.2705 28.7309 45.0639 33.2174 45.0639 37.9999C45.0639 42.7824 48.2705 47.269 52.9043 47.269Z" fill="white" stroke="#16648C" stroke-width="3.3"/>
</svg>
