<svg width="26" height="27" viewBox="0 0 26 27" fill="none" xmlns="http://www.w3.org/2000/svg">
<circle cx="8.5008" cy="4.25031" r="4.25031" fill="#CCCCCC"/>
<path d="M13.8892 18.8209C15.608 18.8209 17.0544 17.3699 16.3542 15.8002C15.927 14.8426 15.3008 13.9724 14.5115 13.2394C13.7221 12.5065 12.785 11.925 11.7537 11.5283C10.7223 11.1317 9.61695 10.9275 8.50063 10.9275C7.38431 10.9275 6.27892 11.1317 5.24758 11.5283C4.21623 11.925 3.27913 12.5065 2.48978 13.2394C1.70042 13.9724 1.07427 14.8426 0.647072 15.8002C-0.0531058 17.3699 1.3933 18.8209 3.11202 18.8209L8.50063 18.8209H13.8892Z" fill="#CCCCCC"/>
<path d="M17 9.43595C17 9.89875 17.3752 10.2739 17.838 10.2739L24.2573 10.2739C24.7201 10.2739 25.0952 9.89875 25.0952 9.43595C25.0952 8.97315 24.7201 8.59798 24.2573 8.59798H17.838C17.3752 8.59798 17 8.97315 17 9.43595Z" fill="url(#paint0_radial)"/>
<path d="M17 9.43595C17 9.89875 17.3752 10.2739 17.838 10.2739L24.2573 10.2739C24.7201 10.2739 25.0952 9.89875 25.0952 9.43595C25.0952 8.97315 24.7201 8.59798 24.2573 8.59798H17.838C17.3752 8.59798 17 8.97315 17 9.43595Z" fill="#CCCCCC"/>
<path d="M20.3276 12.9112C20.3276 13.3583 20.6901 13.7207 21.1372 13.7207C21.5842 13.7207 21.9467 13.3583 21.9467 12.9112V6.15049C21.9467 5.7034 21.5842 5.34097 21.1372 5.34097C20.6901 5.34097 20.3276 5.7034 20.3276 6.15049V12.9112Z" fill="url(#paint1_radial)"/>
<path d="M20.3276 12.9112C20.3276 13.3583 20.6901 13.7207 21.1372 13.7207C21.5842 13.7207 21.9467 13.3583 21.9467 12.9112V6.15049C21.9467 5.7034 21.5842 5.34097 21.1372 5.34097C20.6901 5.34097 20.3276 5.7034 20.3276 6.15049V12.9112Z" fill="#CCCCCC"/>
<defs>
<radialGradient id="paint0_radial" cx="0" cy="0" r="1" gradientUnits="userSpaceOnUse" gradientTransform="translate(11.7531 9.43595) rotate(-90) scale(0.837974 4.04762)">
<stop stop-color="#C4C4C4"/>
<stop offset="1" stop-color="#C4C4C4" stop-opacity="0"/>
</radialGradient>
<radialGradient id="paint1_radial" cx="0" cy="0" r="1" gradientUnits="userSpaceOnUse" gradientTransform="translate(19.2783 9.53084) rotate(-90) scale(4.18987 0.809523)">
<stop stop-color="#C4C4C4"/>
<stop offset="1" stop-color="#C4C4C4" stop-opacity="0"/>
</radialGradient>
</defs>
</svg>
