<svg width="18" height="20" viewBox="0 0 18 20" fill="none" xmlns="http://www.w3.org/2000/svg">
<path d="M15.0488 17.5889L15.6553 4.80957H16.71C17.0703 4.80957 17.3604 4.50195 17.3604 4.1416C17.3604 3.78125 17.0703 3.48242 16.71 3.48242H12.6934V2.16406C12.6934 0.898438 11.8408 0.0898438 10.4873 0.0898438H7.2002C5.84668 0.0898438 5.00293 0.898438 5.00293 2.16406V3.48242H0.995117C0.643555 3.48242 0.344727 3.79004 0.344727 4.1416C0.344727 4.50195 0.643555 4.80957 0.995117 4.80957H2.05859L2.66504 17.5977C2.72656 18.8545 3.55273 19.6631 4.82715 19.6631H12.8867C14.1436 19.6631 14.9873 18.8457 15.0488 17.5889ZM6.40918 2.25195C6.40918 1.75098 6.76953 1.39941 7.30566 1.39941H10.3906C10.9268 1.39941 11.2959 1.75098 11.2959 2.25195V3.48242H6.40918V2.25195ZM4.9502 18.3359C4.44922 18.3359 4.07129 17.958 4.04492 17.4395L3.42969 4.80957H14.249L13.6689 17.4395C13.6426 17.9668 13.2734 18.3359 12.7461 18.3359H4.9502ZM11.4629 16.7979C11.7529 16.7979 11.9639 16.5605 11.9727 16.2266L12.2363 7.00684C12.2451 6.68164 12.0254 6.43555 11.7266 6.43555C11.4541 6.43555 11.2256 6.69043 11.2168 7.00684L10.9531 16.2178C10.9443 16.543 11.1641 16.7979 11.4629 16.7979ZM6.25098 16.7979C6.5498 16.7979 6.76953 16.543 6.76074 16.2178L6.48828 7.00684C6.47949 6.69043 6.25098 6.43555 5.97852 6.43555C5.67969 6.43555 5.45996 6.68164 5.46875 7.00684L5.73242 16.2266C5.74121 16.5605 5.95215 16.7979 6.25098 16.7979ZM8.85254 16.7979C9.14258 16.7979 9.38867 16.543 9.38867 16.2266V7.00684C9.38867 6.69043 9.14258 6.43555 8.85254 6.43555C8.57129 6.43555 8.3252 6.69043 8.3252 7.00684V16.2266C8.3252 16.543 8.57129 16.7979 8.85254 16.7979Z" fill="black"/>
</svg>
