<svg width="30" height="24" viewBox="0 0 30 24" fill="none" xmlns="http://www.w3.org/2000/svg">
<rect x="15.9375" y="8.37036" width="7.5" height="12.09" rx="1" fill="#CF69FF"/>
<rect x="6.5625" y="8.37036" width="7.5" height="12.09" rx="1" fill="#CF69FF"/>
<rect x="12.6543" y="5.30884" width="4.69208" height="11.5863" rx="1.5" fill="#CF69FF"/>
<path d="M14.3484 0.559827C14.7231 0.237859 15.2769 0.237858 15.6516 0.559827L25.9434 9.40148C26.6472 10.0061 26.2196 11.16 25.2918 11.16H4.70821C3.78036 11.16 3.35277 10.0061 4.05656 9.40148L14.3484 0.559827Z" fill="#CF69FF"/>
<path d="M10.3125 15.9504C10.3125 14.8459 11.2079 13.9504 12.3125 13.9504H17.6875C18.7921 13.9504 19.6875 14.8459 19.6875 15.9504V21.2504C19.6875 22.355 18.7921 23.2504 17.6875 23.2504H12.3125C11.2079 23.2504 10.3125 22.355 10.3125 21.2504V15.9504Z" fill="#FBFBFB"/>
<ellipse cx="15" cy="9.30025" rx="2.8125" ry="2.79" fill="#FBFBFB"/>
</svg>
