<svg width="36" height="36" viewBox="0 0 36 36" fill="none" xmlns="http://www.w3.org/2000/svg">
<path d="M25.8718 12.6308C25.8718 10.607 25.0343 8.66605 23.5437 7.235C22.053 5.80395 20.0312 5 17.9231 5C15.8149 5 13.7932 5.80395 12.3025 7.235C10.8118 8.66605 9.97436 10.607 9.97436 12.6308C9.97436 21.5333 6 24.0769 6 24.0769H29.8462C29.8462 24.0769 25.8718 21.5333 25.8718 12.6308Z" fill="white" stroke="white" stroke-width="5" stroke-linecap="round" stroke-linejoin="round"/>
<path d="M20.8894 28.9548C22.0051 28.9548 22.9452 29.8878 22.552 30.932C22.316 31.5588 21.97 32.1284 21.5339 32.6081C21.0977 33.0879 20.5799 33.4685 20.01 33.7281C19.4402 33.9878 18.8294 34.1214 18.2126 34.1214C17.5958 34.1214 16.985 33.9878 16.4151 33.7281C15.8453 33.4685 15.3275 33.0879 14.8913 32.6081C14.4552 32.1284 14.1092 31.5588 13.8732 30.9319C13.48 29.8878 14.4201 28.9548 15.5358 28.9548L18.2126 28.9548H20.8894Z" fill="white"/>
</svg>
