<svg width="32" height="32" viewBox="0 0 32 32" fill="none" xmlns="http://www.w3.org/2000/svg">
<path d="M2.36914 12C2.36914 6.47715 6.84629 2 12.3691 2H20.3691C25.892 2 30.3691 6.47715 30.3691 12V13C30.3691 18.5228 25.892 23 20.3691 23H2.36914V12Z" fill="white"/>
<path d="M7.36914 13C7.36914 11.8954 8.26457 11 9.36914 11C10.4737 11 11.3691 11.8954 11.3691 13C11.3691 14.1046 10.4737 15 9.36914 15C8.26457 15 7.36914 14.1046 7.36914 13Z" fill="#1A1A1A"/>
<path d="M14.3691 13C14.3691 11.8954 15.2646 11 16.3691 11C17.4737 11 18.3691 11.8954 18.3691 13C18.3691 14.1046 17.4737 15 16.3691 15C15.2646 15 14.3691 14.1046 14.3691 13Z" fill="#1A1A1A"/>
<path d="M21.3691 13C21.3691 11.8954 22.2646 11 23.3691 11C24.4737 11 25.3691 11.8954 25.3691 13C25.3691 14.1046 24.4737 15 23.3691 15C22.2646 15 21.3691 14.1046 21.3691 13Z" fill="#1A1A1A"/>
<path d="M3.95471 27.4599C3.37979 28.274 2.09797 27.838 2.13869 26.8422L2.45991 18.9869C2.48227 18.4399 2.94033 18.0125 3.48757 18.0282L8.61047 18.1742C9.4081 18.197 9.85912 19.0989 9.39883 19.7507L3.95471 27.4599Z" fill="white"/>
</svg>
