<svg width="32" height="32" viewBox="0 0 32 32" fill="none" xmlns="http://www.w3.org/2000/svg">
<path d="M27.8295 15.3334C27.8341 17.0932 27.4258 18.8292 26.6381 20.4C25.704 22.2823 24.268 23.8656 22.491 24.9724C20.714 26.0792 18.6661 26.6659 16.5767 26.6667C14.8294 26.6713 13.1057 26.2601 11.546 25.4667L4 28L6.51534 20.4C5.72755 18.8292 5.31931 17.0932 5.32386 15.3334C5.32467 13.229 5.90717 11.1665 7.00612 9.37676C8.10507 7.58703 9.67706 6.14079 11.546 5.20004C13.1057 4.40661 14.8294 3.99545 16.5767 4.00004H17.2386C19.998 4.15336 22.6043 5.32638 24.5584 7.29451C26.5126 9.26264 27.6773 11.8876 27.8295 14.6667V15.3334Z" stroke="white" stroke-width="2" stroke-linecap="round" stroke-linejoin="round"/>
</svg>
