<svg width="32" height="32" viewBox="0 0 32 32" fill="none" xmlns="http://www.w3.org/2000/svg">
<path fill-rule="evenodd" clip-rule="evenodd" d="M16.125 29.25C8.87626 29.25 3 23.3737 3 16.125C3 8.87626 8.87626 3 16.125 3C23.3737 3 29.25 8.87626 29.25 16.125C29.25 23.3737 23.3737 29.25 16.125 29.25ZM16.125 27.9375C22.6489 27.9375 27.9375 22.6489 27.9375 16.125C27.9375 9.60114 22.6489 4.3125 16.125 4.3125C9.60114 4.3125 4.3125 9.60114 4.3125 16.125C4.3125 22.6489 9.60114 27.9375 16.125 27.9375ZM16.1095 25.3125C11.4318 25.3125 6.99229 20.8261 6.99229 17.5838C6.99229 15.723 11.0353 17.9625 16.1095 17.9625C21.1836 17.9625 25.2713 15.7261 25.2577 17.5838C25.2348 20.7258 20.7872 25.3125 16.1095 25.3125ZM16.1095 21.1781C20.4587 21.1781 23.4674 19.4968 23.4674 18.2842C23.4674 17.0717 20.4587 19.0072 16.1095 19.0072C11.7602 19.0072 8.8015 17.304 8.8015 18.2842C8.8015 19.2645 11.7602 21.1781 16.1095 21.1781ZM12.1711 13.7953C11.3103 13.7953 10.6125 13.0975 10.6125 12.2367C10.6125 11.3759 11.3103 10.6781 12.1711 10.6781C13.0319 10.6781 13.7297 11.3759 13.7297 12.2367C13.7297 13.0975 13.0319 13.7953 12.1711 13.7953ZM20.0461 13.7953C19.1853 13.7953 18.4875 13.0975 18.4875 12.2367C18.4875 11.3759 19.1853 10.6781 20.0461 10.6781C20.9069 10.6781 21.6047 11.3759 21.6047 12.2367C21.6047 13.0975 20.9069 13.7953 20.0461 13.7953Z" fill="white"/>
</svg>
