<svg width="32" height="32" viewBox="0 0 32 32" fill="none" xmlns="http://www.w3.org/2000/svg">
<path fill-rule="evenodd" clip-rule="evenodd" d="M15.8662 3C13.4465 3 11.4758 4.9646 11.4758 7.38807V17.55C11.4758 19.9738 13.4414 21.9381 15.8662 21.9381C18.286 21.9381 20.2565 19.9735 20.2565 17.55V7.38807C20.2565 4.96427 18.2909 3 15.8662 3ZM13.3574 7.38222V17.5558C13.3574 18.926 14.4806 20.0557 15.8662 20.0557C17.2614 20.0557 18.3749 18.9365 18.3749 17.5558V7.38222C18.3749 6.01205 17.2517 4.88241 15.8662 4.88241C14.4709 4.88241 13.3574 6.00161 13.3574 7.38222Z" fill="white"/>
<path d="M16.8947 27.1176V24.4937C21.6842 24.2198 23.7368 20.2913 23.7368 16.4524V14.6824C23.7377 14.6685 23.7375 14.6546 23.7372 14.6407L23.7368 14.6196C23.7368 14.0997 23.3122 13.6783 22.7927 13.6783C22.273 13.6783 21.8621 14.0997 21.8621 14.6196V16.4514C21.8621 20.2908 20.3158 22.9193 15.9369 22.9193C12.1053 22.9193 9.88158 20.2908 9.88158 16.4514V14.6824C9.88158 14.1625 9.4603 13.7412 8.94079 13.7412C8.42128 13.7412 8 14.1625 8 14.6824V16.4524C8 20.2956 10.7368 24.2198 14.9789 24.4937V27.1176H11.4528C10.94 27.1176 10.5088 27.539 10.5088 28.0588C10.5088 28.5822 10.9314 29 11.4528 29H20.3158C20.8286 29 21.2736 28.5786 21.2736 28.0588C21.2736 27.5354 20.8371 27.1176 20.3158 27.1176H16.8947Z" fill="white"/>
</svg>
