<svg width="32" height="32" viewBox="0 0 32 32" fill="none" xmlns="http://www.w3.org/2000/svg">
<g clip-path="url(#clip0)">
<path fill-rule="evenodd" clip-rule="evenodd" d="M2.37599 15.8643C0.683694 17.2843 0.462956 19.8073 1.88296 21.4996L2.6138 22.3706C4.2524 21.1691 6.56491 21.4304 7.88981 23.0094C9.21473 24.5883 9.07057 26.9111 7.60269 28.3161L8.27847 29.1215C9.69847 30.8138 12.2215 31.0345 13.9138 29.6145L29.7858 16.2963C31.4781 14.8763 31.6988 12.3533 30.2788 10.661L29.642 9.90214C28.0139 10.991 25.7926 10.7012 24.5046 9.16629C23.2166 7.63135 23.3169 5.3935 24.6721 3.97915L23.8833 3.03916C22.4633 1.34686 19.9403 1.12612 18.248 2.54613L2.37599 15.8643ZM14.8581 5.94257C14.4351 6.29757 14.3799 6.92833 14.7349 7.35141L24.4871 18.9737C24.8421 19.3968 25.4729 19.4519 25.896 19.0969C26.319 18.7419 26.3742 18.1112 26.0192 17.6881L16.267 6.06583C15.912 5.64276 15.2812 5.58757 14.8581 5.94257Z" fill="white"/>
</g>
<defs>
<clipPath id="clip0">
<rect width="32" height="32" fill="white"/>
</clipPath>
</defs>
</svg>
